<svg width="262" height="166" viewBox="0 0 262 166" fill="none" xmlns="http://www.w3.org/2000/svg">
<g filter="url(#filter0_d_27_30)">
<rect x="4" width="254" height="158" rx="10" fill="url(#paint0_linear_27_30)"/>
</g>
<rect x="41.0615" y="47.4683" width="32.6304" height="22.5038" rx="4.75" fill="url(#paint1_linear_27_30)" stroke="black" stroke-width="0.5"/>
<line x1="50.2644" y1="47.2183" x2="50.2644" y2="70.2221" stroke="black" stroke-width="0.5"/>
<line x1="40.8115" y1="54.8379" x2="50.0144" y2="54.8379" stroke="black" stroke-width="0.5"/>
<line x1="40.8115" y1="62.1025" x2="50.0144" y2="62.1025" stroke="black" stroke-width="0.5"/>
<line x1="65.6025" y1="55.0879" x2="65.6025" y2="70.222" stroke="black" stroke-width="0.5"/>
<line x1="65.3525" y1="54.8379" x2="73.9419" y2="54.8379" stroke="black" stroke-width="0.5"/>
<line x1="65.3525" y1="62.1025" x2="73.9419" y2="62.1025" stroke="black" stroke-width="0.5"/>
<path d="M30.4133 56.4574C30.8399 56.1066 30.8968 55.4802 30.5405 55.0583C30.1841 54.6363 29.5494 54.5786 29.1228 54.9294L30.4133 56.4574ZM26.7322 59.4842L30.4133 56.4574L29.1228 54.9294L25.4417 57.9562L26.7322 59.4842Z" fill="#FFF1F1" fill-opacity="0.7"/>
<path d="M29.1228 62.511C29.5494 62.8618 30.1841 62.8041 30.5405 62.3822C30.8968 61.9602 30.8399 61.3338 30.4133 60.9831L29.1228 62.511ZM25.4417 59.4842L29.1228 62.511L30.4133 60.9831L26.7322 57.9562L25.4417 59.4842Z" fill="#FFF1F1" fill-opacity="0.7"/>
<ellipse cx="26.0869" cy="58.7201" rx="0.613527" ry="0.605364" fill="#FFF1F1" fill-opacity="0.7"/>
<defs>
<filter id="filter0_d_27_30" x="0" y="0" width="262" height="166" filterUnits="userSpaceOnUse" color-interpolation-filters="sRGB">
<feFlood flood-opacity="0" result="BackgroundImageFix"/>
<feColorMatrix in="SourceAlpha" type="matrix" values="0 0 0 0 0 0 0 0 0 0 0 0 0 0 0 0 0 0 127 0" result="hardAlpha"/>
<feOffset dy="4"/>
<feGaussianBlur stdDeviation="2"/>
<feComposite in2="hardAlpha" operator="out"/>
<feColorMatrix type="matrix" values="0 0 0 0 0 0 0 0 0 0 0 0 0 0 0 0 0 0 0.25 0"/>
<feBlend mode="normal" in2="BackgroundImageFix" result="effect1_dropShadow_27_30"/>
<feBlend mode="normal" in="SourceGraphic" in2="effect1_dropShadow_27_30" result="shape"/>
</filter>
<linearGradient id="paint0_linear_27_30" x1="258" y1="79" x2="4" y2="79" gradientUnits="userSpaceOnUse">
<stop offset="0.23" stop-color="#BCBDBA"/>
<stop offset="0.495" stop-color="#B4B5B2"/>
<stop offset="1" stop-color="#7C7E79"/>
</linearGradient>
<linearGradient id="paint1_linear_27_30" x1="73.942" y1="58.7202" x2="40.8115" y2="58.7202" gradientUnits="userSpaceOnUse">
<stop stop-color="#6A5E5E"/>
<stop offset="0.215" stop-color="#8B7B7B"/>
<stop offset="0.43" stop-color="#A29090"/>
<stop offset="0.815" stop-color="#D0B9B9"/>
</linearGradient>
</defs>
</svg>
