<svg width="198" height="255" viewBox="0 0 198 255" fill="none" xmlns="http://www.w3.org/2000/svg">
<circle cx="99" cy="146.232" r="97.5" fill="white" stroke="black" stroke-width="3"/>
<line x1="86.6659" y1="126.699" x2="113.119" y2="128.303" stroke="black" stroke-width="3"/>
<path d="M101.431 132.227L110.226 140.719C112.491 142.905 110.943 146.737 107.795 146.737H90.204C87.056 146.737 85.5083 142.905 87.773 140.719L96.5688 132.227C97.925 130.918 100.074 130.918 101.431 132.227Z" fill="#54DD13" stroke="black" stroke-width="3"/>
<path d="M57.6792 113.965C57.1689 114.016 56.6987 114.298 56.1914 114.384C55.178 114.555 54.1979 114.84 53.1724 115.005C50.8605 115.377 48.5976 116.274 46.2677 116.594C44.7511 116.802 43.3163 117.439 41.8186 117.706C40.9563 117.86 40.0922 117.957 39.3197 118.414C38.3966 118.96 37.1625 119.717 36.4884 120.545C35.7636 121.434 34.6571 122.471 34.2856 123.585C34.1365 124.033 33.7907 124.282 33.5706 124.69C33.3088 125.176 33.1484 126.041 33.1083 126.575C32.9941 128.098 32.9966 129.366 33.3394 130.866C33.416 131.2 33.302 131.504 33.4983 131.805C33.788 132.248 34.0642 132.698 34.3506 133.141C35.0216 134.178 36.3708 134.447 37.3985 134.961C38.3271 135.425 39.3577 135.976 40.3886 136.167C42.0129 136.468 43.4782 137.394 45.0977 137.655C45.637 137.742 46.1188 138.012 46.6577 138.117C47.405 138.263 48.04 138.671 48.7667 138.803C49.1355 138.87 49.5177 138.999 49.879 139.114C50.3666 139.269 50.884 139.127 51.3812 139.193C52.4726 139.339 53.5559 139.316 54.6602 139.316C56.598 139.316 58.2803 139.695 60.1493 140.11C60.6666 140.225 61.0051 140.356 61.5794 140.356C62.0826 140.356 62.5857 140.356 63.0889 140.356C64.3875 140.356 65.4725 139.97 66.7146 139.648C68.3982 139.212 70.0204 138.685 71.727 138.334C73.0963 138.052 74.3019 137.537 75.6199 137.106C76.9702 136.664 78.1575 135.957 79.2601 135.055C80.394 134.127 81.7478 133.47 82.7557 132.368C83.6369 131.404 84.21 129.762 84.583 128.518C84.8 127.795 84.9623 126.986 84.8214 126.229C84.6408 125.258 84.5424 124.226 84.0414 123.354C83.4168 122.267 82.763 121.24 81.6579 120.581C80.7403 120.033 79.7755 119.557 78.8484 119.021C77.1813 118.056 75.5092 117.313 73.6337 116.832C72.0015 116.414 70.4793 115.745 68.8597 115.323C67.5881 114.991 66.5228 114.485 65.1762 114.485C64.5451 114.485 63.9423 114.355 63.3128 114.355C62.7424 114.355 62.1735 114.42 61.6372 114.225C60.8402 113.935 59.7587 113.835 58.9071 113.835C57.8914 113.835 56.8944 113.575 55.8592 113.575" stroke="black" stroke-width="3" stroke-linecap="round"/>
<path d="M85.6296 126.835C87.1357 126.835 88.6132 127.076 90.1076 127.095C91.6147 127.114 93.062 126.835 94.5566 126.835C95.877 126.835 97.4323 126.613 98.7312 126.893C100.207 127.21 101.664 127.705 103.13 128.063C104.337 128.358 105.564 128.534 106.755 128.843C107.859 129.129 108.932 128.915 110.042 128.915C111.213 128.915 112.289 128.785 113.451 128.785" stroke="black" stroke-width="3" stroke-linecap="round"/>
<path d="M120.861 119.685C119.899 119.685 119.31 120.488 118.846 121.31C118.344 122.198 117.551 123.129 116.86 123.874C115.705 125.118 115.31 126.37 115.271 128.034C115.251 128.881 115.125 129.557 115.661 130.323C116.135 131.001 116.827 131.474 117.322 132.093C118.206 133.198 119.719 134.12 121.071 134.57C122.169 134.936 123.196 135.451 124.299 135.805C124.924 136.006 125.567 136.13 126.191 136.325C127.315 136.676 128.499 136.743 129.629 137.033C130.963 137.376 132.205 137.973 133.587 138.145C134.924 138.313 136.278 138.388 137.603 138.637C138.991 138.897 140.389 138.668 141.778 138.86C143.898 139.155 145.809 138.535 147.895 138.535C148.891 138.535 149.721 138.374 150.69 138.145C151.739 137.898 152.791 137.664 153.839 137.416C155.744 136.966 157.493 136.179 159.343 135.574C161.22 134.961 162.876 134.193 164.572 133.147C165.221 132.747 165.742 132.157 166.363 131.71C167.073 131.2 167.594 130.693 167.981 129.897C168.193 129.462 168.551 128.852 168.674 128.395C168.781 128.001 168.672 127.557 168.71 127.153C168.803 126.176 168.833 125.222 168.833 124.235C168.833 123.17 168.308 122.46 167.598 121.707C166.852 120.916 165.725 119.977 164.673 119.656C162.278 118.924 159.817 118.242 157.458 117.352C155.554 116.634 153.724 115.657 151.701 115.322C150.957 115.199 150.347 114.911 149.636 114.745C148.404 114.456 147.227 114.354 145.967 114.354C143.699 114.354 141.431 114.354 139.163 114.354C138.078 114.354 137.084 114.557 136.014 114.687C134.848 114.828 133.641 114.745 132.468 114.745C131.618 114.745 130.768 114.745 129.918 114.745C129.353 114.745 128.915 114.965 128.373 115.005C126.893 115.112 125.725 115.855 124.53 116.666C123.821 117.147 123.048 117.475 122.364 117.995C121.565 118.601 120.744 119.188 119.922 119.757C119.615 119.97 119.5 120.341 119.164 120.53C118.862 120.7 118.543 120.941 118.391 121.245" stroke="black" stroke-width="3" stroke-linecap="round"/>
<path d="M55.0771 122.824C54.7343 122.824 54.5812 122.79 54.3874 123.113C54.0892 123.61 53.8404 124.136 53.5354 124.627C53.1103 125.312 53.0879 126.34 53.292 127.08C53.4698 127.724 53.7419 128.335 53.878 128.991C54.0173 129.662 54.7295 130.088 55.2079 130.497C55.9098 131.096 57.0722 131.654 58.0163 131.669C58.8606 131.682 59.8188 131.799 60.6308 131.547C61.4386 131.296 62.2518 131.048 62.9659 130.596C64.4996 129.625 65.2218 128.122 65.5444 126.394C65.6755 125.693 65.5615 125.143 65.283 124.492C65.0497 123.946 64.9075 123.075 64.5212 122.621C63.8612 121.847 63.1859 121.526 62.2176 121.328C61.1291 121.105 60.1714 120.742 59.0396 120.922C58.5415 121.001 58.0741 121.123 57.597 121.282C57.2666 121.393 57.0234 121.697 56.7 121.85C55.9344 122.213 55.3284 122.714 54.9239 123.478C54.5565 124.172 54.4792 125.729 54.7706 126.457C55.0153 127.069 55.5458 127.655 56.2357 127.688C57.2973 127.739 58.3618 127.439 59.3641 127.125C60.4101 126.797 61.5578 126.379 62.1004 125.34C62.6066 124.369 62.7238 123.003 61.7849 122.247C60.8336 121.481 59.2205 121.631 58.3634 122.45C56.9708 123.78 55.0636 127.328 57.2409 128.856C59.0958 130.157 62.6657 129.061 63.1688 126.755C63.388 125.75 62.4148 125.062 61.5369 125.024C59.4973 124.935 57.7649 125.644 56.5287 127.341C56.0528 127.994 55.9397 128.789 56.4565 129.442C57.1825 130.359 58.1795 129.744 58.9269 129.248C60.2018 128.402 61.649 127.345 62.1094 125.804C62.2806 125.231 62.6022 124.411 61.7849 124.258C60.3419 123.987 58.6537 124.835 57.5384 125.664C57.1381 125.962 55.6268 127.251 56.2717 127.895C57.0067 128.63 58.7665 127.843 59.5174 127.589C60.3442 127.309 61.3739 127.028 62.0553 126.448C62.4035 126.152 62.4178 125.625 62.443 125.204C62.4734 124.698 62.6506 123.576 61.9562 123.41C61.7891 123.37 61.596 123.473 61.5189 123.473C61.4215 123.473 61.127 123.392 61.1493 123.392C62.2544 123.392 63.3604 123.898 64.4625 124.023C64.8894 124.072 65.1387 124.534 65.1387 124.974C65.1387 125.626 63.8357 124.578 63.8044 124.555C63.2993 124.191 62.8247 123.746 62.2266 123.536C61.8609 123.408 61.4774 123.369 61.0997 123.293C60.5413 123.18 60.0454 122.925 59.5039 122.766C59.3141 122.71 58.8908 122.658 58.8908 122.905" stroke="black" stroke-width="3" stroke-linecap="round"/>
<path d="M138.987 122.932C138.644 122.932 138.491 122.897 138.298 123.22C137.999 123.717 137.751 124.244 137.446 124.735C137.02 125.42 136.998 126.447 137.202 127.187C137.38 127.832 137.652 128.443 137.788 129.099C137.927 129.77 138.64 130.196 139.118 130.604C139.82 131.203 140.982 131.761 141.926 131.776C142.771 131.79 143.729 131.907 144.541 131.655C145.349 131.404 146.162 131.155 146.876 130.703C148.41 129.733 149.132 128.229 149.455 126.502C149.586 125.801 149.472 125.251 149.193 124.6C148.96 124.054 148.818 123.183 148.431 122.729C147.771 121.954 147.096 121.633 146.128 121.435C145.039 121.213 144.082 120.849 142.95 121.029C142.452 121.109 141.984 121.231 141.507 121.39C141.177 121.5 140.934 121.805 140.61 121.958C139.845 122.321 139.239 122.821 138.834 123.585C138.467 124.279 138.389 125.837 138.681 126.565C138.925 127.177 139.456 127.763 140.146 127.796C141.207 127.846 142.272 127.547 143.274 127.232C144.32 126.904 145.468 126.487 146.011 125.447C146.517 124.477 146.634 123.111 145.695 122.355C144.744 121.589 143.131 121.739 142.274 122.558C140.881 123.888 138.974 127.435 141.151 128.963C143.006 130.265 146.576 129.169 147.079 126.863C147.298 125.858 146.325 125.17 145.447 125.132C143.407 125.043 141.675 125.752 140.439 127.449C139.963 128.102 139.85 128.896 140.367 129.549C141.093 130.466 142.09 129.852 142.837 129.356C144.112 128.509 145.559 127.452 146.02 125.912C146.191 125.339 146.512 124.519 145.695 124.365C144.252 124.095 142.564 124.943 141.449 125.772C141.048 126.069 139.537 127.358 140.182 128.003C140.917 128.738 142.677 127.951 143.428 127.697C144.254 127.417 145.284 127.135 145.965 126.556C146.314 126.26 146.328 125.733 146.353 125.312C146.384 124.805 146.561 123.684 145.866 123.518C145.699 123.478 145.506 123.581 145.429 123.581C145.332 123.581 145.037 123.5 145.059 123.5C146.165 123.5 147.271 124.005 148.373 124.131C148.8 124.18 149.049 124.642 149.049 125.082C149.049 125.734 147.746 124.685 147.715 124.663C147.209 124.299 146.735 123.854 146.137 123.644C145.771 123.516 145.388 123.477 145.01 123.401C144.451 123.287 143.956 123.032 143.414 122.873C143.224 122.817 142.801 122.766 142.801 123.013" stroke="black" stroke-width="3" stroke-linecap="round"/>
<path d="M57.1783 55.8367C56.4235 55.7612 56.0462 54.4453 55.7987 53.8588C55.3786 52.8629 54.9195 51.8684 54.5189 50.8669C54.0114 49.5982 53.7377 47.9626 53.7377 46.5951C53.7377 46.1261 53.4385 45.8174 53.4385 45.3319C53.4385 44.8942 53.4385 44.4565 53.4385 44.0188C53.4385 43.1568 53.476 42.5599 53.7377 41.7749" stroke="#49CC47" stroke-width="3" stroke-linecap="round"/>
<path d="M67.9812 45.397C67.9812 45.6318 66.846 45.7318 66.7002 45.7607C65.4115 46.0164 64.0206 46.2984 62.699 46.2984C62.2654 46.2984 61.7918 46.5006 61.36 46.5726C60.9815 46.6356 60.531 46.6721 60.1791 46.8177C59.7669 46.9882 59.279 46.9309 58.8507 47.0365C58.4058 47.1461 57.961 47.1999 57.4958 47.1999" stroke="#49CC47" stroke-width="9" stroke-linecap="round"/>
<path d="M87.4924 243.726C88.0366 243.658 87.6799 242.146 87.775 241.718C88.0464 240.497 88.058 240.246 89.3661 240.246C92.9266 240.246 96.4209 239.71 99.9541 239.71C102.809 239.71 105.664 239.71 108.52 239.71C108.956 239.71 110.968 239.449 111.048 239.978C111.168 240.783 111.776 241.341 111.866 242.149C112 243.358 112.386 244.336 112.386 245.599" stroke="black" stroke-width="3" stroke-linecap="round"/>
<path d="M75.6874 250.737C75.7858 248.572 76.9676 246.3 78.0933 244.479C78.6099 243.643 78.9704 243.073 79.215 242.129C79.5884 240.689 77.5342 244.586 76.7457 245.847C76.6732 245.963 76.0846 247.246 76.0684 246.503C76.0336 244.901 76.1475 243.29 75.9837 241.692C75.881 240.689 75.6891 239.45 74.9325 238.693C74.7064 238.467 74.5631 239.566 74.5445 239.646C74.2115 241.063 73.8811 242.476 73.8107 243.935C73.7637 244.91 73.7825 245.888 73.7825 246.863C73.7825 248.119 73.8763 244.352 74.0012 243.103C74.1569 241.546 74.3655 239.964 74.6997 238.432C74.7459 238.221 74.7494 238.865 74.735 239.081C74.5793 241.416 75.042 244.409 76.3506 246.419C76.4573 246.583 76.7456 247.38 76.788 247.315C76.9803 247.018 78.1989 244.632 78.2273 245.897C78.2624 247.459 78.347 249.087 78.9893 250.532C79.0563 250.683 79.1471 250.259 78.9611 250.073C78.7703 249.883 78.5163 249.643 78.2344 249.615C78.0961 249.601 77.6715 249.866 77.931 249.96C78.7786 250.269 80.1599 249.61 81.0212 249.467" stroke="#EF0404" stroke-width="3" stroke-linecap="round"/>
<path d="M81.2754 250.482C81.4229 250.851 81.4709 251.563 81.9386 251.724C82.3233 251.857 82.8537 251.861 83.0533 252.26" stroke="#EF0404" stroke-width="3" stroke-linecap="round"/>
<path d="M89.7837 242.228C89.7837 242.884 90.092 243.489 90.1717 244.126C90.2059 244.4 90.2916 244.602 90.2916 244.895C90.2916 245.197 90.5456 245.234 90.5456 245.467C90.5456 246.382 90.6726 247.234 90.6726 248.134C90.6726 248.526 90.6726 248.919 90.6726 249.312C90.6726 249.852 90.3111 250.289 90.2916 250.836C90.2764 251.262 90.3229 252.986 89.8824 253.122C89.0858 253.367 89.9725 251.175 90.0306 250.913C90.1685 250.293 90.1612 249.655 90.2987 249.037C90.3657 248.735 90.2924 248.006 90.4892 247.753C91.1375 246.919 92.8315 246.684 92.8315 245.46C92.8315 244.968 92.945 244.689 92.5634 244.451C92.0548 244.133 91.0536 244.41 91.0536 243.569C91.0536 243.204 90.7203 243.158 90.8631 243.047C91.4055 242.625 92.5408 242.99 93.2125 242.99C94.574 242.99 95.9336 242.863 97.2763 242.863C99.8896 242.863 102.515 242.609 105.15 242.609C105.978 242.609 106.703 242.228 107.492 242.228C108.06 242.228 108.452 242.044 108.452 242.708C108.452 243.352 108.442 244.175 108.706 244.768C108.974 245.372 108.96 246.304 108.96 246.955C108.96 247.63 109.203 248.435 109.059 249.086C108.853 250.011 108.579 251.071 108.579 252.007" stroke="#EF0404" stroke-width="3" stroke-linecap="round"/>
<path d="M127.849 234.825C127.256 235.036 126.884 235.365 126.416 235.797C125.528 236.617 124.66 237.461 123.777 238.285C121.923 240.015 120.245 241.909 118.752 243.961C118.389 244.459 117.976 245.011 117.761 245.599C117.573 246.11 118.067 245.616 118.149 245.526C119.097 244.498 119.9 243.31 120.725 242.188C121.906 240.58 123.169 238.999 124.253 237.323C124.301 237.249 124.371 237.178 124.379 237.09C124.398 236.9 124.109 237.359 123.991 237.508C123.228 238.465 122.498 239.443 121.702 240.375C120.008 242.358 117.958 244.082 116.41 246.182C116.378 246.226 115.614 247.203 115.826 247.324C115.998 247.422 116.699 245.838 116.74 245.759" stroke="#EF0404" stroke-width="3" stroke-linecap="round"/>
<path d="M118.751 241.473C118.197 241.741 117.854 242.345 117.4 242.747C116.964 243.132 116.475 243.448 116.04 243.835" stroke="#EF0404" stroke-width="3" stroke-linecap="round"/>
<path d="M116.215 242.085C115.617 242.81 114.976 243.589 114.505 244.403C114.233 244.873 114.839 244.257 114.903 244.185" stroke="#EF0404" stroke-width="3" stroke-linecap="round"/>
<path d="M117.265 241.036C117.427 241 117.599 240.769 117.726 240.676C118.225 240.314 118.744 240.026 119.32 239.811C119.811 239.628 120.236 239.392 120.676 239.111C121.325 238.699 121.988 238.498 122.727 238.304C123.191 238.183 123.636 238.049 124.073 237.853C124.269 237.765 123.729 238.109 123.553 238.232C122.758 238.785 121.953 239.321 121.123 239.821C120.945 239.928 120.133 240.629 120.735 240.171C122.187 239.063 123.635 237.988 125.147 236.958C126.576 235.986 128.186 235.053 129.317 233.717C129.362 233.663 129.572 233.403 129.365 233.61C128.853 234.123 128.39 234.665 127.8 235.097C127.764 235.124 127.037 235.693 127.329 235.326C128.395 233.985 129.578 232.86 130.983 231.87C131.628 231.416 132.309 230.913 133.02 230.558C133.36 230.388 132.474 231.098 132.262 231.414C131.936 231.897 131.351 232.893 132.383 232.211C132.977 231.818 133.547 231.373 134.118 230.947C134.131 230.938 134.475 230.589 134.322 230.83C134.085 231.202 133.867 231.585 133.632 231.958C133.128 232.759 132.6 233.527 132.378 234.461C132.218 235.132 132.464 234.721 132.689 234.383C133.167 233.666 133.618 232.932 134.089 232.211C134.161 232.099 134.617 231.279 134.497 231.841C134.299 232.765 134.614 233.52 134.803 234.402C135.171 236.119 134.922 237.887 135.206 239.617C135.461 241.168 135.971 242.656 136.295 244.189C136.507 245.191 136.912 246.198 136.941 247.227C136.973 248.336 137.034 249.441 137.034 250.551C137.034 251.124 137.044 251.558 137.252 252.091C137.318 252.259 137.455 252.887 137.345 252.349C136.837 249.876 136.946 247.202 136.946 244.695C136.946 242.425 136.946 240.156 136.946 237.887C136.946 236.865 136.689 236.016 136.514 235.024C136.314 233.892 136.246 232.827 136.246 231.676C136.246 231.172 136.653 231.863 136.771 231.972C137.159 232.332 137.277 232.735 137.384 233.25C137.484 233.736 137.646 234.152 137.646 234.65C137.646 235.03 137.558 235.392 137.558 235.768C137.558 237.021 137.969 238.103 138.171 239.335C138.318 240.237 138.258 241.169 138.258 242.08C138.258 242.6 138.31 243.153 138.239 243.669C138.132 244.445 137.651 245.214 137.34 245.924C136.692 247.405 135.842 248.769 135.07 250.181C134.725 250.813 133.983 251.381 133.306 251.63C131.164 252.415 129.081 252.582 126.819 252.582C125.897 252.582 124.97 252.557 124.049 252.587C123.21 252.614 122.418 252.829 121.57 252.738C120.869 252.662 120.14 252.418 119.447 252.271C118.461 252.062 117.12 251.514 116.128 251.97C115.228 252.383 115.673 250.985 115.744 250.526C115.899 249.513 116.008 248.484 116.215 247.479C116.281 247.158 116.37 246.845 116.468 246.532C116.5 246.428 116.531 246.13 116.584 246.226C116.767 246.555 116.652 247.232 116.652 247.581C116.652 248.423 116.577 249.307 116.701 250.142C116.705 250.172 116.77 250.643 116.915 250.551C117.05 250.465 117.19 250.179 117.26 250.07C117.631 249.492 118.003 248.916 118.382 248.344C119.969 245.955 121.74 243.591 122.936 240.972C122.99 240.853 123.301 239.794 122.97 240.608C122.572 241.588 122.237 242.602 121.925 243.611C121.194 245.978 119.352 253.181 120.015 250.794C121.278 246.248 122.751 241.455 125.356 237.483C125.833 236.756 126.435 236.097 126.867 235.34C127.517 234.202 125.493 237.572 124.792 238.679C123.877 240.125 122.882 241.618 122.28 243.232C122.272 243.253 121.766 244.737 122.144 244.69C122.244 244.677 122.372 244.44 122.387 244.418C122.856 243.695 123.308 243.003 123.859 242.333C125.964 239.774 128.356 237.568 130.935 235.505C131.121 235.356 132.151 234.687 132.028 234.271C131.98 234.107 130.305 235.269 130.259 235.301C129.104 236.109 128.036 236.998 127.086 238.042C126.885 238.263 126.665 238.497 126.488 238.742C126.459 238.782 126.567 238.682 126.6 238.645C127.673 237.423 129.009 236.442 130.357 235.544C131.454 234.813 132.59 234.136 133.821 233.654C133.829 233.651 134.715 233.289 134.895 233.338C134.978 233.36 134.756 233.438 134.691 233.493C134.294 233.833 133.94 234.216 133.593 234.606C132.442 235.898 131.309 237.208 130.162 238.504C129.757 238.961 128.67 240.435 128.996 239.918C129.787 238.661 130.915 237.517 132.135 236.681C132.665 236.318 134.118 235.3 133.899 235.904C133.828 236.1 133.656 236.245 133.506 236.39C132.853 237.018 131.633 237.95 130.959 238.45C128.84 240.024 126.611 241.445 124.506 243.038C124.408 243.112 124.167 243.392 124.258 243.31C125.343 242.328 126.463 241.43 127.713 240.657C129.078 239.811 130.562 239.065 132.125 238.664C132.394 238.595 132.492 238.595 132.32 238.849C131.884 239.491 131.314 240.066 130.745 240.588C129.102 242.099 127.217 243.299 125.453 244.656C125.163 244.879 123.835 245.694 123.835 246.231C123.835 246.548 124.295 245.794 124.525 245.574C126.012 244.156 127.883 243.13 129.793 242.406C130.582 242.107 131.507 241.829 132.32 241.59C132.605 241.506 133.581 241.091 133.958 241.138C134.317 241.183 133.533 241.727 133.282 241.988C132.435 242.866 131.53 243.668 130.561 244.408C129.255 245.405 127.836 246.234 126.508 247.198C126.34 247.319 125.862 247.594 126.066 247.635C126.101 247.642 126.137 247.615 126.168 247.596C126.458 247.416 126.724 247.199 127.003 247.003C128.792 245.75 130.598 244.464 132.539 243.456C132.564 243.442 134.565 242.463 134.414 242.809C133.81 244.195 132.806 245.45 131.814 246.571C131.158 247.313 130.449 247.999 129.754 248.704C129.739 248.719 128.9 249.476 128.957 249.613C128.993 249.699 131.501 247.949 131.63 247.858C132.398 247.316 133.17 246.779 133.982 246.303C134.025 246.278 134.86 245.727 135.031 245.798C135.442 245.968 133.862 248.961 133.758 249.137C133.228 250.035 132.579 250.851 131.96 251.688C131.749 251.974 131.443 252.319 131.299 252.66C131.091 253.154 132.086 251.931 132.466 251.552C132.584 251.434 134.051 249.77 134.264 249.948C134.527 250.169 133.223 252.335 133.058 252.757C132.788 253.451 134.269 252.011 134.351 251.921C134.666 251.577 134.96 251.222 135.07 250.765C135.929 247.206 132.835 244.373 132.835 240.909C132.835 240.811 132.779 240.236 132.767 240.297C132.575 241.276 132.508 242.387 132.456 243.378C132.377 244.885 132.476 246.476 133.195 247.834C133.227 247.896 134.176 249.363 134.317 249.069C134.686 248.3 134.054 246.765 133.846 246.051C133.077 243.412 131.869 240.955 130.58 238.538C130.477 238.345 130.021 237.518 129.89 237.235C129.886 237.226 129.627 236.73 129.832 236.706C130.32 236.648 131.01 239.754 131.085 239.971C131.666 241.645 132.427 243.191 133.953 244.185C134.596 244.603 134.787 244.531 134.827 243.806C134.883 242.813 134.857 241.806 134.842 240.812C134.838 240.565 134.965 239.344 134.711 239.126C134.519 238.962 134.434 239.557 134.371 239.801C133.994 241.244 133.704 242.728 133.574 244.214C133.547 244.518 133.437 245.37 133.622 245.127C133.717 245.004 133.557 244.582 133.54 244.52C133.317 243.728 133.052 242.945 132.796 242.163C132.748 242.017 131.814 239.033 131.673 239.087C131.549 239.135 131.61 240.103 131.61 240.122C131.607 241.081 131.61 242.04 131.61 242.999C131.61 244.923 131.61 246.848 131.61 248.772C131.61 249.141 131.793 250.15 131.591 250.531C131.535 250.636 131.393 250.303 131.387 250.288C131.122 249.663 130.951 248.977 130.838 248.31C130.768 247.899 130.736 247.488 130.736 247.071C130.736 246.32 130.747 248.575 130.716 249.326C130.692 249.897 130.569 250.42 130.483 250.978C130.417 251.408 130.288 250.538 130.284 250.517C129.985 249.127 129.744 247.719 129.53 246.313C129.421 245.59 129.363 244.847 129.21 244.131C129.116 243.694 129.023 244.055 128.986 244.282C128.684 246.138 128.553 248.173 128.792 250.04C128.796 250.076 128.994 251.513 129.287 251.513C129.418 251.513 129.506 249.854 129.506 249.846C129.636 248.148 129.517 246.474 129.171 244.807C129.11 244.515 128.943 243.705 128.831 243.981C128.37 245.117 128.086 246.45 127.771 247.635C127.479 248.735 127.078 252.133 127.276 251.012C127.382 250.407 127.017 249.569 126.867 249.005C126.64 248.15 126.457 247.203 125.963 246.449C125.785 246.176 125.739 246.415 125.711 246.644C125.599 247.556 125.507 248.529 125.507 249.448C125.507 249.645 125.47 250.512 125.75 250.638C125.943 250.725 126.432 248.589 126.449 248.519C126.815 247.09 127.211 245.67 127.601 244.248C127.668 244.003 127.905 243.31 127.932 243.563C128.004 244.248 127.835 245.027 127.703 245.691C127.466 246.887 127.213 248.235 126.712 249.355C126.466 249.905 125.912 250.255 125.312 250.288C124.461 250.336 124.401 249.334 124.263 248.714C124.1 247.985 123.984 248.048 123.631 248.714C123.231 249.468 122.809 250.338 122.698 251.197C122.667 251.438 122.679 251.438 122.746 251.182C123.047 250.034 123.224 248.88 123.281 247.693C123.291 247.475 123.271 246.897 123.121 247.057C122.954 247.233 122.857 247.526 122.746 247.732C122.468 248.251 122.153 248.75 121.891 249.277C121.669 249.725 121.463 250.216 121.463 250.726C121.463 250.981 121.552 250.581 121.551 250.522C121.538 249.85 121.444 249.127 121.206 248.495C121.013 247.985 120.768 248.418 120.608 248.689C120.259 249.283 119.853 249.87 119.597 250.512C119.542 250.651 119.532 251.247 119.432 251.338C119.368 251.397 118.395 251.152 118.314 251.095C118.301 251.085 118.019 250.985 118.033 251.012C118.159 251.266 119.823 251.217 120.025 251.236C120.915 251.32 121.804 251.707 122.688 251.707C122.721 251.707 122.117 251.619 122.09 251.615C121.229 251.477 120.567 251.583 119.729 251.78C119.228 251.898 118.704 251.879 118.217 252.057C117.979 252.145 117.775 252.326 117.527 252.388C117.184 252.473 116.863 252.635 116.512 252.669C115.982 252.721 115.456 253.107 114.947 253.107C114.557 253.107 113.975 252.763 113.941 252.3C113.875 251.407 113.241 250.591 113.241 249.695C113.241 248.847 112.891 248.202 112.891 247.377C112.891 246.968 112.891 246.558 112.891 246.148C112.891 245.595 113.061 245.204 113.158 244.671C113.211 244.38 113.383 244.133 113.435 243.835C113.485 243.556 113.536 243.284 113.586 243.009C113.626 242.791 113.766 242.685 113.766 242.435C113.766 242.235 113.791 242.097 113.853 241.91" stroke="#EF0404" stroke-width="3" stroke-linecap="round"/>
<path d="M124.701 235.175C124.282 235.175 123.182 236.821 123.389 236.925" stroke="#EF0404" stroke-width="3" stroke-linecap="round"/>
<path d="M112.715 240.298C112.991 240.544 114.383 239.36 114.726 239.205C115.716 238.757 116.761 238.224 117.686 237.658C118.694 237.042 119.731 236.483 120.718 235.825C122.351 234.736 124.187 234.003 125.838 232.942C128.129 231.469 130.556 230.481 133.194 229.904C133.758 229.781 134.344 229.698 134.89 229.507C135.289 229.367 135.959 229.428 136.298 229.219C136.66 228.997 137.775 228.874 138.115 229.214C138.583 229.681 138.968 230.248 139.203 230.854C139.504 231.626 139.822 232.386 140.137 233.157C140.396 233.792 140.377 234.352 140.474 235.007C140.559 235.588 140.75 236.064 140.75 236.664C140.75 237.305 140.75 237.946 140.75 238.586C140.75 239.072 140.661 239.543 140.65 240.022C140.638 240.563 140.452 241.071 140.452 241.596C140.452 244.078 139.06 246.348 139.06 248.826C139.06 250.159 138.563 251.521 138.563 252.825" stroke="black" stroke-width="3" stroke-linecap="round"/>
<path d="M72.6516 236.521C72.2301 236.521 72.5298 237.932 72.5522 238.206C72.5591 238.29 72.6034 238.749 72.7068 238.382C72.9485 237.526 73.0209 236.622 73.2481 235.759C73.3334 235.435 73.4805 234.469 73.5463 234.798C73.7055 235.594 73.5362 236.679 73.458 237.466C73.4121 237.927 72.2362 244.541 72.7013 244.541C72.8441 244.541 72.9741 243.698 72.9775 243.685C73.3653 242.133 73.7976 240.581 74.2974 239.062C74.3265 238.973 74.871 237.166 74.9492 237.664C75.0784 238.488 75.2694 239.291 75.4683 240.1C75.7621 241.296 75.597 239.178 75.5291 238.885C75.4821 238.683 75.3863 238.007 75.1369 237.913C75.0719 237.889 75.5856 237.918 75.6064 237.919C76.749 237.963 77.4698 238.373 78.3844 239.007C79.4731 239.761 80.6055 240.477 81.7203 241.194C82.1691 241.482 82.7047 241.503 83.1894 241.702C83.8729 241.981 84.4587 242.433 85.1225 242.735C85.2952 242.813 85.5655 242.854 85.5753 242.608C85.5983 242.033 86.2476 243.304 86.3375 243.447C86.9222 244.375 87.2298 245.227 87.5305 246.269C87.6967 246.846 88.1678 247.174 88.3589 247.7C88.7877 248.879 88.6572 250.125 88.6572 251.367C88.6572 251.647 88.6927 251.731 88.4086 251.731C87.7754 251.731 87.1107 251.872 86.4922 251.986C83.7745 252.482 80.8958 252.411 78.1414 252.427C76.485 252.437 74.7104 252.426 73.0658 252.632C73.0006 252.64 72.7145 252.842 72.6737 252.715C72.5627 252.369 72.7233 251.919 72.8118 251.593C73.1041 250.516 73.3503 249.428 73.6457 248.351C73.9575 247.215 74.3186 246.083 74.5515 244.927C74.748 243.952 74.6811 242.959 74.8497 241.983C75.0704 240.707 75.2745 239.515 75.391 238.217C75.4426 237.641 75.5236 237.069 75.5788 236.494C75.6056 236.213 75.7419 235.628 75.5346 235.372C75.4023 235.209 75.2999 235.481 75.2805 235.56C74.9214 237.029 74.6409 238.492 74.198 239.945C73.5948 241.925 72.9235 243.884 72.3644 245.877C72.0232 247.093 71.5895 248.453 71.7237 249.738C71.7261 249.76 71.905 250.675 72.0772 250.307C72.525 249.347 72.5581 248.06 72.8228 247.042C73.2865 245.26 73.9305 243.474 75.0375 241.978C75.1902 241.772 75.1857 242.486 75.148 242.74C74.8359 244.843 74.2324 246.89 73.7838 248.964C73.5386 250.099 73.381 251.224 73.353 252.383C73.3436 252.773 73.286 253.232 73.3917 252.56C73.6973 250.616 74.3102 248.692 75.1259 246.904C75.9385 245.124 77.0877 243.573 78.0641 241.89C78.2711 241.533 78.4114 241.186 78.4949 240.785C78.5334 240.6 78.4853 242 78.4839 242.017C78.2105 245.343 76.827 248.575 76.827 251.919C76.827 251.969 76.8337 252.116 76.8491 252.068C76.9406 251.782 77.0003 251.487 77.0755 251.196C77.7225 248.693 78.3702 246.187 78.9036 243.657C79.1873 242.311 79.3168 240.996 79.4614 239.636C79.4622 239.629 79.4938 239.301 79.5056 239.548C79.5396 240.262 79.5111 240.987 79.5111 241.702C79.5111 243.897 79.3453 246.128 79.8977 248.269C79.9007 248.28 80.0403 248.708 80.0855 248.462C80.2663 247.477 80.1076 246.33 80.1076 245.336C80.1076 243.911 79.9786 239.642 80.1076 241.061C80.3867 244.131 81.7864 246.724 83.2336 249.39C83.301 249.514 83.909 251.339 84.0289 250.688C84.2074 249.719 84.0951 248.619 84.062 247.644C84.0299 246.696 84.0117 245.63 83.6478 244.734C83.6302 244.69 83.5011 244.464 83.4435 244.629C83.2083 245.301 83.558 246.364 83.7307 247.004C83.8156 247.318 85.3377 251.447 85.8515 251.19C85.9614 251.135 85.9668 250.264 85.973 250.196C86.0779 249.042 86.092 247.88 86.0614 246.722C86.0382 245.846 86.0397 244.873 85.8515 244.01C85.8063 243.803 85.5889 245.018 85.5864 245.082C85.5236 246.667 85.3608 249.141 86.4259 250.472C86.6583 250.763 86.4716 249.719 86.3872 249.357C86.0337 247.838 85.51 246.399 84.7027 245.06C84.4216 244.593 84.0325 243.743 83.5981 243.381C83.4584 243.264 83.7848 243.693 83.8853 243.845C84.4381 244.679 85.0226 245.493 85.625 246.291C86.4298 247.358 87.2747 248.405 88.2816 249.29C88.8005 249.746 88.4596 248.676 88.4031 248.495C88.0667 247.418 87.3185 246.552 86.6302 245.684C85.9017 244.765 85.2504 243.738 84.4597 242.873C83.603 241.935 82.4547 241.407 81.4442 240.674C81.1919 240.492 80.9169 240.445 80.6599 240.249C80.3991 240.051 80.0496 239.657 79.71 239.609C79.3248 239.554 78.9432 239.436 78.5612 239.349C78.2131 239.269 77.0021 239.293 76.8491 239.669C76.4923 240.547 77.3224 241.869 77.9205 242.414C78.8404 243.252 80.1654 243.213 81.2619 243.745C81.8927 244.051 82.5368 244.362 83.1452 244.712C83.1457 244.712 83.841 245.141 83.5429 245.17C83.3306 245.191 83.1052 245.17 82.8912 245.17" stroke="#FF0000" stroke-width="3" stroke-linecap="round"/>
<path d="M89.8501 243.082C89.6228 243.59 89.5825 244.07 89.5464 244.623C89.4672 245.838 89.2623 247.009 88.9112 248.175C88.6978 248.883 88.5578 249.488 88.5578 250.218C88.5578 250.486 88.6282 250.557 88.7566 250.781C88.814 250.882 89.0312 250.837 89.1211 250.837C90.031 250.837 90.8773 250.706 91.7721 250.538C93.9176 250.137 96.1251 250.052 98.3058 250.052C99.5212 250.052 100.976 250.431 102.122 249.942C102.728 249.683 103.423 249.743 104.066 249.743C105.059 249.743 106.051 249.743 107.043 249.743C108.251 249.743 109.259 249.982 110.407 250.262C111.082 250.427 111.665 250.864 112.218 251.113C112.388 251.189 113.118 251.386 112.781 251.494C111.629 251.864 110.423 252.192 109.214 252.284C108.182 252.362 107.148 252.305 106.115 252.333C105.545 252.349 105.032 252.524 104.475 252.62C103.046 252.869 101.515 252.716 100.068 252.725C98.7128 252.734 97.3796 252.924 96.0193 252.924C94.5796 252.924 93.14 252.924 91.7003 252.924C90.9384 252.924 89.9022 252.723 89.1763 252.946C89.0135 252.996 89.5168 252.905 89.6789 252.852C91.6373 252.218 93.698 251.957 95.7376 251.742C97.5632 251.55 99.3842 251.409 101.216 251.312C102.467 251.245 103.682 250.954 104.939 250.936C107.228 250.904 109.625 250.759 111.881 251.196C113.056 251.423 114.193 251.865 115.388 251.632C116.003 251.512 116.603 251.433 117.227 251.433C117.431 251.433 116.826 251.501 116.625 251.532C115.414 251.724 114.214 251.966 112.991 252.085C111.841 252.197 110.624 252.099 109.49 252.333C108.585 252.52 109.578 252.079 109.915 251.864C111.045 251.143 112.234 250.705 113.511 250.306C114.223 250.084 115.366 249.916 115.974 249.423C116.125 249.3 115.747 249.19 115.731 249.185C114.102 248.704 112.29 248.848 110.616 248.848C110.06 248.848 109.02 248.846 108.429 248.854C108.05 248.859 106.927 249.01 107.292 248.904C109.014 248.401 110.735 247.996 112.494 247.633C113.308 247.466 113.944 247.331 114.737 247.125C114.95 247.07 115.162 247.011 115.372 246.943C115.496 246.903 115.884 246.779 115.471 246.805C114.433 246.869 113.4 247.106 112.362 247.191C109.748 247.406 107.123 247.425 104.503 247.445C102.702 247.46 101.3 247.457 99.5264 247.457C98.5322 247.457 97.4254 247.544 96.4225 247.457C95.8689 247.408 97.519 247.273 98.0628 247.158C99.618 246.83 101.158 246.447 102.73 246.197C104.85 245.86 106.997 245.726 109.142 245.673C110.176 245.647 108.671 245.835 108.534 245.866C105.147 246.632 101.747 247.292 98.2892 247.655C96.1266 247.883 93.9523 247.946 91.7887 248.158C91.1705 248.218 90.2533 248.256 89.6403 248.528C89.0892 248.773 90.8412 248.416 91.4408 248.351C95.7021 247.894 100.003 247.926 104.276 247.633C105.034 247.581 106.087 247.492 106.872 247.401C107.051 247.38 107.23 247.355 107.408 247.324C107.702 247.273 107.54 247.268 107.375 247.28C105.18 247.434 103.049 247.684 100.835 247.617C97.8951 247.528 95.0767 246.945 92.2029 246.374C91.5187 246.238 90.7764 246.154 90.0987 245.971C89.9059 245.919 90.0531 245.8 90.1373 245.7C90.7278 244.998 91.4173 244.497 92.2416 244.088C93.2257 243.599 94.6742 243.387 95.5167 242.657C95.6208 242.567 95.4577 242.594 95.3842 242.591C94.6055 242.562 93.8211 242.587 93.0424 242.585C91.3899 242.581 89.4287 242.807 87.8177 242.331C86.6602 241.99 90.2284 242.188 91.4352 242.188C92.0925 242.188 92.7497 242.188 93.4069 242.188C95.3504 242.188 97.4085 241.824 99.3386 242.11C102.348 242.556 105.503 242.287 108.54 242.287C109.546 242.287 110.97 241.908 111.224 243.303C111.4 244.271 111.423 245.318 111.423 246.302C111.423 247.279 110.757 247.237 109.871 247.031C106.444 246.234 102.707 245.152 99.1508 245.634C97.7946 245.818 96.4664 245.866 95.097 245.866C94.2736 245.866 93.3621 245.762 92.5454 245.921C91.784 246.069 92.8527 246.034 92.9982 246.021C95.7704 245.762 98.4749 244.951 101.205 244.441C102.583 244.184 104.013 244.052 105.37 243.69C106.491 243.391 103.08 244.081 101.945 244.325C100.02 244.738 101.483 244.432 99.7915 244.789C99.7051 244.807 98.8144 244.904 98.6648 245.071C98.5553 245.192 98.9714 245.198 99.1342 245.214C99.8312 245.283 100.54 245.268 101.238 245.269C105.511 245.281 109.842 245.465 114.03 244.485C114.932 244.274 115.16 244.102 115.521 243.303C115.756 242.783 116.004 242.254 116.25 241.74C117.31 239.524 119.668 239.412 121.602 238.41C122.176 238.112 122.367 237.816 122.806 237.377C123.378 236.805 121.457 238.272 120.79 238.73C120.077 239.219 119.394 239.746 118.647 240.183C118.079 240.515 117.454 240.762 116.913 241.138C116.157 241.663 115.222 242.205 114.703 242.983" stroke="#FF0000" stroke-width="3" stroke-linecap="round"/>
<path d="M112.317 242.188C112.317 244.421 112.914 246.614 112.914 248.849C112.914 249.975 113.013 251.134 113.013 252.229" stroke="black" stroke-width="3" stroke-linecap="round"/>
<path d="M87.2656 240.995C87.191 242.636 86.3232 244.129 86.3764 245.805C86.4126 246.948 86.6782 248.131 87.122 249.18C87.6166 250.349 87.3146 251.829 87.862 252.924" stroke="black" stroke-width="3" stroke-linecap="round"/>
<path d="M84.8354 240.93C84.8354 240.514 83.194 239.821 82.7443 239.577C82.1975 239.28 81.753 238.738 81.2229 238.394C80.8019 238.12 80.4629 237.763 80.0646 237.461C79.7874 237.251 79.4493 237.176 79.163 236.985C78.3562 236.447 77.4394 235.998 76.6086 235.464C76.0644 235.114 75.405 234.491 74.7804 234.306C73.7989 234.015 72.9444 233.672 71.988 233.241C71.3786 232.967 70.7122 232.65 70.0722 232.421C69.6987 232.288 69.3722 232.027 68.9703 232.027C68.663 232.027 68.3506 232.044 68.0437 232.027C67.6696 232.006 67.633 231.775 67.5866 232.308C67.5236 233.033 67.3675 233.73 67.3675 234.462C67.3675 235.249 67.1648 235.862 67.0544 236.622C66.9537 237.316 67.0748 238.034 67.0231 238.732C66.9602 239.582 66.9167 240.412 66.9167 241.268C66.9167 241.67 66.8669 242.113 66.9668 242.507C67.0794 242.951 67.3525 243.3 67.3675 243.772C67.4028 244.884 67.5251 246.061 67.9873 247.078C68.2762 247.713 68.1938 248.742 68.8325 249.181C69.2722 249.484 69.3543 250.081 69.8468 250.371C70.0116 250.468 70.1492 250.657 70.2976 250.79C70.5904 251.054 70.6774 250.971 71.0238 251.129C71.5897 251.386 71.9079 251.208 71.5623 251.861C71.2979 252.36 70.5462 251.974 70.1285 251.974C69.767 251.974 69.4821 251.759 69.108 251.748C68.5883 251.734 68.8391 250.695 68.8889 250.327C69.1577 248.338 69.0334 246.34 69.3084 244.361C69.4936 243.027 69.5087 241.739 69.5087 240.385C69.5087 239.085 69.7341 237.829 69.7341 236.534C69.7341 236.163 69.5295 234.867 69.8405 234.556C70.0403 234.356 69.7767 235.118 69.7216 235.395C69.5327 236.344 69.2865 237.279 69.1456 238.237C68.8636 240.155 68.869 242.143 68.8388 244.079C68.8199 245.291 68.551 247.132 69.1456 248.255C69.2515 248.455 69.3128 247.833 69.3772 247.616C69.9958 245.531 70.3892 243.387 71.0364 241.311C71.799 238.865 73.1633 236.684 73.8162 234.218C74.5928 231.284 72.3478 240.108 71.6374 243.058C71.6245 243.112 70.891 246.3 70.8736 246.295C70.7106 246.254 70.9101 243.738 70.9237 243.54C71.0163 242.19 71.3118 240.876 71.3118 239.521C71.3118 238.153 70.7145 236.941 70.0096 235.796C69.7339 235.348 69.7709 234 69.2833 233.742C68.9853 233.584 68.9691 233.717 69.4524 233.717C69.991 233.717 70.6083 233.629 71.1365 233.73C71.5832 233.815 72.1717 234.343 72.5265 234.619C72.9543 234.951 73.4582 235.09 73.7912 235.545C73.9856 235.811 74.5103 235.858 74.0666 235.858C73.44 235.858 73.3431 235.874 72.8771 235.458C72.3905 235.023 71.806 234.723 71.2618 234.368C70.7091 234.008 69.8755 234.229 69.3772 233.88C69.1837 233.744 68.924 233.722 68.6948 233.717C68.3311 233.709 68.5564 233.67 68.6948 233.767C69.6141 234.414 69.8113 236.065 69.9345 237.035C70.2267 239.338 70.0722 241.724 70.0722 244.041C70.0722 245.012 70.2976 245.943 70.2976 246.902C70.2976 247.321 70.2642 248.407 70.6357 248.593" stroke="#FF0000" stroke-width="3" stroke-linecap="round"/>
<path d="M86.5254 240.366C86.2155 240.297 85.7714 239.798 85.5111 239.603C85.0915 239.288 84.7356 238.916 84.2965 238.613C83.8771 238.324 83.537 237.902 83.1445 237.574C82.3814 236.936 81.5016 236.371 80.6652 235.833C79.5259 235.101 78.5179 234.248 77.4346 233.467C76.264 232.623 75.0066 231.461 73.6404 230.969C72.8334 230.678 71.6715 230.336 70.8168 230.336C70.3679 230.336 69.9869 229.998 69.5145 229.998C69.2328 229.998 68.951 229.998 68.6693 229.998C67.9376 229.998 67.4376 230.031 66.9726 230.674C66.5671 231.236 66.5742 231.82 66.359 232.465C66.2177 232.889 65.9307 233.587 65.902 234.018C65.8677 234.531 65.7628 235.048 65.6265 235.545C65.4451 236.207 65.5636 236.846 65.4261 237.499C65.2351 238.406 65.3385 239.409 65.3385 240.341C65.3385 241.337 65.2111 242.297 65.2258 243.296C65.2317 243.695 65.3269 244.1 65.4261 244.486C65.5337 244.904 65.5835 245.431 65.7329 245.82C65.967 246.428 65.9793 247.006 66.1837 247.579C66.3754 248.116 66.5781 248.869 66.5781 249.432C66.5781 249.823 66.6113 250.405 66.6971 250.791C66.769 251.114 67.1072 251.801 67.367 251.974" stroke="black" stroke-width="3" stroke-linecap="round"/>
<rect x="106.254" y="142.067" width="63.2124" height="39.3211" rx="2" transform="rotate(50 106.254 142.067)" fill="url(#paint0_linear_166_36)"/>
<rect x="103.11" y="156.99" width="7.74509" height="5.22491" rx="0.75" transform="rotate(50 103.11 156.99)" fill="url(#paint1_linear_166_36)" stroke="black" stroke-width="0.5"/>
<line x1="104.773" y1="158.584" x2="100.388" y2="162.264" stroke="black" stroke-width="0.5"/>
<line x1="101.832" y1="157.736" x2="103.304" y2="159.491" stroke="black" stroke-width="0.5"/>
<line x1="100.447" y1="158.898" x2="101.919" y2="160.653" stroke="black" stroke-width="0.5"/>
<line x1="105.727" y1="162.767" x2="102.842" y2="165.188" stroke="black" stroke-width="0.5"/>
<line x1="105.758" y1="162.415" x2="107.132" y2="164.052" stroke="black" stroke-width="0.5"/>
<line x1="104.373" y1="163.577" x2="105.747" y2="165.214" stroke="black" stroke-width="0.5"/>
<path d="M99.5877 156.874C100.131 156.975 100.647 156.616 100.741 156.072C100.835 155.528 100.472 155.005 99.9287 154.903L99.5877 156.874ZM98.4218 156.657L99.5877 156.874L99.9287 154.903L98.7628 154.686L98.4218 156.657Z" fill="#FFF1F1" fill-opacity="0.7"/>
<path d="M97.6041 156.854C97.6096 157.406 98.0618 157.855 98.6141 157.857C99.1664 157.859 99.6096 157.413 99.6041 156.86L97.6041 156.854ZM97.5923 155.668L97.6041 156.854L99.6041 156.86L99.5923 155.674L97.5923 155.668Z" fill="#FFF1F1" fill-opacity="0.7"/>
<ellipse cx="98.5921" cy="155.671" rx="0.152687" ry="0.150655" transform="rotate(50 98.5921 155.671)" fill="#FFF1F1" fill-opacity="0.7"/>
<path d="M135.658 251.287C135.219 251.287 135.185 250.634 135.047 250.309C134.264 248.47 133.2 246.755 132.308 244.97C131.341 243.036 131.016 240.822 130.376 238.767C129.616 236.324 128.964 233.85 128.29 231.382C126.606 225.222 125.02 219.081 124.002 212.773C123.403 209.059 123.65 205.562 124.687 201.956C125.908 197.711 128.934 193.731 132.724 191.457C136.206 189.368 139.448 191.29 141.796 193.984C143.648 196.108 145.202 198.462 146.288 201.059C146.806 202.3 147.313 203.359 147.649 204.662C148.053 206.229 148.967 207.614 149.516 209.129C150.892 212.927 151.901 216.866 152.972 220.753C153.586 222.981 153.77 225.317 154.431 227.518C154.937 229.204 154.586 231.43 154.586 233.175C154.586 234.694 154.586 236.213 154.586 237.732C154.586 238.941 154.889 240.751 154.406 241.897C154.238 242.297 154.146 242.631 154.146 243.071" stroke="white" stroke-width="5" stroke-linecap="round"/>
<path d="M137.859 196.56C136.786 196.407 136.379 196.256 135.357 196.788C134.093 197.446 133.294 198.167 132.479 199.332C131.002 201.442 129.755 203.302 128.999 205.738C128.909 206.027 128.819 207.181 129.382 206.488C130.157 205.535 130.733 204.405 131.501 203.432C132.485 202.187 133.449 200.928 134.501 199.739C134.657 199.563 135.448 198.388 135.308 198.728C133.845 202.282 131.086 205.186 129.569 208.746C129.184 209.652 128.719 210.695 128.624 211.697C128.589 212.062 128.788 211.886 128.991 211.673C130.324 210.274 131.363 208.635 132.724 207.246C134.374 205.563 136.22 204.052 137.729 202.233C138.283 201.566 139.636 199.335 139.155 200.057C138.476 201.075 137.953 202.225 137.289 203.261C135.553 205.967 133.827 208.673 132.129 211.404C131.342 212.668 130.388 213.917 129.863 215.324C129.727 215.689 129.323 216.541 129.708 216.482C129.87 216.457 130.173 216.086 130.197 216.058C131.031 215.09 131.789 214.051 132.594 213.058C134.411 210.816 136.359 208.697 138.234 206.505C138.845 205.791 140.297 203.414 139.995 204.304C139.492 205.782 138.372 207.084 137.607 208.428C136.806 209.835 135.952 211.391 135.952 213.05C135.952 213.544 136.219 212.1 136.351 211.624C136.91 209.61 137.431 207.586 137.941 205.559C138.422 203.647 139.085 201.721 139.18 199.739C139.201 199.29 139.406 199.105 139.685 198.826C139.898 198.614 140.63 201.202 140.712 201.532C141.351 204.088 142.904 206.249 144.054 208.591C145.065 210.65 146.308 212.748 147.005 214.933C147.961 217.928 149.251 220.818 150.282 223.802C150.842 225.423 151.662 226.841 152.034 228.529C152.387 230.129 152.474 231.716 152.76 233.306C153.031 234.82 153.118 236.361 153.118 237.903C153.118 238.989 153.152 240.456 152.442 241.384C151.121 243.111 149.366 244.949 147.478 246.006C147.028 246.258 146.616 246.253 146.157 246.446C145.548 246.702 144.884 246.444 144.282 246.658C143.484 246.942 142.291 246.576 141.601 246.96C141.155 247.207 140.699 247.531 140.207 247.734C140.147 247.758 139.423 244.765 139.375 244.596C138.112 240.127 137.55 235.519 136.196 231.089C134.847 226.673 134.123 222.097 132.186 217.884C131.363 216.094 130.787 214.248 130.164 212.382C130.069 212.096 129.917 211.359 129.724 211.591C129.527 211.828 129.537 212.182 129.496 212.488C129.258 214.255 129.205 216.056 129.137 217.835C129.006 221.291 128.81 224.796 128.983 228.252C129.129 231.174 129.988 233.739 130.98 236.453C131.644 238.27 132.323 239.894 133.278 241.572C133.589 242.117 134.103 243.031 134.199 241.873C134.63 236.71 134.76 231.598 135.479 226.459C135.958 223.036 135.945 219.446 135.773 215.993C135.759 215.73 135.666 214.637 135.667 214.64C135.882 217.114 136.438 219.577 136.832 222.025C137.895 228.621 138.81 235.344 141.503 241.523C141.965 242.584 142.108 244.921 143.329 245.484C143.468 245.548 143.44 245.196 143.459 245.044C143.632 243.693 143.505 244.542 143.744 242.868C144.04 240.796 144.303 238.793 144.315 236.697C144.338 232.697 144.401 228.638 143.842 224.666C143.518 222.358 142.952 220.207 142.424 217.949C142.151 216.779 141.704 215.726 141.266 214.607C140.738 213.258 140.314 211.884 139.53 210.654C139.093 209.967 138.596 209.322 138.177 208.624C137.984 208.302 137.788 207.836 137.452 207.63C137.158 207.449 137.294 208.558 137.297 208.583C137.429 209.967 137.98 211.271 138.625 212.488C140.649 216.303 143.463 219.658 146.141 223.019C147.505 224.731 148.94 226.486 149.369 228.693C149.609 229.927 149.45 231.288 149.45 232.54C149.45 232.709 149.45 234.417 149.45 233.534" stroke="white" stroke-width="5" stroke-linecap="round"/>
<path d="M130.964 253.048C130.877 252.267 130.327 251.83 130.116 251.141C129.8 250.108 129.376 249.059 129.024 248.027C128.328 245.99 127.447 244.013 126.742 241.979C125.972 239.76 125.569 237.41 124.883 235.164C124.492 233.884 124.221 232.584 123.995 231.268C123.691 229.505 123.199 227.894 122.698 226.182C122.19 224.441 122.458 222.508 122.095 220.737C121.771 219.153 121.427 217.404 121.427 215.781C121.427 215.184 121.281 214.8 121.15 214.24C121.036 213.755 121.175 213.204 121.125 212.708C121.081 212.263 120.922 211.786 120.767 211.371C120.521 210.716 120.589 210.094 120.538 209.414C120.429 207.945 120.162 206.468 119.96 205.005C119.707 203.171 119.813 201.296 119.813 199.445C119.813 196.463 121.513 193.841 123.473 191.718C125.477 189.547 128.127 188.85 130.638 187.43C131.636 186.866 132.921 186.612 134.045 186.403C135.175 186.194 136.202 185.849 137.371 185.849C138.715 185.849 139.763 186.403 141.055 186.697C141.882 186.885 143.042 187.001 143.729 187.545C144.575 188.215 145.591 188.87 146.517 189.436C147.123 189.806 147.511 190.399 148.073 190.838C148.652 191.289 149.188 191.626 149.598 192.24C150.016 192.867 150.287 193.526 150.568 194.22C151.112 195.565 151.876 196.847 152.451 198.19C153.455 200.537 154.239 202.964 154.994 205.396C155.34 206.512 155.507 207.668 155.907 208.771C156.34 209.965 156.72 211.082 156.999 212.316C157.303 213.661 157.392 215.115 157.814 216.425C158.365 218.131 158.401 219.663 158.401 221.462C158.401 223.928 158.129 226.557 158.662 228.953C158.905 230.047 158.709 231.167 158.988 232.246C159.338 233.604 159.48 235.001 159.583 236.395C159.638 237.136 160.015 237.845 160.015 238.588C160.015 238.85 160.257 239.744 160.455 239.843" stroke="black" stroke-width="3" stroke-linecap="round"/>
<path d="M48.2031 46.5896C48.2031 44.6614 48.5371 42.9562 48.9404 41.1007C49.5137 38.4636 49.5541 36.0154 50.3987 33.4818C51.5772 29.9463 52.9978 27.6501 56.0023 25.2894C59.812 22.2961 63.5843 21.5209 68.2908 21.5209C71.577 21.5209 74.3046 21.7115 77.5154 22.4057C80.2759 23.0026 82.0626 25.3024 83.5614 27.5505C84.0105 28.2242 84.9192 30.6534 85.4292 29.1234C86.4224 26.144 87.2725 23.4522 87.6576 20.2757C88.2699 15.2238 91.9493 11.5932 95.9646 8.85553C98.0373 7.44234 99.9897 5.89728 102.011 4.41527C104.101 2.88226 106.671 2.55616 109.171 2.21972C113 1.70421 116.399 1.96678 119.509 4.41527C123.382 7.46403 124.294 13.2882 124.294 17.8508C124.294 20.8091 124.053 24.8233 122.967 27.5997C121.704 30.8255 121.271 34.3733 120.017 37.578C119.268 39.4937 118.684 41.3899 118.166 43.3454C117.966 44.1003 116.562 46.5896 117.805 46.5896" stroke="#49CC47" stroke-width="3" stroke-linecap="round"/>
<path d="M55.8714 40.1012C54.7748 40.1012 57.5991 33.5594 58.0669 32.597C58.9759 30.7271 60.2735 28.8877 62.2122 27.9929C62.5783 27.8239 63.68 27.4011 63.2773 27.4194C60.7345 27.535 57.9311 27.9205 55.8058 29.4183C54.9851 29.9968 54.5773 30.6954 54.2329 31.5811C53.7327 32.8674 52.6126 33.9881 52.365 35.3496C51.6479 39.2938 62.1849 31.3063 62.7038 30.893C65.935 28.3189 69.2142 24.9215 73.4686 24.2408C73.7276 24.1993 75.4509 23.9615 75.5658 24.3063C76.1458 26.0462 66.9787 25.9448 67.2587 25.9448C70.7158 25.9448 74.1795 26.1529 77.5647 26.8951C77.8192 26.9509 79.4564 27.3491 79.8586 27.5177C80.0497 27.5979 79.476 27.7099 79.2688 27.7143C76.1806 27.78 73.0838 27.7143 69.995 27.7143C69.1769 27.7143 64.8225 27.0803 64.2276 28.4189C64.1053 28.6939 64.8114 28.5991 65.1123 28.5991C67.4509 28.5991 69.7919 28.4419 72.125 28.3042C74.2264 28.1801 80.5381 28.0093 78.4331 28.0093C74.4574 28.0093 70.5346 27.358 66.5706 27.1573C65.6228 27.1093 63.2777 27.1751 63.8343 27.9437C64.7756 29.2436 70.0483 29.1466 71.1092 29.2217C75.67 29.5447 80.2392 29.4629 84.8068 29.4839C88.6625 29.5016 85.9325 30.2677 83.7909 30.7619C77.3569 32.2467 70.7889 32.8463 64.2112 33.2524C59.7853 33.5256 55.2795 33.5313 50.9232 34.4648C48.6643 34.9489 49.6809 35.0203 51.087 34.8581C54.4979 34.4645 57.8756 34.4976 61.3111 34.4976C64.4349 34.4976 67.8685 34.0994 70.9781 34.514C71.7386 34.6154 67.8347 37.3059 67.5373 37.5124C66.0032 38.5778 70.312 37.8982 70.6832 37.8401C74.0992 37.3051 77.5092 35.8033 80.9728 35.6773C81.4527 35.6599 78.56 37.5123 78.1382 37.7746C76.505 38.7898 74.7296 39.4591 73.0262 40.3306C72.9507 40.3692 71.8318 40.9266 72.6329 40.8221C75.877 40.399 79.0284 39.5002 82.2835 39.1181C82.8261 39.0544 88.022 38.2988 85.5605 39.8226C82.4822 41.7283 78.9944 43.4237 75.6313 44.7217C75.4739 44.7825 70.433 46.483 71.9284 46.2291C74.8722 45.7292 77.8067 45.1805 80.8089 45.1805C84.7581 45.1805 78.4064 47.8719 77.3354 48.3263C76.6416 48.6206 76.0077 48.9082 75.3364 49.2439C74.3221 49.751 76.6872 48.6927 76.9749 48.5885C79.2478 47.765 81.6418 47.6977 84.0203 47.3105C87.5392 46.7376 91.0668 46.0373 94.6049 45.6392C98.8355 45.1633 102.983 45.1149 107.254 45.1149C107.991 45.1149 111.203 45.7886 111.547 45.0494C112.332 43.3576 113.891 41.8403 114.889 40.2323C117.714 35.6819 118.011 29.807 118.69 24.5685C119.13 21.1789 118.985 17.7393 118.985 14.328C118.985 10.7722 117.975 8.24927 113.988 8.24927C112.077 8.24927 111.048 8.94004 109.417 9.85498C107.501 10.9293 105.678 12.321 103.78 13.4596C103.456 13.6544 102.185 14.9048 102.371 14.7049C103.893 13.0744 105.061 11.1427 106.566 9.49451C106.95 9.0741 108.881 7.65942 107.352 7.65942C105.234 7.65942 103.026 8.38869 101.192 9.42897C97.855 11.3213 95.6643 15.0573 93.6054 18.1457C91.8509 20.7774 91.5612 23.7255 90.6725 26.7313C89.7663 29.7964 89.7618 33.3625 88.3787 36.2672C87.9703 37.1248 85.7935 37.4469 84.9051 37.4469C84.0599 37.4469 83.6957 37.3393 84.7085 36.6604C89.4449 33.4854 95.3403 32.2405 100.307 29.4511C102.748 28.08 103.218 26.8014 103.698 24.2572C104.063 22.3228 106.259 18.0065 103.944 16.5891C101.197 14.9071 98.2006 16.8307 96.2761 18.7683C94.9246 20.1289 93.6743 21.5621 92.2455 22.8481C91.6166 23.414 89.6561 24.8118 90.4923 24.6832C95.3093 23.9421 100.074 21.5259 104.698 20.0463C106.942 19.3283 109.349 18.2413 111.678 17.818C112.36 17.6939 110.436 18.4368 109.81 18.7355C107.134 20.0126 105.773 20.6649 103.027 22.0124C100.634 23.1863 98.2139 24.3385 95.8829 25.6335C94.708 26.2862 95.1933 26.2333 95.9156 25.8629C97.7437 24.9254 99.2942 23.3362 100.815 21.9961C103.469 19.6563 106.062 17.2412 108.909 15.1309C109.448 14.731 115.982 10.415 112.104 12.6404C109.865 13.9251 103.127 17.7278 105.452 16.6055C108.1 15.327 110.224 13.0671 112.874 11.7228C115.562 10.3591 115.705 11.2173 114.365 13.476C112.552 16.5326 111.161 19.804 109.351 22.8645C108.092 24.9932 110.521 23.0602 111.285 22.504C112.042 21.9526 112.884 21.1353 113.791 20.8327C114.634 20.5519 113.111 23.1013 113.07 23.1758C111.588 25.923 110.397 28.8018 108.548 31.3354C108.008 32.0763 107.155 32.7067 108.499 32.0727C109.931 31.3971 110.93 30.8707 110.662 32.8591C110.403 34.7791 109.355 36.4235 108.843 38.2661C108.663 38.9133 109.244 38.401 109.482 38.6921C109.862 39.1568 109.312 40.2396 109.122 40.6747C108.575 41.9245 111.01 39.8072 111.203 39.5769C111.814 38.8475 117.596 30.6699 116.036 29.8443C115.541 29.5821 115.312 29.7814 114.824 29.32C114.34 28.8637 112.864 27.5616 112.235 27.4522C106.354 26.4294 102.897 32.7555 98.5372 35.3168C96.9923 36.2245 95.998 37.0386 94.2444 37.496C91.845 38.1219 89.4663 38.6547 87.0351 39.1509C84.9474 39.5769 91.2958 39.0641 93.4252 38.987C96.5197 38.875 99.6193 38.9215 102.715 38.9215C102.92 38.9215 104.285 38.8264 103.436 39.1181C100.803 40.0232 98.114 40.9079 95.4569 41.7397C94.1463 42.1499 91.7574 42.3795 94.3591 41.2645C95.5137 40.7697 96.7348 40.3905 97.9473 40.0684C99.2473 39.7231 99.2671 39.8063 97.9801 39.8063C95.2061 39.8063 92.8995 40.3929 90.2137 40.9204C88.7458 41.2088 93.2179 39.7042 93.4415 39.6424C99.1718 38.0598 105.31 37.4722 111.235 37.1683C112.242 37.1167 108.71 37.1415 108.27 37.0864C107.208 36.9536 105.457 35.9592 105.779 34.6287C106.278 32.5696 110.243 39.1654 110.547 39.6096C111.11 40.4315 111.437 41.2668 111.842 42.1657C112.143 42.8349 112.574 44.747 113.218 45.1149C113.869 45.4872 114.561 46.094 114.561 46.8845" stroke="#49CC47" stroke-width="3" stroke-linecap="round"/>
<path d="M113.888 10.0492C113.354 9.31444 112.022 5.68272 110.937 5.62244C109.199 5.52591 114.009 9.27203 114.27 9.44802C115.699 10.4112 115.72 13.2464 116.238 14.8585C116.569 15.8899 115.766 17.3125 115.473 18.3015C114.064 23.057 109.003 24.2821 104.761 26.7178C101.763 28.4392 101.31 27.803 98.9681 29.6143C94.6189 32.9777 91.1099 36.3399 85.4693 37.5933C84.5436 37.7991 84.8681 39.0521 84.8681 39.8067C84.8681 41.167 85.1402 40.8918 86.3437 41.0637C88.552 41.3792 90.9271 41.7619 93.1204 41.9928C94.1305 42.0991 110.655 43.0757 111.429 41.5282" stroke="#49CC47" stroke-width="3" stroke-linecap="round"/>
<path d="M59.4865 53.3793C59.0734 52.0368 58.3168 50.5416 58.0662 49.1886C57.783 47.6592 58.0521 45.8749 58.2292 44.3691" stroke="#49CC47" stroke-width="3" stroke-linecap="round"/>
<path d="M57.1815 55.4746C59.2516 55.3979 61.4247 54.0354 63.2581 53.1696C64.1613 52.7431 64.8529 52.2604 65.6678 51.8076C67.7609 50.6448 70.3767 50.3724 72.6874 49.98C76.0963 49.4011 80.021 48.5 83.2459 47.1861C88.1045 45.2067 93.7346 44.1245 98.9846 44.3806C102.887 44.571 106.787 44.5785 110.707 44.5785C113.14 44.5785 115.602 45.2071 118.006 45.2071C118.166 45.2071 117.653 45.1372 117.575 44.9976C117.445 44.7625 117.518 44.277 117.529 44.0197C117.568 43.0504 117.874 42.1185 118.169 41.2026C118.812 39.2095 119.244 37.2009 119.601 35.1376C120.187 31.745 120.882 28.4942 120.882 25.0448C120.882 22.961 120.882 20.8772 120.882 18.7935C120.882 17.4954 120.672 16.221 120.672 14.917C120.672 13.766 120.891 12.4486 120.299 11.4247C119.233 9.57865 116.934 7.32561 114.91 6.54706C113.253 5.9098 111.057 6.19558 109.31 6.23275C106.846 6.28518 104.434 6.87384 102.419 8.33979C101.195 9.22975 99.7133 9.76825 98.4142 10.54C96.5227 11.6636 95.2297 13.212 93.6414 14.6842C92.2649 15.9599 91.0017 16.7495 89.9628 18.2929C89.0107 19.7075 88.7497 21.2745 87.5764 22.5652C86.3709 23.8913 85.5337 25.2311 85.1434 27.0005C84.9427 27.9102 86.098 27.3079 86.098 28.3625C86.098 29.4428 86.0554 30.0192 85.5858 30.9584C84.9837 32.1626 84.9077 33.6397 84.4216 34.8931C84.193 35.4829 83.5835 36.7244 83.5835 35.4286C83.5835 32.4369 83.5835 29.4451 83.5835 26.4533C83.5835 25.7933 81.7886 25.4995 81.2785 25.2543C79.957 24.6189 78.7289 24.7362 77.2973 24.4627C75.5864 24.1359 74.1294 23.3193 72.3847 23.1123C70.6308 22.9042 68.9261 22.9181 67.2277 23.4034C64.1438 24.2845 61.4794 24.3872 58.8578 26.5115C57.6798 27.4661 55.9702 28.52 55.5401 30.097C55.2471 31.1712 55.5052 32.6493 55.5052 33.7639C55.5052 34.5812 55.3279 35.3434 55.2956 36.1504C55.2789 36.5683 53.1706 36.7099 52.7579 36.9885C50.8979 38.244 50.0571 40.8537 50.0571 43.0186C50.0571 44.6716 50.0571 46.3247 50.0571 47.9777C50.0571 50.1602 49.9084 52.8146 50.8022 54.8576C51.2185 55.8093 51.5718 56.9721 52.1525 57.8261C52.6158 58.5073 52.3621 57.9563 52.3621 57.4419C52.3621 56.0156 52.1431 54.4195 52.4785 53.0299C53.1629 50.1945 54.9959 47.8069 56.7158 45.5098C59.1594 42.2462 61.1241 38.7141 64.5852 36.3599C68.4055 33.7613 73.2291 32.1304 77.6465 30.842C77.7766 30.8041 78.1635 30.6883 78.0423 30.7489C77.7059 30.9171 77.0178 31.054 76.7269 31.1447C72.2762 32.5325 67.7494 33.3792 63.1417 34.055C62.053 34.2146 58.8051 34.7069 59.9055 34.7069C62.1369 34.7069 64.555 33.6732 66.7039 33.1702C68.3412 32.787 70.0809 32.1923 71.7561 32.0061C72.1236 31.9653 71.0623 32.2621 70.7201 32.4019C69.2198 33.0147 67.7273 33.6484 66.2383 34.2878C63.7799 35.3434 61.3125 36.3952 58.8811 37.5124C57.9374 37.9459 59.0061 37.3667 59.3351 37.1049C60.7492 35.9801 62.3222 35.0753 63.8402 34.1015C63.9983 34.0001 67.7832 31.4324 67.7749 31.4241C67.7405 31.3897 67.6855 31.4645 67.6468 31.4939C67.1939 31.839 66.7873 32.2412 66.3547 32.6115C64.0929 34.5473 61.7497 36.3716 59.3467 38.1293C57.5928 39.4123 55.6202 40.5607 53.9569 41.9709C53.3024 42.5258 54.3893 42.0645 54.4342 42.0408C57.6632 40.3313 60.6462 38.0134 63.8053 36.162C65.8693 34.9523 67.945 33.7562 70.0332 32.5882C70.362 32.4043 71.3203 31.8192 71.0344 32.0643C69.2156 33.6233 67.2687 35.0527 65.2953 36.4065C62.2147 38.5197 59.0424 40.4909 55.8544 42.4366C55.5397 42.6286 51.9604 44.3342 51.6403 45.1024C51.4649 45.5233 52.5478 45.2672 53.0023 45.2304C55.8851 44.9972 58.7847 44.505 61.6051 43.88C72.2819 41.5143 82.8195 37.7972 92.7799 33.3099C93.7577 32.8694 96.7277 31.8664 95.6553 31.8664C94.869 31.8664 93.5239 32.4272 92.8498 32.6115C86.7235 34.2856 80.6614 36.092 74.7595 38.4553C73.5028 38.9585 71.4668 39.818 70.1962 40.411C69.9588 40.5218 67.8416 41.3509 67.6585 41.8545C67.4563 42.4106 68.807 41.5578 69.3581 41.3423C71.4451 40.5261 73.4761 39.5752 75.5278 38.6765C78.1079 37.5464 80.7093 36.4892 83.3274 35.4519C84.0891 35.1501 86.3233 34.1456 85.6207 34.5672C81.5018 37.0385 77.2772 39.3885 73.025 41.6217C72.8199 41.7294 70.0795 43.3282 70.4058 43.1816C74.3007 41.4317 78.0756 39.2839 81.9304 37.4309C83.7819 36.5409 85.67 35.6589 87.4018 34.5439C88.0299 34.1395 88.2826 33.8953 87.3785 33.9851C81.6408 34.5551 75.9152 35.6796 70.1962 36.4297C68.0778 36.7076 61.7366 37.6218 63.8635 37.4192C65.8107 37.2338 67.9531 35.9003 69.7306 35.1958C73.2009 33.8204 76.7681 32.5004 80.4753 31.9363C81.5252 31.7765 77.9251 33.7808 77.7862 33.8687C74.5367 35.9251 71.1114 37.6578 67.8214 39.6427C66.6317 40.3605 65.1942 41.0765 64.6783 42.4366C64.4514 43.0348 63.8504 43.3294 63.328 43.6239C62.0706 44.3329 60.7774 45.0126 59.7891 46.0919C58.2688 47.752 58.5368 48.609 58.9509 50.6202C59.0243 50.9767 59.0866 51.3374 59.0673 51.7029C59.0638 51.7693 58.8938 52.2405 58.9044 52.2383C59.3124 52.1567 59.9262 51.2631 60.1965 50.9928C61.0279 50.1613 61.6947 49.8942 62.874 49.5725C68.5282 48.0305 74.2729 47.097 79.8583 45.2421C83.8176 43.9272 87.785 42.5149 91.6973 41.0629C93.2075 40.5024 94.628 39.8271 96.1093 39.2236C97.0222 38.8517 99.809 37.8754 98.8566 38.1293C97.9015 38.384 96.9836 38.7912 96.0395 39.0839C92.9198 40.0512 97.9533 38.4615 98.228 38.3971C100.634 37.833 103.05 37.4549 105.515 37.2912C105.551 37.2888 106.868 37.1501 107.133 37.2679C107.828 37.5764 105.38 40.0131 106.807 38.7696C108.222 37.5376 109.872 36.6036 111.313 35.4053C114.311 32.9113 116.295 29.0429 116.807 25.1845C117.002 23.7164 116.265 22.7824 115.014 24.1135C112.921 26.3408 111.659 30.0614 110.8 32.9374C110.618 33.5474 110.257 35.2442 110.754 34.8466C111.192 34.4961 111.49 33.7406 111.755 33.2867C112.692 31.6797 113.727 30.1422 114.723 28.572C117.14 24.7654 118.544 20.9806 118.949 16.4769C119.15 14.2444 118.293 16.688 117.843 17.4198C115.219 21.6878 112.191 25.6983 109.217 29.7245C108.839 30.237 107.761 31.8097 108.065 31.2495C108.461 30.5178 108.876 29.7909 109.334 29.0959C111.776 25.3867 114.803 22.1016 117.273 18.4093C117.31 18.3533 118.099 17.0272 117.459 18.2696C116.364 20.398 115.043 22.417 113.734 24.4161C110.206 29.8025 106.303 34.9777 103.106 40.574C102.668 41.3398 101.702 43.8013 102.151 43.0419C102.762 42.0073 106.657 34.2859 107.576 34.963C108.809 35.8717 109.322 37.0066 108.798 38.5019C108.54 39.2397 107.812 39.9972 107.715 40.7719C107.655 41.252 110.436 39.5374 110.556 39.4681C112.512 38.3393 114.814 36.6351 117.063 36.1736C117.194 36.1468 115.506 39.5194 115.247 40.0152C114.665 41.1299 115.48 38.702 115.55 38.4786C116.062 36.8497 116.189 35.1475 116.272 33.4496C116.481 29.1469 116.481 24.8348 116.481 20.528C116.481 18.8532 116.709 16.7804 115.736 15.3012C115.015 14.2048 113.45 14.3429 112.314 14.5445C109.593 15.0272 107.656 18.3322 106.26 20.4116C105.452 21.6167 102.427 25.5695 103.955 27.1634C105.436 28.7072 107.741 25.4072 108.286 24.5093C109.684 22.2026 110.05 19.2499 111.592 17.059C112.485 15.7894 110.327 19.8945 109.66 21.2963C109.555 21.5166 108.319 23.7236 109.24 22.1461C110.248 20.422 111.27 18.7057 112.29 16.9891C112.813 16.1097 113.477 14.5818 114.304 13.8577C114.787 13.4349 114.414 15.2441 114.863 14.6609C115.696 13.578 116.233 11.997 116.563 10.6796C116.778 9.81706 116.691 8.88262 116.691 8.0022C116.691 7.01089 116.648 6.89001 117.622 6.86137C119.677 6.80093 115.631 5.56491 115.305 5.39459C114.807 5.13364 114.424 4.43497 113.85 4.35853C112.95 4.23852 111.974 4.34689 111.068 4.34689C108.697 4.34689 106.418 5.42803 104.747 7.07091C103.516 8.28127 102.112 9.28702 100.859 10.4701C99.2432 11.996 98.0456 13.8138 96.2723 15.1964C94.7606 16.375 92.8919 17.4185 91.7788 19.0263C91.7345 19.0903 91.298 20.1753 91.7322 19.9925C93.6554 19.1828 95.5171 17.5683 97.2501 16.4187C98.1235 15.8393 98.9524 15.1783 99.8344 14.6143C100.197 14.3824 99.3807 15.3484 99.1127 15.6853C96.4592 19.0211 93.561 22.0836 90.5914 25.1379C88.5305 27.2575 82.0444 33.1151 84.6545 31.7267C87.2613 30.3401 89.7371 28.4095 92.1513 26.7211C94.9639 24.754 98.3971 22.9076 100.789 20.4116C101.05 20.1388 98.7895 23.0419 98.7169 23.1356C97.9726 24.0967 95.7667 26.9659 96.3188 25.8829C97.024 24.4997 98.6385 23.1771 99.6831 22.1112C103.238 18.4838 106.864 14.9297 110.637 11.5294C110.893 11.2995 111.148 11.07 111.406 10.8426C111.48 10.7772 111.269 10.9859 111.196 11.0522C109.911 12.2157 108.605 13.3559 107.261 14.4514C103.63 17.4119 99.7166 19.9842 95.8998 22.6933C95.6262 22.8874 91.1768 26.47 93.7345 24.2066C96.0456 22.1614 98.5817 20.4119 101.255 18.875C101.568 18.6949 102.376 18.0962 102.244 18.4326C101.944 19.1988 101.496 19.982 101.092 20.691C98.3481 25.4983 86.5935 37.2861 90.8824 33.7872C93.5018 31.6504 95.6688 29.299 98.5888 27.4894C99.0532 27.2016 101.092 25.6716 101.86 25.7898C101.96 25.8051 101.903 26.0011 101.86 26.0925C101.535 26.7851 100.364 28.1308 100.044 28.5022C98.6044 30.1746 97.5683 31.2462 96.0162 32.8443C95.1867 33.6983 93.5623 34.9746 92.8964 36.1038C92.1321 37.3998 95.3914 34.4216 96.6448 33.5893C98.1573 32.5849 99.7078 31.6369 101.278 30.7256C101.892 30.3693 103.078 29.4653 103.862 29.3985C104.566 29.3387 102.951 30.4823 102.43 30.9584C101.228 32.0572 100.038 33.1667 98.8566 34.2878C98.7628 34.3768 96.1289 36.6793 96.831 36.8488C97.5946 37.0331 98.8381 36.3945 99.4619 36.1271C101.222 35.3726 102.925 34.4646 104.596 33.5311C105.313 33.1302 106.502 32.1499 107.355 31.913C107.812 31.786 106.869 32.7308 106.586 33.112C105.544 34.5173 104.489 35.8855 103.28 37.1515C103.118 37.3218 107.45 34.1024 107.424 35.0561C107.389 36.3739 107.192 37.7111 106.889 38.9908C106.537 40.4797 107.423 39.2257 107.89 38.7114" stroke="#49CC47" stroke-width="5" stroke-linecap="round"/>
<defs>
<linearGradient id="paint0_linear_166_36" x1="169.466" y1="161.727" x2="106.254" y2="161.727" gradientUnits="userSpaceOnUse">
<stop offset="0.175" stop-color="#82D62E"/>
<stop offset="0.47" stop-color="#98E54B"/>
<stop offset="0.65" stop-color="#A8F060"/>
<stop offset="1" stop-color="#BEFF7C"/>
</linearGradient>
<linearGradient id="paint1_linear_166_36" x1="111.386" y1="159.501" x2="103.141" y2="159.501" gradientUnits="userSpaceOnUse">
<stop stop-color="#6A5E5E"/>
<stop offset="0.215" stop-color="#8B7B7B"/>
<stop offset="0.43" stop-color="#A29090"/>
<stop offset="0.815" stop-color="#D0B9B9"/>
</linearGradient>
</defs>
</svg>
