<svg width="114" height="115" viewBox="0 0 114 115" fill="none" xmlns="http://www.w3.org/2000/svg">
<circle cx="55.3002" cy="59.5236" r="46.3107" fill="white" stroke="black" stroke-width="3"/>
<line x1="49.3905" y1="49.316" x2="62.1659" y2="50.0902" stroke="black" stroke-width="3"/>
<path d="M55.3001 58.9917C52.9341 58.9917 51.7708 56.1119 53.473 54.4687C54.4923 53.4846 56.1078 53.4846 57.1271 54.4687C58.8293 56.1119 57.666 58.9917 55.3001 58.9917Z" fill="#54DD13" stroke="black" stroke-width="3"/>
<path d="M35.3451 43.9405C35.0986 43.9652 34.8716 44.1014 34.6266 44.1429C34.1372 44.2256 33.6638 44.3632 33.1686 44.4428C32.0521 44.6223 30.9593 45.0555 29.8341 45.2102C29.1016 45.3109 28.4087 45.6182 27.6854 45.7473C27.269 45.8217 26.8517 45.8683 26.4786 46.0892C26.0328 46.353 25.4368 46.7186 25.1113 47.1181C24.7612 47.5477 24.2269 48.0484 24.0475 48.5866C23.9755 48.8026 23.8085 48.9228 23.7021 49.1202C23.5757 49.355 23.4983 49.7724 23.4789 50.0306C23.4237 50.7661 23.425 51.3782 23.5905 52.1025C23.6275 52.2642 23.5724 52.4109 23.6673 52.5559C23.8072 52.7699 23.9405 52.9875 24.0788 53.2012C24.4029 53.702 25.0545 53.832 25.5508 54.0802C25.9993 54.3044 26.497 54.5705 26.9948 54.6627C27.7793 54.8079 28.4869 55.2551 29.269 55.3812C29.5294 55.4232 29.7622 55.5535 30.0224 55.6044C30.3833 55.675 30.69 55.872 31.0409 55.9358C31.219 55.9682 31.4036 56.0303 31.5781 56.0858C31.8136 56.1607 32.0634 56.0921 32.3036 56.1241C32.8306 56.1944 33.3538 56.1834 33.8871 56.1834C34.8229 56.1834 35.6354 56.3665 36.538 56.5671C36.7878 56.6226 36.9513 56.6857 37.2286 56.6857C37.4716 56.6857 37.7146 56.6857 37.9576 56.6857C38.5847 56.6857 39.1088 56.4994 39.7086 56.3439C40.5217 56.1331 41.3051 55.8788 42.1293 55.7091C42.7905 55.5729 43.3728 55.3242 44.0093 55.1161C44.6614 54.9029 45.2348 54.5612 45.7673 54.1255C46.3149 53.6775 46.9687 53.3604 47.4554 52.828C47.881 52.3626 48.1577 51.5694 48.3379 50.9689C48.4427 50.6196 48.5211 50.229 48.453 49.8632C48.3658 49.3943 48.3183 48.8962 48.0763 48.475C47.7747 47.95 47.459 47.454 46.9253 47.1356C46.4821 46.8712 46.0162 46.6414 45.5684 46.3822C44.7633 45.916 43.9558 45.5575 43.0501 45.3253C42.2618 45.1232 41.5267 44.8003 40.7445 44.5963C40.1304 44.4361 39.616 44.1917 38.9656 44.1917C38.6609 44.1917 38.3698 44.1289 38.0657 44.1289C37.7903 44.1289 37.5155 44.1603 37.2565 44.0661C36.8716 43.9262 36.3493 43.8778 35.9381 43.8778C35.4475 43.8778 34.966 43.7522 34.4661 43.7522" stroke="black" stroke-width="3" stroke-linecap="round"/>
<path d="M48.8435 50.156C49.5708 50.156 50.2844 50.2723 51.0061 50.2816C51.7339 50.2909 52.4329 50.156 53.1547 50.156C53.7923 50.156 54.5434 50.0489 55.1707 50.1839C55.8833 50.3373 56.5873 50.576 57.2949 50.749C57.8782 50.8915 58.4703 50.9764 59.0459 51.1257C59.5788 51.2638 60.0969 51.1606 60.633 51.1606C61.1985 51.1606 61.7181 51.0978 62.2793 51.0978" stroke="black" stroke-width="3" stroke-linecap="round"/>
<path d="M65.8577 46.7028C65.3931 46.7028 65.1088 47.0909 64.8846 47.4876C64.6422 47.9165 64.2593 48.3663 63.9254 48.7259C63.3675 49.3267 63.1767 49.9312 63.158 50.7349C63.1485 51.1439 63.0874 51.4707 63.3464 51.8406C63.5754 52.1678 63.9094 52.3962 64.1486 52.6952C64.5755 53.2288 65.3059 53.6739 65.9589 53.8916C66.4892 54.0683 66.985 54.3167 67.518 54.488C67.82 54.5851 68.1305 54.645 68.4319 54.7392C68.9742 54.9087 69.5464 54.9407 70.0922 55.081C70.7364 55.2467 71.3361 55.5347 72.0036 55.6181C72.6493 55.6989 73.303 55.7353 73.9429 55.8553C74.6131 55.981 75.2882 55.8703 75.959 55.9635C76.9832 56.1057 77.9059 55.8065 78.9133 55.8065C79.3942 55.8065 79.7952 55.7287 80.2632 55.6181C80.7697 55.4985 81.2777 55.3855 81.784 55.2659C82.7037 55.0485 83.5486 54.6684 84.4418 54.3764C85.3483 54.0801 86.1484 53.7096 86.9671 53.2044C87.2807 53.011 87.5321 52.726 87.8322 52.5103C88.1749 52.264 88.4268 52.0189 88.6135 51.6348C88.7157 51.4245 88.8887 51.1299 88.9483 50.9093C88.9997 50.7193 88.9472 50.5047 88.9658 50.3094C89.0107 49.8378 89.0251 49.3772 89.0251 48.9003C89.0251 48.3861 88.7715 48.0432 88.4286 47.6794C88.0685 47.2975 87.524 46.8441 87.016 46.6889C85.8594 46.3355 84.6711 46.0062 83.5315 45.5762C82.6122 45.2293 81.7285 44.7575 80.7515 44.5961C80.3922 44.5367 80.0977 44.3976 79.7539 44.317C79.1593 44.1775 78.5907 44.1287 77.982 44.1287C76.8868 44.1287 75.7916 44.1287 74.6963 44.1287C74.1724 44.1287 73.6923 44.2264 73.1756 44.2891C72.6126 44.3575 72.0294 44.317 71.463 44.317C71.0525 44.317 70.6421 44.317 70.2317 44.317C69.9586 44.317 69.7471 44.4236 69.4853 44.4426C68.7707 44.4944 68.2066 44.8535 67.6296 45.2448C67.287 45.4772 66.914 45.6357 66.5832 45.8866C66.1974 46.1793 65.801 46.463 65.4043 46.7377C65.2557 46.8406 65.2003 47.0197 65.0381 47.1109C64.8923 47.1929 64.7383 47.3094 64.6648 47.4562" stroke="black" stroke-width="3" stroke-linecap="round"/>
<path d="M34.0882 48.2187C33.9227 48.2187 33.8488 48.2021 33.7552 48.3581C33.6112 48.5981 33.491 48.8522 33.3437 49.0895C33.1384 49.4203 33.1276 49.9165 33.2261 50.2738C33.312 50.5852 33.4434 50.8801 33.5092 51.1969C33.5764 51.521 33.9203 51.7268 34.1514 51.924C34.4904 52.2134 35.0517 52.4828 35.5077 52.4901C35.9154 52.4965 36.3782 52.553 36.7703 52.4313C37.1604 52.3102 37.5532 52.1901 37.898 51.9719C38.6387 51.5033 38.9875 50.7771 39.1433 49.9429C39.2066 49.6042 39.1515 49.3388 39.017 49.0242C38.9043 48.7607 38.8357 48.3398 38.6491 48.1208C38.3304 47.7466 38.0043 47.5916 37.5366 47.496C37.011 47.3884 36.5485 47.2131 36.0018 47.3C35.7613 47.3383 35.5356 47.3974 35.3052 47.4742C35.1456 47.5274 35.0282 47.6745 34.872 47.7485C34.5023 47.9236 34.2096 48.1654 34.0142 48.5344C33.8368 48.8695 33.7995 49.6216 33.9402 49.9734C34.0584 50.2688 34.3146 50.5519 34.6477 50.5677C35.1604 50.5922 35.6746 50.4475 36.1586 50.2956C36.6637 50.1371 37.218 49.9358 37.48 49.4335C37.7245 48.9649 37.7811 48.3052 37.3277 47.9401C36.8683 47.5702 36.0893 47.6426 35.6753 48.038C35.0028 48.6805 34.0817 50.3937 35.1332 51.1316C36.029 51.7602 37.753 51.2307 37.996 50.1171C38.1019 49.6318 37.6319 49.2996 37.2079 49.2811C36.2229 49.2383 35.3863 49.5807 34.7892 50.4001C34.5594 50.7155 34.5048 51.0993 34.7544 51.4146C35.105 51.8574 35.5865 51.5605 35.9474 51.321C36.5631 50.9124 37.262 50.4019 37.4844 49.6578C37.5671 49.3811 37.7224 48.985 37.3277 48.911C36.6308 48.7804 35.8155 49.1901 35.2769 49.5903C35.0836 49.7339 34.3537 50.3564 34.6652 50.6679C35.0201 51.0228 35.87 50.6427 36.2326 50.5199C36.6319 50.3846 37.1292 50.2488 37.4583 49.9691C37.6264 49.8261 37.6333 49.5714 37.6455 49.3682C37.6602 49.1236 37.7457 48.5819 37.4104 48.5018C37.3297 48.4825 37.2364 48.5322 37.1992 48.5322C37.1522 48.5322 37.0099 48.493 37.0207 48.493C37.5544 48.493 38.0885 48.7371 38.6208 48.7978C38.8269 48.8213 38.9474 49.0445 38.9474 49.2572C38.9474 49.5719 38.3181 49.0656 38.303 49.0547C38.059 48.8791 37.8298 48.664 37.541 48.5627C37.3644 48.5008 37.1791 48.4821 36.9967 48.4451C36.7271 48.3905 36.4876 48.2674 36.2261 48.1904C36.1344 48.1635 35.93 48.1384 35.93 48.2579" stroke="black" stroke-width="3" stroke-linecap="round"/>
<path d="M74.6114 48.271C74.4459 48.271 74.3719 48.2543 74.2784 48.4103C74.1344 48.6503 74.0142 48.9045 73.8669 49.1418C73.6616 49.4726 73.6508 49.9687 73.7493 50.3261C73.8352 50.6374 73.9666 50.9324 74.0324 51.2492C74.0996 51.5732 74.4435 51.779 74.6746 51.9763C75.0136 52.2657 75.5749 52.5351 76.0309 52.5423C76.4386 52.5488 76.9013 52.6052 77.2935 52.4835C77.6836 52.3625 78.0763 52.2424 78.4212 52.0242C79.1619 51.5556 79.5106 50.8294 79.6665 49.9952C79.7298 49.6564 79.6747 49.391 79.5402 49.0765C79.4275 48.8129 79.3589 48.3921 79.1723 48.173C78.8536 47.7989 78.5275 47.6439 78.0598 47.5482C77.5342 47.4407 77.0717 47.2653 76.525 47.3523C76.2845 47.3905 76.0588 47.4496 75.8284 47.5264C75.6688 47.5796 75.5514 47.7268 75.3952 47.8007C75.0255 47.9759 74.7328 48.2176 74.5374 48.5867C74.36 48.9218 74.3227 49.6739 74.4634 50.0257C74.5816 50.3211 74.8378 50.6041 75.1709 50.62C75.6836 50.6444 76.1977 50.4997 76.6818 50.3479C77.1869 50.1894 77.7412 49.988 78.0032 49.4858C78.2477 49.0172 78.3043 48.3574 77.8508 47.9923C77.3915 47.6224 76.6124 47.6949 76.1985 48.0903C75.5259 48.7327 74.6049 50.4459 75.6564 51.1838C76.5522 51.8124 78.2762 51.2829 78.5192 50.1693C78.6251 49.684 78.1551 49.3518 77.7311 49.3334C76.7461 49.2905 75.9095 49.6329 75.3124 50.4524C75.0826 50.7678 75.028 51.1515 75.2776 51.4669C75.6282 51.9097 76.1097 51.6128 76.4706 51.3732C77.0863 50.9646 77.7852 50.4541 78.0076 49.71C78.0903 49.4333 78.2456 49.0373 77.8508 48.9633C77.154 48.8326 76.3387 49.2423 75.8001 49.6425C75.6068 49.7861 74.8769 50.4087 75.1884 50.7201C75.5433 51.0751 76.3932 50.695 76.7558 50.5721C77.1551 50.4368 77.6524 50.3011 77.9815 50.0213C78.1496 49.8784 78.1565 49.6237 78.1687 49.4205C78.1834 49.1758 78.2689 48.6342 77.9336 48.554C77.8529 48.5347 77.7596 48.5845 77.7224 48.5845C77.6754 48.5845 77.5331 48.5453 77.5439 48.5453C78.0776 48.5453 78.6117 48.7894 79.144 48.8501C79.3501 48.8736 79.4706 49.0968 79.4706 49.3094C79.4706 49.6242 78.8412 49.1178 78.8262 49.107C78.5822 48.9313 78.353 48.7162 78.0642 48.615C77.8875 48.553 77.7023 48.5344 77.5199 48.4974C77.2503 48.4428 77.0108 48.3196 76.7493 48.2427C76.6576 48.2157 76.4532 48.1907 76.4532 48.3102" stroke="black" stroke-width="3" stroke-linecap="round"/>
<path d="M35.103 15.8684C34.7384 15.8319 34.5562 15.1964 34.4367 14.9131C34.2338 14.4322 34.0121 13.9519 33.8186 13.4682C33.5736 12.8556 33.4414 12.0656 33.4414 11.4053C33.4414 11.1788 33.2969 11.0297 33.2969 10.7952C33.2969 10.5838 33.2969 10.3724 33.2969 10.1611C33.2969 9.74475 33.315 9.45647 33.4414 9.07739" stroke="#49CC47" stroke-width="3" stroke-linecap="round"/>
<path d="M35.5771 13.9197C35.5954 13.7185 35.8373 13.5817 36.0048 13.5174C36.1508 13.4614 36.2729 13.3748 36.4071 13.2959C36.5865 13.1905 36.7782 13.1618 36.9786 13.119C37.1512 13.0822 37.3206 13.0236 37.4929 12.9917C37.6887 12.9554 37.895 12.9427 38.0746 12.853C38.2675 12.7565 38.0301 12.8701 37.9728 12.8937C37.7523 12.9843 37.5444 13.0304 37.3465 13.1686C37.1201 13.3267 36.8531 13.4217 36.6158 13.5582C36.4179 13.672 36.2569 13.8079 36.0405 13.8535C35.8594 13.8916 35.6748 13.9362 35.4956 13.9833C35.4034 14.0076 35.568 14.0101 35.586 14.0075C35.7123 13.9895 35.8353 13.9421 35.9564 13.9044C36.2802 13.8036 36.606 13.7127 36.9341 13.6269C37.2152 13.5534 37.4903 13.5068 37.778 13.4691C38.2317 13.4096 38.6772 13.3008 39.121 13.1916C39.8859 13.0032 40.6613 12.832 41.4148 12.606C41.5873 12.5543 41.7304 12.4849 41.8909 12.4074C42.0247 12.3428 42.1816 12.3352 42.3148 12.2687C42.4495 12.2013 42.6011 12.1878 42.7437 12.1452C42.9603 12.0805 43.1712 12.0148 43.3929 11.9594C43.7035 11.8817 44.0112 11.7926 44.3196 11.7073C44.429 11.6771 44.5431 11.6674 44.6519 11.636C44.7714 11.6016 44.8776 11.5386 44.9994 11.5087C45.5138 11.3824 46.0492 11.4028 46.5575 11.2491C46.78 11.1817 47.0081 11.1601 47.2385 11.137C47.5304 11.1078 47.796 11.0467 48.0824 10.9856C48.368 10.9246 48.6586 10.872 48.9251 10.7501C49.069 10.6842 49.2348 10.6916 49.3885 10.6877C49.7695 10.678 50.1289 10.5973 50.5036 10.5515C50.7661 10.5194 51.029 10.5823 51.2851 10.6317C51.5415 10.6812 51.7916 10.7169 52.0514 10.7348" stroke="#49CC47" stroke-width="9" stroke-linecap="round"/>
<path d="M53.9531 10.6434C54.0167 10.5798 54.0796 10.5325 54.1683 10.5072C54.4817 10.4176 54.7845 10.2744 55.1064 10.2207C55.6284 10.1337 56.1367 10.1164 56.6632 10.1164C57.2592 10.1164 57.8557 10.1094 58.4517 10.1164C58.7348 10.1197 59.0151 10.1715 59.2969 10.1953C59.5409 10.2159 59.787 10.1932 60.0301 10.222C60.3055 10.2546 60.5712 10.3407 60.8423 10.3964C61.1476 10.4592 61.4525 10.5269 61.7588 10.5848C62.3801 10.7024 63.0213 10.714 63.6453 10.8216C63.9171 10.8684 64.1845 10.8937 64.4523 10.9654C64.8014 11.0589 65.1538 11.1657 65.5076 11.2391C66.205 11.3838 66.9266 11.4697 67.6092 11.6744" stroke="#49CC47" stroke-width="9" stroke-linecap="round"/>
<path d="M57.7338 8.53534C57.6644 8.48734 57.5751 8.48952 57.4945 8.48952C56.7822 8.48952 56.0921 8.7255 55.3916 8.82684C54.5762 8.94482 53.7325 8.96892 52.9093 8.97069C51.5124 8.97368 50.1261 8.95555 48.7316 8.8714C48.1526 8.83646 47.5726 8.82362 46.9927 8.81539C46.5201 8.80868 46.0335 8.78189 45.562 8.82812C45.2054 8.86307 44.8626 8.98745 44.5156 9.06998C44.1545 9.15585 43.7932 9.24405 43.4285 9.31311C43.0492 9.38494 42.6745 9.47973 42.288 9.50532C41.7669 9.53982 41.2403 9.52059 40.7184 9.52059C39.9545 9.52059 39.1776 9.53346 38.4157 9.47095C37.8304 9.42292 37.2571 9.3602 36.6692 9.3602C36.4477 9.3602 36.2262 9.3602 36.0048 9.3602C35.7714 9.3602 35.5448 9.31438 35.3136 9.31438C35.1746 9.31438 35.048 9.24564 34.9075 9.24564C34.8023 9.24564 34.697 9.24564 34.5918 9.24564" stroke="#49CC47" stroke-width="9" stroke-linecap="round"/>
<path d="M40.3203 10.8267C40.3203 10.9401 39.7721 10.9883 39.7017 11.0023C39.0793 11.1258 38.4076 11.262 37.7694 11.262C37.56 11.262 37.3313 11.3596 37.1227 11.3944C36.9399 11.4249 36.7224 11.4425 36.5524 11.5128C36.3534 11.5951 36.1177 11.5675 35.9109 11.6184C35.696 11.6714 35.4812 11.6973 35.2566 11.6973" stroke="#49CC47" stroke-width="9" stroke-linecap="round"/>
<path d="M49.7427 106.607C50.0055 106.574 49.8332 105.844 49.8791 105.637C50.0102 105.047 50.0158 104.926 50.6476 104.926C52.3671 104.926 54.0546 104.668 55.7609 104.668C57.1397 104.668 58.5186 104.668 59.8975 104.668C60.108 104.668 61.08 104.541 61.1183 104.797C61.1766 105.186 61.4699 105.455 61.5133 105.846C61.5782 106.429 61.7647 106.902 61.7647 107.512" stroke="black" stroke-width="3" stroke-linecap="round"/>
<path d="M44.0416 109.992C44.0891 108.947 44.6598 107.85 45.2035 106.97C45.453 106.566 45.6271 106.291 45.7452 105.836C45.9255 105.14 44.9335 107.022 44.5527 107.631C44.5177 107.687 44.2334 108.307 44.2256 107.948C44.2088 107.174 44.2638 106.396 44.1847 105.624C44.1351 105.14 44.0424 104.542 43.677 104.176C43.5679 104.067 43.4986 104.598 43.4896 104.636C43.3289 105.321 43.1693 106.003 43.1353 106.708C43.1126 107.178 43.1217 107.651 43.1217 108.122C43.1217 108.728 43.167 106.909 43.2273 106.306C43.3025 105.554 43.4032 104.79 43.5646 104.05C43.5869 103.948 43.5886 104.259 43.5816 104.364C43.5065 105.491 43.7299 106.937 44.3619 107.907C44.4134 107.986 44.5526 108.371 44.5731 108.34C44.666 108.196 45.2545 107.044 45.2682 107.655C45.2852 108.409 45.326 109.196 45.6362 109.894C45.6686 109.966 45.7124 109.762 45.6226 109.672C45.5305 109.58 45.4078 109.464 45.2716 109.451C45.2049 109.444 44.9998 109.572 45.1251 109.618C45.5345 109.766 46.2015 109.448 46.6175 109.379" stroke="#EF0404" stroke-width="3" stroke-linecap="round"/>
<path d="M46.7402 109.87C46.8115 110.048 46.8347 110.392 47.0605 110.47C47.2463 110.534 47.5025 110.536 47.5989 110.728" stroke="#EF0404" stroke-width="3" stroke-linecap="round"/>
<path d="M50.8492 105.883C50.8492 106.2 50.9981 106.492 51.0366 106.8C51.0531 106.932 51.0945 107.03 51.0945 107.171C51.0945 107.317 51.2172 107.335 51.2172 107.447C51.2172 107.889 51.2785 108.301 51.2785 108.735C51.2785 108.925 51.2785 109.115 51.2785 109.304C51.2785 109.565 51.1039 109.776 51.0945 110.04C51.0872 110.246 51.1096 111.079 50.8969 111.144C50.5122 111.263 50.9404 110.204 50.9684 110.078C51.035 109.778 51.0315 109.47 51.0979 109.171C51.1303 109.026 51.0949 108.673 51.1899 108.551C51.503 108.149 52.3211 108.035 52.3211 107.444C52.3211 107.206 52.3759 107.072 52.1916 106.957C51.946 106.803 51.4625 106.937 51.4625 106.531C51.4625 106.355 51.3015 106.332 51.3705 106.279C51.6324 106.075 52.1807 106.251 52.5051 106.251C53.1626 106.251 53.8192 106.19 54.4677 106.19C55.7297 106.19 56.9975 106.067 58.2701 106.067C58.67 106.067 59.02 105.883 59.4013 105.883C59.6756 105.883 59.8647 105.794 59.8647 106.115C59.8647 106.426 59.8601 106.824 59.9874 107.11C60.1169 107.402 60.11 107.852 60.11 108.166C60.11 108.492 60.2275 108.881 60.1577 109.195C60.0584 109.642 59.926 110.154 59.926 110.606" stroke="#EF0404" stroke-width="3" stroke-linecap="round"/>
<path d="M69.2326 102.308C68.9463 102.41 68.7663 102.569 68.5402 102.777C68.1116 103.174 67.6926 103.581 67.2659 103.979C66.3705 104.815 65.5604 105.729 64.8392 106.72C64.6641 106.961 64.4645 107.227 64.3604 107.511C64.27 107.758 64.5083 107.519 64.5482 107.476C65.0058 106.979 65.3937 106.406 65.792 105.864C66.3623 105.087 66.9723 104.324 67.4959 103.514C67.5191 103.479 67.5527 103.444 67.5569 103.402C67.566 103.31 67.4264 103.532 67.3692 103.604C67.0009 104.066 66.6482 104.538 66.2638 104.988C65.4457 105.946 64.4558 106.779 63.708 107.793C63.6925 107.814 63.324 108.286 63.4264 108.344C63.5094 108.392 63.8479 107.627 63.8676 107.589" stroke="#EF0404" stroke-width="3" stroke-linecap="round"/>
<path d="M64.8389 105.519C64.5711 105.648 64.4056 105.94 64.1864 106.134C63.9758 106.32 63.7395 106.473 63.5293 106.659" stroke="#EF0404" stroke-width="3" stroke-linecap="round"/>
<path d="M63.6142 105.814C63.3251 106.164 63.0157 106.541 62.7881 106.934C62.6567 107.161 62.9496 106.863 62.9806 106.828" stroke="#EF0404" stroke-width="3" stroke-linecap="round"/>
<path d="M64.1212 105.308C64.1994 105.29 64.2825 105.179 64.3442 105.134C64.5848 104.959 64.8355 104.82 65.114 104.716C65.3509 104.628 65.5559 104.514 65.7687 104.378C66.0819 104.179 66.4024 104.082 66.7591 103.989C66.9832 103.93 67.1982 103.865 67.4092 103.77C67.5037 103.728 67.2431 103.894 67.1581 103.953C66.7741 104.221 66.3854 104.479 65.9846 104.721C65.8983 104.773 65.5065 105.111 65.7969 104.89C66.4981 104.355 67.1977 103.836 67.9279 103.339C68.618 102.869 69.3956 102.418 69.9415 101.773C69.9636 101.747 70.0649 101.622 69.965 101.722C69.7174 101.969 69.4939 102.231 69.2093 102.44C69.1915 102.453 68.8407 102.727 68.9816 102.55C69.4964 101.902 70.0678 101.359 70.7465 100.881C71.0579 100.662 71.3869 100.419 71.7298 100.248C71.8944 100.165 71.4664 100.508 71.3637 100.661C71.2066 100.894 70.924 101.375 71.4224 101.046C71.7092 100.856 71.9844 100.641 72.2602 100.435C72.2664 100.431 72.4329 100.263 72.3588 100.379C72.2445 100.559 72.1389 100.743 72.0255 100.924C71.782 101.31 71.5274 101.681 71.42 102.132C71.3428 102.457 71.4615 102.258 71.5702 102.095C71.801 101.749 72.0187 101.394 72.2461 101.046C72.2812 100.992 72.5014 100.596 72.4433 100.867C72.3477 101.313 72.4998 101.678 72.5911 102.104C72.7688 102.933 72.6486 103.787 72.7859 104.622C72.909 105.372 73.155 106.09 73.3116 106.831C73.4139 107.314 73.6098 107.801 73.6237 108.297C73.6388 108.833 73.6683 109.367 73.6683 109.903C73.6683 110.18 73.6732 110.389 73.7739 110.647C73.8057 110.728 73.8718 111.031 73.8185 110.771C73.5736 109.577 73.6261 108.286 73.6261 107.075C73.6261 105.979 73.6261 104.883 73.6261 103.787C73.6261 103.293 73.5017 102.883 73.4172 102.404C73.3207 101.858 73.2881 101.343 73.2881 100.787C73.2881 100.544 73.4847 100.878 73.5416 100.931C73.7289 101.105 73.7858 101.299 73.8373 101.548C73.8858 101.782 73.964 101.983 73.964 102.224C73.964 102.407 73.9218 102.582 73.9218 102.764C73.9218 103.369 74.1201 103.891 74.2175 104.486C74.2888 104.922 74.2598 105.372 74.2598 105.812C74.2598 106.063 74.2847 106.33 74.2504 106.58C74.1987 106.954 73.9662 107.326 73.8162 107.669C73.5034 108.384 73.0928 109.042 72.7202 109.724C72.5535 110.029 72.195 110.304 71.8683 110.424C70.8337 110.803 69.8278 110.884 68.7352 110.884C68.2902 110.884 67.8424 110.872 67.3975 110.886C66.9926 110.899 66.6097 111.003 66.2006 110.959C65.862 110.922 65.5098 110.804 65.175 110.734C64.6987 110.633 64.0514 110.368 63.5721 110.588C63.1374 110.788 63.3527 110.112 63.3867 109.891C63.4617 109.401 63.5145 108.905 63.6143 108.42C63.6462 108.264 63.6893 108.113 63.7363 107.962C63.752 107.912 63.767 107.768 63.7927 107.814C63.8809 107.973 63.8255 108.3 63.8255 108.469C63.8255 108.875 63.7889 109.302 63.849 109.706C63.8511 109.72 63.8823 109.947 63.9523 109.903C64.0173 109.861 64.0851 109.723 64.1189 109.67C64.2981 109.392 64.4777 109.113 64.661 108.837C65.4273 107.683 66.2826 106.542 66.86 105.277C66.8863 105.219 67.0363 104.708 66.8765 105.101C66.6841 105.574 66.5225 106.064 66.3719 106.551C66.0186 107.694 65.1293 111.173 65.4496 110.02C66.0594 107.825 66.7707 105.51 68.0288 103.592C68.2593 103.241 68.5498 102.922 68.7587 102.557C69.0726 102.008 68.095 103.635 67.7565 104.169C67.3143 104.868 66.8339 105.589 66.5432 106.368C66.5394 106.379 66.2952 107.095 66.4775 107.072C66.526 107.066 66.5878 106.952 66.5948 106.941C66.8216 106.592 67.0399 106.258 67.3059 105.934C68.3222 104.698 69.4776 103.633 70.723 102.637C70.813 102.565 71.3105 102.241 71.251 102.041C71.2275 101.961 70.4187 102.523 70.3968 102.538C69.8388 102.928 69.323 103.358 68.8643 103.862C68.7671 103.969 68.6607 104.081 68.5756 104.2C68.5617 104.219 68.6139 104.171 68.6296 104.153C69.1478 103.563 69.7929 103.089 70.4437 102.656C70.9739 102.302 71.5225 101.975 72.117 101.743C72.1208 101.741 72.5485 101.566 72.6357 101.59C72.6756 101.601 72.5686 101.638 72.5371 101.665C72.3451 101.829 72.1745 102.014 72.0067 102.203C71.4508 102.827 70.9037 103.459 70.3498 104.085C70.1543 104.306 69.6294 105.017 69.7866 104.768C70.1688 104.161 70.7133 103.608 71.3027 103.205C71.5588 103.029 72.2602 102.537 72.1546 102.829C72.1203 102.924 72.037 102.994 71.9645 103.064C71.6493 103.367 71.0601 103.817 70.7347 104.059C69.7113 104.819 68.6348 105.505 67.6181 106.274C67.5708 106.31 67.4544 106.446 67.4984 106.406C68.0225 105.932 68.5636 105.498 69.167 105.124C69.8262 104.716 70.543 104.356 71.298 104.162C71.4276 104.129 71.4752 104.129 71.3919 104.251C71.1813 104.562 70.9059 104.839 70.6315 105.092C69.8379 105.821 68.9277 106.401 68.0757 107.056C67.9356 107.164 67.2942 107.557 67.2942 107.816C67.2942 107.97 67.5165 107.605 67.6275 107.5C68.3456 106.815 69.2492 106.319 70.1715 105.969C70.5527 105.825 70.9992 105.691 71.3919 105.575C71.5294 105.535 72.001 105.334 72.1828 105.357C72.3562 105.379 71.9779 105.642 71.8565 105.768C71.4477 106.192 71.0106 106.579 70.5423 106.936C69.9116 107.418 69.2264 107.818 68.585 108.283C68.504 108.342 68.2732 108.475 68.3714 108.495C68.3887 108.498 68.4058 108.485 68.4207 108.476C68.561 108.389 68.6893 108.284 68.8244 108.19C69.6879 107.584 70.5602 106.963 71.4975 106.476C71.5098 106.47 72.4763 105.997 72.4034 106.164C72.1117 106.833 71.6266 107.439 71.1478 107.981C70.8309 108.339 70.4883 108.671 70.1527 109.011C70.1457 109.018 69.7404 109.384 69.7678 109.45C69.7851 109.491 70.9966 108.646 71.0586 108.603C71.4295 108.34 71.8023 108.081 72.1945 107.852C72.2154 107.839 72.6184 107.573 72.7014 107.607C72.8998 107.69 72.1365 109.135 72.0865 109.22C71.8304 109.654 71.5169 110.048 71.2182 110.452C71.116 110.59 70.9683 110.757 70.899 110.921C70.7985 111.16 71.2792 110.569 71.4623 110.386C71.5193 110.329 72.228 109.526 72.3306 109.612C72.4577 109.718 71.8278 110.764 71.7486 110.968C71.6182 111.304 72.3334 110.608 72.3729 110.565C72.5248 110.398 72.6669 110.227 72.7202 110.006C73.1351 108.287 71.6406 106.919 71.6406 105.247C71.6406 105.199 71.6135 104.922 71.6078 104.951C71.5153 105.423 71.4825 105.96 71.4576 106.439C71.4197 107.166 71.4673 107.935 71.8143 108.591C71.8301 108.621 72.2881 109.329 72.3564 109.187C72.5345 108.816 72.2293 108.074 72.1288 107.73C71.7576 106.455 71.1743 105.269 70.5517 104.101C70.5021 104.008 70.2819 103.609 70.2184 103.472C70.2164 103.468 70.0915 103.228 70.1903 103.216C70.4261 103.189 70.7594 104.689 70.7958 104.794C71.0759 105.602 71.4437 106.349 72.1804 106.828C72.4909 107.031 72.5831 106.996 72.6029 106.645C72.6298 106.166 72.6171 105.68 72.6099 105.2C72.6081 105.08 72.6695 104.491 72.5465 104.385C72.4541 104.306 72.413 104.594 72.3822 104.711C72.2003 105.408 72.0603 106.125 71.9974 106.842C71.9845 106.989 71.9314 107.401 72.0208 107.284C72.0665 107.224 71.9893 107.02 71.9809 106.99C71.8733 106.608 71.7453 106.23 71.6219 105.852C71.5987 105.781 71.1475 104.34 71.0797 104.366C71.0197 104.39 71.0493 104.857 71.0492 104.866C71.0475 105.329 71.0492 105.793 71.0492 106.256C71.0492 107.185 71.0492 108.114 71.0492 109.044C71.0492 109.222 71.1374 109.709 71.0398 109.893C71.013 109.944 70.9443 109.783 70.9413 109.776C70.8136 109.474 70.7309 109.143 70.6761 108.821C70.6422 108.622 70.6268 108.424 70.6268 108.222C70.6268 107.859 70.6324 108.949 70.6174 109.311C70.606 109.587 70.5462 109.84 70.5047 110.109C70.4728 110.317 70.4107 109.897 70.4085 109.886C70.2642 109.215 70.1477 108.535 70.0448 107.856C69.9918 107.507 69.9639 107.148 69.8899 106.803C69.8447 106.592 69.7997 106.766 69.7819 106.875C69.6358 107.772 69.5728 108.754 69.688 109.656C69.6902 109.673 69.7855 110.367 69.9274 110.367C69.9904 110.367 70.0327 109.566 70.033 109.562C70.0957 108.742 70.0382 107.934 69.8711 107.129C69.8419 106.988 69.7608 106.596 69.7068 106.73C69.4843 107.279 69.3474 107.923 69.1952 108.495C69.0539 109.026 68.8603 110.667 68.9558 110.126C69.0074 109.833 68.8311 109.429 68.7587 109.156C68.6489 108.743 68.5603 108.286 68.3221 107.922C68.2357 107.79 68.2136 107.906 68.2001 108.016C68.146 108.457 68.1015 108.926 68.1015 109.37C68.1015 109.465 68.0837 109.884 68.2189 109.945C68.3123 109.987 68.5483 108.955 68.5568 108.922C68.7334 108.231 68.9246 107.546 69.113 106.859C69.1454 106.741 69.2598 106.406 69.2726 106.528C69.3075 106.859 69.2258 107.235 69.1623 107.556C69.048 108.133 68.9254 108.784 68.6836 109.325C68.5649 109.591 68.2971 109.76 68.0077 109.776C67.5964 109.799 67.5676 109.315 67.5007 109.016C67.4223 108.664 67.3663 108.694 67.1956 109.016C67.0024 109.38 66.7986 109.8 66.745 110.215C66.73 110.331 66.7361 110.331 66.7685 110.208C66.9139 109.653 66.9991 109.096 67.0267 108.523C67.0317 108.417 67.0216 108.138 66.9492 108.215C66.869 108.301 66.8218 108.442 66.7685 108.542C66.6342 108.792 66.4817 109.033 66.3555 109.288C66.2484 109.504 66.1489 109.741 66.1489 109.987C66.1489 110.11 66.1917 109.918 66.1912 109.889C66.1848 109.564 66.1396 109.215 66.0245 108.91C65.9315 108.664 65.8132 108.873 65.7359 109.004C65.5671 109.29 65.3712 109.574 65.2477 109.884C65.221 109.951 65.2162 110.239 65.1679 110.283C65.1368 110.311 64.6669 110.193 64.6282 110.166C64.6214 110.161 64.4854 110.112 64.492 110.126C64.5533 110.248 65.3566 110.224 65.4543 110.234C65.8841 110.274 66.3136 110.461 66.7403 110.461C66.7561 110.461 66.4644 110.419 66.4517 110.417C66.0358 110.35 65.716 110.401 65.3111 110.497C65.0695 110.553 64.8162 110.544 64.5812 110.63C64.4661 110.672 64.3675 110.76 64.248 110.79C64.0824 110.831 63.927 110.909 63.7575 110.926C63.5016 110.951 63.2477 111.137 63.0018 111.137C62.8137 111.137 62.5325 110.971 62.516 110.748C62.484 110.316 62.178 109.922 62.178 109.49C62.178 109.08 62.009 108.769 62.009 108.37C62.009 108.172 62.009 107.974 62.009 107.776C62.009 107.509 62.0913 107.32 62.1381 107.063C62.1636 106.923 62.2465 106.803 62.2719 106.659C62.2957 106.525 62.3204 106.393 62.3446 106.26C62.3638 106.155 62.4315 106.104 62.4315 105.983C62.4315 105.887 62.4437 105.82 62.4737 105.73" stroke="#EF0404" stroke-width="3" stroke-linecap="round"/>
<path d="M67.7119 102.477C67.5097 102.477 66.9786 103.272 67.0783 103.322" stroke="#EF0404" stroke-width="3" stroke-linecap="round"/>
<path d="M61.9238 104.952C62.057 105.07 62.7294 104.498 62.8947 104.423C63.3732 104.207 63.8774 103.95 64.3243 103.677C64.8113 103.379 65.312 103.109 65.7887 102.791C66.5774 102.265 67.4641 101.911 68.2612 101.399C69.3679 100.687 70.5396 100.211 71.8139 99.9319C72.0861 99.8723 72.369 99.8321 72.6328 99.7398C72.8253 99.6725 73.1492 99.7019 73.3129 99.6011C73.4878 99.4935 74.0263 99.4343 74.1905 99.5985C74.4162 99.8242 74.602 100.098 74.7159 100.391C74.8609 100.763 75.0146 101.13 75.1667 101.503C75.2918 101.809 75.2826 102.08 75.3294 102.396C75.3708 102.677 75.4627 102.906 75.4627 103.197C75.4627 103.506 75.4627 103.815 75.4627 104.125C75.4627 104.36 75.4199 104.587 75.4147 104.818C75.4089 105.079 75.3187 105.325 75.3187 105.578C75.3187 106.777 74.6466 107.873 74.6466 109.07C74.6466 109.714 74.4065 110.371 74.4065 111.001" stroke="black" stroke-width="3" stroke-linecap="round"/>
<path d="M42.5757 103.127C42.3721 103.127 42.5168 103.809 42.5276 103.941C42.531 103.981 42.5524 104.203 42.6023 104.026C42.719 103.612 42.754 103.176 42.8637 102.759C42.9049 102.603 42.976 102.136 43.0077 102.295C43.0846 102.68 43.0029 103.204 42.9651 103.583C42.9429 103.806 42.375 107 42.5997 107C42.6686 107 42.7314 106.593 42.733 106.587C42.9203 105.838 43.1291 105.088 43.3705 104.354C43.3845 104.312 43.6475 103.439 43.6852 103.68C43.7476 104.077 43.8399 104.465 43.9359 104.856C44.0778 105.433 43.9981 104.411 43.9653 104.269C43.9426 104.171 43.8963 103.845 43.7759 103.8C43.7445 103.788 43.9926 103.802 44.0026 103.802C44.5544 103.824 44.9026 104.022 45.3443 104.328C45.87 104.692 46.4169 105.038 46.9553 105.384C47.172 105.523 47.4307 105.534 47.6647 105.629C47.9948 105.764 48.2777 105.982 48.5983 106.128C48.6817 106.166 48.8122 106.186 48.817 106.067C48.8281 105.789 49.1416 106.403 49.1851 106.472C49.4675 106.92 49.616 107.332 49.7612 107.835C49.8415 108.113 50.069 108.272 50.1613 108.526C50.3684 109.095 50.3053 109.697 50.3053 110.297C50.3053 110.432 50.3225 110.473 50.1853 110.473C49.8795 110.473 49.5585 110.541 49.2598 110.596C47.9473 110.836 46.5571 110.801 45.2269 110.809C44.4269 110.814 43.5699 110.808 42.7757 110.908C42.7442 110.912 42.606 111.009 42.5863 110.948C42.5327 110.781 42.6103 110.564 42.653 110.406C42.7942 109.886 42.9131 109.361 43.0558 108.841C43.2063 108.292 43.3807 107.745 43.4932 107.187C43.5881 106.716 43.5558 106.237 43.6372 105.765C43.7438 105.149 43.8423 104.573 43.8986 103.946C43.9235 103.668 43.9627 103.392 43.9893 103.114C44.0023 102.979 44.0681 102.696 43.968 102.573C43.9041 102.494 43.8546 102.625 43.8453 102.663C43.6718 103.373 43.5363 104.079 43.3225 104.781C43.0312 105.737 42.707 106.683 42.437 107.646C42.2722 108.233 42.0627 108.89 42.1276 109.51C42.1287 109.521 42.2151 109.963 42.2983 109.785C42.5145 109.321 42.5305 108.7 42.6583 108.208C42.8823 107.348 43.1933 106.485 43.7279 105.763C43.8016 105.663 43.7995 106.008 43.7812 106.131C43.6305 107.146 43.3391 108.135 43.1224 109.137C43.004 109.684 42.9279 110.228 42.9144 110.788C42.9099 110.976 42.882 111.198 42.9331 110.873C43.0807 109.934 43.3766 109.005 43.7706 108.142C44.163 107.282 44.718 106.533 45.1896 105.72C45.2895 105.548 45.3573 105.38 45.3976 105.187C45.4162 105.097 45.3929 105.773 45.3923 105.781C45.2602 107.388 44.5921 108.948 44.5921 110.564C44.5921 110.588 44.5954 110.659 44.6028 110.636C44.647 110.497 44.6758 110.355 44.7121 110.214C45.0246 109.005 45.3373 107.795 45.595 106.573C45.732 105.924 45.7945 105.288 45.8644 104.632C45.8648 104.628 45.88 104.47 45.8857 104.589C45.9021 104.934 45.8884 105.284 45.8884 105.629C45.8884 106.69 45.8083 107.767 46.0751 108.801C46.0765 108.806 46.1439 109.013 46.1658 108.894C46.2531 108.419 46.1764 107.864 46.1764 107.384C46.1764 106.696 46.1141 104.635 46.1764 105.32C46.3112 106.802 46.9872 108.055 47.6861 109.342C47.7186 109.402 48.0122 110.283 48.0702 109.969C48.1564 109.501 48.1022 108.97 48.0862 108.499C48.0706 108.041 48.0619 107.526 47.8861 107.094C47.8776 107.073 47.8153 106.963 47.7874 107.043C47.6739 107.367 47.8428 107.881 47.9261 108.19C47.9671 108.342 48.7022 110.336 48.9504 110.212C49.0034 110.185 49.006 109.764 49.009 109.731C49.0597 109.174 49.0665 108.613 49.0517 108.054C49.0405 107.631 49.0413 107.161 48.9504 106.744C48.9285 106.644 48.8235 107.231 48.8223 107.262C48.792 108.027 48.7134 109.222 49.2277 109.865C49.34 110.005 49.2498 109.501 49.2091 109.326C49.0383 108.592 48.7854 107.898 48.3956 107.251C48.2598 107.026 48.0719 106.615 47.8621 106.44C47.7946 106.384 47.9523 106.591 48.0008 106.664C48.2678 107.067 48.55 107.46 48.841 107.846C49.2296 108.361 49.6377 108.867 50.1239 109.294C50.3745 109.514 50.2099 108.997 50.1826 108.91C50.0202 108.39 49.6588 107.972 49.3264 107.552C48.9746 107.109 48.6601 106.613 48.2782 106.195C47.8645 105.742 47.3099 105.487 46.8219 105.133C46.7001 105.045 46.5673 105.022 46.4432 104.928C46.3172 104.832 46.1484 104.642 45.9844 104.618C45.7984 104.592 45.6141 104.535 45.4296 104.493C45.2615 104.455 44.6767 104.466 44.6028 104.648C44.4305 105.072 44.8313 105.71 45.1202 105.973C45.5645 106.378 46.2043 106.359 46.7339 106.616C47.0385 106.764 47.3496 106.914 47.6434 107.083C47.6436 107.083 47.9794 107.29 47.8355 107.304C47.7329 107.314 47.6241 107.304 47.5207 107.304" stroke="#FF0000" stroke-width="3" stroke-linecap="round"/>
<path d="M50.8814 106.296C50.7716 106.541 50.7521 106.773 50.7347 107.04C50.6964 107.627 50.5975 108.192 50.4279 108.755C50.3249 109.097 50.2572 109.39 50.2572 109.742C50.2572 109.872 50.2913 109.906 50.3533 110.014C50.381 110.063 50.4859 110.041 50.5293 110.041C50.9687 110.041 51.3774 109.978 51.8096 109.897C52.8457 109.703 53.9118 109.662 54.9649 109.662C55.5519 109.662 56.2547 109.845 56.808 109.609C57.1007 109.484 57.4363 109.513 57.7468 109.513C58.2261 109.513 58.7053 109.513 59.1845 109.513C59.768 109.513 60.2548 109.628 60.8088 109.763C61.1352 109.843 61.4164 110.054 61.6837 110.174C61.7659 110.211 62.1185 110.306 61.9558 110.358C61.3993 110.537 60.8165 110.695 60.2327 110.74C59.7346 110.778 59.2351 110.75 58.7364 110.764C58.4608 110.771 58.2134 110.856 57.9442 110.902C57.2541 111.022 56.5147 110.948 55.8158 110.953C55.1614 110.957 54.5176 111.049 53.8607 111.049C53.1654 111.049 52.4702 111.049 51.7749 111.049C51.4069 111.049 50.9065 110.952 50.556 111.06C50.4773 111.084 50.7204 111.04 50.7987 111.014C51.7445 110.708 52.7396 110.582 53.7247 110.478C54.6063 110.386 55.4857 110.318 56.3706 110.27C56.9745 110.238 57.5614 110.097 58.1683 110.089C59.274 110.073 60.4312 110.004 61.521 110.214C62.0885 110.324 62.6373 110.538 63.2147 110.425C63.5114 110.367 63.8012 110.329 64.1029 110.329C64.2011 110.329 63.9092 110.362 63.8121 110.377C63.2271 110.469 62.6475 110.586 62.0571 110.644C61.5015 110.698 60.9138 110.65 60.3661 110.764C59.9292 110.854 60.4085 110.641 60.5715 110.537C61.117 110.189 61.6916 109.977 62.3078 109.785C62.6517 109.678 63.204 109.596 63.4974 109.358C63.5704 109.299 63.388 109.246 63.3801 109.243C62.5934 109.011 61.7185 109.081 60.9102 109.081C60.6416 109.081 60.1392 109.08 59.854 109.083C59.6707 109.086 59.1285 109.159 59.3045 109.107C60.1364 108.865 60.9673 108.669 61.8171 108.494C62.2101 108.413 62.5172 108.348 62.9 108.248C63.0029 108.222 63.1055 108.193 63.2067 108.16C63.2664 108.141 63.4538 108.082 63.2547 108.094C62.7534 108.125 62.2544 108.239 61.753 108.281C60.491 108.384 59.2229 108.393 57.9576 108.403C57.088 108.41 56.4111 108.409 55.5544 108.409C55.0743 108.409 54.5397 108.451 54.0554 108.409C53.788 108.385 54.5849 108.32 54.8476 108.265C55.5986 108.106 56.3425 107.921 57.1014 107.8C58.1254 107.637 59.1623 107.573 60.198 107.547C60.6975 107.535 59.9705 107.625 59.9046 107.64C58.2686 108.01 56.6269 108.329 54.9569 108.505C53.9125 108.614 52.8624 108.645 51.8176 108.747C51.519 108.776 51.0761 108.794 50.78 108.926C50.5139 109.044 51.36 108.872 51.6495 108.841C53.7075 108.62 55.7845 108.635 57.8482 108.494C58.2141 108.469 58.7226 108.426 59.1018 108.382C59.1884 108.372 59.2747 108.36 59.3605 108.345C59.5026 108.32 59.4242 108.318 59.3445 108.323C58.2845 108.398 57.2558 108.518 56.1865 108.486C54.7666 108.443 53.4054 108.162 52.0176 107.886C51.6872 107.82 51.3287 107.779 51.0014 107.691C50.9083 107.666 50.9794 107.609 51.0201 107.56C51.3052 107.221 51.6382 106.979 52.0363 106.782C52.5116 106.545 53.2111 106.443 53.618 106.091C53.6682 106.047 53.5895 106.06 53.554 106.059C53.1779 106.045 52.7991 106.057 52.423 106.056C51.625 106.054 50.6779 106.163 49.8998 105.933C49.3409 105.768 51.0641 105.864 51.6469 105.864C51.9643 105.864 52.2817 105.864 52.5991 105.864C53.5377 105.864 54.5316 105.689 55.4637 105.827C56.9171 106.042 58.4405 105.912 59.9073 105.912C60.3934 105.912 61.0811 105.729 61.2036 106.403C61.2886 106.87 61.2996 107.376 61.2996 107.851C61.2996 108.323 60.978 108.303 60.5501 108.203C58.8953 107.818 57.0906 107.295 55.373 107.528C54.718 107.617 54.0766 107.64 53.4153 107.64C53.0176 107.64 52.5774 107.59 52.183 107.667C51.8153 107.739 52.3314 107.722 52.4017 107.715C53.7405 107.59 55.0466 107.199 56.3652 106.952C57.0306 106.828 57.7211 106.764 58.3763 106.589C58.918 106.445 57.2708 106.779 56.7226 106.896C55.7926 107.096 56.4992 106.948 55.6824 107.12C55.6407 107.129 55.2105 107.176 55.1383 107.256C55.0854 107.315 55.2864 107.318 55.365 107.326C55.7016 107.359 56.0437 107.351 56.3812 107.352C58.4444 107.358 60.536 107.447 62.5585 106.974C62.9945 106.872 63.1045 106.788 63.2787 106.403C63.3921 106.152 63.5121 105.896 63.6308 105.648C64.1427 104.578 65.2816 104.524 66.2153 104.04C66.4929 103.896 66.585 103.753 66.7968 103.541C67.0732 103.264 66.1455 103.973 65.8232 104.194C65.4792 104.43 65.1493 104.685 64.7884 104.896C64.5139 105.056 64.2124 105.176 63.9508 105.357C63.5858 105.611 63.1345 105.872 62.884 106.248" stroke="#FF0000" stroke-width="3" stroke-linecap="round"/>
<path d="M61.7319 105.864C61.7319 106.943 62.02 108.002 62.02 109.081C62.02 109.625 62.068 110.184 62.068 110.713" stroke="black" stroke-width="3" stroke-linecap="round"/>
<path d="M49.6332 105.288C49.5972 106.081 49.1781 106.801 49.2038 107.611C49.2213 108.163 49.3495 108.734 49.5638 109.241C49.8027 109.805 49.6569 110.52 49.9213 111.049" stroke="black" stroke-width="3" stroke-linecap="round"/>
<path d="M48.4596 105.256C48.4596 105.056 47.667 104.721 47.4497 104.603C47.1857 104.46 46.971 104.198 46.715 104.032C46.5117 103.9 46.348 103.727 46.1556 103.581C46.0218 103.48 45.8585 103.444 45.7202 103.352C45.3306 103.092 44.8879 102.875 44.4866 102.617C44.2238 102.448 43.9054 102.147 43.6037 102.057C43.1297 101.917 42.7171 101.751 42.2552 101.543C41.9608 101.411 41.639 101.258 41.3299 101.147C41.1496 101.083 40.9919 100.957 40.7978 100.957C40.6494 100.957 40.4985 100.965 40.3503 100.957C40.1696 100.947 40.152 100.835 40.1296 101.093C40.0991 101.443 40.0237 101.779 40.0237 102.133C40.0237 102.513 39.9258 102.809 39.8726 103.176C39.8239 103.511 39.8824 103.858 39.8574 104.195C39.827 104.606 39.806 105.006 39.806 105.42C39.806 105.614 39.782 105.828 39.8302 106.018C39.8846 106.233 40.0165 106.401 40.0237 106.629C40.0408 107.166 40.0999 107.735 40.3231 108.226C40.4626 108.533 40.4228 109.029 40.7313 109.242C40.9436 109.388 40.9833 109.676 41.2211 109.816C41.3007 109.863 41.3671 109.954 41.4388 110.019C41.5802 110.146 41.6222 110.106 41.7895 110.182C42.0628 110.306 42.2165 110.22 42.0496 110.536C41.9219 110.777 41.5588 110.59 41.3572 110.59C41.1826 110.59 41.0449 110.486 40.8643 110.481C40.6133 110.474 40.7345 109.973 40.7585 109.795C40.8883 108.834 40.8283 107.869 40.9611 106.913C41.0505 106.269 41.0578 105.648 41.0578 104.993C41.0578 104.366 41.1667 103.759 41.1667 103.134C41.1667 102.954 41.0679 102.329 41.2181 102.178C41.3145 102.082 41.1872 102.45 41.1606 102.584C41.0694 103.042 40.9505 103.493 40.8824 103.956C40.7463 104.882 40.7489 105.842 40.7343 106.777C40.7251 107.363 40.5953 108.252 40.8824 108.794C40.9336 108.891 40.9632 108.59 40.9943 108.486C41.2931 107.479 41.483 106.443 41.7956 105.441C42.1639 104.26 42.8228 103.206 43.1381 102.015C43.5131 100.598 42.4289 104.859 42.0858 106.284C42.0796 106.31 41.7254 107.85 41.717 107.848C41.6383 107.828 41.7346 106.613 41.7412 106.517C41.7859 105.865 41.9286 105.23 41.9286 104.576C41.9286 103.916 41.6401 103.33 41.2997 102.777C41.1666 102.561 41.1844 101.91 40.949 101.785C40.805 101.709 40.7972 101.773 41.0306 101.773C41.2908 101.773 41.5889 101.731 41.844 101.779C42.0596 101.82 42.3439 102.075 42.5152 102.209C42.7218 102.369 42.9652 102.436 43.126 102.656C43.2199 102.785 43.4733 102.807 43.259 102.807C42.9564 102.807 42.9096 102.815 42.6845 102.614C42.4495 102.404 42.1673 102.259 41.9044 102.088C41.6375 101.914 41.235 102.02 40.9943 101.852C40.9008 101.786 40.7754 101.776 40.6647 101.773C40.4891 101.769 40.5979 101.75 40.6647 101.797C41.1087 102.11 41.204 102.907 41.2634 103.376C41.4045 104.488 41.3299 105.64 41.3299 106.759C41.3299 107.228 41.4388 107.678 41.4388 108.141C41.4388 108.343 41.4227 108.868 41.6021 108.957" stroke="#FF0000" stroke-width="3" stroke-linecap="round"/>
<path d="M49.2759 104.984C49.1263 104.951 48.9118 104.71 48.7861 104.616C48.5835 104.464 48.4116 104.284 48.1995 104.138C47.997 103.998 47.8327 103.794 47.6432 103.636C47.2746 103.328 46.8497 103.055 46.4458 102.795C45.8956 102.442 45.4088 102.03 44.8856 101.652C44.3203 101.245 43.7131 100.683 43.0533 100.446C42.6636 100.306 42.1025 100.141 41.6897 100.141C41.4729 100.141 41.2889 99.9773 41.0608 99.9773C40.9247 99.9773 40.7886 99.9773 40.6526 99.9773C40.2992 99.9773 40.0578 99.9929 39.8332 100.304C39.6373 100.575 39.6408 100.857 39.5369 101.169C39.4686 101.373 39.33 101.71 39.3161 101.918C39.2996 102.167 39.2489 102.416 39.1831 102.656C39.0955 102.976 39.1527 103.284 39.0863 103.6C38.9941 104.038 39.044 104.522 39.044 104.972C39.044 105.453 38.9825 105.917 38.9896 106.399C38.9924 106.592 39.0384 106.788 39.0863 106.974C39.1383 107.176 39.1623 107.43 39.2345 107.618C39.3476 107.912 39.3535 108.191 39.4522 108.468C39.5448 108.727 39.6427 109.091 39.6427 109.363C39.6427 109.551 39.6587 109.832 39.7001 110.019C39.7349 110.175 39.8982 110.507 40.0237 110.59" stroke="black" stroke-width="3" stroke-linecap="round"/>
<path d="M35.2485 6.78498C34.8956 6.78498 35.9405 6.63049 36.2929 6.61092C36.8659 6.57909 37.4457 6.17754 38.0336 6.09355C38.4468 6.03453 38.7993 6.0617 39.2037 5.91465C39.4702 5.81773 39.7493 5.79682 40.0305 5.74059C40.5344 5.63981 40.9918 5.30542 41.5149 5.30542" stroke="#49CC47" stroke-width="3" stroke-linecap="round"/>
<path d="M37.8596 6.17578C38.7251 6.08924 39.5361 5.68019 40.3884 5.56655C41.3161 5.44285 42.2925 5.56655 43.2363 5.56655C45.0544 5.56655 46.8064 5.26617 48.6034 5.06369C49.9568 4.91119 51.2621 5.22819 52.602 5.30062C53.274 5.33694 53.841 5.4694 54.4974 5.61007C55.2478 5.77086 56.022 5.85592 56.7651 6.02106C57.9153 6.27665 59.0959 6.6647 60.2223 7.0026C60.7611 7.16426 61.3684 7.25795 61.8807 7.48128C62.1163 7.58398 62.3489 7.54775 62.5963 7.58765C62.9515 7.64494 63.2551 7.8516 63.6117 7.91644C64.2606 8.03442 65.0735 8.25815 65.6715 8.52567C66.3164 8.81418 66.8468 9.22935 67.4509 9.53139C67.7238 9.66788 68.0547 9.96863 68.2777 10.1745C68.5925 10.4651 68.9922 10.6395 69.3462 10.8756C69.5664 11.0224 69.7408 11.2484 69.9748 11.3784C70.1252 11.462 70.41 11.5276 70.41 11.6153C70.41 11.8511 70.4899 12.0971 70.5889 12.3116C70.7467 12.6536 70.8477 12.5847 71.1062 12.7226C71.4367 12.8988 70.3517 12.8589 69.9845 12.7855C69.8973 12.768 70.2203 12.3068 70.2843 12.2246C70.4623 11.9957 70.8449 11.8264 71.0869 11.6589C71.4064 11.4377 71.7857 11.2734 72.0636 11.011C72.4208 10.6736 73.0711 10.5068 73.3256 10.0488C73.4219 9.87542 73.6227 9.8708 73.7172 9.70546C73.8119 9.53984 74.0326 9.32727 74.1524 9.15425C74.2954 8.94765 74.5252 8.84681 74.6553 8.61271C74.7726 8.40139 74.9136 8.22877 75.0662 8.04216C75.1762 7.9078 75.3144 7.5882 75.3709 7.43293C75.424 7.28669 75.6244 7.00797 75.632 6.87205C75.6434 6.66687 75.8752 6.45992 75.5643 6.43688C75.0705 6.40031 74.535 6.21276 74.0702 6.05007C73.5256 5.85944 72.9644 5.62527 72.4117 5.44567C71.8692 5.26936 71.2527 5.32269 70.7388 5.11205C69.7851 4.7212 68.9275 4.16552 67.9199 3.99029C67.7013 3.95227 67.4918 3.84209 67.2768 3.78237C67.0618 3.72264 66.8424 3.77146 66.6289 3.71952C66.0354 3.57516 65.4243 3.4124 64.8592 3.18281C63.09 2.46407 60.8412 2.78149 58.9603 2.78149C57.0037 2.78149 55.047 2.78149 53.0904 2.78149C52.5972 2.78149 52.104 2.78149 51.6108 2.78149C50.9407 2.78149 50.3189 2.95556 49.6478 2.95556C49.1652 2.95556 48.6795 2.94 48.1972 2.95556C47.3976 2.98136 46.7629 3.50066 46.0069 3.64699C45.5892 3.72783 45.1435 3.84304 44.7352 3.95644C44.2573 4.08921 43.7993 4.08263 43.362 4.34809C42.9834 4.578 42.5339 4.71382 42.1339 4.9138C41.9115 5.02499 41.3517 5.19699 41.2539 5.39249" stroke="#49CC47" stroke-width="5" stroke-linecap="round"/>
<path d="M58.0513 4.8701C60.0707 4.8701 62.0693 4.72621 64.0856 4.86526C65.2971 4.94881 66.3785 5.29505 67.5379 5.65339C67.8016 5.73491 68.1099 5.68226 68.3405 5.82746C68.6805 6.04151 68.9754 6.12279 69.3607 6.21911C69.8237 6.33484 70.2507 6.54689 70.7194 6.65911C71.0739 6.744 71.4645 6.61826 71.7977 6.78482C72.0469 6.90947 72.274 6.89569 72.2328 7.22482C72.1953 7.52483 71.8069 7.89292 71.5897 8.09032C71.266 8.3846 70.4242 8.47801 69.999 8.51581C69.3573 8.57285 67.8058 8.63729 67.3831 8.00329C67.1383 7.63597 67.5346 8.51894 67.6249 8.63186C68.0568 9.17178 68.4782 9.70999 68.8917 10.2613C69.3155 10.8264 69.4528 11.2688 69.5348 12.0068C69.5587 12.2221 69.5396 12.4476 69.5396 12.6644C69.5396 12.8996 69.6873 13.0883 69.7137 13.3123C69.7654 13.7515 69.7918 14.1826 70.2794 14.1826C70.6695 14.1826 71.0769 14.3357 71.4544 14.3567C71.5661 14.3629 71.9291 14.4103 71.9766 14.3035C72.0974 14.0316 72.2174 13.6257 72.2377 13.3316C72.2606 12.9995 72.6094 12.5548 72.7599 12.2582C72.9612 11.8614 73.2815 11.5291 73.4996 11.1413C73.7323 10.7277 74.1024 10.3383 74.37 9.95186C75.0326 8.99466 75.5449 8.12821 75.5449 6.95889" stroke="#49CC47" stroke-width="5" stroke-linecap="round"/>
<rect x="58.8032" y="57.512" width="30.5275" height="18.9896" rx="2" transform="rotate(50 58.8032 57.512)" fill="url(#paint0_linear_76_101)"/>
<rect x="57.269" y="64.9013" width="3.48185" height="2.26476" rx="0.75" transform="rotate(50 57.269 64.9013)" fill="url(#paint1_linear_76_101)" stroke="black" stroke-width="0.5"/>
<line x1="58.1714" y1="65.5878" x2="56.0535" y2="67.3649" stroke="black" stroke-width="0.5"/>
<line x1="56.7667" y1="64.9963" x2="57.4777" y2="65.8436" stroke="black" stroke-width="0.5"/>
<line x1="56.098" y1="65.5576" x2="56.809" y2="66.4049" stroke="black" stroke-width="0.5"/>
<line x1="58.6319" y1="67.608" x2="57.2385" y2="68.7772" stroke="black" stroke-width="0.5"/>
<line x1="58.6627" y1="67.2558" x2="59.3263" y2="68.0466" stroke="black" stroke-width="0.5"/>
<line x1="57.994" y1="67.8168" x2="58.6576" y2="68.6077" stroke="black" stroke-width="0.5"/>
<path d="M55.4958 65.1725C56.0388 65.2738 56.5552 64.9148 56.6494 64.3706C56.7435 63.8264 56.3797 63.3031 55.8368 63.2018L55.4958 65.1725ZM54.9328 65.0674L55.4958 65.1725L55.8368 63.2018L55.2738 63.0967L54.9328 65.0674Z" fill="#FFF1F1" fill-opacity="0.7"/>
<path d="M54.109 64.6516C54.1145 65.2038 54.5667 65.653 55.119 65.6547C55.6712 65.6565 56.1145 65.2102 56.109 64.658L54.109 64.6516ZM54.1033 64.0788L54.109 64.6516L56.109 64.658L56.1033 64.0852L54.1033 64.0788Z" fill="#FFF1F1" fill-opacity="0.7"/>
<ellipse cx="55.1032" cy="64.0818" rx="0.073738" ry="0.072757" transform="rotate(50 55.1032 64.0818)" fill="#FFF1F1" fill-opacity="0.7"/>
<path d="M73.0041 110.259C72.7919 110.259 72.7755 109.943 72.7089 109.786C72.3309 108.898 71.8171 108.069 71.3862 107.208C70.919 106.273 70.7619 105.204 70.4532 104.212C70.0861 103.032 69.7713 101.838 69.4455 100.646C68.6322 97.6705 67.8662 94.7047 67.3748 91.6584C67.0856 89.865 67.2047 88.1761 67.7055 86.4346C68.295 84.3846 69.7568 82.4624 71.587 81.3643C73.2684 80.3554 74.8342 81.2837 75.9683 82.5846C76.8625 83.6103 77.6131 84.747 78.1374 86.0016C78.3877 86.6005 78.6327 87.1122 78.7948 87.7415C78.9897 88.4983 79.4311 89.167 79.6963 89.8987C80.3608 91.7328 80.8481 93.6354 81.3654 95.5123C81.6619 96.5884 81.7511 97.7165 82.07 98.7796C82.3142 99.5937 82.1448 100.669 82.1448 101.512C82.1448 102.245 82.1448 102.979 82.1448 103.712C82.1448 104.296 82.2912 105.17 82.0582 105.724C81.9768 105.917 81.9322 106.078 81.9322 106.291" stroke="white" stroke-width="5" stroke-linecap="round"/>
<path d="M74.067 83.8288C73.5487 83.7547 73.3522 83.6818 72.8585 83.939C72.2484 84.2568 71.8624 84.605 71.4689 85.1672C70.7553 86.1866 70.1532 87.0846 69.788 88.2613C69.7448 88.4006 69.701 88.9578 69.973 88.6235C70.3475 88.1631 70.6253 87.6172 70.9965 87.1473C71.4714 86.5461 71.9374 85.938 72.4452 85.364C72.5205 85.2789 72.9025 84.7117 72.8349 84.8759C72.1283 86.592 70.7961 87.9943 70.0635 89.7139C69.8772 90.1513 69.653 90.6551 69.6069 91.1389C69.5901 91.315 69.686 91.23 69.784 91.1271C70.4279 90.4515 70.9296 89.6602 71.587 88.9896C72.3838 88.1768 73.2754 87.4466 74.004 86.5686C74.2715 86.2462 74.9253 85.169 74.6929 85.5175C74.3651 86.0093 74.1122 86.5645 73.7915 87.0646C72.9532 88.3716 72.1198 89.6787 71.2996 90.9972C70.9197 91.608 70.4589 92.2112 70.2053 92.8907C70.1395 93.0668 69.9447 93.4783 70.1305 93.4497C70.2086 93.4377 70.3551 93.2584 70.3667 93.245C70.7693 92.7776 71.1356 92.2755 71.524 91.7963C72.4018 90.7133 73.3425 89.6902 74.2481 88.6314C74.543 88.2866 75.2444 87.1389 75.0984 87.5685C74.8556 88.2825 74.3145 88.9112 73.945 89.5604C73.5583 90.2396 73.1459 90.9912 73.1459 91.7924C73.1459 92.0309 73.275 91.3333 73.3388 91.1035C73.6085 90.1309 73.86 89.1535 74.1064 88.1747C74.3389 87.2513 74.6592 86.3212 74.7047 85.364C74.7151 85.1473 74.8142 85.0577 74.9488 84.9231C75.0515 84.8205 75.4049 86.0705 75.4448 86.2301C75.7533 87.4641 76.5034 88.5077 77.0588 89.6391C77.5467 90.633 78.147 91.6464 78.4838 92.7018C78.9454 94.1481 79.5683 95.5437 80.0663 96.9847C80.3369 97.7678 80.733 98.4524 80.9127 99.2679C81.0829 100.04 81.1252 100.807 81.263 101.575C81.3942 102.306 81.4362 103.05 81.4362 103.795C81.4362 104.319 81.4524 105.027 81.1095 105.476C80.4716 106.31 79.6239 107.197 78.7121 107.708C78.4949 107.83 78.2959 107.827 78.0744 107.92C77.7804 108.044 77.4594 107.92 77.169 108.023C76.7833 108.16 76.2071 107.983 75.8739 108.168C75.6586 108.288 75.4384 108.445 75.2007 108.542C75.1721 108.554 74.8223 107.109 74.7992 107.027C74.1893 104.869 73.9177 102.644 73.264 100.504C72.6123 98.3715 72.2626 96.1614 71.3272 94.1268C70.9297 93.2622 70.6514 92.3711 70.3509 91.4696C70.3048 91.3314 70.2316 90.9759 70.1383 91.0878C70.043 91.2022 70.048 91.3732 70.0281 91.5208C69.9131 92.3744 69.8875 93.2438 69.8549 94.1032C69.7916 95.772 69.6966 97.4648 69.7801 99.1341C69.8507 100.545 70.2656 101.784 70.7446 103.094C71.0653 103.972 71.3932 104.756 71.8547 105.566C72.0048 105.83 72.2529 106.271 72.2995 105.712C72.5073 103.219 72.5701 100.75 72.9175 98.268C73.1489 96.6151 73.1426 94.8811 73.0593 93.2135C73.0529 93.0864 73.0079 92.5585 73.0081 92.56C73.112 93.7547 73.3805 94.9446 73.571 96.1266C74.0844 99.3121 74.526 102.559 75.8267 105.543C76.05 106.055 76.119 107.184 76.7084 107.456C76.7755 107.487 76.762 107.317 76.7714 107.243C76.8551 106.591 76.7937 107.001 76.9092 106.192C77.0521 105.192 77.1789 104.224 77.1848 103.212C77.196 101.28 77.2261 99.3203 76.9564 97.402C76.7998 96.2875 76.5264 95.2488 76.2715 94.1583C76.1394 93.5934 75.924 93.0844 75.7125 92.5443C75.4573 91.8925 75.2527 91.2291 74.874 90.6351C74.6627 90.3037 74.4229 89.9921 74.2205 89.6549C74.1274 89.4996 74.0325 89.2745 73.8702 89.1746C73.7284 89.0873 73.7942 89.623 73.7954 89.6352C73.859 90.3034 74.1254 90.933 74.4371 91.5208C75.414 93.3634 76.7732 94.9838 78.0666 96.6068C78.7255 97.4337 79.4183 98.2812 79.6254 99.3467C79.7413 99.9427 79.6648 100.6 79.6648 101.205C79.6648 101.286 79.6648 102.111 79.6648 101.685" stroke="white" stroke-width="5" stroke-linecap="round"/>
<path d="M70.737 111.109C70.695 110.731 70.4293 110.521 70.3276 110.188C70.1751 109.689 69.9703 109.182 69.8001 108.684C69.4639 107.7 69.0385 106.746 68.6978 105.763C68.3262 104.691 68.1317 103.557 67.8003 102.472C67.6114 101.854 67.4807 101.226 67.3712 100.59C67.2244 99.7393 66.9869 98.9612 66.7453 98.1341C66.4996 97.2932 66.6292 96.3597 66.454 95.5044C66.2973 94.7397 66.1312 93.8948 66.1312 93.111C66.1312 92.8231 66.0609 92.6373 65.9973 92.367C65.9422 92.1326 66.0095 91.8665 65.9855 91.6269C65.9641 91.4121 65.8876 91.182 65.8123 90.9813C65.6938 90.6652 65.7264 90.365 65.7021 90.0366C65.6495 89.3267 65.5201 88.6137 65.4226 87.9069C65.3005 87.0213 65.3518 86.116 65.3518 85.2222C65.3518 83.782 66.1729 82.5155 67.1193 81.4903C68.0869 80.442 69.3668 80.1051 70.5795 79.4197C71.0617 79.1471 71.6821 79.0242 72.225 78.9237C72.7705 78.8227 73.2668 78.656 73.8311 78.656C74.4802 78.656 74.9861 78.9235 75.6104 79.0654C76.0099 79.1562 76.5698 79.2121 76.9016 79.4748C77.3104 79.7985 77.8008 80.1148 78.2479 80.3881C78.5407 80.567 78.7283 80.8533 78.9998 81.0652C79.279 81.2831 79.5382 81.4457 79.7359 81.7423C79.9377 82.045 80.0686 82.3634 80.2044 82.6988C80.4671 83.348 80.8363 83.9675 81.1137 84.6159C81.5987 85.7495 81.9774 86.9214 82.3419 88.0959C82.5092 88.635 82.5897 89.1932 82.7828 89.7256C82.992 90.3022 83.1757 90.8417 83.3103 91.438C83.4569 92.0873 83.5 92.7897 83.704 93.422C83.9698 94.2461 83.9874 94.9862 83.9874 95.8548C83.9874 97.0455 83.8562 98.3152 84.1134 99.4725C84.2308 100.001 84.1363 100.542 84.2708 101.063C84.44 101.718 84.5083 102.393 84.5582 103.067C84.5847 103.424 84.7668 103.767 84.7668 104.125C84.7668 104.252 84.8835 104.684 84.9794 104.732" stroke="black" stroke-width="3" stroke-linecap="round"/>
<circle cx="56.512" cy="57.512" r="56.012" stroke="black"/>
<defs>
<linearGradient id="paint0_linear_76_101" x1="89.3308" y1="67.0067" x2="58.8032" y2="67.0067" gradientUnits="userSpaceOnUse">
<stop offset="0.175" stop-color="#82D62E"/>
<stop offset="0.47" stop-color="#98E54B"/>
<stop offset="0.65" stop-color="#A8F060"/>
<stop offset="1" stop-color="#BEFF7C"/>
</linearGradient>
<linearGradient id="paint1_linear_76_101" x1="61.2817" y1="65.9315" x2="57.2998" y2="65.9315" gradientUnits="userSpaceOnUse">
<stop stop-color="#6A5E5E"/>
<stop offset="0.215" stop-color="#8B7B7B"/>
<stop offset="0.43" stop-color="#A29090"/>
<stop offset="0.815" stop-color="#D0B9B9"/>
</linearGradient>
</defs>
</svg>
