<svg width="1440" height="170" viewBox="0 0 1440 170" fill="none" xmlns="http://www.w3.org/2000/svg">
<g clip-path="url(#clip0_64_42)">
<rect width="1440" height="170" fill="#E3FFC7"/>
<path d="M200.548 50.772C199.66 50.772 198.748 50.664 197.812 50.448C196.9 50.232 195.988 49.932 195.076 49.548C194.836 49.428 194.668 49.272 194.572 49.08C194.476 48.912 194.428 48.744 194.428 48.576C194.428 48.432 194.452 48.288 194.5 48.144C194.644 47.736 194.956 47.532 195.436 47.532C195.604 47.532 195.772 47.568 195.94 47.64C196.708 47.952 197.476 48.192 198.244 48.36C199.012 48.552 199.768 48.648 200.512 48.648C202.432 48.648 204.196 48.108 205.804 47.028C207.46 45.948 208.696 44.568 209.512 42.888C210.328 41.208 210.736 39.384 210.736 37.416C210.736 35.88 210.508 34.38 210.052 32.916C209.74 31.86 209.332 30.9 208.828 30.036C208.348 29.172 207.892 28.452 207.46 27.876C207.028 27.276 206.728 26.88 206.56 26.688C205.624 26.688 204.556 26.712 203.356 26.76C202.156 26.784 200.92 26.832 199.648 26.904C198.376 26.952 197.128 27.012 195.904 27.084C194.704 27.156 193.612 27.228 192.628 27.3C192.244 27.324 191.944 27.228 191.728 27.012C191.536 26.772 191.44 26.544 191.44 26.328C191.416 26.064 191.488 25.812 191.656 25.572C191.824 25.332 192.076 25.2 192.412 25.176C195.196 24.984 197.728 24.84 200.008 24.744C202.288 24.624 204.52 24.564 206.704 24.564C208.432 24.564 210.184 24.6 211.96 24.672C213.736 24.744 215.62 24.876 217.612 25.068C218.02 25.14 218.284 25.296 218.404 25.536C218.548 25.752 218.596 25.992 218.548 26.256C218.476 26.976 218.092 27.3 217.396 27.228C216.82 27.18 216.148 27.132 215.38 27.084C214.612 27.036 213.832 26.988 213.04 26.94C212.248 26.868 211.516 26.82 210.844 26.796C210.172 26.748 209.656 26.724 209.296 26.724C210.88 28.908 211.948 31.152 212.5 33.456C212.788 34.752 212.932 36.036 212.932 37.308C212.932 39.78 212.392 42.048 211.312 44.112C210.232 46.176 208.66 47.844 206.596 49.116C204.7 50.22 202.684 50.772 200.548 50.772ZM232.912 51.132C230.584 51.132 228.556 50.652 226.828 49.692C225.124 48.732 223.792 47.412 222.832 45.732C221.896 44.028 221.428 42.06 221.428 39.828C221.428 37.524 221.896 35.532 222.832 33.852C223.768 32.148 225.088 30.828 226.792 29.892C228.52 28.956 230.56 28.488 232.912 28.488C235.312 28.488 237.364 28.956 239.068 29.892C240.796 30.804 242.116 32.112 243.028 33.816C243.94 35.496 244.396 37.5 244.396 39.828C244.396 42.108 243.928 44.1 242.992 45.804C242.056 47.508 240.724 48.816 238.996 49.728C237.292 50.664 235.264 51.132 232.912 51.132ZM232.912 48.864C235.864 48.864 238.132 48.06 239.716 46.452C241.324 44.844 242.128 42.636 242.128 39.828C242.128 36.9 241.3 34.656 239.644 33.096C237.988 31.536 235.744 30.756 232.912 30.756C230.08 30.756 227.836 31.56 226.18 33.168C224.524 34.776 223.696 36.996 223.696 39.828C223.696 41.7 224.092 43.308 224.884 44.652C225.676 45.996 226.768 47.04 228.16 47.784C229.552 48.504 231.136 48.864 232.912 48.864ZM267.932 50.664C267.62 50.664 267.344 50.556 267.104 50.34C266.888 50.148 266.78 49.896 266.78 49.584C266.78 49.488 266.804 49.368 266.852 49.224C267.26 47.952 267.584 46.62 267.824 45.228C268.088 43.812 268.22 42.456 268.22 41.16C268.22 38.592 267.68 36.552 266.6 35.04C265.544 33.504 263.864 32.652 261.56 32.484C259.832 32.412 258.344 32.844 257.096 33.78C255.848 34.716 254.804 35.952 253.964 37.488C253.22 38.904 252.656 40.512 252.272 42.312C251.912 44.112 251.732 45.864 251.732 47.568C251.732 47.808 251.732 48.048 251.732 48.288C251.732 48.552 251.744 48.804 251.768 49.044C251.768 49.476 251.636 49.776 251.372 49.944C251.132 50.136 250.88 50.232 250.616 50.232C250.016 50.232 249.68 49.884 249.608 49.188C249.44 47.676 249.284 45.996 249.14 44.148C249.02 42.276 248.912 40.404 248.816 38.532C248.744 36.636 248.708 34.896 248.708 33.312C248.708 32.856 248.708 32.424 248.708 32.016C248.708 31.608 248.72 31.224 248.744 30.864C248.744 30.456 248.864 30.168 249.104 30C249.368 29.832 249.62 29.772 249.86 29.82C250.148 29.82 250.388 29.916 250.58 30.108C250.796 30.3 250.904 30.564 250.904 30.9C250.928 31.836 250.94 32.652 250.94 33.348C250.94 34.044 250.94 34.764 250.94 35.508C250.964 36.252 250.976 37.2 250.976 38.352C251.48 36.72 252.224 35.28 253.208 34.032C254.216 32.784 255.392 31.812 256.736 31.116C258.08 30.396 259.52 30.036 261.056 30.036C263.048 30.036 264.74 30.48 266.132 31.368C267.548 32.256 268.628 33.504 269.372 35.112C270.116 36.696 270.488 38.532 270.488 40.62C270.488 42.228 270.344 43.788 270.056 45.3C269.768 46.812 269.384 48.348 268.904 49.908C268.832 50.172 268.7 50.364 268.508 50.484C268.34 50.604 268.148 50.664 267.932 50.664ZM288.619 54.984C287.587 54.984 286.711 54.636 285.991 53.94C285.271 53.244 284.935 52.368 284.983 51.312C285.127 50.28 285.583 49.452 286.351 48.828C287.143 48.204 288.091 47.724 289.195 47.388C290.299 47.028 291.391 46.752 292.471 46.56C292.543 45.84 292.591 45.372 292.615 45.156C292.663 44.916 292.699 44.736 292.723 44.616C291.571 45.552 290.251 46.284 288.763 46.812C287.275 47.34 285.787 47.604 284.299 47.604C282.883 47.604 281.563 47.352 280.339 46.848C278.539 46.08 277.159 44.904 276.199 43.32C275.263 41.712 274.795 39.996 274.795 38.172C274.795 36.204 275.263 34.464 276.199 32.952C277.159 31.44 278.455 30.252 280.087 29.388C281.719 28.524 283.543 28.092 285.559 28.092C286.999 28.092 288.355 28.332 289.627 28.812C290.899 29.292 292.003 30.024 292.939 31.008C293.347 31.008 293.623 31.092 293.767 31.26C293.935 31.428 294.043 31.644 294.091 31.908C294.355 33.108 294.559 34.584 294.703 36.336C294.871 38.088 294.955 39.816 294.955 41.52C294.955 42.456 294.931 43.344 294.883 44.184C294.835 45.024 294.751 45.768 294.631 46.416C295.783 46.416 296.299 46.812 296.179 47.604C296.179 47.868 296.071 48.096 295.855 48.288C295.663 48.48 295.387 48.576 295.027 48.576C294.979 48.552 294.907 48.54 294.811 48.54C294.715 48.54 294.523 48.54 294.235 48.54C293.971 49.716 293.611 50.784 293.155 51.744C292.699 52.728 292.099 53.508 291.355 54.084C290.635 54.684 289.723 54.984 288.619 54.984ZM281.887 45.084C282.631 45.324 283.447 45.444 284.335 45.444C285.919 45.444 287.491 45.072 289.051 44.328C290.611 43.584 291.883 42.588 292.867 41.34C292.867 40.956 292.843 40.404 292.795 39.684C292.747 38.964 292.675 38.196 292.579 37.38C292.507 36.54 292.423 35.784 292.327 35.112C292.255 34.416 292.195 33.912 292.147 33.6C291.739 32.856 291.139 32.232 290.347 31.728C289.555 31.224 288.679 30.852 287.719 30.612C286.783 30.348 285.859 30.216 284.947 30.216C283.339 30.264 281.947 30.648 280.771 31.368C279.595 32.064 278.683 33.012 278.035 34.212C277.411 35.388 277.099 36.744 277.099 38.28C277.099 39.888 277.507 41.304 278.323 42.528C279.163 43.752 280.351 44.604 281.887 45.084ZM288.691 52.896C289.291 52.896 289.795 52.68 290.203 52.248C290.635 51.816 290.995 51.288 291.283 50.664C291.571 50.04 291.799 49.428 291.967 48.828C291.295 48.972 290.587 49.164 289.843 49.404C289.099 49.644 288.463 49.932 287.935 50.268C287.431 50.628 287.179 51.072 287.179 51.6C287.179 51.96 287.323 52.26 287.611 52.5C287.923 52.764 288.283 52.896 288.691 52.896ZM335.183 50.916C332.279 50.916 329.735 50.34 327.551 49.188C325.367 48.06 323.663 46.476 322.439 44.436C321.239 42.372 320.639 39.96 320.639 37.2C320.639 35.136 320.999 33.252 321.719 31.548C322.439 29.82 323.459 28.332 324.779 27.084C326.099 25.812 327.635 24.828 329.387 24.132C331.163 23.436 333.095 23.088 335.183 23.088C337.247 23.088 339.203 23.484 341.051 24.276C342.923 25.068 344.555 26.22 345.947 27.732C346.139 27.972 346.235 28.212 346.235 28.452C346.235 28.74 346.115 29.004 345.875 29.244C345.707 29.46 345.467 29.568 345.155 29.568C344.843 29.568 344.579 29.448 344.363 29.208C343.163 27.912 341.771 26.928 340.187 26.256C338.627 25.584 336.959 25.248 335.183 25.248C332.807 25.248 330.683 25.752 328.811 26.76C326.939 27.768 325.463 29.172 324.383 30.972C323.327 32.772 322.799 34.848 322.799 37.2C322.799 39.576 323.315 41.628 324.347 43.356C325.379 45.084 326.819 46.416 328.667 47.352C330.539 48.288 332.711 48.756 335.183 48.756C336.887 48.756 338.495 48.456 340.007 47.856C341.543 47.232 342.887 46.332 344.039 45.156C344.255 44.94 344.507 44.832 344.795 44.832C345.083 44.832 345.335 44.94 345.551 45.156C345.767 45.372 345.875 45.624 345.875 45.912C345.875 46.224 345.767 46.488 345.551 46.704C344.231 48.024 342.647 49.056 340.799 49.8C338.975 50.544 337.103 50.916 335.183 50.916ZM361.428 50.916C361.236 50.94 361.032 50.952 360.816 50.952C360.624 50.952 360.432 50.952 360.24 50.952C358.104 50.952 356.196 50.496 354.516 49.584C352.836 48.696 351.516 47.46 350.556 45.876C349.596 44.292 349.116 42.48 349.116 40.44C349.116 38.52 349.488 36.756 350.232 35.148C351 33.516 352.08 32.16 353.472 31.08C354.864 30 356.508 29.316 358.404 29.028C358.668 28.98 358.956 28.944 359.268 28.92C359.58 28.896 359.892 28.884 360.204 28.884C361.5 28.884 362.844 29.064 364.236 29.424C365.652 29.76 366.84 30.24 367.8 30.864C367.92 30.6 368.112 30.444 368.376 30.396C368.64 30.324 368.856 30.312 369.024 30.36C369.288 30.384 369.492 30.504 369.636 30.72C369.78 30.936 369.852 31.188 369.852 31.476C369.828 32.028 369.804 32.568 369.78 33.096C369.78 33.624 369.78 34.152 369.78 34.68C369.78 37.368 369.972 39.756 370.356 41.844C370.764 43.932 371.52 45.756 372.624 47.316C372.768 47.532 372.84 47.748 372.84 47.964C372.84 48.252 372.72 48.492 372.48 48.684C372.264 48.876 372.024 48.972 371.76 48.972C371.4 48.972 371.1 48.816 370.86 48.504C370.62 48.168 370.38 47.796 370.14 47.388C369.924 46.98 369.744 46.62 369.6 46.308C368.616 47.676 367.416 48.732 366 49.476C364.584 50.244 363.06 50.724 361.428 50.916ZM360.708 48.828C362.34 48.828 363.84 48.372 365.208 47.46C366.6 46.548 367.728 45.3 368.592 43.716C368.232 42.372 367.968 40.812 367.8 39.036C367.632 37.26 367.56 35.412 367.584 33.492C367.104 32.964 366.468 32.52 365.676 32.16C364.884 31.8 364.02 31.524 363.084 31.332C362.148 31.14 361.224 31.044 360.312 31.044C359.712 31.044 359.148 31.08 358.62 31.152C358.092 31.224 357.6 31.356 357.144 31.548C355.32 32.22 353.868 33.348 352.788 34.932C351.732 36.492 351.204 38.28 351.204 40.296C351.204 42.072 351.624 43.596 352.464 44.868C353.328 46.14 354.48 47.124 355.92 47.82C357.36 48.492 358.956 48.828 360.708 48.828ZM380.913 50.448C380.601 50.448 380.337 50.34 380.121 50.124C379.929 49.932 379.833 49.68 379.833 49.368C379.761 48.048 379.641 46.62 379.473 45.084C379.329 43.548 379.137 41.988 378.897 40.404C378.681 38.796 378.429 37.272 378.141 35.832C377.853 34.368 377.553 33.072 377.241 31.944C377.193 31.752 377.169 31.62 377.169 31.548C377.169 31.236 377.277 30.996 377.493 30.828C377.733 30.66 377.985 30.576 378.249 30.576C378.489 30.576 378.705 30.648 378.897 30.792C379.113 30.912 379.257 31.092 379.329 31.332C379.593 32.172 379.845 33.168 380.085 34.32C380.325 35.472 380.541 36.636 380.733 37.812C380.925 38.964 381.069 39.984 381.165 40.872C381.621 38.976 382.389 37.344 383.469 35.976C384.573 34.584 385.905 33.516 387.465 32.772C389.049 32.028 390.765 31.656 392.613 31.656C394.125 31.656 395.649 31.932 397.185 32.484C397.665 32.7 397.905 33.024 397.905 33.456C397.905 34.176 397.557 34.536 396.861 34.536C396.693 34.536 396.561 34.524 396.465 34.5C395.313 34.116 394.053 33.924 392.685 33.924C390.717 33.924 389.061 34.32 387.717 35.112C386.373 35.904 385.281 37.008 384.441 38.424C383.625 39.84 383.025 41.472 382.641 43.32C382.257 45.168 382.041 47.16 381.993 49.296C381.993 49.68 381.873 49.968 381.633 50.16C381.417 50.352 381.177 50.448 380.913 50.448ZM411.785 50.628C409.433 50.628 407.405 50.196 405.701 49.332C403.997 48.492 402.689 47.28 401.777 45.696C400.865 44.088 400.409 42.168 400.409 39.936C400.409 37.872 400.877 36.084 401.813 34.572C402.749 33.06 404.021 31.896 405.629 31.08C407.237 30.24 409.049 29.82 411.065 29.82C413.105 29.82 415.109 30.24 417.077 31.08C417.461 31.248 417.653 31.512 417.653 31.872C417.653 32.04 417.593 32.208 417.473 32.376C417.257 32.784 416.909 32.988 416.429 32.988C416.261 32.988 416.081 32.952 415.889 32.88C414.353 32.256 412.805 31.944 411.245 31.944C409.541 31.944 408.029 32.316 406.709 33.06C405.389 33.78 404.357 34.764 403.613 36.012C402.893 37.26 402.533 38.688 402.533 40.296C402.533 42 402.917 43.464 403.685 44.688C404.453 45.912 405.521 46.848 406.889 47.496C408.281 48.144 409.865 48.468 411.641 48.468C412.913 48.468 414.077 48.312 415.133 48C416.189 47.712 417.113 47.376 417.905 46.992C417.761 45.96 417.653 44.808 417.581 43.536C417.509 42.24 417.473 40.896 417.473 39.504C417.473 37.848 417.509 36.168 417.581 34.464C417.677 32.76 417.785 31.104 417.905 29.496C418.049 27.888 418.205 26.412 418.373 25.068C418.421 24.732 418.541 24.492 418.733 24.348C418.949 24.18 419.177 24.096 419.417 24.096C419.705 24.096 419.969 24.204 420.209 24.42C420.449 24.636 420.545 24.936 420.497 25.32C420.353 26.568 420.221 27.96 420.101 29.496C419.981 31.032 419.885 32.64 419.813 34.32C419.741 35.976 419.705 37.62 419.705 39.252C419.705 41.22 419.765 43.068 419.885 44.796C420.005 46.524 420.209 47.976 420.497 49.152C420.521 49.224 420.533 49.332 420.533 49.476C420.533 49.692 420.461 49.896 420.317 50.088C420.173 50.304 419.969 50.436 419.705 50.484C418.985 50.556 418.541 50.28 418.373 49.656L418.301 49.224C417.413 49.68 416.369 50.028 415.169 50.268C413.993 50.508 412.865 50.628 411.785 50.628ZM433.842 28.92C433.098 28.92 432.51 28.752 432.078 28.416C431.646 28.08 431.262 27.648 430.926 27.12C430.566 26.472 430.23 26.016 429.918 25.752C429.63 25.464 429.27 25.32 428.838 25.32C428.382 25.32 427.974 25.572 427.614 26.076C427.254 26.556 427.014 27.072 426.894 27.624C426.822 27.96 426.69 28.188 426.498 28.308C426.306 28.404 426.09 28.452 425.85 28.452C425.538 28.452 425.274 28.332 425.058 28.092C424.866 27.828 424.806 27.54 424.878 27.228C425.142 26.076 425.634 25.128 426.354 24.384C427.074 23.64 427.914 23.268 428.874 23.268C429.57 23.268 430.158 23.412 430.638 23.7C431.142 23.964 431.61 24.42 432.042 25.068C432.45 25.74 432.75 26.208 432.942 26.472C433.158 26.736 433.458 26.868 433.842 26.868C434.37 26.868 434.778 26.64 435.066 26.184C435.378 25.728 435.546 25.2 435.57 24.6C435.618 24.24 435.75 23.988 435.966 23.844C436.206 23.676 436.434 23.616 436.65 23.664C437.298 23.664 437.622 24.024 437.622 24.744C437.55 25.848 437.166 26.82 436.47 27.66C435.774 28.5 434.898 28.92 433.842 28.92Z" fill="black"/>
<path d="M324.92 115.36C325.933 114.667 326.893 114.24 327.8 114.08C328.76 113.92 329.64 113.893 330.44 114C331.24 114.107 331.933 114.32 332.52 114.64C333.16 114.907 333.613 115.147 333.88 115.36L341.72 120.4C342.68 121.093 343.533 121.707 344.28 122.24C345.08 122.773 345.853 123.307 346.6 123.84C347.4 124.32 348.253 124.853 349.16 125.44C350.067 126.027 351.16 126.72 352.44 127.52C353.133 127.947 353.853 128.48 354.6 129.12C355.4 129.76 355.88 130.533 356.04 131.44C356.2 132.187 356.147 132.933 355.88 133.68C355.613 134.427 355.187 135.04 354.6 135.52C353.693 136.267 352.813 136.587 351.96 136.48C351.107 136.373 350.2 136.107 349.24 135.68L333.16 126.88C332.52 126.507 331.907 126.187 331.32 125.92C330.787 125.6 330.093 125.36 329.24 125.2C328.493 125.253 327.827 125.413 327.24 125.68C326.707 125.947 326.173 126.293 325.64 126.72C324.573 127.413 323.453 128.133 322.28 128.88C321.107 129.573 319.933 130.267 318.76 130.96C317.64 131.6 316.547 132.213 315.48 132.8C314.467 133.387 313.56 133.867 312.76 134.24C312.173 134.56 311.507 134.88 310.76 135.2C310.013 135.52 309.267 135.76 308.52 135.92C307.773 136.133 307 136.213 306.2 136.16C305.453 136.16 304.76 136 304.12 135.68C303.267 135.253 302.653 134.613 302.28 133.76C301.907 132.907 301.853 132.027 302.12 131.12C302.387 130.213 302.973 129.467 303.88 128.88C304.84 128.293 305.64 127.733 306.28 127.2C307.293 126.4 308.253 125.707 309.16 125.12C310.12 124.533 311.053 123.973 311.96 123.44C312.92 122.907 313.853 122.373 314.76 121.84C315.72 121.253 316.733 120.587 317.8 119.84C318.707 119.147 319.72 118.507 320.84 117.92C322.013 117.28 323.373 116.427 324.92 115.36ZM300.36 94.08C299.56 93.8133 299 93.3067 298.68 92.56C298.253 91.7067 298.173 90.88 298.44 90.08C298.76 89.28 299.24 88.5333 299.88 87.84C300.573 87.0933 301.32 86.4 302.12 85.76C302.973 85.12 303.72 84.5067 304.36 83.92C305.267 83.0133 306.2 82.1333 307.16 81.28C308.173 80.3733 309.133 79.44 310.04 78.48C310.36 78.16 310.733 77.8133 311.16 77.44C311.587 77.0133 311.987 76.6133 312.36 76.24C312.787 75.8133 313.133 75.3867 313.4 74.96C313.72 74.48 313.907 74 313.96 73.52C314.013 72.7733 314.067 72.1067 314.12 71.52C314.173 70.9333 314.333 70.4267 314.6 70C314.867 69.5733 315.32 69.2533 315.96 69.04C316.6 68.8267 317.507 68.72 318.68 68.72C319.533 68.72 320.36 68.8 321.16 68.96C321.96 69.12 322.573 69.5467 323 70.24C323.213 70.6133 323.32 70.96 323.32 71.28C323.373 71.5467 323.4 71.84 323.4 72.16C323.4 72.4267 323.4 72.72 323.4 73.04C323.4 73.36 323.48 73.7067 323.64 74.08C323.907 74.8267 324.36 75.4933 325 76.08C325.64 76.6133 326.173 77.2 326.6 77.84C327.72 78.9067 328.84 79.9733 329.96 81.04C331.133 82.0533 332.28 83.1733 333.4 84.4C334.253 85.3067 335.053 86.1067 335.8 86.8C336.6 87.44 337.133 88.32 337.4 89.44C337.667 90.4 337.533 91.2267 337 91.92C336.52 92.56 335.827 93.04 334.92 93.36C334.067 93.68 333.107 93.7867 332.04 93.68C331.027 93.5733 330.147 93.2 329.4 92.56C327.373 90.9067 325.56 89.44 323.96 88.16C322.36 86.8267 320.68 85.2533 318.92 83.44L308.6 91.84C308.013 92.4267 307.32 92.96 306.52 93.44C305.72 93.8667 304.867 94.1333 303.96 94.24C303.32 94.3467 302.68 94.4 302.04 94.4C301.453 94.3467 300.893 94.24 300.36 94.08ZM332.68 97.2C333.747 97.0933 334.84 97.0933 335.96 97.2C337.133 97.2533 338.12 97.6267 338.92 98.32C339.773 99.12 340.2 100.133 340.2 101.36C340.2 102.693 339.48 103.68 338.04 104.32C337.08 104.693 336.093 104.907 335.08 104.96C334.067 105.013 333.027 105.04 331.96 105.04H331.64C330.253 105.093 329.16 105.147 328.36 105.2C327.613 105.253 326.973 105.307 326.44 105.36C325.96 105.36 325.507 105.36 325.08 105.36C324.707 105.36 324.173 105.36 323.48 105.36V106.8C323.48 107.6 323.48 108.347 323.48 109.04C323.48 109.733 323.4 110.373 323.24 110.96C323.133 111.493 322.893 112 322.52 112.48C322.2 112.907 321.693 113.333 321 113.76C320.36 114.133 319.613 114.373 318.76 114.48C317.96 114.533 317.16 114.48 316.36 114.32C315.613 114.107 314.947 113.787 314.36 113.36C313.827 112.88 313.533 112.32 313.48 111.68C313.32 110.08 313.24 107.947 313.24 105.28C311.907 105.227 310.653 105.2 309.48 105.2C308.36 105.147 307.187 105.093 305.96 105.04C305.533 105.04 305.187 105.04 304.92 105.04C304.707 105.04 304.493 105.04 304.28 105.04C304.12 104.987 303.933 104.933 303.72 104.88C303.507 104.827 303.213 104.773 302.84 104.72C302.413 104.72 302.12 104.693 301.96 104.64C301.213 104.533 300.467 104.427 299.72 104.32C298.973 104.16 298.28 103.787 297.64 103.2C297 102.667 296.68 101.947 296.68 101.04C296.68 100.027 297 99.2 297.64 98.56C298.013 98.1867 298.467 97.92 299 97.76C299.587 97.5467 300.147 97.4133 300.68 97.36C301.213 97.2533 301.667 97.2 302.04 97.2C302.467 97.2 302.707 97.2 302.76 97.2H332.68ZM352.28 110C352.173 110.32 352.04 110.667 351.88 111.04C351.507 112.107 350.813 112.827 349.8 113.2C348.787 113.573 347.8 113.627 346.84 113.36C346.093 113.2 345.48 112.88 345 112.4C344.52 111.973 344.147 111.44 343.88 110.8C343.667 110.107 343.507 109.44 343.4 108.8C343.293 108.16 343.24 107.627 343.24 107.2C343.24 106.72 343.24 106.453 343.24 106.4V80.56C343.24 80.2933 343.24 80.0267 343.24 79.76C343.293 79.4933 343.293 79.2267 343.24 78.96C343.24 78.3733 343.24 77.7067 343.24 76.96C343.24 76.16 343.267 75.4133 343.32 74.72C343.427 73.9733 343.587 73.28 343.8 72.64C344.013 72 344.28 71.4933 344.6 71.12C345.187 70.5867 345.773 70.2667 346.36 70.16C346.947 70 347.56 69.92 348.2 69.92C349.107 69.92 349.88 70.1867 350.52 70.72C351.213 71.2 351.72 71.8667 352.04 72.72C352.467 73.84 352.707 75.0133 352.76 76.24C352.813 77.4133 352.867 78.5867 352.92 79.76V103.2C352.92 104.587 352.893 105.787 352.84 106.8C352.84 107.76 352.653 108.827 352.28 110ZM363.909 73.04C364.336 72.3467 364.923 71.84 365.669 71.52C366.416 71.2 367.136 71.04 367.829 71.04C368.416 71.04 368.976 71.0667 369.509 71.12C370.096 71.12 370.656 71.1733 371.189 71.28C372.309 71.6 373.109 72.32 373.589 73.44C374.069 74.5067 374.363 75.76 374.469 77.2C374.629 78.5867 374.656 79.9733 374.549 81.36C374.496 82.7467 374.469 83.8667 374.469 84.72V108.32C374.469 109.387 374.469 110.453 374.469 111.52C374.469 112.587 374.283 113.6 373.909 114.56C373.536 115.467 372.843 116.133 371.829 116.56C370.816 116.987 369.749 117.2 368.629 117.2C367.509 117.147 366.443 116.907 365.429 116.48C364.416 116 363.723 115.333 363.349 114.48C363.189 114 363.056 113.413 362.949 112.72C362.896 111.973 362.843 111.307 362.789 110.72C362.736 109.813 362.709 108.88 362.709 107.92C362.763 106.907 362.789 105.893 362.789 104.88V78.08C362.789 77.44 362.869 76.6133 363.029 75.6C363.189 74.5867 363.483 73.7333 363.909 73.04ZM373.109 124.48C373.269 124.747 373.403 125.013 373.509 125.28C373.669 125.493 373.803 125.76 373.909 126.08C374.069 126.667 374.176 127.28 374.229 127.92C374.283 128.56 374.229 129.2 374.069 129.84C373.909 130.427 373.643 130.987 373.269 131.52C372.896 132.053 372.389 132.453 371.749 132.72C371.163 132.987 370.469 133.147 369.669 133.2C368.869 133.253 368.096 133.2 367.349 133.04C366.603 132.88 365.909 132.587 365.269 132.16C364.629 131.733 364.176 131.173 363.909 130.48C363.643 129.733 363.483 128.88 363.429 127.92C363.429 126.907 363.563 126.027 363.829 125.28C364.149 124.48 364.656 123.947 365.349 123.68C366.043 123.36 366.789 123.2 367.589 123.2C368.603 123.147 369.589 123.173 370.549 123.28C371.563 123.387 372.416 123.787 373.109 124.48ZM448.844 105.2C448.471 105.147 447.671 105.12 446.444 105.12C445.271 105.067 443.964 105.04 442.524 105.04C441.138 104.987 439.831 104.96 438.604 104.96C437.431 104.96 436.658 104.933 436.284 104.88C435.378 104.827 434.498 104.667 433.644 104.4C432.844 104.08 432.151 103.653 431.564 103.12C430.978 102.533 430.578 101.867 430.364 101.12C430.151 100.32 430.178 99.4133 430.444 98.4C430.551 97.9733 430.764 97.52 431.084 97.04C431.458 96.56 431.804 96.1867 432.124 95.92C432.764 95.44 433.511 95.12 434.364 94.96C434.791 94.9067 435.671 94.88 437.004 94.88C438.391 94.8267 439.858 94.8 441.404 94.8C443.004 94.7467 444.498 94.72 445.884 94.72C447.271 94.72 448.178 94.6933 448.604 94.64H448.844C448.951 92.24 448.951 89.9467 448.844 87.76C448.738 85.5733 448.738 83.28 448.844 80.88V79.76C448.844 79.0667 448.844 78.32 448.844 77.52C448.898 76.6667 448.978 75.84 449.084 75.04C449.191 74.1867 449.378 73.4133 449.644 72.72C449.911 71.9733 450.284 71.36 450.764 70.88C451.564 70.1867 452.551 69.84 453.724 69.84H453.884C455.164 69.8933 456.178 70.24 456.924 70.88C457.724 71.52 458.311 72.2933 458.684 73.2C459.111 74.1067 459.378 75.0667 459.484 76.08C459.591 77.0933 459.644 78.0267 459.644 78.88V127.2C459.644 127.253 459.644 127.52 459.644 128C459.644 128.427 459.591 128.96 459.484 129.6C459.378 130.24 459.218 130.88 459.004 131.52C458.791 132.16 458.444 132.693 457.964 133.12C457.591 133.493 456.978 133.787 456.124 134C455.324 134.213 454.631 134.32 454.044 134.32C452.764 134.32 451.751 133.893 451.004 133.04C450.311 132.293 449.884 131.52 449.724 130.72C449.564 129.92 449.431 129.067 449.324 128.16C449.324 128 449.298 127.84 449.244 127.68C449.244 127.52 449.244 127.333 449.244 127.12C449.138 126.267 449.084 125.36 449.084 124.4C449.084 123.44 449.058 122.48 449.004 121.52C448.951 120.933 448.924 120.373 448.924 119.84C448.924 119.253 448.924 118.667 448.924 118.08V116.24L448.844 105.2ZM417.324 112C417.324 112.747 417.298 113.493 417.244 114.24C417.191 114.933 417.191 115.653 417.244 116.4C417.244 116.773 417.271 117.147 417.324 117.52C417.378 117.893 417.538 118.213 417.804 118.48C418.124 118.747 418.498 118.907 418.924 118.96C419.404 118.96 419.858 118.96 420.284 118.96C420.871 118.96 421.484 118.987 422.124 119.04C422.764 119.04 423.378 119.04 423.964 119.04C424.658 119.04 425.564 119.04 426.684 119.04C427.804 119.04 428.951 119.04 430.124 119.04C431.351 119.04 432.524 119.067 433.644 119.12C434.764 119.173 435.644 119.227 436.284 119.28C437.191 119.387 438.124 119.547 439.084 119.76C440.098 119.92 441.004 120.267 441.804 120.8C442.231 121.067 442.524 121.44 442.684 121.92C442.898 122.347 443.031 122.8 443.084 123.28C443.138 123.547 443.164 123.813 443.164 124.08C443.164 124.293 443.164 124.533 443.164 124.8C443.058 126.08 442.631 127.147 441.884 128C441.138 128.8 440.151 129.333 438.924 129.6C438.178 129.707 437.431 129.813 436.684 129.92C435.991 130.027 435.271 130.08 434.524 130.08C434.258 130.08 433.831 130.08 433.244 130.08C432.658 130.08 432.018 130.08 431.324 130.08C430.631 130.027 429.991 130 429.404 130C428.818 130 428.418 130 428.204 130H419.244C418.178 130 417.138 129.947 416.124 129.84C415.164 129.733 414.151 129.653 413.084 129.6C412.284 129.547 411.458 129.413 410.604 129.2C409.751 128.933 409.031 128.507 408.444 127.92C407.858 127.333 407.404 126.693 407.084 126C406.818 125.307 406.604 124.587 406.444 123.84C406.124 122.133 405.991 120.373 406.044 118.56C406.098 116.747 406.124 114.96 406.124 113.2V94.4C406.124 93.4933 406.124 92.56 406.124 91.6C406.178 90.64 406.178 89.68 406.124 88.72C406.124 88.6667 406.098 88.2667 406.044 87.52C406.044 86.72 406.044 85.7867 406.044 84.72C406.044 83.6 406.044 82.48 406.044 81.36C406.044 80.1867 406.071 79.1467 406.124 78.24C406.178 77.1733 406.418 76.08 406.844 74.96C407.271 73.7867 408.178 72.9067 409.564 72.32C410.151 72.1067 410.764 71.9467 411.404 71.84C412.044 71.7333 412.684 71.76 413.324 71.92C413.964 72.08 414.551 72.3733 415.084 72.8C415.671 73.1733 416.098 73.7067 416.364 74.4C416.684 75.1467 416.898 75.9467 417.004 76.8C417.164 77.6 417.244 78.4533 417.244 79.36C417.244 79.9467 417.244 80.5333 417.244 81.12C417.244 81.7067 417.271 82.2933 417.324 82.88V112ZM518.293 94.24C518.88 94.5067 519.36 94.9067 519.733 95.44C520.106 95.9733 520.346 96.5333 520.453 97.12C520.72 98.2933 520.453 99.36 519.653 100.32C518.906 101.28 518 102 516.933 102.48C515.866 102.907 514.72 103.227 513.493 103.44C512.32 103.653 511.093 103.76 509.813 103.76C508.586 103.76 507.44 103.76 506.373 103.76H493.093C490.693 103.76 488.453 103.787 486.373 103.84C484.346 103.84 482.133 103.84 479.733 103.84C478.933 103.84 478.133 103.787 477.333 103.68C476.533 103.573 475.76 103.413 475.013 103.2C474.266 102.933 473.573 102.56 472.933 102.08C472.346 101.6 471.866 100.987 471.493 100.24C470.533 98.3733 470.053 96.4267 470.053 94.4C470.106 92.32 470.133 90.24 470.133 88.16V82.72C470.133 82.56 470.106 82.1333 470.053 81.44C470 80.7467 469.973 79.9467 469.973 79.04C470.026 78.1333 470.106 77.2 470.213 76.24C470.373 75.28 470.666 74.48 471.093 73.84C471.413 73.3067 471.92 72.88 472.613 72.56C473.36 72.24 474.08 72 474.773 71.84C475.52 71.68 476.186 71.5733 476.773 71.52C477.36 71.4667 477.733 71.44 477.893 71.44H510.693C510.746 71.44 511.173 71.4667 511.973 71.52C512.773 71.52 513.68 71.6267 514.693 71.84C515.706 72 516.666 72.2933 517.573 72.72C518.48 73.1467 519.066 73.7867 519.333 74.64C519.44 74.96 519.493 75.36 519.493 75.84C519.546 76.2667 519.573 76.72 519.573 77.2C519.573 77.68 519.52 78.1333 519.413 78.56C519.36 78.9867 519.28 79.3067 519.173 79.52C518.96 79.9467 518.586 80.2933 518.053 80.56C517.52 80.7733 517.013 80.9333 516.533 81.04C516.053 81.1467 515.44 81.2533 514.693 81.36C513.946 81.4667 513.04 81.52 511.973 81.52H509.493C507.36 81.4133 505.386 81.36 503.573 81.36C501.813 81.3067 500.053 81.3067 498.293 81.36C496.533 81.36 494.693 81.3867 492.773 81.44C490.853 81.44 488.693 81.4667 486.293 81.52C485.866 81.52 485.386 81.4933 484.853 81.44C484.32 81.3867 483.786 81.3867 483.253 81.44C482.72 81.4933 482.266 81.6 481.893 81.76C481.52 81.92 481.28 82.2133 481.173 82.64C480.906 83.5467 480.8 84.4 480.853 85.2C480.906 86 480.906 86.9067 480.853 87.92C480.853 88.2933 480.826 88.6933 480.773 89.12C480.773 89.5467 480.773 90 480.773 90.48C480.826 90.9067 480.933 91.3067 481.093 91.68C481.253 92.0533 481.52 92.3733 481.893 92.64C482.266 92.9067 482.8 93.04 483.493 93.04C484.24 93.04 484.853 93.04 485.333 93.04C487.253 93.1467 489.066 93.2 490.773 93.2C492.533 93.2 494.373 93.1467 496.293 93.04C499.12 92.9867 501.68 92.96 503.973 92.96C506.266 92.96 508.826 92.96 511.653 92.96C514.213 92.96 516.426 93.3867 518.293 94.24ZM473.093 120.24C471.866 120.187 470.693 120.027 469.573 119.76C468.506 119.44 467.626 118.747 466.933 117.68C466.346 116.773 466.053 115.813 466.053 114.8C466.106 113.733 466.506 112.827 467.253 112.08C467.68 111.653 468.213 111.333 468.853 111.12C469.493 110.907 470.106 110.747 470.693 110.64C471.28 110.533 471.786 110.48 472.213 110.48C472.693 110.48 472.96 110.48 473.013 110.48H516.613C517.466 110.427 518.373 110.427 519.333 110.48C520.346 110.533 521.28 110.72 522.133 111.04C522.986 111.307 523.706 111.787 524.293 112.48C524.88 113.12 525.173 114.027 525.173 115.2C525.173 116.533 524.72 117.547 523.813 118.24C522.906 118.88 521.813 119.36 520.533 119.68C519.306 119.947 518.026 120.107 516.693 120.16C515.36 120.16 514.266 120.16 513.413 120.16H510.293C509.226 120.213 508.186 120.24 507.173 120.24C506.16 120.187 505.12 120.16 504.053 120.16H501.013C501.066 121.653 501.12 123.253 501.173 124.96C501.226 126.613 501.146 128.053 500.933 129.28C500.826 130.293 500.56 131.253 500.133 132.16C499.76 133.12 499.12 133.893 498.213 134.48C497.413 135.013 496.48 135.28 495.413 135.28C494.346 135.333 493.386 135.12 492.533 134.64C491.84 134.213 491.306 133.6 490.933 132.8C490.613 132 490.4 131.227 490.293 130.48C490.186 129.893 490.133 129.253 490.133 128.56C490.186 127.867 490.213 127.227 490.213 126.64C490.16 125.68 490.133 124.64 490.133 123.52C490.133 122.347 490.133 121.2 490.133 120.08H488.133C486.64 120.08 485.28 120.107 484.053 120.16C482.88 120.16 481.733 120.187 480.613 120.24C479.493 120.24 478.32 120.24 477.093 120.24C475.92 120.24 474.586 120.24 473.093 120.24ZM570.858 120.72C570.805 120.08 570.778 119.44 570.778 118.8C570.778 118.16 570.778 117.52 570.778 116.88V91.44C570.778 90.5867 570.778 89.7333 570.778 88.88C570.778 88.0267 570.725 87.1467 570.618 86.24C570.565 85.9733 570.485 85.6 570.378 85.12C570.325 84.64 570.165 84.3467 569.898 84.24C569.631 84.08 569.311 84.0267 568.938 84.08C568.618 84.08 568.298 84.0533 567.978 84C567.605 83.9467 567.231 83.9467 566.858 84C566.538 84.0533 566.191 84.0533 565.818 84H562.058C561.151 84.0533 560.245 84.0533 559.338 84C558.431 83.9467 557.525 83.9467 556.618 84C556.191 84.0533 555.791 84.08 555.418 84.08C555.098 84.0267 554.725 84 554.298 84C553.711 84 553.098 83.9733 552.458 83.92C551.818 83.8667 551.231 83.6533 550.698 83.28C549.951 82.7467 549.445 82.08 549.178 81.28C548.911 80.48 548.778 79.6533 548.778 78.8C548.725 77.7867 548.938 76.7733 549.418 75.76C549.685 75.12 550.031 74.6667 550.458 74.4C550.725 74.1333 551.098 73.92 551.578 73.76C552.111 73.5467 552.565 73.3867 552.938 73.28C554.058 73.0133 555.231 72.88 556.458 72.88C557.685 72.8267 558.885 72.8 560.058 72.8H573.978C574.671 72.9067 575.391 73.0133 576.138 73.12C576.938 73.1733 577.658 73.3333 578.298 73.6C578.725 73.76 579.125 73.9733 579.498 74.24C579.925 74.5067 580.271 74.8267 580.538 75.2C581.018 75.9467 581.285 76.6933 581.338 77.44C581.445 78.1867 581.551 79.0133 581.658 79.92C581.765 81.4133 581.818 82.9067 581.818 84.4C581.818 85.84 581.818 87.3067 581.818 88.8V115.04C581.818 115.093 581.818 115.52 581.818 116.32C581.871 117.067 581.898 117.973 581.898 119.04C581.898 120.053 581.898 121.147 581.898 122.32C581.898 123.44 581.871 124.427 581.818 125.28C581.765 125.813 581.685 126.373 581.578 126.96C581.471 127.547 581.285 128.107 581.018 128.64C580.805 129.173 580.485 129.653 580.058 130.08C579.631 130.507 579.071 130.853 578.378 131.12C577.471 131.493 576.565 131.68 575.658 131.68C574.965 131.68 574.271 131.547 573.578 131.28C572.885 130.96 572.405 130.507 572.138 129.92C571.285 128.213 570.858 126.32 570.858 124.24V120.72ZM604.698 94.8C605.445 94.8533 606.218 94.9067 607.018 94.96C607.818 94.96 608.591 94.9867 609.338 95.04C609.605 95.04 609.898 95.0667 610.218 95.12C610.538 95.1733 610.858 95.2267 611.178 95.28C612.245 95.4933 613.098 95.9467 613.738 96.64C614.431 97.28 614.778 98.16 614.778 99.28C614.778 100.027 614.698 100.88 614.538 101.84C614.431 102.8 614.031 103.547 613.338 104.08C613.018 104.347 612.698 104.56 612.378 104.72C612.058 104.88 611.685 105.013 611.258 105.12C610.405 105.227 609.365 105.253 608.138 105.2C606.911 105.147 605.871 105.147 605.018 105.2C604.805 105.2 604.698 105.333 604.698 105.6C604.698 106.24 604.698 107.013 604.698 107.92C604.698 108.773 604.698 109.68 604.698 110.64C604.698 111.547 604.698 112.453 604.698 113.36C604.698 114.213 604.698 114.987 604.698 115.68C604.805 118.453 604.805 121.173 604.698 123.84V124.96C604.698 125.653 604.671 126.427 604.618 127.28C604.618 128.08 604.565 128.88 604.458 129.68C604.351 130.48 604.165 131.253 603.898 132C603.631 132.693 603.258 133.28 602.778 133.76C602.138 134.507 601.285 134.88 600.218 134.88C600.218 134.88 600.165 134.853 600.058 134.8C598.778 134.747 597.738 134.373 596.938 133.68C596.191 132.987 595.605 132.133 595.178 131.12C594.805 130.107 594.565 129.067 594.458 128C594.351 126.88 594.298 125.893 594.298 125.04V77.52C594.298 77.4667 594.298 77.2267 594.298 76.8C594.298 76.32 594.351 75.7867 594.458 75.2C594.565 74.56 594.725 73.92 594.938 73.28C595.205 72.5867 595.551 72.0267 595.978 71.6C596.351 71.2267 596.885 70.96 597.578 70.8C598.325 70.5867 598.991 70.48 599.578 70.48C600.751 70.48 601.738 70.88 602.538 71.68C603.285 72.4267 603.711 73.2267 603.818 74.08C603.978 74.88 604.111 75.7333 604.218 76.64C604.271 76.8533 604.298 77.1733 604.298 77.6C604.405 78.5067 604.458 79.44 604.458 80.4C604.511 81.36 604.565 82.32 604.618 83.28C604.618 83.7067 604.618 84.0533 604.618 84.32C604.618 84.5867 604.618 85.0133 604.618 85.6C604.671 86.1333 604.698 86.96 604.698 88.08C604.698 89.2 604.698 90.8267 604.698 92.96V94.8ZM646.944 72C650.251 73.8133 652.518 76.16 653.744 79.04C655.078 82.08 655.584 85.68 655.264 89.84C654.998 95.2267 653.504 99.2267 650.784 101.84C649.611 103.013 648.198 103.92 646.544 104.56C644.891 105.147 643.158 105.573 641.344 105.84C639.584 106.053 637.771 106.133 635.904 106.08C634.091 106.027 632.438 105.867 630.944 105.6C630.411 105.493 629.878 105.387 629.344 105.28C628.811 105.12 628.251 104.96 627.664 104.8C626.544 104.32 625.344 103.68 624.064 102.88C621.451 101.173 619.718 98.9867 618.864 96.32C617.904 93.7067 617.424 90.9867 617.424 88.16C617.424 85.3333 617.958 82.64 619.024 80.08C619.451 78.8533 620.091 77.7067 620.944 76.64C621.798 75.5733 622.811 74.6133 623.984 73.76C625.798 72.2133 627.904 71.0933 630.304 70.4C632.651 69.7067 634.998 69.4933 637.344 69.76C637.878 69.8133 638.358 69.8667 638.784 69.92C639.264 69.92 639.718 69.92 640.144 69.92C640.518 69.9733 640.864 70.0267 641.184 70.08C641.558 70.1333 641.931 70.2133 642.304 70.32C643.051 70.5333 643.744 70.7467 644.384 70.96C645.024 71.2267 645.878 71.5733 646.944 72ZM632.384 135.04C632.011 135.04 631.611 135.013 631.184 134.96C630.811 134.96 630.411 134.933 629.984 134.88C629.611 134.88 629.291 134.853 629.024 134.8C627.851 134.64 626.811 134.187 625.904 133.44C625.638 133.173 625.371 132.907 625.104 132.64C624.891 132.427 624.678 132.107 624.464 131.68C624.358 131.36 624.224 131.04 624.064 130.72C623.958 130.347 623.851 129.973 623.744 129.6C623.638 129.227 623.558 128.853 623.504 128.48C623.504 128.053 623.504 127.707 623.504 127.44C623.451 127.28 623.424 127.067 623.424 126.8V126.56V120.24V117.68C623.424 117.093 623.398 116.453 623.344 115.76C623.344 115.067 623.398 114.373 623.504 113.68C623.611 112.987 623.771 112.347 623.984 111.76C624.251 111.173 624.678 110.667 625.264 110.24C625.744 109.867 626.358 109.573 627.104 109.36C627.904 109.147 628.678 109.093 629.424 109.2C630.171 109.253 630.838 109.467 631.424 109.84C632.011 110.213 632.384 110.773 632.544 111.52C632.704 111.947 632.784 112.373 632.784 112.8C632.784 113.173 632.811 113.6 632.864 114.08C632.864 114.293 632.864 114.507 632.864 114.72C632.918 114.88 632.944 115.04 632.944 115.2V115.68H633.344C633.451 115.68 633.584 115.707 633.744 115.76C633.904 115.76 634.091 115.76 634.304 115.76H664.944V113.04C664.998 112.133 665.238 111.333 665.664 110.64C666.144 109.947 666.838 109.493 667.744 109.28C668.491 109.12 669.291 109.04 670.144 109.04C670.998 109.04 671.744 109.253 672.384 109.68C673.291 110.16 673.904 110.88 674.224 111.84C674.598 112.747 674.811 113.787 674.864 114.96C674.918 116.08 674.891 117.253 674.784 118.48C674.678 119.707 674.651 120.827 674.704 121.84C674.758 122.853 674.758 124.107 674.704 125.6C674.704 127.093 674.518 128.56 674.144 130C673.771 131.387 673.184 132.56 672.384 133.52C671.584 134.533 670.411 135.04 668.864 135.04H632.384ZM645.824 90.8C645.824 89.5733 645.744 88.4267 645.584 87.36C645.531 86.4533 645.318 85.52 644.944 84.56C644.731 84.08 644.518 83.6533 644.304 83.28C644.091 82.8533 643.771 82.48 643.344 82.16C643.024 81.7867 642.624 81.4667 642.144 81.2C641.664 80.9333 641.131 80.6667 640.544 80.4C639.424 79.9733 638.091 79.76 636.544 79.76C635.798 79.76 635.078 79.84 634.384 80C633.691 80.1067 633.051 80.2933 632.464 80.56C631.291 81.04 630.171 81.8133 629.104 82.88C628.198 83.8933 627.611 85.2267 627.344 86.88C627.184 88.2133 627.211 89.3867 627.424 90.4C627.531 91.5733 627.904 92.6133 628.544 93.52C628.811 94 629.158 94.4267 629.584 94.8C630.011 95.1733 630.518 95.5467 631.104 95.92C632.064 96.5067 633.424 96.9333 635.184 97.2C635.771 97.2533 636.331 97.28 636.864 97.28C637.451 97.28 638.038 97.2267 638.624 97.12C639.798 96.96 640.811 96.6133 641.664 96.08C642.198 95.8667 642.678 95.6 643.104 95.28C643.531 94.96 643.931 94.5867 644.304 94.16C645.051 93.0933 645.558 91.9733 645.824 90.8ZM663.184 127.52C664.038 127.52 664.571 127.36 664.784 127.04C665.051 126.72 665.184 125.973 665.184 124.8C665.131 123.947 664.811 123.493 664.224 123.44C663.638 123.333 662.971 123.28 662.224 123.28H660.064H656.464H650.224C648.518 123.227 646.784 123.227 645.024 123.28C643.264 123.28 641.531 123.28 639.824 123.28C639.398 123.28 638.811 123.28 638.064 123.28C637.371 123.227 636.651 123.227 635.904 123.28C635.158 123.28 634.491 123.36 633.904 123.52C633.318 123.68 632.998 123.92 632.944 124.24C632.784 125.467 632.918 126.32 633.344 126.8C633.771 127.227 634.544 127.413 635.664 127.36C636.838 127.36 637.984 127.413 639.104 127.52C640.224 127.573 641.398 127.573 642.624 127.52C645.558 127.413 648.278 127.387 650.784 127.44C653.291 127.493 655.984 127.52 658.864 127.52H663.184ZM674.944 100.8C674.838 101.227 674.758 101.6 674.704 101.92C674.651 102.187 674.571 102.453 674.464 102.72C674.358 102.987 674.251 103.227 674.144 103.44C674.038 103.653 673.931 103.893 673.824 104.16C673.504 104.747 673.051 105.173 672.464 105.44C671.718 105.92 670.998 106.16 670.304 106.16C669.398 106.16 668.491 105.813 667.584 105.12C667.264 104.96 666.971 104.747 666.704 104.48C666.491 104.16 666.304 103.84 666.144 103.52C665.718 102.72 665.478 101.813 665.424 100.8C665.424 100.64 665.398 100.053 665.344 99.04C665.344 98.0267 665.344 96.8 665.344 95.36C665.344 93.8667 665.344 92.2667 665.344 90.56C665.344 88.8 665.344 87.1467 665.344 85.6C665.344 84 665.344 82.6133 665.344 81.44C665.344 80.2667 665.344 79.4667 665.344 79.04V76.16C665.344 75.4667 665.424 74.88 665.584 74.4C665.744 73.6 666.224 72.72 667.024 71.76C667.451 71.28 668.064 70.9067 668.864 70.64C669.664 70.4267 670.491 70.3467 671.344 70.4C672.251 70.56 672.944 70.8533 673.424 71.28C673.958 71.6533 674.331 72.1333 674.544 72.72C674.758 73.3067 674.864 73.9733 674.864 74.72C674.918 75.4133 674.944 76.16 674.944 76.96V100.8ZM737.831 129.2C738.631 129.253 739.351 129.467 739.991 129.84C740.684 130.16 741.164 130.747 741.431 131.6C742.017 133.52 741.324 134.853 739.351 135.6C738.711 135.867 738.044 136.027 737.351 136.08C736.711 136.133 736.097 136.16 735.511 136.16H699.271C698.204 136.16 697.084 136.16 695.911 136.16C694.791 136.16 693.644 136.133 692.471 136.08C691.351 136.027 690.417 135.627 689.671 134.88C688.924 134.133 688.497 133.147 688.391 131.92C688.284 131.013 688.204 130.027 688.151 128.96C688.151 127.84 688.151 126.907 688.151 126.16V125.44C688.097 124.853 688.097 124.16 688.151 123.36C688.257 122.56 688.551 121.867 689.031 121.28C689.724 120.533 690.684 120.053 691.911 119.84C693.191 119.627 694.417 119.52 695.591 119.52H697.271C697.484 119.52 697.671 119.547 697.831 119.6C698.044 119.6 698.231 119.6 698.391 119.6H731.351V116.16H697.591C697.324 116.16 697.031 116.16 696.711 116.16C696.391 116.107 696.097 116.107 695.831 116.16H693.831C693.297 116.16 692.817 116.16 692.391 116.16C691.964 116.16 691.537 116.107 691.111 116C690.684 115.893 690.257 115.787 689.831 115.68C689.457 115.573 689.137 115.307 688.871 114.88C688.177 113.813 687.991 112.667 688.311 111.44C688.471 111.013 688.711 110.693 689.031 110.48C689.351 110.213 689.724 110 690.151 109.84C690.577 109.68 690.977 109.573 691.351 109.52C691.777 109.413 692.151 109.333 692.471 109.28C692.897 109.227 693.297 109.2 693.671 109.2C694.097 109.147 694.551 109.12 695.031 109.12H696.391C696.657 109.12 696.897 109.147 697.111 109.2C697.324 109.2 697.564 109.2 697.831 109.2H732.151C734.871 109.2 736.951 109.627 738.391 110.48C739.831 111.28 740.551 112.613 740.551 114.48V120.72C740.551 121.467 740.391 122.187 740.071 122.88C739.751 123.573 739.164 124.187 738.311 124.72C737.564 125.147 736.844 125.387 736.151 125.44C735.457 125.44 734.791 125.44 734.151 125.44H697.991V129.2H737.831ZM738.631 93.6V100.08C738.631 101.467 738.231 102.693 737.431 103.76C736.631 104.773 735.404 105.28 733.751 105.28C732.844 105.28 732.097 105.093 731.511 104.72C730.444 104.08 729.751 103.307 729.431 102.4C729.164 101.44 729.031 100.747 729.031 100.32V76.4C728.977 76.1867 729.004 75.6 729.111 74.64C729.217 73.68 729.431 72.88 729.751 72.24C730.284 71.12 731.351 70.48 732.951 70.32C734.924 70.0533 736.391 70.4533 737.351 71.52C737.671 71.9467 737.884 72.3733 737.991 72.8C738.151 73.1733 738.284 73.5733 738.391 74C738.551 74.48 738.631 75.1733 738.631 76.08C738.684 76.9867 738.684 77.7067 738.631 78.24V84.72C738.844 84.72 739.244 84.7467 739.831 84.8C740.417 84.8 741.031 84.8267 741.671 84.88C742.311 84.88 742.924 84.9067 743.511 84.96C744.097 85.0133 744.524 85.0667 744.791 85.12C745.857 85.3333 746.604 85.6533 747.031 86.08C747.457 86.4533 747.724 86.9333 747.831 87.52C747.991 88.1067 748.071 88.8 748.071 89.6C748.071 90.3467 747.911 90.9867 747.591 91.52C746.951 92.5867 745.991 93.2 744.711 93.36C743.431 93.4667 742.017 93.5467 740.471 93.6H738.631ZM717.831 90.96C717.831 93.3067 717.271 95.5467 716.151 97.68C715.297 99.3867 714.204 100.747 712.871 101.76C711.537 102.72 710.044 103.467 708.391 104C706.791 104.48 705.084 104.747 703.271 104.8C701.511 104.853 699.804 104.8 698.151 104.64C695.591 104.48 693.217 103.733 691.031 102.4C688.897 101.013 687.271 99.2 686.151 96.96C685.297 95.2533 684.871 93.2533 684.871 90.96C684.871 88.9333 685.137 87.2 685.671 85.76C685.991 84.96 686.364 84.2133 686.791 83.52C687.217 82.7733 687.671 82.1067 688.151 81.52H686.791C686.151 81.52 685.591 81.44 685.111 81.28C684.631 81.0667 684.151 80.7733 683.671 80.4C682.871 79.6533 682.471 78.7467 682.471 77.68C682.471 76.5067 682.871 75.52 683.671 74.72C684.577 74.0267 685.617 73.68 686.791 73.68H695.351V71.28C695.564 69.7867 696.284 68.6667 697.511 67.92C698.737 67.1733 700.017 66.8533 701.351 66.96C702.684 67.0667 703.857 67.68 704.871 68.8C705.884 69.8667 706.311 71.4933 706.151 73.68H715.271C716.551 73.68 717.564 74.0267 718.311 74.72C719.164 75.5733 719.591 76.56 719.591 77.68C719.591 78.6933 719.164 79.6 718.311 80.4C717.457 81.1467 716.444 81.52 715.271 81.52H714.471C714.951 82.1067 715.377 82.7733 715.751 83.52C716.124 84.2133 716.497 84.96 716.871 85.76C717.511 87.3067 717.831 89.04 717.831 90.96ZM702.631 96.24C703.697 96.1333 704.737 95.84 705.751 95.36C706.817 94.88 707.564 94.1067 707.991 93.04C708.737 91.4933 708.764 90.0533 708.071 88.72C707.377 87.3333 706.257 86.24 704.711 85.44C703.697 85.0133 702.551 84.8 701.271 84.8C699.937 84.8 698.817 84.9867 697.911 85.36C697.324 85.6267 696.817 85.9733 696.391 86.4C696.017 86.7733 695.671 87.1733 695.351 87.6C694.871 88.2933 694.551 89.04 694.391 89.84C694.231 90.5867 694.231 91.3333 694.391 92.08C694.604 92.8267 694.951 93.52 695.431 94.16C695.911 94.8 696.524 95.28 697.271 95.6C698.124 95.9733 699.004 96.2133 699.911 96.32C700.817 96.3733 701.724 96.3467 702.631 96.24ZM802.073 89.2L797.753 93.52C796.579 94.64 795.406 95.7333 794.233 96.8C793.059 97.8667 791.859 98.9333 790.633 100C790.526 100.107 790.419 100.213 790.312 100.32C790.206 100.373 790.099 100.453 789.993 100.56C788.979 101.467 787.966 102.427 786.953 103.44C785.993 104.453 784.819 105.173 783.433 105.6C782.473 105.867 781.433 105.84 780.312 105.52C779.193 105.2 778.339 104.64 777.753 103.84C777.326 103.2 777.113 102.56 777.113 101.92C777.113 101.28 777.219 100.667 777.433 100.08C777.699 99.44 778.019 98.8267 778.393 98.24C778.766 97.6533 779.166 97.12 779.593 96.64C781.193 94.7733 782.846 93.0133 784.553 91.36C786.313 89.6533 788.099 88 789.913 86.4C790.499 85.92 791.166 85.28 791.913 84.48C792.659 83.6267 793.379 82.8 794.073 82C794.873 81.04 795.699 80.08 796.553 79.12C796.446 77.8933 796.419 76.72 796.473 75.6C796.526 74.64 796.659 73.68 796.873 72.72C797.086 71.76 797.486 70.9867 798.073 70.4C798.766 69.76 799.753 69.36 801.033 69.2C802.313 68.9867 803.379 69.0133 804.233 69.28C805.459 69.6533 806.313 70.2933 806.793 71.2C807.326 72.1067 807.673 73.1733 807.833 74.4C807.886 75.4133 807.886 76.2933 807.833 77.04C807.833 77.7333 808.126 78.5067 808.713 79.36C809.139 80 809.619 80.6133 810.153 81.2C810.739 81.7867 811.299 82.3733 811.833 82.96C813.699 85.04 815.513 87.04 817.273 88.96C819.086 90.88 820.953 92.8533 822.873 94.88C823.513 95.52 824.126 96.32 824.713 97.28C825.299 98.24 825.699 99.2267 825.913 100.24C826.179 101.2 826.153 102.133 825.833 103.04C825.566 103.893 824.873 104.587 823.753 105.12C822.953 105.493 822.179 105.653 821.433 105.6C820.686 105.493 819.966 105.28 819.273 104.96C818.579 104.587 817.913 104.133 817.273 103.6C816.686 103.067 816.153 102.533 815.673 102L802.073 89.2ZM778.953 120.24C777.726 120.187 776.553 120.027 775.433 119.76C774.366 119.44 773.486 118.747 772.793 117.68C772.206 116.773 771.913 115.813 771.913 114.8C771.966 113.733 772.366 112.827 773.113 112.08C773.539 111.653 774.073 111.333 774.713 111.12C775.353 110.907 775.966 110.747 776.553 110.64C777.139 110.533 777.646 110.48 778.073 110.48C778.553 110.48 778.819 110.48 778.873 110.48H823.273C824.126 110.427 825.033 110.427 825.993 110.48C827.006 110.533 827.939 110.72 828.793 111.04C829.646 111.307 830.366 111.787 830.953 112.48C831.539 113.12 831.833 114.027 831.833 115.2C831.833 116.533 831.379 117.547 830.473 118.24C829.566 118.88 828.473 119.36 827.193 119.68C825.966 119.947 824.686 120.107 823.353 120.16C822.019 120.16 820.926 120.16 820.073 120.16H816.953C815.886 120.213 814.846 120.24 813.833 120.24C812.819 120.187 811.779 120.16 810.712 120.16H807.673C807.726 121.653 807.779 123.227 807.833 124.88C807.886 126.533 807.806 128 807.593 129.28C807.486 130.293 807.219 131.253 806.793 132.16C806.419 133.12 805.779 133.893 804.873 134.48C804.073 135.013 803.139 135.28 802.073 135.28C801.006 135.333 800.046 135.12 799.193 134.64C798.499 134.213 797.966 133.6 797.593 132.8C797.273 132 797.059 131.227 796.953 130.48C796.846 129.893 796.793 129.253 796.793 128.56C796.846 127.867 796.873 127.227 796.873 126.64C796.819 125.68 796.793 124.64 796.793 123.52C796.793 122.347 796.793 121.2 796.793 120.08H794.793C793.299 120.08 791.913 120.107 790.633 120.16C789.353 120.16 788.099 120.187 786.873 120.24C785.646 120.24 784.393 120.24 783.113 120.24C781.833 120.24 780.446 120.24 778.953 120.24ZM886.059 72.08C889.259 73.7867 891.525 76.1333 892.859 79.12C894.245 82.1067 894.779 85.68 894.459 89.84C894.139 95.1733 892.619 99.1467 889.899 101.76C887.232 104.373 883.125 105.68 877.579 105.68C876.139 105.68 874.805 105.707 873.579 105.76C872.405 105.76 871.285 105.68 870.219 105.52C869.152 105.36 868.059 105.093 866.939 104.72C865.819 104.293 864.619 103.653 863.339 102.8C860.832 101.147 859.099 98.9867 858.139 96.32C857.232 93.6533 856.779 90.9067 856.779 88.08C856.779 85.2533 857.285 82.6133 858.299 80.16C859.312 77.6533 860.965 75.52 863.259 73.76C865.125 72.2667 867.205 71.1733 869.499 70.48C871.845 69.7867 874.192 69.5467 876.539 69.76C877.605 69.8667 878.512 69.9733 879.259 70.08C880.059 70.1333 880.805 70.24 881.499 70.4C882.192 70.56 882.885 70.7733 883.579 71.04C884.272 71.3067 885.099 71.6533 886.059 72.08ZM873.739 130.4C873.152 131.2 872.539 131.947 871.899 132.64C871.312 133.387 870.645 134 869.899 134.48C869.205 134.96 868.459 135.253 867.659 135.36C866.859 135.52 866.005 135.44 865.099 135.12C863.979 134.747 863.312 134.187 863.099 133.44C862.939 132.693 863.019 131.893 863.339 131.04C863.659 130.187 864.112 129.36 864.699 128.56C865.285 127.76 865.765 127.067 866.139 126.48C867.099 124.933 868.032 123.387 868.939 121.84C869.845 120.24 870.832 118.693 871.899 117.2C872.325 116.613 872.779 115.973 873.259 115.28C873.792 114.587 874.352 113.973 874.939 113.44C875.525 112.853 876.165 112.373 876.859 112C877.552 111.573 878.299 111.333 879.099 111.28C879.899 111.227 880.619 111.387 881.259 111.76C881.899 112.133 882.459 112.613 882.939 113.2C883.472 113.733 883.952 114.347 884.379 115.04C884.859 115.68 885.285 116.267 885.659 116.8C887.579 119.787 889.419 122.747 891.179 125.68C892.085 124.293 892.939 122.88 893.739 121.44C894.592 120 895.499 118.587 896.459 117.2C897.312 115.973 898.299 114.72 899.419 113.44C900.592 112.107 902.005 111.387 903.659 111.28C904.459 111.227 905.205 111.387 905.899 111.76C906.645 112.133 907.312 112.613 907.899 113.2C908.539 113.733 909.125 114.347 909.659 115.04C910.192 115.68 910.645 116.267 911.019 116.8C912.299 118.667 913.499 120.587 914.619 122.56C915.792 124.48 916.992 126.4 918.219 128.32C918.805 129.28 919.232 130.16 919.499 130.96C919.765 131.76 919.525 132.693 918.779 133.76C918.192 134.667 917.445 135.2 916.539 135.36C915.632 135.573 914.725 135.387 913.819 134.8C912.005 133.733 910.432 132.347 909.099 130.64C907.765 128.933 906.485 127.28 905.259 125.68C904.459 124.667 903.792 124.187 903.259 124.24C902.779 124.293 902.192 124.827 901.499 125.84C901.019 126.48 900.512 127.12 899.979 127.76C899.445 128.4 898.885 129.173 898.299 130.08C897.712 130.88 897.099 131.653 896.459 132.4C895.872 133.2 895.205 133.84 894.459 134.32C893.765 134.853 893.019 135.2 892.219 135.36C891.419 135.52 890.565 135.44 889.659 135.12C888.805 134.8 888.219 134.4 887.899 133.92C886.459 132.853 885.179 131.573 884.059 130.08C882.939 128.533 881.819 127.067 880.699 125.68C879.899 124.667 879.259 124.187 878.779 124.24C878.299 124.293 877.685 124.827 876.939 125.84C876.459 126.48 875.952 127.173 875.419 127.92C874.885 128.667 874.325 129.493 873.739 130.4ZM915.179 102.4C915.179 102.4 915.152 102.587 915.099 102.96C915.045 103.333 914.939 103.76 914.779 104.24C914.619 104.72 914.379 105.227 914.059 105.76C913.739 106.24 913.312 106.64 912.779 106.96C912.032 107.387 911.285 107.6 910.539 107.6C909.632 107.6 908.752 107.307 907.899 106.72C907.312 106.293 906.859 105.733 906.539 105.04C906.112 104.24 905.819 103.333 905.659 102.32C905.552 101.253 905.472 100.16 905.419 99.04C905.419 97.92 905.445 96.8267 905.499 95.76C905.552 94.6933 905.579 93.7067 905.579 92.8C905.632 90.5067 905.659 88.24 905.659 86C905.659 83.7067 905.659 81.44 905.659 79.2V78.16C905.605 77.5733 905.579 76.96 905.579 76.32C905.632 75.6267 905.739 74.9867 905.899 74.4C906.112 73.6 906.592 72.7467 907.339 71.84C907.765 71.3067 908.352 70.9333 909.099 70.72C909.899 70.4533 910.752 70.3733 911.659 70.48C913.259 70.7467 914.325 71.44 914.859 72.56C915.179 73.2533 915.312 74.1067 915.259 75.12C915.259 76.1333 915.232 76.7467 915.179 76.96V102.4ZM884.939 90.72C884.939 89.5467 884.885 88.4533 884.779 87.44C884.672 86.3733 884.432 85.4133 884.059 84.56C883.739 83.6533 883.232 82.8533 882.539 82.16C881.845 81.4667 880.939 80.9067 879.819 80.48C878.592 80.0533 877.259 79.84 875.819 79.84C874.379 79.84 873.019 80.1067 871.739 80.64C870.459 81.12 869.339 81.8933 868.379 82.96C867.419 83.9733 866.805 85.3067 866.539 86.96C866.379 88.08 866.379 89.2267 866.539 90.4C866.752 91.52 867.152 92.56 867.739 93.52C868.379 94.4267 869.232 95.2 870.299 95.84C871.419 96.48 872.805 96.88 874.459 97.04C875.579 97.1467 876.699 97.1467 877.819 97.04C878.939 96.88 879.979 96.56 880.939 96.08C881.899 95.6 882.725 94.9333 883.419 94.08C884.112 93.1733 884.619 92.0533 884.939 90.72ZM940.305 70.24C940.998 70.24 941.665 70.2667 942.305 70.32C942.945 70.3733 943.585 70.4533 944.225 70.56C946.252 70.88 948.038 71.8133 949.585 73.36C950.865 74.7467 951.905 76.3467 952.705 78.16C953.558 79.92 954.225 81.7867 954.705 83.76C955.185 85.7333 955.532 87.76 955.745 89.84C955.958 91.8667 956.118 93.84 956.225 95.76C956.332 98.2133 956.358 100.667 956.305 103.12C956.252 105.573 956.092 108 955.825 110.4C955.558 112.907 955.158 115.44 954.625 118C954.145 120.507 953.238 122.773 951.905 124.8C950.785 126.507 949.398 127.92 947.745 129.04C946.092 130.107 944.358 130.827 942.545 131.2C940.892 131.52 939.212 131.573 937.505 131.36C935.798 131.147 934.172 130.587 932.625 129.68C931.185 128.827 929.958 127.76 928.945 126.48C927.985 125.2 927.132 123.707 926.385 122C925.318 119.44 924.705 116.8 924.545 114.08C924.332 111.84 924.172 109.6 924.065 107.36C924.012 105.12 923.985 102.88 923.985 100.64C923.985 99.0933 923.985 97.6 923.985 96.16C924.038 94.6667 924.145 93.1733 924.305 91.68C924.412 90.4533 924.545 89.2533 924.705 88.08C924.865 86.8533 925.052 85.6533 925.265 84.48C925.478 83.52 925.665 82.6133 925.825 81.76C925.985 80.9067 926.278 80.0267 926.705 79.12C927.132 78.2133 927.585 77.36 928.065 76.56C928.598 75.76 929.212 75.04 929.905 74.4C931.078 73.2267 932.385 72.32 933.825 71.68C935.265 71.04 936.758 70.6133 938.305 70.4C938.625 70.3467 938.945 70.32 939.265 70.32C939.638 70.32 939.985 70.2933 940.305 70.24ZM969.025 105.2C968.278 105.093 967.292 105.04 966.065 105.04C964.838 104.987 963.852 104.907 963.105 104.8C961.238 104.693 959.905 104 959.105 102.72C958.305 101.44 958.198 99.7867 958.785 97.76C958.892 97.3333 959.105 96.88 959.425 96.4C959.798 95.92 960.145 95.5467 960.465 95.28C961.212 94.7467 961.958 94.4 962.705 94.24C963.558 94.1333 964.572 94.1067 965.745 94.16C966.972 94.2133 968.038 94.1867 968.945 94.08H969.185V93.76C969.185 93.12 969.185 92.64 969.185 92.32C969.238 92 969.265 91.7067 969.265 91.44C969.265 91.1733 969.238 90.88 969.185 90.56C969.185 90.24 969.185 89.7333 969.185 89.04C969.185 87.6533 969.158 86.2933 969.105 84.96C969.105 83.5733 969.132 82.2133 969.185 80.88V79.76C969.185 79.0667 969.185 78.32 969.185 77.52C969.238 76.6667 969.318 75.84 969.425 75.04C969.532 74.1867 969.718 73.4133 969.985 72.72C970.252 71.9733 970.625 71.36 971.105 70.88C971.905 70.1867 972.758 69.84 973.665 69.84H973.825C975.105 69.8933 976.118 70.2933 976.865 71.04C977.665 71.7333 978.252 72.5867 978.625 73.6C979.052 74.6133 979.318 75.68 979.425 76.8C979.532 77.8667 979.585 78.8267 979.585 79.68V127.68C979.585 127.733 979.585 128 979.585 128.48C979.585 128.907 979.532 129.44 979.425 130.08C979.318 130.72 979.158 131.36 978.945 132C978.732 132.64 978.385 133.173 977.905 133.6C977.532 133.973 976.998 134.267 976.305 134.48C975.612 134.693 974.972 134.8 974.385 134.8C973.105 134.8 972.092 134.373 971.345 133.52C970.652 132.773 970.225 132 970.065 131.2C969.905 130.4 969.772 129.547 969.665 128.64C969.665 128.48 969.638 128.32 969.585 128.16C969.585 128 969.585 127.813 969.585 127.6C969.478 126.747 969.425 125.84 969.425 124.88C969.425 123.92 969.398 122.96 969.345 122C969.292 121.413 969.265 120.853 969.265 120.32C969.265 119.733 969.265 119.147 969.265 118.56V116.72C969.265 116.187 969.265 115.493 969.265 114.64C969.265 113.733 969.238 112.8 969.185 111.84C969.185 110.88 969.185 109.973 969.185 109.12C969.185 108.267 969.185 107.547 969.185 106.96C969.185 106.693 969.185 106.4 969.185 106.08C969.185 105.76 969.132 105.467 969.025 105.2ZM940.065 120.56C941.078 120.56 942.065 120.24 943.025 119.6C943.932 118.96 944.572 118.107 944.945 117.04C945.318 115.973 945.638 114.8 945.905 113.52C946.332 111.067 946.572 108.453 946.625 105.68C946.678 102.907 946.652 100.24 946.545 97.68C946.545 96.6667 946.518 95.6 946.465 94.48C946.412 93.3067 946.305 92.16 946.145 91.04C946.038 89.92 945.852 88.8533 945.585 87.84C945.318 86.7733 944.945 85.84 944.465 85.04C943.932 84.1333 943.292 83.44 942.545 82.96C941.798 82.48 940.998 82.2933 940.145 82.4C939.238 82.5067 938.412 82.8267 937.665 83.36C936.918 83.8933 936.305 84.6933 935.825 85.76L935.105 87.44C934.785 88.4533 934.545 89.52 934.385 90.64C934.225 91.7067 934.092 92.7733 933.985 93.84C933.878 94.9067 933.798 96 933.745 97.12C933.692 98.24 933.665 99.3333 933.665 100.4C933.718 101.467 933.692 102.507 933.585 103.52C933.532 104.533 933.558 105.573 933.665 106.64C933.772 108.027 933.905 109.52 934.065 111.12C934.278 112.72 934.598 114.24 935.025 115.68C935.452 117.067 936.065 118.24 936.865 119.2C937.665 120.107 938.732 120.56 940.065 120.56Z" fill="black"/>
<circle cx="1177.93" cy="88.1572" r="72.4736" fill="white" stroke="black" stroke-width="3"/>
<path d="M1126.3 65.1156C1125.23 65.1156 1124.31 66.4593 1123.75 67.2897C1122.87 68.5937 1122 70.0277 1121.54 71.5433C1120.53 74.8254 1119.31 79.0165 1122.94 81.0715C1124.91 82.1847 1127 83.123 1129.33 83.1511C1132.47 83.1889 1135.8 83.4189 1138.91 82.9809C1140.21 82.7983 1141.49 82.589 1142.8 82.4799C1143.7 82.4048 1144.64 82.1529 1145.53 82.1302C1146.79 82.0979 1147.9 81.776 1149.08 81.3645C1150.28 80.9514 1151.53 80.8004 1152.76 80.5232C1154.68 80.09 1156.78 79.1973 1158.27 77.8671C1159.07 77.1618 1159.31 76.7089 1159.65 75.7024C1159.87 75.0574 1160.43 74.6495 1160.72 74.0483C1160.99 73.4881 1161.1 72.7786 1161.27 72.1767C1161.67 70.7101 1162.01 69.7491 1161.06 68.4807C1159.36 66.2071 1155.29 64.5512 1152.52 64.4445C1146.47 64.2121 1140.43 64.0947 1134.39 64.0947C1132.07 64.0947 1129.75 64.0947 1127.43 64.0947C1126.7 64.0947 1124.95 64.5913 1124.6 65.2857" stroke="black" stroke-width="3" stroke-linecap="round"/>
<path d="M1137.19 69.9698C1137.04 69.9698 1136.87 69.9435 1136.73 69.9698C1136.47 70.0163 1136.18 70.5663 1136.05 70.7652C1135.49 71.62 1135.31 72.6004 1135.44 73.6153C1135.56 74.5926 1135.91 75.7046 1136.91 76.0677C1138.54 76.6624 1140.58 76.2848 1142.14 75.67C1142.67 75.4631 1143.04 75.0338 1143.46 74.6758C1144.07 74.158 1144.47 73.6754 1144.67 72.8825C1144.82 72.2958 1144.86 71.6271 1144.8 71.023C1144.71 70.1277 1143.98 69.4704 1143.45 68.8062C1143.1 68.3772 1142.69 68.006 1142.17 67.812C1141.43 67.5389 1140.53 67.2814 1139.74 67.186C1138.12 66.9903 1136.9 67.7893 1135.67 68.7252C1134.85 69.3436 1134.2 69.905 1133.93 70.9125C1133.71 71.7068 1133.6 72.4981 1133.81 73.306C1133.96 73.8711 1134.26 74.3379 1134.59 74.8084C1134.86 75.1851 1135.19 75.7177 1135.64 75.8947C1136.16 76.1012 1136.77 76.1929 1137.33 76.1929C1138.29 76.1929 1139.55 76.0997 1140.41 75.6185C1140.89 75.3498 1141.21 74.8952 1141.56 74.4843C1142.14 73.8099 1142.93 73.1274 1143.21 72.2602C1143.35 71.8579 1143.3 71.3749 1143.28 70.9567C1143.25 69.9227 1142.1 69.2514 1141.29 68.8062C1140.58 68.4139 1139.73 67.9978 1138.89 67.9814C1138.3 67.9698 1137.79 68.3061 1137.33 68.6552C1136.43 69.3347 1135.85 70.5455 1135.56 71.6048C1135.35 72.3632 1135.23 73.311 1135.78 73.9467C1136.06 74.2693 1136.43 74.5058 1136.86 74.5801C1137.87 74.7548 1138.89 72.8064 1139.32 72.2124C1139.84 71.5045 1140.44 70.8057 1140.82 70.0067C1141.02 69.5931 1141.07 69.2105 1140.78 68.8283C1140.24 68.0986 1139.54 68.4837 1138.99 68.994C1138.3 69.6378 1137.75 70.4367 1137.18 71.1813C1136.72 71.7782 1136.23 72.3866 1135.93 73.0814C1135.75 73.4905 1135.83 73.8518 1136.31 73.9467C1137.14 74.1142 1138.02 73.2387 1138.6 72.761C1139.16 72.2958 1139.73 71.7949 1140.19 71.2292C1140.59 70.7407 1140.03 71.2261 1139.91 71.3802C1139.53 71.8859 1139.2 72.4267 1138.84 72.9488C1138.68 73.1869 1138.47 73.442 1138.39 73.7295C1138.37 73.8333 1138.37 73.8699 1138.45 73.7626C1138.93 73.1196 1139.39 72.467 1139.89 71.8478C1139.92 71.8158 1141.1 70.5781 1140.86 70.4633C1140.41 70.2452 1139.45 71.5846 1139.27 71.8183C1138.87 72.3382 1138.07 73.1856 1138.13 73.9025C1138.2 74.5799 1139.49 73.4299 1139.6 73.3502C1141.09 72.2917 1142.73 71.3291 1144.14 70.1613C1144.26 70.0606 1144.09 70.1713 1144.07 70.1944C1143.65 70.6465 1143.38 71.2 1142.94 71.6416C1142.23 72.3615 1141.37 72.9116 1140.57 73.5196C1140.44 73.6173 1140.02 73.864 1139.97 74.0793C1139.9 74.3976 1140.31 73.8223 1140.34 73.7884C1140.51 73.6139 1140.9 73.0652 1140.63 73.6043C1140.43 73.9895 1140.11 74.4225 1139.98 74.8342C1139.92 75.0171 1140.39 74.2237 1140.42 74.1861C1140.92 73.4385 1141.47 72.7271 1142.06 72.0393C1142.34 71.7095 1143.07 71.13 1143.04 70.6179C1143.02 70.1757 1142.66 70.1089 1142.3 70.1024C1141.59 70.0893 1140.92 69.9774 1140.23 69.8446C1139.4 69.6867 1138.74 70.5111 1138.29 71.0598C1137.88 71.5486 1137.53 72.0225 1137.2 72.5695C1136.87 73.1213 1136.3 73.7871 1136.41 74.477C1136.5 75.1083 1136.94 75.1242 1137.46 75.2576C1137.62 75.3 1137.76 75.3386 1137.93 75.3386C1138.12 75.3386 1138.14 75.4277 1138.3 75.4638C1138.84 75.5903 1139.49 75.4049 1140.04 75.4049" stroke="black" stroke-width="3" stroke-linecap="round"/>
<path d="M1119.69 76.8635C1118.54 76.7485 1117.46 76.1074 1116.28 76.0681C1114.95 76.0237 1113.64 75.9356 1112.29 75.9356C1110.82 75.9356 1109.28 75.9295 1107.86 76.3627C1107.65 76.4281 1107.43 76.4969 1107.23 76.5984C1107.06 76.6827 1106.96 76.867 1106.83 76.9298" stroke="black" stroke-width="3" stroke-linecap="round"/>
<path d="M1103.39 82.0625C1101.91 82.0625 1100.5 83.8654 1099.34 84.6141C1096.76 86.285 1094.4 88.2778 1091.81 89.9423C1088.25 92.2346 1085.09 95.7931 1084.93 100.257C1084.91 100.677 1085.14 100.943 1085.53 101.124C1085.99 101.345 1086.56 101.309 1087.06 101.458C1087.93 101.72 1088.85 101.921 1089.74 102.091C1091.67 102.456 1093.54 102.246 1095.44 102.483C1096.47 102.611 1097.5 102.925 1098.51 102.925C1099.39 102.925 1100.85 102.63 1101.67 103C1102.2 103.242 1103.52 103.227 1103.92 102.775C1104.2 102.456 1103.87 101.543 1103.84 101.208C1103.78 100.367 1103.84 99.4984 1103.84 98.656C1103.84 97.4207 1103.69 96.2007 1103.69 94.9704C1103.69 94.3632 1103.82 93.598 1103.61 93.0192C1103.43 92.5084 1103.25 91.909 1103.24 91.3682C1103.22 90.91 1103.05 90.4952 1102.97 90.0507C1102.9 89.671 1103.02 89.2528 1102.92 88.8833C1102.63 87.8061 1102.45 86.5255 1102.49 85.3979C1102.5 85.0575 1103.09 83.2646 1103.09 84.0137C1103.09 85.6064 1103.32 87.4221 1102.94 88.9667" stroke="#15D734" stroke-width="3" stroke-linecap="round"/>
<path d="M1101.56 83.8428C1101.43 83.8763 1101.34 83.9998 1101.26 84.0904C1100.89 84.5119 1100.59 84.9923 1100.29 85.463C1099.69 86.3952 1098.99 87.1791 1098.2 87.9605C1097.28 88.8806 1096.24 89.5636 1095.23 90.3696C1094.66 90.824 1094.11 91.3022 1093.51 91.7315C1092.79 92.2541 1092.03 92.7131 1091.33 93.2633C1090.44 93.9618 1089.64 94.7607 1089.18 95.8068C1089.01 96.1932 1088.85 96.5701 1088.62 96.9282C1088.4 97.2774 1088.14 97.5856 1087.99 97.9789C1087.97 98.0546 1087.72 98.9735 1087.92 98.6121C1088.56 97.4193 1089.49 96.3073 1089.99 95.0427C1090.02 94.9569 1090.05 94.8041 1089.91 94.9472C1089.31 95.5415 1088.88 96.3603 1088.36 97.0167C1087.89 97.601 1087.36 98.1636 1086.97 98.8067C1086.84 99.0255 1086.82 99.1292 1086.88 98.7855C1087.07 97.6907 1087.7 96.7495 1087.99 95.6865C1088.24 94.7288 1087.25 97.5365 1086.72 98.3786C1086.57 98.6358 1086.34 98.9031 1086.29 99.21C1086.27 99.2781 1086.24 99.6031 1086.3 99.3302C1086.55 98.2779 1087.05 97.2055 1087.61 96.2879C1088.13 95.4462 1088.66 94.6655 1089.43 94.038C1090.18 93.4343 1091.03 93.1771 1091.87 92.7574C1092.42 92.4821 1092.91 92.1731 1093.39 91.7881C1094.06 91.2438 1094.79 90.7802 1095.42 90.175C1096.02 89.5963 1096.76 89.2088 1097.26 88.5265C1097.38 88.3551 1097.51 88.1892 1097.64 88.0171C1097.8 87.7956 1097.92 87.5428 1098.08 87.3273C1098.29 87.0662 1098.03 87.2746 1097.89 87.3662C1096.74 88.1293 1095.62 88.9372 1094.46 89.6974C1094.07 89.953 1093.64 90.1791 1093.29 90.4934C1093.01 90.7538 1092.83 91.0949 1092.57 91.3813C1092.39 91.5849 1092.18 91.7194 1091.95 91.866C1091.71 92.022 1091.58 92.2291 1091.39 92.4391C1090.48 93.4733 1089.23 94.1836 1088.47 95.354C1088.03 96.0247 1087.55 96.7301 1087.18 97.4341C1086.89 97.9688 1086.58 98.5912 1086.53 99.2064C1086.49 99.8064 1086.53 100.271 1087.2 100.271C1088.65 100.271 1090.17 100.139 1091.62 100.282C1092.54 100.372 1093.53 100.649 1094.42 100.908C1095.25 101.152 1096.1 101.2 1096.97 101.223C1097.51 101.237 1097.99 101.185 1098.52 101.113C1099.48 100.985 1100.47 100.992 1101.43 101.106C1101.77 101.147 1102.67 101.135 1102.42 101.368C1102.14 101.63 1101.88 101.621 1101.49 101.64C1098.82 101.771 1096.13 101.543 1093.45 101.711C1093.11 101.733 1092.79 101.776 1092.47 101.888C1092.1 102.015 1091.58 101.928 1091.21 101.927C1091.03 101.926 1090.12 102.04 1089.98 101.824C1089.89 101.674 1089.97 101.261 1089.97 101.099C1089.97 100.265 1089.77 99.546 1089.66 98.7253C1089.37 96.5714 1090.43 94.953 1091.65 93.2881C1092.16 92.592 1091.73 93.1715 1092.09 92.6867C1092.12 92.6434 1092.14 92.5463 1092.19 92.5593C1092.24 92.5725 1092.19 92.6689 1092.18 92.7221C1092.08 93.1664 1091.9 93.6062 1091.73 94.0239C1091.07 95.6055 1090.18 97.0314 1089.28 98.4812C1089.09 98.7871 1088.92 99.0505 1088.78 99.3727C1088.73 99.4688 1088.63 99.6278 1088.72 99.684C1088.87 99.7773 1089.12 99.4056 1089.16 99.3585C1090.38 97.8287 1091.72 96.5218 1093.22 95.2656C1093.95 94.6527 1095.07 93.9721 1095.34 92.9697C1095.37 92.869 1095.35 92.8185 1095.27 92.9202C1094.9 93.3779 1094.6 93.9187 1094.27 94.4024C1093.7 95.2425 1093.08 96.0403 1092.46 96.8504C1092.37 96.9748 1091.82 97.5552 1091.89 97.7879C1091.98 98.0535 1092.35 97.45 1092.51 97.2219C1093.72 95.4945 1094.82 93.6822 1095.98 91.9155C1096.45 91.188 1096.94 90.4653 1097.38 89.7151C1097.41 89.6641 1097.51 89.5249 1097.45 89.5524C1097.3 89.6322 1097.07 90.0092 1096.99 90.1078C1096.33 90.9094 1095.6 91.6784 1095.06 92.5664C1094.92 92.8034 1094.67 93.2282 1094.75 93.5357C1094.77 93.615 1094.83 93.5536 1094.89 93.5145C1095.05 93.403 1095.73 92.8698 1095.74 92.8636C1097.67 91.3946 1099.71 90.0653 1101.72 88.7105C1102.01 88.5151 1103.1 88.0145 1103.14 87.5183C1103.17 87.128 1102.64 88.1229 1102.42 88.4487C1101.77 89.4269 1101.07 90.3695 1100.4 91.3424C1100.19 91.6567 1099.94 92.0384 1099.75 92.3754C1099.69 92.4862 1099.51 92.7736 1099.63 92.7362C1099.71 92.7124 1099.8 92.579 1099.83 92.5452C1100.26 92.0026 1100.64 91.4072 1101.02 90.833C1101.75 89.7488 1102.63 88.6308 1103.08 87.391C1103.26 86.9098 1103.29 86.2761 1102.75 86.9205C1102.17 87.6211 1101.65 88.3769 1101.16 89.142C1101.12 89.2061 1101.07 89.3538 1101.06 89.2057C1101.04 88.8323 1101.09 88.4467 1101.1 88.0737C1101.12 87.3899 1101.11 86.7059 1101.11 86.0219C1101.11 85.7941 1101.16 85.1246 1101.08 85.3392C1100.9 85.8505 1100.93 86.5502 1100.84 87.0832C1100.69 88.017 1100.46 88.9465 1100.34 89.8849C1100.28 90.294 1100.47 89.9631 1100.51 89.8036C1100.8 88.8514 1100.93 87.8122 1101.06 86.8285C1101.08 86.6715 1101.2 86.246 1101.08 86.3544C1100.93 86.5034 1100.85 87.4092 1100.83 87.5431C1100.59 88.9291 1100.5 90.3552 1100.58 91.7598C1100.62 92.3178 1100.72 92.8626 1100.83 93.4084C1100.84 93.4443 1100.9 93.7181 1100.96 93.518C1101.3 92.3357 1101.18 88.601 1101.18 89.8319C1101.18 91.6387 1101.46 93.3572 1101.81 95.1276C1101.97 95.9586 1102.12 96.7929 1102.28 97.6251C1102.29 97.7017 1102.24 97.8551 1102.32 97.8551C1102.34 97.8551 1102.33 97.8154 1102.34 97.7949C1102.35 97.6282 1102.4 96.9823 1102.4 96.9247C1102.47 95.6631 1102.53 94.3962 1102.48 93.1324C1102.48 93.1237 1102.5 92.0388 1102.35 91.9969C1102.12 91.9317 1101.93 95.2966 1101.92 95.545C1101.88 96.2358 1101.85 96.9334 1101.89 97.6251C1101.9 97.7346 1101.88 98.0375 1101.98 98.1345C1102.28 98.4348 1102.02 96.4439 1102.07 96.8646C1102.25 98.1145 1102.19 99.3879 1102.19 100.646C1102.19 100.783 1102.19 101.193 1102.19 101.057C1102.19 100.952 1102.2 100.853 1102.17 100.752C1101.75 99.4007 1101.38 98.0327 1100.99 96.67C1100.69 95.6156 1100.5 94.5689 1100.48 93.472C1100.47 93.2198 1100.48 93.233 1100.48 93.0192C1100.47 92.9026 1100.46 92.93 1100.43 93.044C1099.74 95.5403 1099.12 98.1151 1098.65 100.66C1098.59 100.958 1098.46 101.829 1098.6 101.566C1098.65 101.477 1098.69 101.273 1098.7 101.209C1098.83 100.488 1098.94 99.7617 1099.07 99.0402C1099.52 96.611 1099.84 94.2318 1099.84 91.7634C1099.84 89.8179 1099.72 95.7004 1100.18 97.5898C1100.21 97.6892 1100.44 98.8074 1100.49 98.1911C1100.54 97.5344 1100.58 96.8787 1100.66 96.2243C1100.76 95.3913 1100.48 97.0946 1100.48 97.1086C1100.35 97.9836 1100.24 98.8653 1100.19 99.7477C1100.16 100.188 1100.11 100.729 1100.25 101.159C1100.29 101.273 1100.33 100.776 1100.33 100.752C1100.35 100.346 1100.2 99.9809 1100.17 99.5814C1100.12 99.0455 1100.16 98.4982 1100.15 97.9612C1100.14 97.0589 1100.06 96.149 1100.14 95.2479C1100.21 94.4108 1100.42 93.5996 1100.59 92.7787C1100.65 92.4804 1100.69 92.1543 1100.5 92.6372C1100.1 93.6137 1099.71 94.5813 1099.25 95.5309C1098.67 96.742 1098.08 98.0584 1097.31 99.1675C1097.18 99.3653 1097.21 99.2117 1097.24 99.0472C1097.35 98.2651 1097.56 97.4891 1097.74 96.7195C1098.14 94.9804 1098.52 93.2379 1098.89 91.4945C1099.01 90.984 1099.45 89.602 1099.05 89.9345C1098.6 90.3041 1098.38 90.9982 1098.17 91.5051C1097.72 92.5611 1097.28 93.6164 1096.87 94.689C1096.81 94.8481 1096.63 95.3219 1096.67 95.1559C1096.94 93.9277 1097.28 92.7114 1097.61 91.4981C1097.96 90.2181 1098.26 88.8882 1098.85 87.6916C1099.04 87.2983 1098.9 87.7719 1098.86 87.8933C1098.57 88.8118 1098.01 89.6814 1097.48 90.4792C1097.35 90.6745 1097 91.2673 1097.05 91.0382C1097.18 90.4578 1097.65 89.8189 1097.94 89.326C1098.43 88.4987 1098.94 87.6699 1099.48 86.878C1099.81 86.4066 1099.66 86.9171 1099.59 87.1575C1098.95 89.3801 1098.06 91.4525 1096.55 93.2315C1096.48 93.3111 1096.29 93.6025 1096.28 93.3447C1096.25 92.7283 1096.28 92.1102 1096.18 91.4981C1096.07 90.8309 1095.9 91.0039 1095.58 91.4733C1094.82 92.6198 1094.17 93.8093 1093.55 95.0356C1093.19 95.7351 1092.78 96.4131 1092.47 97.1369C1092.42 97.2592 1092.39 97.3906 1092.34 97.5119C1092.2 97.8156 1092.49 96.8641 1092.57 96.5426C1092.77 95.8078 1093.09 95.0792 1093.25 94.3423C1093.36 93.838 1092.85 95.2951 1092.66 95.775C1092.36 96.5305 1092.01 97.2479 1091.62 97.9612C1091.58 98.0382 1091.24 98.7382 1091.26 98.6793C1091.64 96.7964 1092.48 94.8645 1093.56 93.2739C1094.19 92.3468 1092.53 95.2633 1091.99 96.2455C1091.74 96.7001 1091.56 97.1352 1091.47 97.6428C1091.46 97.6758 1091.42 98.0396 1091.51 97.8162C1091.77 97.1875 1091.96 96.5326 1092.23 95.9059C1092.42 95.4828 1092.68 94.9207 1092.91 94.505C1092.96 94.396 1093.03 94.2884 1093.1 94.1866C1093.24 93.9832 1093.15 94.232 1093.13 94.2751C1092.43 96.0643 1091.13 97.5827 1090.37 99.3479C1090.29 99.5183 1090.22 99.6786 1090.1 99.8184C1090.1 99.8201 1089.96 99.9944 1089.98 99.9882C1090.31 99.9055 1090.65 99.6297 1090.98 99.5142C1091.73 99.2525 1092.52 99.1623 1093.31 99.2453C1094.59 99.3798 1095.8 99.6981 1097.09 99.6981C1097.38 99.6981 1096.5 99.7096 1096.21 99.7264C1094.53 99.823 1092.85 100.005 1091.2 100.321C1090.88 100.381 1089.94 100.567 1090.26 100.586C1090.95 100.627 1091.66 100.383 1092.32 100.243C1093.93 99.9029 1095.58 99.7384 1097.17 99.3232C1097.44 99.2525 1098.04 99.1606 1098.06 98.7713C1098.06 98.6326 1097.85 98.7824 1097.79 98.7996C1096.68 99.1694 1095.47 99.3541 1094.31 99.447C1093.74 99.4921 1093.41 99.4995 1092.86 99.4611C1092.7 99.4501 1092.54 99.4279 1092.38 99.4081C1092.27 99.3936 1092.01 99.2591 1092.03 99.3727C1092.09 99.6204 1093.43 99.557 1093.58 99.546C1094.27 99.4958 1094.97 99.2971 1095.49 98.8208C1095.92 98.4244 1096.23 97.7422 1095.64 97.328C1094.77 96.7103 1093.51 96.7753 1092.52 96.9565C1092.06 97.0398 1091.76 97.124 1091.34 97.2961C1091.17 97.3638 1090.72 97.5375 1090.89 97.5827C1091.11 97.6407 1091.96 97.0283 1092.11 96.9601C1093.31 96.4136 1094.58 96.0893 1095.85 95.7714C1095.89 95.7602 1096.19 95.7011 1096.28 95.6299C1096.34 95.5842 1096.13 95.6091 1096.06 95.6441C1095.29 96.0528 1094.63 96.7474 1093.93 97.2608C1093.68 97.4453 1093.18 97.8053 1092.9 98.0072C1092.8 98.075 1092.57 98.3095 1092.61 98.2018C1092.67 98.0473 1092.82 97.9451 1092.94 97.8268C1093.39 97.3612 1093.89 96.9415 1094.42 96.5639C1094.74 96.337 1095.04 96.1513 1095.38 95.9625C1095.54 95.8763 1095.9 95.55 1095.86 95.7219C1095.76 96.1127 1095.35 96.5929 1095.14 96.9318C1094.92 97.2959 1094.67 97.6646 1094.53 98.0709C1094.42 98.3997 1095.1 97.7943 1095.1 97.7914C1095.68 97.3707 1096.24 96.9274 1096.85 96.5497C1097.19 96.3366 1096.67 96.983 1096.64 97.0202C1096.25 97.6519 1095.66 98.5308 1095.64 99.3019C1095.63 99.4311 1095.85 99.1039 1095.86 99.0932C1096.22 98.7187 1096.56 98.3321 1096.92 97.9506C1097.05 97.8086 1097.07 97.9251 1097.09 98.0638C1097.15 98.5698 1097.23 99.0646 1097.41 99.546C1097.61 100.07 1097.92 100.514 1098.27 100.943C1098.32 101.004 1098.37 101.117 1098.47 101.095C1099.32 100.906 1100.19 101.29 1101.05 101.29C1101.48 101.29 1101.73 101.571 1101.94 101.955C1102.02 102.102 1102.13 102.325 1102.22 102.457C1102.26 102.514 1102.5 102.538 1102.58 102.564" stroke="#15D734" stroke-width="3" stroke-linecap="round"/>
<path d="M1104.04 80.0225C1103.91 80.0372 1103.87 80.1579 1103.8 80.2524C1103.57 80.5664 1103.11 80.7324 1102.78 80.9139C1102.31 81.1733 1101.91 81.5324 1101.43 81.7736C1100.61 82.1823 1099.84 82.6519 1099 83.0152C1098.53 83.2147 1098.03 83.5487 1097.62 83.843C1097.4 84.0047 1097.14 84.0966 1096.91 84.2569C1096.69 84.4125 1096.52 84.6063 1096.27 84.7062C1095.13 85.1507 1094.31 86.0836 1093.27 86.7085C1092.69 87.0492 1092.15 87.4892 1091.61 87.8829C1091.36 88.0685 1091.12 88.2756 1090.87 88.4596C1090.71 88.5744 1090.62 88.7984 1090.47 88.9407C1089.53 89.8887 1088.37 90.7718 1087.63 91.9016C1086.35 93.8291 1084.41 95.5136 1083.76 97.8164C1083.65 98.2209 1083.35 98.4879 1083.19 98.8706C1083.07 99.1772 1083.1 99.7578 1083.09 100.095C1083.08 100.406 1083.06 100.75 1083.14 101.05C1083.21 101.301 1083.44 101.378 1083.57 101.612C1083.83 102.073 1084.37 102.093 1084.81 102.249C1085.36 102.441 1085.98 102.606 1086.54 102.705C1087.69 102.905 1088.79 103.315 1089.93 103.523C1090.49 103.624 1091.05 103.743 1091.62 103.806C1092.25 103.875 1092.9 103.831 1093.53 103.887C1094.33 103.956 1095.15 103.89 1095.95 103.901C1096.3 103.906 1096.64 104.011 1096.98 104.025C1097.38 104.04 1097.77 104.028 1098.17 104.028C1099.61 104.028 1101.04 104.219 1102.48 104.219C1103.41 104.219 1104.33 104.219 1105.25 104.219" stroke="black" stroke-width="3" stroke-linecap="round"/>
<path d="M1157.36 17.5831C1156.7 17.5831 1155.46 16.0408 1155.21 15.5087C1154.51 13.9926 1153.56 12.634 1152.77 11.1565C1152.51 10.6692 1151.87 10.0011 1151.87 9.42922C1151.87 9.04166 1151.87 8.69458 1151.75 8.32002C1151.52 7.59732 1151.37 6.62114 1150.95 6" stroke="#34FF55" stroke-width="3" stroke-linecap="round"/>
<path d="M1155.85 15.3328C1156.18 15.3328 1156.53 14.9963 1156.79 14.8117C1156.98 14.6787 1157.17 14.5505 1157.36 14.4192C1157.46 14.3514 1157.57 14.3761 1157.67 14.2938C1158 14.0212 1158.58 13.9558 1158.97 13.7859C1159.54 13.5411 1160.17 13.3089 1160.78 13.2086C1161.3 13.1234 1161.84 13.0173 1162.37 13.0173C1163.1 13.0173 1163.72 12.8641 1164.44 12.7271C1165.06 12.6085 1165.69 12.6925 1166.31 12.6479C1166.66 12.6228 1167 12.6017 1167.35 12.6017C1168.63 12.6017 1169.9 12.5423 1171.18 12.5423C1172.26 12.5423 1173.35 12.5055 1174.44 12.5456C1175.38 12.5804 1176.23 12.5712 1177.14 12.2917C1178.84 11.7694 1180.58 11.7705 1182.35 11.7705C1184.15 11.7705 1185.95 11.8893 1187.75 11.8893C1188.56 11.8893 1189.33 12.0674 1190.14 12.0674C1190.92 12.0674 1191.7 12.0674 1192.49 12.0674" stroke="#34FF55" stroke-width="8" stroke-linecap="round"/>
<path d="M1187.68 12.7796C1188.88 12.7796 1190.09 12.7796 1191.3 12.7796C1191.85 12.7796 1192.38 12.7385 1192.9 12.9281C1193.69 13.2124 1194.49 13.5313 1195.31 13.7164C1196.23 13.9242 1197.11 14.198 1198.01 14.4948C1198.3 14.5929 1198.62 14.5901 1198.93 14.6235C1199.28 14.6619 1199.63 14.7949 1199.97 14.8841C1200.54 15.0342 1201.18 15.1985 1201.69 15.4514" stroke="#34FF55" stroke-width="8" stroke-linecap="round"/>
<path d="M1154.61 11.2953C1156.53 10.2282 1158.93 9.8359 1161.09 9.64606C1163.01 9.4773 1164.93 9.33601 1166.86 9.33601C1168.73 9.33601 1170.59 9.28188 1172.46 9.27664C1175.02 9.26944 1177.58 9.13072 1180.13 9.10182C1182.42 9.076 1184.74 9.01731 1187.01 9.22716C1189.66 9.47107 1192.23 10.1078 1194.9 10.1078C1196.53 10.1078 1198.11 10.0844 1199.69 10.5235C1200.34 10.7065 1201.01 10.875 1201.66 11.0545C1201.95 11.1325 1202.28 11.2953 1202.58 11.2953" stroke="#34FF55" stroke-width="8" stroke-linecap="round"/>
<path d="M1152.89 7.73301C1152.9 7.41995 1152.91 6.84682 1153.27 6.77975C1153.66 6.71038 1154.03 6.72368 1154.42 6.72368C1155.46 6.72368 1156.49 6.72368 1157.53 6.72368C1159.94 6.72368 1162.35 6.84242 1164.76 6.84242C1166.1 6.84242 1167.43 6.85884 1168.76 6.8886C1169.62 6.90761 1170.47 6.88919 1171.32 6.90179C1172.73 6.92257 1174.11 7.17238 1175.5 7.34049C1179.32 7.80074 1183.16 7.67363 1186.99 7.67363C1188.49 7.67363 1189.98 7.72148 1191.48 7.73631C1192.52 7.7466 1193.56 7.78578 1194.6 7.78578C1195.28 7.78578 1195.96 7.72546 1196.64 7.7462C1197.84 7.78277 1199.05 7.81971 1200.25 7.79238C1200.66 7.78318 1201.04 7.67363 1201.45 7.67363" stroke="#34FF55" stroke-width="8" stroke-linecap="round"/>
<path d="M1081.25 106.237C1080.83 106.237 1080.55 106.389 1080.21 106.65C1080.13 106.712 1080.05 106.813 1080.01 106.904C1079.91 107.121 1079.84 107.08 1079.65 107.203C1079.52 107.284 1079.4 107.702 1079.32 107.855C1078.9 108.613 1078.5 109.39 1078.24 110.212C1078.04 110.822 1078.12 111.486 1078.12 112.123C1078.12 113.008 1078.08 113.836 1078.39 114.678C1078.54 115.057 1078.75 115.404 1078.88 115.785C1079.05 116.26 1079.14 116.715 1079.41 117.15C1080.58 119.056 1081.84 120.963 1083.31 122.646C1084.18 123.641 1084.93 124.69 1085.67 125.789C1086.19 126.578 1086.76 127.343 1087.28 128.134C1088.62 130.158 1090 132.259 1091.89 133.828" stroke="#FCFFFC" stroke-width="8" stroke-linecap="round"/>
<path d="M1082.1 107.353C1082.1 107.123 1082.5 106.891 1082.64 106.727C1082.84 106.48 1083.04 106.237 1083.36 106.237C1083.72 106.237 1084.07 106.131 1084.44 106.131C1084.59 106.131 1084.76 106.116 1084.92 106.134C1085.15 106.16 1085.36 106.381 1085.6 106.438C1086.28 106.6 1086.77 107.018 1087.11 107.619C1087.42 108.17 1087.81 108.698 1088.17 109.226C1088.69 110.017 1089.33 110.79 1089.78 111.624C1089.95 111.94 1090.18 112.17 1090.37 112.46C1090.43 112.56 1090.46 112.769 1090.58 112.823C1090.73 112.888 1090.48 111.95 1090.45 111.837C1090.35 111.488 1090.1 111.279 1089.93 110.968C1089.89 110.89 1089.72 110.723 1089.71 110.647C1089.71 110.633 1089.71 110.426 1089.68 110.449C1089.52 110.581 1089.77 111.061 1089.84 111.175C1090.33 111.998 1090.96 112.75 1091.45 113.573C1092 114.496 1092.44 115.407 1092.76 116.435C1092.99 117.153 1093.22 117.863 1093.45 118.577C1093.64 119.148 1093.86 119.736 1094.09 120.29C1094.34 120.877 1094.69 121.41 1094.86 122.026C1094.99 122.464 1095.13 122.907 1095.29 123.332C1095.47 123.815 1095.72 124.244 1095.93 124.714C1096.43 125.869 1096.74 127.098 1096.99 128.329C1097.06 128.694 1097.04 129.051 1097.15 129.41C1097.27 129.794 1097.31 130.193 1097.43 130.574C1097.59 131.095 1097.91 131.944 1097.76 132.488C1097.66 132.828 1097.29 132.662 1097.09 132.532C1096.74 132.305 1096.52 131.987 1096.26 131.667C1095.71 130.978 1095.06 130.395 1094.4 129.809C1092.68 128.272 1091.13 126.574 1090.02 124.534C1089.67 123.897 1089.51 123.213 1089.35 122.511C1089.08 121.313 1088.81 120.107 1088.43 118.937C1088.42 118.927 1088.29 118.454 1088.21 118.423C1088.01 118.355 1088.07 118.816 1088.08 119.02C1088.12 120.197 1088.49 121.395 1088.87 122.499C1089.25 123.615 1089.76 124.715 1090.44 125.683C1090.65 125.985 1090.63 125.875 1090.47 125.591C1089.78 124.364 1089 123.185 1088.28 121.979C1087.39 120.497 1086.41 118.987 1085.77 117.372C1085.52 116.725 1085.54 116.063 1085.38 115.399C1085.27 114.943 1085.13 114.498 1085.05 114.034C1085 113.73 1085 113.4 1084.9 113.107C1084.77 112.74 1084.46 112.367 1084.21 112.079C1084.03 111.874 1083.8 111.704 1083.63 111.494C1083.45 111.264 1083.3 111.006 1083.13 110.768C1083.05 110.658 1082.9 110.344 1082.77 110.283C1082.57 110.195 1082.41 110.404 1082.31 110.537C1082.14 110.774 1081.97 111.032 1081.85 111.293C1081.61 111.782 1081.76 112.365 1081.83 112.876C1081.97 113.972 1082.15 115.05 1082.75 115.995C1083.11 116.569 1083.49 117.137 1083.9 117.679C1084.09 117.927 1084.28 117.797 1084.46 117.567C1084.8 117.129 1084.94 116.59 1085.08 116.066C1085.25 115.474 1085.42 114.885 1085.58 114.291C1085.67 113.954 1085.77 113.616 1085.84 113.275C1085.85 113.25 1085.86 113.016 1085.91 112.998C1086 112.959 1085.99 113.189 1086.04 113.281C1086.33 113.836 1086.85 114.251 1087.26 114.719C1088.15 115.75 1088.73 117.058 1089.31 118.281C1090.2 120.183 1090.83 122.244 1091.91 124.052C1092.2 124.529 1092.53 124.982 1092.76 125.494C1092.97 125.994 1093.11 126.531 1093.28 127.05C1093.8 128.684 1094.18 130.551 1095.18 131.968" stroke="#FCFFFC" stroke-width="8" stroke-linecap="round"/>
<path d="M1092.63 135.529C1092.53 135.268 1092.2 135.757 1092.18 135.804C1091.96 136.159 1091.79 136.464 1091.42 136.675C1090.97 136.931 1090.64 137.05 1090.14 137.148C1089.34 137.303 1088.62 137.519 1087.85 137.803C1087.34 137.99 1086.78 138.211 1086.25 138.306C1085.58 138.426 1085.08 138.649 1084.48 138.961C1084.34 139.035 1084.19 139.026 1084.04 139.062C1083.85 139.108 1083.74 139.232 1083.59 139.354C1083.3 139.595 1082.98 139.812 1082.67 140.025C1082.09 140.425 1081.51 140.826 1080.92 141.218C1080.21 141.69 1079.55 142.216 1078.86 142.718C1078.48 142.996 1078.13 143.321 1077.77 143.631C1077.48 143.888 1077.22 144.07 1077.01 144.419C1076.73 144.901 1076.36 145.335 1076.04 145.793C1075.66 146.33 1075.31 146.884 1074.92 147.408C1074.38 148.116 1073.79 148.762 1073.29 149.499C1072.73 150.329 1072.5 151.141 1072.42 152.128C1072.37 152.714 1072.21 153.288 1072.17 153.87C1072.13 154.514 1072.16 155.17 1072.16 155.814C1072.16 156.482 1072.28 156.984 1072.48 157.621C1072.7 158.319 1072.81 159.018 1073.14 159.677C1073.79 160.932 1074.63 162.06 1075.38 163.254C1075.75 163.857 1076.17 164.488 1076.5 165.117C1076.73 165.556 1077.17 165.903 1077.5 166.269C1077.8 166.597 1078.13 166.77 1078.47 167.034C1078.95 167.415 1079.42 167.749 1080.01 167.932C1081.02 168.245 1082.03 168.49 1083 168.907C1083.93 169.307 1084.92 169.408 1085.9 169.613C1086.58 169.753 1087.17 169.901 1087.87 169.937C1088.66 169.979 1089.44 170.07 1090.23 170.106C1092.11 170.191 1094.23 169.939 1095.87 168.972C1097.42 168.058 1098.97 167.184 1100.45 166.154C1101.34 165.525 1102.21 164.956 1102.94 164.131C1103.24 163.796 1103.52 163.433 1103.85 163.127C1104.3 162.704 1104.85 162.383 1105.35 162.013C1106.19 161.383 1106.71 160.584 1107.29 159.73C1107.75 159.059 1108.22 158.393 1108.69 157.725C1109.73 156.233 1110.78 154.733 1111.63 153.12C1112.76 150.982 1112.91 148.424 1112.99 146.061C1113.03 144.668 1112.57 143.421 1112.03 142.157C1111.51 140.94 1110.8 139.748 1109.85 138.811C1108.92 137.886 1107.8 137.121 1106.75 136.35C1106.49 136.166 1106.26 135.953 1105.98 135.801C1105.54 135.557 1105.03 135.454 1104.55 135.328C1103.93 135.166 1103.36 135.104 1102.71 135.104C1102.38 135.104 1102.05 135.094 1101.72 135.11C1101.16 135.136 1100.65 135.306 1100.11 135.435C1099.31 135.63 1098.42 135.661 1097.65 135.978C1096.86 136.3 1096.08 136.506 1095.28 136.764C1094.68 136.958 1094.16 137.276 1093.63 137.623C1091.28 139.166 1088.96 140.751 1086.65 142.352C1085.12 143.415 1083.6 144.501 1082.06 145.542C1080.96 146.28 1079.78 146.907 1078.7 147.671C1078.11 148.087 1077.65 148.588 1077.22 149.16C1077.09 149.333 1076.8 149.626 1076.79 149.871C1076.79 149.965 1076.91 149.916 1076.95 149.889C1077.14 149.762 1077.32 149.545 1077.46 149.381C1078.13 148.557 1078.75 147.689 1079.46 146.891C1080.2 146.068 1080.99 145.324 1081.88 144.664C1082.01 144.565 1081.98 144.574 1081.9 144.694C1081.58 145.162 1081.29 145.652 1080.98 146.132C1079.94 147.792 1078.84 149.422 1077.79 151.076C1076.61 152.924 1075.36 154.854 1074.93 157.037C1074.92 157.05 1074.68 158.044 1075.05 157.837C1075.32 157.686 1075.6 157.392 1075.79 157.19C1076.79 156.153 1077.7 155.041 1078.74 154.036C1080.94 151.907 1083.38 150.067 1085.74 148.135C1086.94 147.158 1088.06 146.176 1088.87 144.851C1088.91 144.776 1089.07 144.383 1088.89 144.75C1088.68 145.159 1088.52 145.586 1088.32 145.999C1087.56 147.622 1086.64 149.129 1085.63 150.61C1084.04 152.914 1082.31 155.109 1080.76 157.438C1080.68 157.565 1080.27 158.198 1080.16 158.454C1080.09 158.612 1080.17 158.684 1080.32 158.602C1080.62 158.443 1081.09 158.018 1081.27 157.864C1082.56 156.782 1082.47 156.813 1084.01 155.595C1088.56 151.993 1093.36 148.712 1098.16 145.453C1099.88 144.283 1101.74 143.184 1103.29 141.779C1103.34 141.729 1103.81 141.207 1103.41 141.56C1102.38 142.471 1101.39 143.384 1100.3 144.224C1098.14 145.886 1095.74 147.328 1093.75 149.21C1093.53 149.418 1093.18 149.794 1093.01 150.078C1092.96 150.153 1092.87 150.327 1092.96 150.338C1093.11 150.357 1093.2 150.158 1093.29 150.043C1094.07 149.053 1094.78 148.016 1095.58 147.036C1097.48 144.694 1099.56 142.569 1101.83 140.577C1102.43 140.048 1103.14 139.468 1103.71 138.881C1103.84 138.747 1104.31 138.294 1104.28 137.998C1104.2 137.356 1096.91 139.34 1096.43 139.466C1095.7 139.655 1094.67 139.919 1093.93 140.16C1093.51 140.298 1093.1 140.422 1092.74 140.698C1092.27 141.062 1092.24 141.7 1092.11 142.234C1092.07 142.402 1091.85 142.744 1092.03 142.748C1092.16 142.751 1092.27 142.649 1092.39 142.582C1093.24 142.079 1094.06 141.509 1094.92 141.008C1096.2 140.258 1097.51 139.625 1098.95 139.212C1099.14 139.157 1099.33 139.054 1099.53 139.071C1099.55 139.072 1099.53 139.1 1099.52 139.109C1099.3 139.287 1099.06 139.434 1098.83 139.605C1097.14 140.896 1095.5 142.262 1093.84 143.592C1091.96 145.092 1089.89 146.506 1088.24 148.259C1088.17 148.328 1087.64 148.89 1088.16 148.616C1088.53 148.42 1088.91 148.155 1089.25 147.928C1090.61 147.025 1091.96 146.112 1093.37 145.299C1096.66 143.407 1100.1 141.9 1103.69 140.668C1104.05 140.546 1105.45 140.102 1106 139.942C1106.14 139.899 1106.5 139.728 1106.45 139.871C1106.19 140.565 1105.58 141.342 1105.18 141.93C1103.68 144.156 1101.98 146.203 1100.26 148.259C1100.1 148.454 1099.44 149.079 1099.44 149.434C1099.44 149.476 1099.52 149.419 1099.55 149.393C1100.09 148.954 1100.58 148.455 1101.11 148.011C1103.31 146.177 1105.69 144.572 1108.07 142.984C1109.08 142.313 1109.8 141.842 1110.78 141.203C1110.99 141.062 1111.21 140.921 1111.42 140.781C1111.54 140.702 1111.64 140.529 1111.79 140.55C1111.89 140.566 1111.67 140.728 1111.6 140.816C1111.35 141.181 1111.1 141.556 1110.84 141.921C1109.35 144.02 1107.53 145.686 1105.47 147.21C1104.38 148.014 1103.19 148.713 1102.14 149.576C1101.68 149.959 1102.35 149.461 1102.42 149.393C1103.29 148.521 1104.18 147.703 1105.19 146.995C1106.2 146.295 1107.41 145.448 1108.64 145.184C1108.96 145.114 1108.56 145.92 1108.55 145.949C1107.82 148.033 1106.71 149.865 1105.45 151.667C1104.85 152.52 1104.16 153.343 1103.64 154.254C1103.62 154.296 1103.55 154.393 1103.59 154.39C1103.62 154.389 1103.63 154.363 1103.65 154.346C1103.77 154.209 1103.97 153.933 1104.05 153.82C1105.01 152.505 1106.01 151.272 1107.37 150.35C1107.62 150.183 1108.18 149.868 1108.49 149.736C1108.78 149.612 1108.83 149.656 1108.78 149.951C1108.56 151.26 1107.99 152.504 1107.36 153.661C1106.27 155.656 1104.94 157.558 1103.56 159.364C1103.29 159.725 1102.9 160.084 1102.69 160.492C1102.57 160.728 1102.68 159.959 1102.68 159.692C1102.7 158.91 1102.75 158.116 1103.02 157.373C1103.45 156.168 1104.29 155.112 1104.96 154.03C1105.26 153.539 1105.62 153.023 1105.79 152.465C1105.95 151.95 1104.72 152.68 1104.25 152.943C1101.45 154.509 1098.79 156.346 1096.23 158.274C1094.67 159.452 1093.45 160.425 1092.03 161.742C1091.03 162.665 1089.96 163.696 1089.32 164.928C1089.18 165.198 1089 165.697 1089.16 166.009C1089.3 166.268 1089.6 165.614 1089.76 165.371C1090.78 163.821 1091.98 162.486 1093.42 161.301C1095.59 159.511 1098.07 157.951 1100.72 156.966C1101.02 156.852 1101.28 156.673 1101.18 157.072C1100.76 158.841 1100.12 160.521 1099.22 162.108C1098.56 163.282 1097.77 164.362 1097.01 165.469C1096.71 165.903 1096.97 165.507 1097.05 165.33C1097.41 164.551 1097.87 163.822 1098.36 163.115C1098.65 162.697 1098.94 162.294 1099.27 161.904C1099.45 161.687 1100.09 161.15 1099.83 161.263C1099.55 161.385 1099.31 161.582 1099.05 161.742C1098.14 162.3 1098.02 162.351 1097.01 162.955C1094.84 164.249 1092.74 165.683 1090.5 166.842C1090.14 167.029 1089.74 167.17 1089.4 167.403C1089.15 167.575 1089.32 167.183 1089.36 167.067C1089.78 165.79 1090.21 164.487 1090.74 163.251C1092.24 159.708 1094.51 156.449 1097.1 153.616C1097.98 152.646 1099.03 151.834 1099.91 150.858C1100.41 150.299 1099.75 151.001 1099.65 151.138C1095.95 155.799 1090.79 158.871 1086.03 162.3C1086 162.317 1085.08 162.891 1085.2 163.085C1085.22 163.125 1085.3 163.074 1085.33 163.038C1085.68 162.606 1085.93 161.959 1086.16 161.479C1086.98 159.766 1087.79 158.042 1088.53 156.295C1088.85 155.562 1089.04 155.091 1089.28 154.355C1089.32 154.201 1089.62 153.431 1089.52 153.185C1089.48 153.088 1089.32 153.268 1089.25 153.345C1088.98 153.643 1088.5 154.275 1088.3 154.55C1086.89 156.436 1085.5 158.347 1084.16 160.285C1083.56 161.152 1083.02 162.048 1082.44 162.926C1082.36 163.046 1082.04 163.662 1081.89 163.723C1081.85 163.742 1081.85 163.639 1081.82 163.599C1081.69 163.397 1081.54 163.209 1081.37 163.032C1080.86 162.486 1080.24 161.911 1079.52 161.653C1079.16 161.523 1079.02 161.277 1078.75 160.959C1078.34 160.485 1077.91 160.025 1077.44 159.612C1077.42 159.594 1076.95 159.151 1076.87 159.199C1076.54 159.387 1078.51 161.701 1078.63 161.821C1079.27 162.479 1080 163.026 1080.71 163.599C1081.41 164.163 1082.01 164.807 1082.67 165.419C1083.31 166.023 1084.15 166.729 1085.08 166.777C1085.66 166.808 1086.44 166.594 1086.91 166.228C1087.48 165.778 1087.95 165.19 1088.44 164.651C1089.64 163.305 1090.92 162.002 1092 160.545C1092.65 159.664 1093.19 158.745 1093.53 157.704C1093.84 156.803 1094.08 155.9 1094.5 155.043C1094.77 154.499 1095.09 153.985 1095.37 153.448C1095.45 153.3 1095.76 152.788 1095.65 152.589C1095.56 152.425 1094.73 152.598 1094.65 152.612C1093.53 152.818 1092.71 153.392 1092.02 154.29C1091.7 154.71 1091.36 155.171 1091.1 155.637C1090.99 155.826 1091.5 155.44 1091.64 155.276C1092.51 154.271 1093.21 153.144 1094.14 152.181C1094.64 151.653 1095.19 151.184 1095.77 150.734" stroke="#FCFFFC" stroke-width="8" stroke-linecap="round"/>
<path d="M1100.02 133.811C1100.32 133.811 1100.63 133.863 1100.94 133.863C1101.25 133.863 1101.62 133.8 1101.9 133.939C1101.99 133.984 1102.1 133.968 1102.2 133.98C1102.44 134.011 1102.68 134.099 1102.92 134.119C1103.32 134.152 1103.7 134.222 1104.08 134.341C1104.8 134.565 1105.57 134.578 1106.3 134.806C1106.55 134.883 1106.81 134.917 1107.05 134.992C1107.24 135.049 1107.47 135.227 1107.64 135.33C1108.49 135.852 1109.33 136.318 1110.07 137.006C1110.74 137.626 1111.29 138.377 1111.93 139.019C1112.27 139.363 1112.32 139.909 1112.64 140.3C1112.91 140.633 1113.13 141.025 1113.43 141.333C1113.95 141.87 1114.35 142.546 1114.8 143.145C1115.07 143.511 1115.34 143.782 1115.51 144.21C1115.65 144.579 1115.77 144.936 1115.97 145.281C1116.4 146.05 1116.21 147.094 1115.98 147.888C1115.77 148.594 1115.46 149.276 1115.22 149.971C1114.97 150.675 1114.72 151.329 1114.37 151.991C1113.62 153.417 1112.71 154.8 1111.8 156.128C1111.32 156.83 1110.94 157.637 1110.37 158.27C1109.82 158.886 1109.28 159.448 1108.63 159.975C1107.32 161.053 1105.9 161.93 1104.95 163.391C1104.19 164.552 1103.19 165.583 1102.53 166.807" stroke="#FCFFFC" stroke-width="8" stroke-linecap="round"/>
<path d="M1110.44 160.313C1110.8 160.353 1109.99 161.045 1109.85 161.131C1109.63 161.275 1109.41 161.426 1109.2 161.599C1108.81 161.94 1108.34 162.171 1107.94 162.501C1107.59 162.78 1107.26 163.09 1106.94 163.391C1106.35 163.947 1105.6 164.435 1104.94 164.89C1104.18 165.407 1103.41 165.917 1102.61 166.362C1102.07 166.661 1101.49 166.898 1100.99 167.25C1100.5 167.587 1099.99 167.891 1099.5 168.222C1099.17 168.449 1098.84 168.654 1098.45 168.769C1098.02 168.891 1097.64 169.104 1097.21 169.217C1096.65 169.365 1096.06 169.47 1095.5 169.647C1094.42 169.99 1093.34 170.233 1092.25 170.5C1091.38 170.711 1090.53 170.981 1089.67 171.236C1088.45 171.599 1087.21 172.545 1085.87 172.283C1085.44 172.199 1085.05 171.966 1084.66 171.783C1084.07 171.511 1083.48 171.184 1082.87 170.957C1082.45 170.797 1081.99 170.737 1081.58 170.549C1081.28 170.413 1080.99 170.268 1080.69 170.136C1080.25 169.945 1079.86 169.659 1079.51 169.339C1078.99 168.864 1078.43 168.429 1077.94 167.931C1077.01 167.005 1076.2 165.965 1075.5 164.858C1075.24 164.438 1074.97 164.004 1074.64 163.63C1074.33 163.277 1073.98 162.999 1073.73 162.6C1073.62 162.439 1073.51 162.275 1073.4 162.117C1073.27 161.924 1073.04 161.818 1073.04 161.57" stroke="#FCFFFC" stroke-width="8" stroke-linecap="round"/>
<path d="M1101.17 131.297C1101.17 129.983 1100.97 128.992 1100.42 127.766C1099.43 125.545 1098.87 123.315 1098.2 121.005C1097.65 119.095 1097.1 117.377 1096.21 115.589C1095.37 113.889 1094.7 112.105 1093.82 110.424C1093.13 109.127 1092.03 107.968 1091.15 106.787C1090.44 105.82 1089.57 104.844 1088.62 104.098C1087.52 103.23 1086.74 102.973 1085.37 102.952C1084.62 102.94 1083.81 102.661 1083.09 102.978C1082.2 103.368 1081.22 103.487 1080.32 103.835C1078.9 104.385 1077.52 105.643 1076.79 106.958C1076.28 107.887 1076.12 108.886 1075.91 109.91C1075.7 110.874 1075.33 111.929 1075.31 112.914C1075.29 114.937 1076.12 116.86 1076.62 118.792C1077.11 120.663 1077.91 122.186 1079.39 123.43C1080.22 124.137 1080.84 125.402 1081.39 126.342C1081.85 127.133 1082.43 127.851 1083.02 128.543C1083.51 129.119 1083.9 129.825 1084.3 130.467C1084.72 131.137 1085.26 131.552 1085.75 132.154C1086.25 132.764 1086.61 133.467 1087.08 134.091C1087.28 134.351 1087.48 134.381 1087.06 134.381C1085.79 134.381 1084.23 135.194 1083.17 135.83C1080.37 137.514 1077.76 139.162 1075.64 141.721C1074.55 143.036 1073.64 144.509 1072.63 145.885C1071.58 147.306 1070.5 148.51 1069.76 150.148C1068.65 152.595 1068.95 155.657 1069.45 158.213C1069.7 159.499 1070.13 160.792 1070.45 162.067C1070.81 163.461 1071.49 164.468 1072.21 165.678C1072.75 166.579 1073.02 167.587 1073.71 168.406C1074.39 169.203 1075.23 169.673 1076.01 170.323C1076.57 170.794 1077.19 171.292 1077.74 171.799C1078.48 172.489 1079.35 172.921 1080.16 173.512C1080.63 173.85 1081.34 173.898 1081.9 174C1083.15 174.226 1084.24 174.871 1085.51 175.054C1086.99 175.265 1088.57 174.984 1089.96 174.52C1090.66 174.287 1091.32 174.186 1092.04 174.059C1092.78 173.929 1093.38 173.515 1094.06 173.235C1095.27 172.74 1096.57 172.593 1097.8 172.155C1098.78 171.803 1099.77 171.708 1100.7 171.206C1101.94 170.537 1103.22 169.87 1104.41 169.13C1105.46 168.479 1106.45 167.685 1107.47 166.982C1109.06 165.882 1110.05 164.263 1111.36 162.851C1112.73 161.359 1113.71 159.58 1114.76 157.857C1115.88 156.031 1117.02 154.306 1117.65 152.237C1118.22 150.389 1118.48 148.51 1118.48 146.583C1118.48 144.601 1117.89 142.782 1117.12 140.976C1115.76 137.793 1112.94 134.89 1110.04 133.043C1109.44 132.66 1108.8 132.514 1108.15 132.239C1107.18 131.832 1106.16 131.914 1105.2 131.64C1104.52 131.444 1103.99 130.814 1103.24 130.704C1102.19 130.547 1101.16 130.563 1100.1 130.704" stroke="black" stroke-width="3" stroke-linecap="round"/>
<path d="M1247.5 232.5C1247.5 253.069 1241.48 271.628 1231.82 285.009C1222.16 298.391 1208.95 306.5 1194.5 306.5C1180.05 306.5 1166.84 298.391 1157.18 285.009C1147.52 271.628 1141.5 253.069 1141.5 232.5C1141.5 211.931 1147.52 193.372 1157.18 179.991C1166.84 166.609 1180.05 158.5 1194.5 158.5C1208.95 158.5 1222.16 166.609 1231.82 179.991C1241.48 193.372 1247.5 211.931 1247.5 232.5Z" fill="white" stroke="black" stroke-width="3"/>
</g>
<defs>
<clipPath id="clip0_64_42">
<rect width="1440" height="170" fill="white"/>
</clipPath>
</defs>
</svg>
