<svg width="1440" height="170" viewBox="0 0 1440 170" fill="none" xmlns="http://www.w3.org/2000/svg">
<g clip-path="url(#clip0_62_135)">
<rect width="1440" height="170" fill="#CFC7FF"/>
<circle cx="289" cy="127.983" r="106.5" fill="white" stroke="black" stroke-width="3"/>
<path d="M374.595 61.6764C374.632 61.3761 375.126 61.9079 375.165 61.9974C375.227 62.137 375.282 62.1105 375.364 62.1916C375.436 62.2639 375.437 62.4424 375.522 62.5324C375.784 62.8084 376.192 63.0937 376.378 63.4201C376.451 63.5474 376.674 63.6178 376.774 63.7451C376.901 63.9061 376.998 64.0168 377.159 64.1374C377.374 64.2986 377.582 64.66 377.718 64.8864C377.823 65.0628 378.033 65.1867 378.09 65.3857C378.124 65.5036 378.258 65.7416 378.348 65.8217C378.908 66.32 379.127 67.1737 379.572 67.7794C379.983 68.3374 380.387 68.9033 380.714 69.5231C381.079 70.2182 381.601 70.8255 382.017 71.4848C382.351 72.0135 382.728 72.5063 383.107 73.0026C383.322 73.2844 383.426 73.6281 383.67 73.8903C383.832 74.064 384.018 74.2549 384.138 74.461C384.339 74.808 384.578 75.1507 384.76 75.5151C384.964 75.9231 385.3 76.2491 385.505 76.6248C385.896 77.3416 386.463 77.9662 386.86 78.6934C386.933 78.8264 386.93 78.9534 386.935 79.0977C386.942 79.2756 387.069 79.3915 387.078 79.5811C387.081 79.6348 387.182 79.9655 387.205 79.9061C387.299 79.6646 387.031 79.3933 387.007 79.169C386.974 78.867 386.663 78.581 386.404 78.5072C386.238 78.4597 385.967 77.8135 385.905 77.6551C385.831 77.4635 385.795 77.2865 385.667 77.1162C385.533 76.9366 385.637 77.1906 385.663 77.247C385.865 77.6751 386.142 78.0536 386.444 78.416C386.661 78.6767 386.896 78.9256 387.062 79.2245C387.106 79.3031 387.12 79.432 387.165 79.494C387.325 79.7137 387.435 80.2561 387.435 80.5442C387.435 80.9086 387.356 80.3916 387.221 80.2232C387.137 80.1186 387.089 80.0049 387.007 79.9022C387.005 79.9004 386.736 79.7795 386.832 79.807C387.044 79.8675 387.176 80.5205 387.3 80.6947C387.561 81.0623 387.781 81.5701 388.077 81.8955C388.502 82.3636 388.779 83.0976 389.115 83.6313C389.285 83.9011 389.267 84.3206 389.4 84.6062C389.584 85.0003 389.63 85.4209 389.793 85.8268C389.885 86.0579 390.01 86.2522 390.09 86.4847C390.119 86.5679 390.258 86.8661 390.272 86.7779C390.35 86.3027 390.193 85.6295 389.9 85.2522C389.728 85.0311 389.7 84.7634 389.448 84.5745C389.044 84.2713 388.741 83.7306 388.338 83.3935C388.171 83.2534 388.082 82.9403 387.934 82.7555C387.905 82.7193 387.678 82.5484 387.752 82.6644C387.91 82.9117 388.051 83.1652 388.204 83.4173C388.589 84.0549 388.708 84.8898 388.897 85.6088C388.997 85.9902 389.244 86.2958 389.361 86.6749C389.528 87.2167 389.599 87.8738 389.967 88.3235C390.194 88.6009 390.309 88.9885 390.518 89.2825C390.708 89.5494 390.867 89.8964 391.073 90.1385C391.204 90.2928 391.183 90.4628 391.287 90.622C391.745 91.3233 391.944 92.2155 392.107 93.0315C392.321 94.1027 392.469 95.1742 392.698 96.2336C392.752 96.4867 392.67 96.7164 392.817 96.9469C392.884 97.0535 392.927 97.251 392.927 97.3749C392.927 97.6594 392.999 97.9204 392.999 98.2151C392.999 98.3918 392.899 98.8279 393.177 98.766C393.274 98.7445 393.476 98.294 393.53 98.1953C393.701 97.8838 393.85 97.5395 393.958 97.2006C394.158 96.5729 394.34 95.8787 394.354 95.2191C394.36 94.9654 394.559 94.7762 394.568 94.5295C394.581 94.1801 394.633 93.8401 394.64 93.4912C394.644 93.2568 394.696 92.9541 394.782 92.7383C394.913 92.412 394.854 92.0149 394.854 91.6683C394.854 91.0214 394.996 90.3958 394.996 89.7422C394.996 88.1676 395.353 86.6098 395.353 85.0382C395.353 84.274 395.638 83.5395 395.638 82.7753C395.638 82.0567 395.638 81.3381 395.638 80.6195C395.638 79.3739 395.715 78.1078 395.535 76.8744C395.399 75.9378 395.401 75.0114 395.349 74.0726C395.253 72.349 395.49 70.6661 395.068 68.9762C394.854 68.1209 394.143 67.459 393.728 66.6935C393.484 66.2428 393.174 65.8315 392.967 65.362C392.832 65.0542 392.641 64.7573 392.484 64.4584C392.291 64.0918 392.059 63.6332 391.786 63.321C391.526 63.0234 391.323 62.5899 390.962 62.4214C390.342 62.1322 389.707 61.8127 389.06 61.6209C388.887 61.5699 388.694 61.6526 388.533 61.5654C388.136 61.352 387.601 61.1819 387.157 61.1136C385.936 60.9257 384.705 60.8714 383.464 60.8917C382.191 60.9126 381.183 61.7645 379.929 61.8191C379.446 61.84 378.975 62.0331 378.478 62.0331C377.97 62.0331 377.461 62.0331 376.953 62.0331C376.639 62.0331 376.373 61.8909 376.077 61.8032C375.981 61.7747 375.517 61.6327 375.895 61.6051C376.152 61.5862 376.412 61.5076 376.663 61.4465C377.184 61.32 377.77 61.391 378.304 61.391C378.873 61.391 379.409 61.6764 379.976 61.6764C380.423 61.6764 380.869 61.6764 381.316 61.6764C381.588 61.6764 382.069 61.7724 382.319 61.6724C383.014 61.3942 380.821 61.6764 380.072 61.6764C379.759 61.6764 378.984 61.565 379.021 61.9974C379.047 62.2892 379.301 62.6951 379.441 62.9525C379.539 63.1314 379.592 63.347 379.731 63.4994C380.935 64.8245 382.16 66.1833 383.123 67.7239C383.382 68.1383 383.564 68.5479 383.817 68.9683C385.116 71.1347 386.973 73.0535 387.942 75.4042C388.005 75.5571 388.058 75.8295 388.188 75.9511C388.461 76.2069 387.913 75.2496 387.708 74.9365C387.083 73.9796 386.299 73.1804 385.564 72.313C385.005 71.653 384.577 70.8963 384.134 70.1572C383.819 69.6327 383.48 69.1219 383.226 68.5641C383.043 68.1632 382.907 67.7404 382.691 67.3553C382.558 67.1177 382.424 66.8206 382.192 66.6658C382.053 66.5734 381.935 66.3867 381.823 66.2695C381.516 65.9489 381.172 65.6646 380.872 65.3382C380.599 65.0418 380.326 64.7141 380.131 64.3593C380.065 64.2382 380.001 64.049 379.873 63.9749C379.639 63.8391 379.653 64.1378 379.659 64.2761C379.683 64.82 380.192 65.4109 380.515 65.8217C380.888 66.2947 381.173 66.773 381.486 67.288C381.957 68.0628 382.5 68.7752 383.008 69.5231C383.436 70.152 383.787 70.8252 384.197 71.465C384.695 72.242 385.276 72.9989 385.719 73.8071C386.166 74.6233 386.721 75.3602 387.189 76.1651C387.594 76.8615 387.942 77.4854 388.251 78.2258C388.846 79.6477 389.435 81.0642 390.003 82.4979C390.841 84.6124 391.584 86.8003 392.23 88.9813C392.667 90.4572 393.074 91.9412 393.498 93.4199C393.649 93.9465 393.826 94.3721 393.855 94.9179C393.857 94.9559 393.877 95.0015 393.926 94.9892C394.06 94.9557 393.997 94.4352 393.997 94.3591C393.997 93.2718 393.994 92.2343 393.823 91.161C393.495 89.1043 393.664 87.0445 393.371 84.9867C393.029 82.5743 393.359 80.0378 393.494 77.6234C393.555 76.5356 393.805 75.4907 393.89 74.4095C393.956 73.5781 393.926 72.7383 393.926 71.9048C393.926 70.6484 393.987 69.322 393.823 68.0726C393.629 66.5897 392.633 65.9371 391.485 65.1876C389.085 63.6211 386.425 62.5305 383.535 62.2629C382.891 62.2032 382.266 62.3184 381.625 62.3184C381.426 62.3184 381.22 62.3522 381.05 62.465C380.686 62.7076 381.65 63.144 381.776 63.214C382.457 63.5923 383.176 63.7907 383.884 64.1017C384.678 64.4506 385.337 64.7962 386.222 64.8151C387.47 64.8416 388.869 65.0875 389.908 65.8296C390.463 66.2264 391.223 66.7314 391.394 67.4346C391.611 68.327 391.639 69.2595 391.643 70.173C391.65 71.5449 391.675 72.9234 391.628 74.2945C391.587 75.4807 391.572 76.6621 391.572 77.8493C391.572 79.1227 391.479 80.4406 391.647 81.7053C391.811 82.9315 392.071 84.0783 392.071 85.3156C392.071 85.348 392.087 85.4647 392.06 85.3433C391.874 84.5059 391.612 83.6808 391.311 82.8784C390.911 81.8149 390.396 80.7968 390.054 79.7119C389.831 79.0037 389.688 78.2745 389.488 77.56C389.201 76.5372 388.916 75.4823 388.529 74.4927C388.04 73.246 387.351 72.1031 386.848 70.8626C385.954 68.6555 385.296 66.5175 383.337 65.0053C382.868 64.6433 382.354 64.2832 381.835 63.9947C381.803 63.9772 381.713 63.9585 381.72 63.9591C382.245 64.0028 382.759 64.2016 383.254 64.3633C384.032 64.6174 384.807 64.8804 385.588 65.1242C386.015 65.2575 386.596 65.3252 386.975 65.5839C387.352 65.8405 387.534 66.4487 387.791 66.8124C388.11 67.2615 388.16 67.7274 388.299 68.243C388.638 69.5016 388.942 70.7644 389.25 72.0317C389.471 72.9443 389.644 73.8721 389.892 74.778C390.1 75.5386 390.394 76.2729 390.589 77.0369C390.793 77.8337 390.729 75.3939 390.7 74.5719C390.673 73.8024 390.681 73.0116 390.562 72.2496C390.481 71.7349 390.333 71.2386 390.272 70.7199C390.175 69.8864 390.107 68.3911 389.353 67.8468C388.891 67.5129 388.255 67.3087 387.732 67.0938C387.102 66.8351 386.441 66.6717 385.794 66.4637C384.539 66.0601 383.296 65.6358 382.021 65.2946C381.188 65.0715 380.214 64.6229 379.342 64.6011C378.951 64.5913 378.583 64.4985 378.233 64.3316C378.063 64.2509 377.189 63.6605 377.448 63.5311" stroke="url(#paint0_linear_62_135)" stroke-width="3" stroke-linecap="round"/>
<path d="M346.24 84.0602C345.751 83.6259 344.778 84.2424 344.382 84.528C343.474 85.1838 342.984 86.1498 342.284 87.0254C341.288 88.2709 340.363 89.6631 339.484 90.9949C338.911 91.8625 338.194 92.7036 337.764 93.6505C337.341 94.5817 336.633 95.3813 336.271 96.3267C335.604 98.0725 335.095 99.9753 335.095 101.865C335.095 102.629 335.221 103.21 335.397 103.942C335.497 104.355 335.477 104.783 335.666 105.174C335.899 105.658 336.314 106.056 336.581 106.529C336.994 107.261 337.691 107.972 338.438 108.359C339.507 108.913 340.461 109.694 341.534 110.23C342.584 110.755 343.975 111.011 345.125 111.235C345.915 111.388 347.004 111.412 347.788 111.235C350.137 110.704 352.086 109.348 354.096 108.022C355.344 107.199 356.224 106.174 357.206 105.071C357.824 104.376 358.476 103.671 358.995 102.897C359.483 102.167 359.842 101.379 360.384 100.681C361.161 99.6834 362.061 98.3402 362.352 97.1041C362.71 95.5828 363.84 94.3118 364.244 92.7905C364.907 90.2903 365.682 87.6329 365.682 85.0234C365.682 82.6362 364.013 80.8137 361.96 79.7329C361.416 79.4464 360.82 79.281 360.233 79.1069C359.054 78.7569 357.904 78.2187 356.697 77.9786C355.252 77.6912 353.567 77.8223 352.088 77.8685C351.195 77.8964 349.951 78.4464 349.219 78.928C348.477 79.4161 347.176 79.9272 346.804 80.7717C346.353 81.796 345.346 82.531 345.001 83.5649" stroke="black" stroke-width="3" stroke-linecap="round"/>
<path d="M363.205 78.2403C363.106 78.2403 363.271 78.1734 363.301 78.1302C363.699 77.5627 363.983 76.8649 364.32 76.2589C364.734 75.5123 365.18 74.7814 365.586 74.0299C365.953 73.3499 365.961 72.6638 366.198 71.9523C366.519 70.9876 366.95 69.9207 367.374 68.994C367.648 68.3945 367.969 67.8579 368.097 67.2053C368.202 66.6687 368.279 66.1321 368.489 65.623C369.277 63.7063 369.76 61.8071 369.885 59.734C369.919 59.185 369.903 58.3253 369.658 57.8214C369.445 57.3829 369.055 57.0287 368.902 56.5693" stroke="black" stroke-width="3" stroke-linecap="round"/>
<path d="M349.088 91.986C348.6 92.2606 348.469 92.8671 348.469 93.4101C348.469 93.6674 348.412 93.9994 348.496 94.2426C348.632 94.6334 349.108 94.7987 349.336 95.1094C349.778 95.7153 349.928 95.9487 350.705 95.9487C351.48 95.9487 352.241 95.824 352.954 95.5497C354.004 95.1461 354.645 93.8525 354.963 92.8529C355.035 92.6271 355.141 91.9542 354.977 91.7384C354.599 91.2419 354.754 90.5939 354.289 90.1285C353.892 89.7318 352.884 89.014 352.363 89.014C351.797 89.014 349.915 88.5638 349.714 89.1998C349.587 89.6023 349.147 89.7248 348.868 90.0322C348.642 90.2805 348.478 90.7354 348.469 91.0641C348.438 92.1223 348.133 92.7018 348.524 93.7059C348.722 94.2152 349.301 95.2878 349.803 95.4809C350.835 95.8776 351.493 95.1395 352.122 94.4008C352.941 93.4389 353.747 92.4346 352.624 91.3118C352.404 91.0914 352.098 90.6238 351.75 90.6238C351.112 90.6238 350.7 92.1431 350.533 92.6465C350.493 92.764 350.284 93.7763 350.601 93.7197C351.199 93.613 351.628 92.3646 351.826 91.9035C352.079 91.3135 352.111 90.8525 351.688 90.3349C350.525 88.9109 349.913 92.3023 350.822 92.6052" stroke="black" stroke-width="3" stroke-linecap="round"/>
<path d="M220.992 44.3627C220.278 44.9977 219.539 45.17 218.808 46.0327C217.847 47.1667 217.21 48.5304 216.239 49.6778C214.815 51.3608 212.89 52.0933 211.165 53.387C209.906 54.3313 209.223 55.3543 208.435 56.6949C207.445 58.3801 205.729 60.1084 205.111 61.9617C204.339 64.2773 203.159 66.4715 203.072 68.9949C202.98 71.6532 204.516 73.3819 206.444 75.177C211.314 79.7109 219.393 78.9055 225.552 79.4001C232.219 79.9354 239.145 81.0152 245.849 79.8979C248.729 79.4179 251.443 78.2465 254.295 77.7301C257.377 77.1722 260.09 76.1139 262.645 74.2617C270.699 68.4223 280.005 63.9574 287.406 57.2408C290.042 54.8482 293.169 51.1344 291.934 47.2531C288.522 36.5302 275.385 37.1369 266.435 37.1369C259.798 37.1369 253.161 37.1369 246.523 37.1369C242.231 37.1369 238.084 38.0741 233.983 39.3046C228.937 40.8183 223.503 40.8826 218.616 42.6928C217.849 42.9766 217.121 43.686 216.368 44.0737C215.362 44.5911 213.964 45.5463 213.365 46.5144C212.241 48.3296 210.593 49.1752 208.917 50.4325C207.329 51.6232 205.847 54.9552 205.689 56.9197C205.585 58.2255 205.163 59.2986 204.822 60.5486C204.496 61.7459 203.708 62.6855 203.65 63.9528C203.575 65.5996 202.81 67.4066 202.51 69.0591C202.108 71.2694 202.24 72.2691 203.586 74.1332C207.866 80.06 216.774 79.0468 223.256 79.0468C229.714 79.0468 236.096 79.1999 242.493 78.4688C246.81 77.9754 250.898 76.6985 255.098 75.5784C258.425 74.6914 261.163 72.8576 264.09 71.2108C267.692 69.185 271.061 66.8849 274.752 65.0126C277.538 63.5998 279.411 61.5961 281.962 59.8421C282.918 59.1847 283.968 58.7211 284.853 57.9473C285.486 57.3934 286.109 57.4131 286.667 56.8554C287.428 56.0949 287.969 55.7233 288.626 54.784C289.148 54.0384 289.395 53.2296 289.782 52.4557" stroke="#138A00" stroke-width="3" stroke-linecap="round"/>
<path d="M289.782 42.0506C289.782 40.0226 289.829 37.965 289.333 35.9808C288.789 33.8071 287.867 31.79 287.325 29.6221C286.803 27.5312 286.468 25.3194 285.607 23.3276C284.595 20.9841 283.14 18.7488 281.85 16.5513C279.31 12.2272 275.747 9.81531 271.991 6.65995C270.494 5.40255 268.62 4.33388 266.804 3.62509C263.43 2.30841 259.573 0.70187 255.981 0.188794C253.219 -0.205789 250.212 0.140621 247.423 0.140621C246.056 0.140621 245.174 0.380416 243.954 1.00772C242.483 1.76416 241.393 3.2541 240.935 4.8294C240.404 6.65941 239.63 8.00568 238.912 9.74298C238.228 11.3983 238.341 13.153 237.885 14.8492C237.477 16.3617 236.954 17.8389 236.616 19.3614C236.262 20.9521 236.004 22.4306 235.444 23.9699C234.838 25.6371 233.373 22.9191 233.083 22.5568C230.598 19.4505 226.877 17.9995 223.08 18.0607C219.131 18.1244 217.339 19.9799 214.778 22.5408C211.358 25.9602 207.945 29.3777 206.829 34.3109C206.02 37.8904 203.361 40.8442 203.361 44.6519C203.361 47.5802 202.158 50.1831 202.51 53.1784C202.878 56.3086 202.56 59.3976 203.506 62.4435C203.844 63.5337 204.462 64.9349 204.517 66.0404C204.588 67.4584 204.86 68.8136 205.737 69.9263C206.73 71.1851 207.986 73.9642 207.986 75.5785" stroke="#138A00" stroke-width="3" stroke-linecap="round"/>
<path d="M230.068 25.5726C228.861 27.2619 229.29 29.5513 229.29 31.5037C229.29 32.5069 229.357 33.4125 229.521 34.3972C229.552 34.5838 229.755 35.0467 229.801 34.5555C230.031 32.1414 228.832 29.6548 228.383 27.3145C228.208 26.3966 228.552 25.2009 227.923 24.457C227.419 23.8615 226.876 23.3163 226.375 22.7151C225.688 21.8901 224.501 20.8275 223.359 20.7789C222.832 20.7564 221.947 20.6156 221.445 20.8437C220.646 21.2066 220.296 21.7808 219.703 22.3912C219.186 22.923 218.814 23.3603 218.148 23.73C217.496 24.0924 217.038 24.6739 216.428 25.0688C214.984 26.0028 214.379 27.4733 213.354 28.7829C212.533 29.8323 211.772 30.8951 211.015 31.9931C210.245 33.1103 209.45 34.2828 208.762 35.4481C208.446 35.983 208.123 36.5123 207.783 37.0316C207.365 37.6704 207.216 38.4191 206.804 39.047C206.332 39.7665 205.356 40.754 205.322 41.6382C205.284 42.614 205.14 43.5961 205.055 44.5677C204.978 45.453 204.803 46.2392 204.803 47.1517C204.803 48.2892 204.674 49.4315 204.674 50.5779C204.674 52.9196 204.674 55.2613 204.674 57.603C204.674 59.4007 204.688 61.1773 204.811 62.9582C204.934 64.7536 205.322 66.6045 205.322 68.3925C205.322 69.0475 205.588 69.5683 205.703 70.1992C205.815 70.817 205.728 71.0996 206.099 71.6676C207.111 73.215 208.466 74.4965 210.375 74.5467C211.336 74.572 212.237 74.9354 213.182 74.9354C214.655 74.9354 216.128 74.9354 217.601 74.9354C219.237 74.9354 220.863 74.9815 222.488 74.8058C223.216 74.7272 223.894 74.5467 224.633 74.5467C225.582 74.5467 226.489 74.796 227.433 74.8058C229.429 74.8266 231.287 74.8865 233.242 75.1873C235.157 75.4819 237.332 75.0844 239.209 74.8058C239.258 74.7985 240.795 74.555 240.764 74.4459C240.696 74.2084 240.274 74.5112 240.03 74.5467C238.874 74.7146 237.705 74.7792 236.539 74.7986C233.894 74.8427 231.245 74.8058 228.599 74.8058C227.644 74.8058 226.408 74.5571 225.533 74.9354C225.2 75.0796 224.68 74.9905 224.396 75.2233C223.928 75.6062 225.719 75.4479 225.792 75.4464C229.156 75.377 232.473 74.9798 235.797 74.4819C237.993 74.1531 240.149 73.6398 242.376 73.6398C244.247 73.6398 246.119 73.656 247.99 73.6398C248.671 73.6338 249.34 73.5296 250.02 73.5102C250.896 73.4852 251.693 72.9676 252.554 72.8048C253.463 72.6328 254.07 72.477 254.879 72.0274C255.099 71.9049 255.353 71.7569 255.606 71.7179C256.083 71.6445 254.769 72.1989 254.353 72.4449C252.875 73.3204 251.147 73.7379 249.473 74.0572C248.215 74.2972 247.023 74.7614 245.766 74.9929C244.915 75.1497 243.766 75.1093 243.024 75.5544C242.892 75.6335 243.333 75.5519 243.485 75.5256C244.69 75.3165 245.877 74.969 247.055 74.6475C248.888 74.1469 250.684 73.5473 252.496 72.9776C253.647 72.6157 254.849 72.359 255.944 71.8403C257.669 71.0231 259.439 70.4037 261.22 69.7241C263.184 68.9748 264.994 67.963 266.734 66.7802C268.745 65.4127 271.051 64.5779 273.075 63.2173C274.885 62 276.732 61.2172 278.696 60.295C280.506 59.4453 282.162 58.3386 283.9 57.3727C285.235 56.6314 286.53 55.4763 287.377 54.2056C288.004 53.2644 288.523 52.2879 288.917 51.2257C289.137 50.6349 289.148 50.1386 289.148 49.5126C289.148 48.8698 289.407 48.3156 289.407 47.6628C289.407 46.2928 289.416 45.0187 289.119 43.6824C288.877 42.596 288.444 41.5604 288.053 40.5297C287.541 39.1783 286.801 38.1217 286.11 36.866C285.649 36.0286 285.204 35.1823 284.757 34.3252C284.23 33.316 283.4 32.0206 282.468 31.3453C281.701 30.7901 280.789 30.6697 279.949 30.2656C279.196 29.9035 278.58 29.9633 277.797 29.9633C277.169 29.9633 276.564 29.9363 275.932 29.9849C275.14 30.0459 274.469 30.731 273.831 31.1438C272.782 31.8226 271.731 32.5683 270.649 33.188C269.313 33.9528 268.085 34.7087 267.158 35.9447C266.109 37.3439 265.234 38.5324 264.812 40.285C264.561 41.3248 264.531 42.3888 264.531 43.4521" stroke="#138A00" stroke-width="8" stroke-linecap="round"/>
<path d="M226.829 21.9445C227.219 21.9445 227.41 22.0003 227.721 22.2541C228.635 22.9982 229.442 23.821 230.428 24.4782C231.162 24.9679 231.813 25.737 232.458 26.3496C233.618 27.4518 235.12 28.9992 236.416 27.055C237.599 25.2809 238.034 23.1054 238.547 21.052C238.674 20.5417 239.005 20.1099 239.108 19.6124C239.218 19.0859 239.236 18.5618 239.454 18.0649C239.906 17.0303 239.785 15.7845 239.785 14.6891C239.785 14.2853 239.929 14.1028 240.03 13.7246C240.115 13.4055 240.006 13.044 240.073 12.7169C240.345 11.3866 241.178 10.3122 241.7 9.08922C241.988 8.4121 242.396 7.83876 242.707 7.1746C243.03 6.48672 243.648 5.98953 243.931 5.28877C244.289 4.40258 245.045 3.75226 245.81 3.22299C246.815 2.52712 248.032 2.51432 249.192 2.8415C251.39 3.46125 253.472 4.35841 255.663 4.97206C257.454 5.47342 259.217 5.65825 261.04 5.88619C261.403 5.93157 262.435 6.24485 262.069 6.26767C261.118 6.32714 260.091 5.91189 259.19 5.67745C257.132 5.14142 255.005 4.77383 252.95 4.31706C252.699 4.26133 253.42 3.88644 253.461 3.83481C253.773 3.44068 254.488 3.44234 254.951 3.42453C256.536 3.36357 258.519 3.30913 260.025 3.90678C260.9 4.25386 261.837 4.3381 262.71 4.70574C263.358 4.97841 263.864 5.27444 264.459 5.64866C265.164 6.09158 265.856 6.54212 266.525 7.03784C267.047 7.42483 267.63 7.6281 268.159 7.98076C269.016 8.55221 269.968 8.94824 270.851 9.4779C271.834 10.0679 272.692 10.8354 273.608 11.5221C274.149 11.928 274.453 12.5385 274.824 13.0912C275.347 13.8703 275.957 14.6069 276.443 15.4089C277.242 16.7258 278.015 18.0122 278.891 19.2813C279.571 20.2676 280.414 21.1891 280.978 22.2613C281.568 23.3814 282.443 24.2948 282.698 25.5723C283.068 27.419 284.023 29.0987 284.095 31.0138C284.134 32.059 284.437 33.0998 284.678 34.1161C284.957 35.2958 284.846 36.5006 285.002 37.7006C285.324 40.1799 285.193 42.9098 284.339 45.2799C283.446 47.762 282.702 50.0281 281.1 52.1754C280.083 53.5406 279.35 55.0687 277.876 55.9903C275.755 57.316 273.773 58.884 271.527 60.0067C269.325 61.108 266.618 61.771 264.689 63.3321C264.048 63.8514 263.313 64.3118 262.58 64.6997C261.691 65.1708 260.916 65.8038 259.982 66.1896C258.556 66.7785 257.057 67.0645 255.591 67.5212C253.628 68.1333 251.749 68.9001 249.74 69.3639C247.672 69.8411 245.582 70.2808 243.499 70.6883C241.945 70.9924 240.384 70.9186 238.806 70.9186C235.24 70.9186 231.701 71.4733 228.139 71.2929C224.431 71.1051 220.705 70.5373 217.141 69.5222C215.954 69.1843 214.718 68.9469 213.506 68.7161C212.942 68.6087 212.478 68.3405 211.901 68.3274C211.066 68.3084 210.298 67.9387 209.439 67.9387C209.166 67.9387 208.758 68.017 208.503 67.9243C208.149 67.7955 208.122 65.9466 208.071 65.6498C207.909 64.695 207.799 63.7317 207.683 62.7706C207.449 60.8392 206.971 58.9883 206.596 57.0844C206.043 54.2781 207.498 52.0983 207.963 49.4187C208.262 47.696 208.482 46.0528 208.921 44.3586C209.46 42.2746 210.028 40.1982 210.555 38.1109C210.893 36.7708 211.247 35.582 212.059 34.4544C212.933 33.2406 213.602 31.7356 214.708 30.7115C215.258 30.2019 215.932 29.8399 216.507 29.3583C217.152 28.818 217.696 28.1854 218.407 27.7244C219.764 26.8449 221.037 26.2599 222.668 26.1193C225.764 25.8524 222.674 29.4111 222.006 30.402C221.213 31.5792 220.315 32.6572 219.437 33.7706C218.057 35.5192 216.887 37.4138 215.586 39.2193C213.887 41.5773 212.675 44.2251 211.325 46.7915C210.619 48.1324 210.268 49.8549 210.144 51.3549C210.05 52.4963 209.794 53.6466 209.864 54.7954C210.021 57.3973 209.986 60.0023 209.986 62.6123C209.986 62.8513 209.947 64.789 210.144 64.6709C210.6 64.3976 210.584 63.0854 210.67 62.6699C211.124 60.4751 211.783 58.296 212.419 56.1486C212.876 54.605 213.51 53.1384 214.017 51.614C214.645 49.7214 215.113 47.7786 215.744 45.8845C216.704 43.0053 218.165 40.5032 219.962 38.0677C221.63 35.8068 223.068 33.3217 225.267 31.4889C225.34 31.4282 226.226 30.6854 226.282 30.9706C226.397 31.5615 226.106 32.4248 225.965 32.9716C225.414 35.1063 224.335 36.9904 223.367 38.953C222.113 41.4948 220.991 44.097 219.71 46.6259C217.941 50.1173 215.979 53.4938 214.103 56.926C213.011 58.9231 212.059 61.0648 212.059 63.3753C212.059 65.069 211.894 66.8977 212.448 68.5289C212.947 69.9995 215.157 68.4798 215.867 68.1186C218.127 66.9674 220.358 65.6117 221.977 63.62C223.101 62.238 223.595 60.5506 224.166 58.8982C225.224 55.8352 226.199 52.7438 226.814 49.5554C227.279 47.1489 227.397 44.7395 227.664 42.3144C227.87 40.4345 228.556 38.5767 229.024 36.7505C229.204 36.0494 229.55 35.3022 229.55 34.5695C229.55 33.5243 229.965 31.6532 230.996 31.0858C231.212 30.9671 232.36 30.5487 232.53 30.8411C233.899 33.2061 233.798 36.8373 233.062 39.3489C232.015 42.9234 229.402 46.1059 226.836 48.7061C224.708 50.8628 221.961 52.3449 219.976 54.6371C218.82 55.9726 218.046 57.6895 217.119 59.1861C216.452 60.2619 215.744 61.3682 215.499 62.6267C215.459 62.8372 215.346 63.9916 215.845 63.9223C216.466 63.8361 217.223 63.1923 217.702 62.8714C220.159 61.2268 222.404 59.2853 224.418 57.1203C225.82 55.613 227.214 53.9726 227.858 51.9811C228.265 50.7217 228.368 49.3598 228.384 48.0439C228.4 46.6731 228.505 45.0651 227.858 43.8044C227.445 42.9994 226.659 42.3567 225.836 43.1062C223.861 44.9031 222.633 48.033 222.129 50.5703C222.058 50.9262 221.203 54.8952 222.165 54.9826C222.623 55.0243 223.182 54.6684 223.547 54.4643C225.557 53.3397 227.546 52.285 229.722 51.4988C230.479 51.2256 238.729 48.4151 239.072 49.685C239.292 50.498 238.565 51.9765 238.266 52.6505C237.105 55.2712 235.137 57.1688 232.832 58.8118C232.431 59.0976 226.121 63.1069 226.203 63.2025C226.277 63.2888 226.415 63.2491 226.505 63.2385C226.927 63.1888 227.714 63.016 228.031 62.9506C231.704 62.1921 235.364 61.3785 239.022 60.5537C239.471 60.4525 242.38 59.8012 242.966 59.6612C243.333 59.5737 243.699 59.4852 244.06 59.3805C244.213 59.3363 244.462 59.367 244.507 59.2149C244.544 59.0903 244.248 59.1814 244.118 59.1861C243.724 59.2006 243.331 59.2375 242.938 59.2725C240.376 59.5003 237.811 59.751 235.257 60.0499C232.832 60.3337 230.357 60.6353 228.052 61.4894C227.417 61.7248 226.515 62.1401 227.678 62.4251C230.156 63.0326 232.886 62.873 235.409 62.8858C239.646 62.9073 243.966 63.0855 248.185 62.6123C248.994 62.5215 251.297 61.7472 250.582 62.1372C249.258 62.8594 247.487 63.1726 246.061 63.5768C240.699 65.0975 235.265 66.2758 229.823 67.4636C229.238 67.5913 228.939 67.6534 228.384 67.4636C227.066 67.0136 225.755 66.735 224.36 66.6647C223.646 66.6287 222.254 66.9197 221.747 66.4127C221.554 66.2193 221.073 66.1248 220.811 66.1248C218.018 66.1248 226.312 67.2218 229.103 67.3341C232.706 67.479 236.324 67.4418 239.929 67.4204C242.229 67.4068 244.826 67.5683 247.019 66.7079C247.643 66.4629 248.176 66.0499 248.797 65.7937C250.25 65.194 251.799 64.8506 253.288 64.3542C255.107 63.7479 256.885 63.0506 258.722 62.4971C260.8 61.8712 262.896 61.3052 264.934 60.5537C268.808 59.1254 272.718 57.4396 275.882 54.7523C277.044 53.7655 278.212 52.8452 279.452 51.9595C280.288 51.3627 281.051 50.8051 281.561 49.9009C282.344 48.5143 282.717 46.9221 282.785 45.3375C282.816 44.6191 282.868 43.8393 282.799 43.1206C282.758 42.6902 281.608 42.8183 281.403 42.8183C276.961 42.8183 272.684 45.6334 269.31 48.303C267.638 49.6263 266.332 51.2507 264.977 52.8808C262.823 55.4737 260.587 57.7587 257.772 59.6396C256.187 60.6991 254.504 61.6 252.921 62.6627C251.135 63.8616 249.531 65.0856 247.4 65.6066C243.105 66.6569 238.128 66.2905 233.897 65.1603C231.13 64.4211 228.384 63.5368 225.627 62.7491C224.447 62.4121 221.281 62.1068 221.027 60.5249C220.902 59.7464 220.827 58.4384 221.258 57.7466C222.631 55.5404 226.697 55.0462 228.931 54.6803C231.429 54.2709 233.948 54.2185 236.474 54.2052C240.104 54.1862 243.734 54.2052 247.364 54.2052C250.174 54.2052 252.962 54.2015 255.75 53.7949C260.201 53.1457 264.529 51.8437 268.864 50.6783C273.467 49.4411 280.187 48.0467 281.698 42.6743C281.774 42.4051 282.11 41.5264 281.806 41.2779C281.448 40.9854 280.632 41.0357 280.222 41.0188C278.552 40.9499 276.866 41.0862 275.234 41.4507C270.398 42.5309 265.42 44.5209 261.249 47.2089C257.849 49.4 255.377 52.7858 252.244 55.3281C250.531 56.7186 248.798 58.0682 247.328 59.726C246.287 60.9005 245.444 62.2375 244.377 63.3897C243.991 63.8065 243.557 64.1648 243.11 64.5125C242.73 64.8084 243.824 63.8612 244.219 63.584C248.336 60.6888 252.818 58.6301 257.708 57.473C260.762 56.7502 263.678 55.6737 266.705 54.8818C269.034 54.2723 271.196 53.7427 273.327 52.5425C274.653 51.7959 275.19 50.8199 275.932 49.541C277.244 47.2801 278.846 45.0484 279.647 42.5375C280.01 41.3967 279.819 39.9982 279.819 38.8163C279.819 37.775 279.819 36.7337 279.819 35.6924C279.819 34.6878 275.609 35.0604 275.054 35.1454C273.961 35.3129 273.086 35.8724 272.276 36.5993C270.498 38.1946 268.994 40.0927 267.317 41.789C264.109 45.0324 260.3 47.705 256.412 50.0809C254.648 51.1585 252.54 51.3309 250.625 52.0315C249.374 52.4891 248.343 52.9042 247.004 53.0896C246.535 53.1546 245.842 53.3264 245.428 53.0104C243.323 51.404 240.724 50.865 238.173 50.2464C236.497 49.8401 234.784 49.5166 233.113 49.1451C232.774 49.0699 232.397 47.8256 232.299 47.5832C231.772 46.277 231.819 44.6383 233.134 43.8403C234.314 43.1244 235.742 42.6504 237.021 42.2208C240.434 41.0745 243.924 40.1803 247.371 39.1474C248.816 38.7144 252.092 38.2388 252.849 36.5346C253.514 35.038 252.863 33.6552 251.604 32.7269C249.952 31.5086 248.029 30.6655 246.076 30.0637C244.395 29.546 242.544 29.1651 240.829 29.7542C240.079 30.0115 239.592 30.4544 239.094 31.0426C238.819 31.3674 238.426 31.5079 238.158 31.82C237.994 32.0112 237.722 32.2973 237.59 32.4966C237.576 32.5171 237.644 32.2527 237.647 32.2374C237.834 31.4545 236.94 32.5486 236.891 32.6117C236.149 33.5723 235.454 34.6091 234.804 35.6348C234.781 35.6704 234.382 36.6939 234.624 36.2394C235.062 35.4178 235.294 34.4722 235.689 33.6266C236.613 31.6542 237.716 29.7584 238.705 27.818C239.549 26.1635 240.395 24.5463 240.872 22.7435C241.088 21.9268 241.285 21.1269 241.57 20.3322C242.245 18.4523 243.042 16.5395 243.441 14.5884C243.725 13.205 244.083 11.8182 244.456 10.4568C244.683 9.63101 244.728 7.96845 245.486 7.43372C246.64 6.61877 248.187 6.91548 249.531 6.91548C251.844 6.91548 254.45 6.56854 256.729 7.04504C257.471 7.20024 258.105 7.64072 258.744 8.02394C259.587 8.52995 260.434 8.87284 261.364 9.18279C262.812 9.66529 264.345 10.0513 265.841 10.356C268.466 10.8908 271.446 12.039 272.895 14.4372C273.701 15.772 274.07 16.9243 274.435 18.4464C274.708 19.5827 275.132 20.679 275.457 21.8006C275.86 23.1891 276.154 24.582 276.703 25.9249C277.143 27.0034 277.586 28.1448 277.617 29.3295C277.622 29.5353 277.643 29.6547 277.386 29.6606C275.565 29.703 273.806 29.5609 271.995 29.9413C267.286 30.9305 264.182 34.8532 260.702 37.8374C258.342 39.8609 255.849 41.6961 253.742 43.9987C252.127 45.7623 250.925 47.717 249.776 49.8002C248.997 51.2114 248.167 52.5912 247.379 53.9965C247.238 54.2464 247.109 54.5056 246.99 54.7667C246.979 54.7904 247.589 53.8584 247.674 53.7302C250.384 49.6156 254.775 46.7041 258.73 43.9123C260.083 42.957 262.599 41.7734 262.861 39.9391C263.014 38.8676 263.55 38.2147 264.171 37.3479C264.855 36.3937 265.496 35.4124 266.215 34.4832C267.152 33.2729 268.246 32.3485 269.368 31.3233C270.731 30.0776 271.674 28.4807 272.593 26.8967C272.808 26.5252 272.946 25.9686 272.765 25.5435C272.361 24.5927 271.413 23.8822 270.887 22.9882C270.169 21.7688 269.168 20.6154 268.317 19.4829C265.151 15.2698 260.434 10.7141 254.857 10.3129C253.437 10.2107 251.988 10.2841 250.567 10.2841C249.046 10.2841 246.907 9.90068 245.442 10.4928C245.09 10.6353 244.784 10.8279 244.413 10.9247C244.077 11.0124 245.095 11.0732 245.442 11.0902C252.935 11.457 260.195 13.4938 267.309 15.7544C269.037 16.3032 271.182 16.7161 272.722 17.7554C273.576 18.3315 274.294 19.1362 274.982 19.8932C275.377 20.3277 276.312 20.9793 275.198 20.8793C273.315 20.7102 271.464 20.2032 269.642 19.7276C266.367 18.8731 263.129 17.8781 259.845 17.0572C255.727 16.0276 250.243 14.1979 247.587 18.7343C245.554 22.2088 245.103 26.3707 243.269 29.9485C241.61 33.182 239.509 36.191 237.842 39.4209C236.797 41.4432 235.649 43.1965 234.315 45.028C234.107 45.313 233.581 46.2316 233.782 45.9421C234.881 44.3625 235.736 42.612 236.841 41.026C242.087 33.496 248.752 27.0976 254.468 19.9435C255.645 18.4718 256.711 16.9397 257.837 15.4377C259.074 13.7885 255.863 19.0584 254.807 20.8289C250.089 28.7394 244.912 36.381 240.044 44.2002C238.815 46.1748 237.332 48.1846 236.431 50.3472C236.384 50.4583 236.304 50.7764 236.402 50.7071C237.027 50.2668 237.616 49.3668 238.165 48.8716C240.889 46.4156 244.041 44.4488 247.012 42.3144C252.093 38.6628 257.319 34.968 261.868 30.6539C263.607 29.0045 265.231 27.146 266.374 25.0252C266.385 25.0039 267.324 23.1979 266.64 24.1183C265.04 26.2716 263.583 28.5278 261.983 30.6827C258.658 35.1608 254.828 39.075 251.057 43.1638C249.117 45.2671 247.435 47.5189 245.946 49.9585C245.628 50.4798 244.768 52.0959 245.025 51.542C245.606 50.2909 246.373 49.1171 247.112 47.9575C250 43.4281 253.135 39.0605 256.102 34.5839C258.215 31.397 260.431 28.1897 262.127 24.7517C262.755 23.4778 263.376 22.029 263.595 20.6058C263.642 20.3022 263.045 20.8813 262.789 21.052C260.081 22.8625 257.234 24.4433 254.641 26.4288C251.182 29.0776 248.035 32.2194 245.687 35.9083C245.184 36.6995 244.219 38.0317 244.219 39.0538C244.219 39.3473 244.677 38.6732 244.838 38.4276C246.055 36.5661 247.633 35.1252 249.43 33.821C251.181 32.5503 253.054 31.4415 254.929 30.366C255.234 30.1913 255.818 29.8681 256.167 29.675C256.175 29.6709 256.472 29.4402 256.491 29.567C256.72 31.0555 255.378 32.7946 254.742 34.0225C254.334 34.8099 254.034 35.6429 253.605 36.4194C253.473 36.6579 253.389 36.8344 253.389 37.1032" stroke="#138A00" stroke-width="8" stroke-linecap="round"/>
<path d="M463.548 58.772C462.66 58.772 461.748 58.664 460.812 58.448C459.9 58.232 458.988 57.932 458.076 57.548C457.836 57.428 457.668 57.272 457.572 57.08C457.476 56.912 457.428 56.744 457.428 56.576C457.428 56.432 457.452 56.288 457.5 56.144C457.644 55.736 457.956 55.532 458.436 55.532C458.604 55.532 458.772 55.568 458.94 55.64C459.708 55.952 460.476 56.192 461.244 56.36C462.012 56.552 462.768 56.648 463.512 56.648C465.432 56.648 467.196 56.108 468.804 55.028C470.46 53.948 471.696 52.568 472.512 50.888C473.328 49.208 473.736 47.384 473.736 45.416C473.736 43.88 473.508 42.38 473.052 40.916C472.74 39.86 472.332 38.9 471.828 38.036C471.348 37.172 470.892 36.452 470.46 35.876C470.028 35.276 469.728 34.88 469.56 34.688C468.624 34.688 467.556 34.712 466.356 34.76C465.156 34.784 463.92 34.832 462.648 34.904C461.376 34.952 460.128 35.012 458.904 35.084C457.704 35.156 456.612 35.228 455.628 35.3C455.244 35.324 454.944 35.228 454.728 35.012C454.536 34.772 454.44 34.544 454.44 34.328C454.416 34.064 454.488 33.812 454.656 33.572C454.824 33.332 455.076 33.2 455.412 33.176C458.196 32.984 460.728 32.84 463.008 32.744C465.288 32.624 467.52 32.564 469.704 32.564C471.432 32.564 473.184 32.6 474.96 32.672C476.736 32.744 478.62 32.876 480.612 33.068C481.02 33.14 481.284 33.296 481.404 33.536C481.548 33.752 481.596 33.992 481.548 34.256C481.476 34.976 481.092 35.3 480.396 35.228C479.82 35.18 479.148 35.132 478.38 35.084C477.612 35.036 476.832 34.988 476.04 34.94C475.248 34.868 474.516 34.82 473.844 34.796C473.172 34.748 472.656 34.724 472.296 34.724C473.88 36.908 474.948 39.152 475.5 41.456C475.788 42.752 475.932 44.036 475.932 45.308C475.932 47.78 475.392 50.048 474.312 52.112C473.232 54.176 471.66 55.844 469.596 57.116C467.7 58.22 465.684 58.772 463.548 58.772ZM495.912 59.132C493.584 59.132 491.556 58.652 489.828 57.692C488.124 56.732 486.792 55.412 485.832 53.732C484.896 52.028 484.428 50.06 484.428 47.828C484.428 45.524 484.896 43.532 485.832 41.852C486.768 40.148 488.088 38.828 489.792 37.892C491.52 36.956 493.56 36.488 495.912 36.488C498.312 36.488 500.364 36.956 502.068 37.892C503.796 38.804 505.116 40.112 506.028 41.816C506.94 43.496 507.396 45.5 507.396 47.828C507.396 50.108 506.928 52.1 505.992 53.804C505.056 55.508 503.724 56.816 501.996 57.728C500.292 58.664 498.264 59.132 495.912 59.132ZM495.912 56.864C498.864 56.864 501.132 56.06 502.716 54.452C504.324 52.844 505.128 50.636 505.128 47.828C505.128 44.9 504.3 42.656 502.644 41.096C500.988 39.536 498.744 38.756 495.912 38.756C493.08 38.756 490.836 39.56 489.18 41.168C487.524 42.776 486.696 44.996 486.696 47.828C486.696 49.7 487.092 51.308 487.884 52.652C488.676 53.996 489.768 55.04 491.16 55.784C492.552 56.504 494.136 56.864 495.912 56.864ZM530.932 58.664C530.62 58.664 530.344 58.556 530.104 58.34C529.888 58.148 529.78 57.896 529.78 57.584C529.78 57.488 529.804 57.368 529.852 57.224C530.26 55.952 530.584 54.62 530.824 53.228C531.088 51.812 531.22 50.456 531.22 49.16C531.22 46.592 530.68 44.552 529.6 43.04C528.544 41.504 526.864 40.652 524.56 40.484C522.832 40.412 521.344 40.844 520.096 41.78C518.848 42.716 517.804 43.952 516.964 45.488C516.22 46.904 515.656 48.512 515.272 50.312C514.912 52.112 514.732 53.864 514.732 55.568C514.732 55.808 514.732 56.048 514.732 56.288C514.732 56.552 514.744 56.804 514.768 57.044C514.768 57.476 514.636 57.776 514.372 57.944C514.132 58.136 513.88 58.232 513.616 58.232C513.016 58.232 512.68 57.884 512.608 57.188C512.44 55.676 512.284 53.996 512.14 52.148C512.02 50.276 511.912 48.404 511.816 46.532C511.744 44.636 511.708 42.896 511.708 41.312C511.708 40.856 511.708 40.424 511.708 40.016C511.708 39.608 511.72 39.224 511.744 38.864C511.744 38.456 511.864 38.168 512.104 38C512.368 37.832 512.62 37.772 512.86 37.82C513.148 37.82 513.388 37.916 513.58 38.108C513.796 38.3 513.904 38.564 513.904 38.9C513.928 39.836 513.94 40.652 513.94 41.348C513.94 42.044 513.94 42.764 513.94 43.508C513.964 44.252 513.976 45.2 513.976 46.352C514.48 44.72 515.224 43.28 516.208 42.032C517.216 40.784 518.392 39.812 519.736 39.116C521.08 38.396 522.52 38.036 524.056 38.036C526.048 38.036 527.74 38.48 529.132 39.368C530.548 40.256 531.628 41.504 532.372 43.112C533.116 44.696 533.488 46.532 533.488 48.62C533.488 50.228 533.344 51.788 533.056 53.3C532.768 54.812 532.384 56.348 531.904 57.908C531.832 58.172 531.7 58.364 531.508 58.484C531.34 58.604 531.148 58.664 530.932 58.664ZM551.619 62.984C550.587 62.984 549.711 62.636 548.991 61.94C548.271 61.244 547.935 60.368 547.983 59.312C548.127 58.28 548.583 57.452 549.351 56.828C550.143 56.204 551.091 55.724 552.195 55.388C553.299 55.028 554.391 54.752 555.471 54.56C555.543 53.84 555.591 53.372 555.615 53.156C555.663 52.916 555.699 52.736 555.723 52.616C554.571 53.552 553.251 54.284 551.763 54.812C550.275 55.34 548.787 55.604 547.299 55.604C545.883 55.604 544.563 55.352 543.339 54.848C541.539 54.08 540.159 52.904 539.199 51.32C538.263 49.712 537.795 47.996 537.795 46.172C537.795 44.204 538.263 42.464 539.199 40.952C540.159 39.44 541.455 38.252 543.087 37.388C544.719 36.524 546.543 36.092 548.559 36.092C549.999 36.092 551.355 36.332 552.627 36.812C553.899 37.292 555.003 38.024 555.939 39.008C556.347 39.008 556.623 39.092 556.767 39.26C556.935 39.428 557.043 39.644 557.091 39.908C557.355 41.108 557.559 42.584 557.703 44.336C557.871 46.088 557.955 47.816 557.955 49.52C557.955 50.456 557.931 51.344 557.883 52.184C557.835 53.024 557.751 53.768 557.631 54.416C558.783 54.416 559.299 54.812 559.179 55.604C559.179 55.868 559.071 56.096 558.855 56.288C558.663 56.48 558.387 56.576 558.027 56.576C557.979 56.552 557.907 56.54 557.811 56.54C557.715 56.54 557.523 56.54 557.235 56.54C556.971 57.716 556.611 58.784 556.155 59.744C555.699 60.728 555.099 61.508 554.355 62.084C553.635 62.684 552.723 62.984 551.619 62.984ZM544.887 53.084C545.631 53.324 546.447 53.444 547.335 53.444C548.919 53.444 550.491 53.072 552.051 52.328C553.611 51.584 554.883 50.588 555.867 49.34C555.867 48.956 555.843 48.404 555.795 47.684C555.747 46.964 555.675 46.196 555.579 45.38C555.507 44.54 555.423 43.784 555.327 43.112C555.255 42.416 555.195 41.912 555.147 41.6C554.739 40.856 554.139 40.232 553.347 39.728C552.555 39.224 551.679 38.852 550.719 38.612C549.783 38.348 548.859 38.216 547.947 38.216C546.339 38.264 544.947 38.648 543.771 39.368C542.595 40.064 541.683 41.012 541.035 42.212C540.411 43.388 540.099 44.744 540.099 46.28C540.099 47.888 540.507 49.304 541.323 50.528C542.163 51.752 543.351 52.604 544.887 53.084ZM551.691 60.896C552.291 60.896 552.795 60.68 553.203 60.248C553.635 59.816 553.995 59.288 554.283 58.664C554.571 58.04 554.799 57.428 554.967 56.828C554.295 56.972 553.587 57.164 552.843 57.404C552.099 57.644 551.463 57.932 550.935 58.268C550.431 58.628 550.179 59.072 550.179 59.6C550.179 59.96 550.323 60.26 550.611 60.5C550.923 60.764 551.283 60.896 551.691 60.896ZM598.183 58.916C595.279 58.916 592.735 58.34 590.551 57.188C588.367 56.06 586.663 54.476 585.439 52.436C584.239 50.372 583.639 47.96 583.639 45.2C583.639 43.136 583.999 41.252 584.719 39.548C585.439 37.82 586.459 36.332 587.779 35.084C589.099 33.812 590.635 32.828 592.387 32.132C594.163 31.436 596.095 31.088 598.183 31.088C600.247 31.088 602.203 31.484 604.051 32.276C605.923 33.068 607.555 34.22 608.947 35.732C609.139 35.972 609.235 36.212 609.235 36.452C609.235 36.74 609.115 37.004 608.875 37.244C608.707 37.46 608.467 37.568 608.155 37.568C607.843 37.568 607.579 37.448 607.363 37.208C606.163 35.912 604.771 34.928 603.187 34.256C601.627 33.584 599.959 33.248 598.183 33.248C595.807 33.248 593.683 33.752 591.811 34.76C589.939 35.768 588.463 37.172 587.383 38.972C586.327 40.772 585.799 42.848 585.799 45.2C585.799 47.576 586.315 49.628 587.347 51.356C588.379 53.084 589.819 54.416 591.667 55.352C593.539 56.288 595.711 56.756 598.183 56.756C599.887 56.756 601.495 56.456 603.007 55.856C604.543 55.232 605.887 54.332 607.039 53.156C607.255 52.94 607.507 52.832 607.795 52.832C608.083 52.832 608.335 52.94 608.551 53.156C608.767 53.372 608.875 53.624 608.875 53.912C608.875 54.224 608.767 54.488 608.551 54.704C607.231 56.024 605.647 57.056 603.799 57.8C601.975 58.544 600.103 58.916 598.183 58.916ZM624.428 58.916C624.236 58.94 624.032 58.952 623.816 58.952C623.624 58.952 623.432 58.952 623.24 58.952C621.104 58.952 619.196 58.496 617.516 57.584C615.836 56.696 614.516 55.46 613.556 53.876C612.596 52.292 612.116 50.48 612.116 48.44C612.116 46.52 612.488 44.756 613.232 43.148C614 41.516 615.08 40.16 616.472 39.08C617.864 38 619.508 37.316 621.404 37.028C621.668 36.98 621.956 36.944 622.268 36.92C622.58 36.896 622.892 36.884 623.204 36.884C624.5 36.884 625.844 37.064 627.236 37.424C628.652 37.76 629.84 38.24 630.8 38.864C630.92 38.6 631.112 38.444 631.376 38.396C631.64 38.324 631.856 38.312 632.024 38.36C632.288 38.384 632.492 38.504 632.636 38.72C632.78 38.936 632.852 39.188 632.852 39.476C632.828 40.028 632.804 40.568 632.78 41.096C632.78 41.624 632.78 42.152 632.78 42.68C632.78 45.368 632.972 47.756 633.356 49.844C633.764 51.932 634.52 53.756 635.624 55.316C635.768 55.532 635.84 55.748 635.84 55.964C635.84 56.252 635.72 56.492 635.48 56.684C635.264 56.876 635.024 56.972 634.76 56.972C634.4 56.972 634.1 56.816 633.86 56.504C633.62 56.168 633.38 55.796 633.14 55.388C632.924 54.98 632.744 54.62 632.6 54.308C631.616 55.676 630.416 56.732 629 57.476C627.584 58.244 626.06 58.724 624.428 58.916ZM623.708 56.828C625.34 56.828 626.84 56.372 628.208 55.46C629.6 54.548 630.728 53.3 631.592 51.716C631.232 50.372 630.968 48.812 630.8 47.036C630.632 45.26 630.56 43.412 630.584 41.492C630.104 40.964 629.468 40.52 628.676 40.16C627.884 39.8 627.02 39.524 626.084 39.332C625.148 39.14 624.224 39.044 623.312 39.044C622.712 39.044 622.148 39.08 621.62 39.152C621.092 39.224 620.6 39.356 620.144 39.548C618.32 40.22 616.868 41.348 615.788 42.932C614.732 44.492 614.204 46.28 614.204 48.296C614.204 50.072 614.624 51.596 615.464 52.868C616.328 54.14 617.48 55.124 618.92 55.82C620.36 56.492 621.956 56.828 623.708 56.828ZM643.913 58.448C643.601 58.448 643.337 58.34 643.121 58.124C642.929 57.932 642.833 57.68 642.833 57.368C642.761 56.048 642.641 54.62 642.473 53.084C642.329 51.548 642.137 49.988 641.897 48.404C641.681 46.796 641.429 45.272 641.141 43.832C640.853 42.368 640.553 41.072 640.241 39.944C640.193 39.752 640.169 39.62 640.169 39.548C640.169 39.236 640.277 38.996 640.493 38.828C640.733 38.66 640.985 38.576 641.249 38.576C641.489 38.576 641.705 38.648 641.897 38.792C642.113 38.912 642.257 39.092 642.329 39.332C642.593 40.172 642.845 41.168 643.085 42.32C643.325 43.472 643.541 44.636 643.733 45.812C643.925 46.964 644.069 47.984 644.165 48.872C644.621 46.976 645.389 45.344 646.469 43.976C647.573 42.584 648.905 41.516 650.465 40.772C652.049 40.028 653.765 39.656 655.613 39.656C657.125 39.656 658.649 39.932 660.185 40.484C660.665 40.7 660.905 41.024 660.905 41.456C660.905 42.176 660.557 42.536 659.861 42.536C659.693 42.536 659.561 42.524 659.465 42.5C658.313 42.116 657.053 41.924 655.685 41.924C653.717 41.924 652.061 42.32 650.717 43.112C649.373 43.904 648.281 45.008 647.441 46.424C646.625 47.84 646.025 49.472 645.641 51.32C645.257 53.168 645.041 55.16 644.993 57.296C644.993 57.68 644.873 57.968 644.633 58.16C644.417 58.352 644.177 58.448 643.913 58.448ZM674.785 58.628C672.433 58.628 670.405 58.196 668.701 57.332C666.997 56.492 665.689 55.28 664.777 53.696C663.865 52.088 663.409 50.168 663.409 47.936C663.409 45.872 663.877 44.084 664.813 42.572C665.749 41.06 667.021 39.896 668.629 39.08C670.237 38.24 672.049 37.82 674.065 37.82C676.105 37.82 678.109 38.24 680.077 39.08C680.461 39.248 680.653 39.512 680.653 39.872C680.653 40.04 680.593 40.208 680.473 40.376C680.257 40.784 679.909 40.988 679.429 40.988C679.261 40.988 679.081 40.952 678.889 40.88C677.353 40.256 675.805 39.944 674.245 39.944C672.541 39.944 671.029 40.316 669.709 41.06C668.389 41.78 667.357 42.764 666.613 44.012C665.893 45.26 665.533 46.688 665.533 48.296C665.533 50 665.917 51.464 666.685 52.688C667.453 53.912 668.521 54.848 669.889 55.496C671.281 56.144 672.865 56.468 674.641 56.468C675.913 56.468 677.077 56.312 678.133 56C679.189 55.712 680.113 55.376 680.905 54.992C680.761 53.96 680.653 52.808 680.581 51.536C680.509 50.24 680.473 48.896 680.473 47.504C680.473 45.848 680.509 44.168 680.581 42.464C680.677 40.76 680.785 39.104 680.905 37.496C681.049 35.888 681.205 34.412 681.373 33.068C681.421 32.732 681.541 32.492 681.733 32.348C681.949 32.18 682.177 32.096 682.417 32.096C682.705 32.096 682.969 32.204 683.209 32.42C683.449 32.636 683.545 32.936 683.497 33.32C683.353 34.568 683.221 35.96 683.101 37.496C682.981 39.032 682.885 40.64 682.813 42.32C682.741 43.976 682.705 45.62 682.705 47.252C682.705 49.22 682.765 51.068 682.885 52.796C683.005 54.524 683.209 55.976 683.497 57.152C683.521 57.224 683.533 57.332 683.533 57.476C683.533 57.692 683.461 57.896 683.317 58.088C683.173 58.304 682.969 58.436 682.705 58.484C681.985 58.556 681.541 58.28 681.373 57.656L681.301 57.224C680.413 57.68 679.369 58.028 678.169 58.268C676.993 58.508 675.865 58.628 674.785 58.628ZM696.842 36.92C696.098 36.92 695.51 36.752 695.078 36.416C694.646 36.08 694.262 35.648 693.926 35.12C693.566 34.472 693.23 34.016 692.918 33.752C692.63 33.464 692.27 33.32 691.838 33.32C691.382 33.32 690.974 33.572 690.614 34.076C690.254 34.556 690.014 35.072 689.894 35.624C689.822 35.96 689.69 36.188 689.498 36.308C689.306 36.404 689.09 36.452 688.85 36.452C688.538 36.452 688.274 36.332 688.058 36.092C687.866 35.828 687.806 35.54 687.878 35.228C688.142 34.076 688.634 33.128 689.354 32.384C690.074 31.64 690.914 31.268 691.874 31.268C692.57 31.268 693.158 31.412 693.638 31.7C694.142 31.964 694.61 32.42 695.042 33.068C695.45 33.74 695.75 34.208 695.942 34.472C696.158 34.736 696.458 34.868 696.842 34.868C697.37 34.868 697.778 34.64 698.066 34.184C698.378 33.728 698.546 33.2 698.57 32.6C698.618 32.24 698.75 31.988 698.966 31.844C699.206 31.676 699.434 31.616 699.65 31.664C700.298 31.664 700.622 32.024 700.622 32.744C700.55 33.848 700.166 34.82 699.47 35.66C698.774 36.5 697.898 36.92 696.842 36.92Z" fill="black"/>
<path d="M686.68 86.16C686.947 86.64 687.053 87.1733 687 87.76C687 88.2933 687.053 88.8533 687.16 89.44V136.88C687.16 137.627 687.133 138.4 687.08 139.2C687.08 139.947 687.027 140.693 686.92 141.44C686.813 142.613 686.333 143.547 685.48 144.24C684.627 144.987 683.587 145.307 682.36 145.2C681.347 145.093 680.573 144.747 680.04 144.16C679.507 143.627 679.107 142.96 678.84 142.16C678.627 141.36 678.493 140.507 678.44 139.6C678.387 138.64 678.36 137.733 678.36 136.88V117.2H672.68V136.64C672.787 137.387 672.813 138.08 672.76 138.72C672.707 139.307 672.68 139.893 672.68 140.48C672.573 141.227 672.413 141.84 672.2 142.32C671.987 142.8 671.773 143.2 671.56 143.52C671.08 144.107 670.413 144.56 669.56 144.88C668.76 145.2 667.987 145.227 667.24 144.96C666.387 144.64 665.72 144.187 665.24 143.6C664.76 143.013 664.387 142.373 664.12 141.68C663.907 140.933 663.773 140.187 663.72 139.44C663.667 138.64 663.64 137.867 663.64 137.12C663.64 136.64 663.587 136.24 663.48 135.92C663.427 135.547 663.4 135.227 663.4 134.96V90.96C663.4 90.5333 663.427 90.1067 663.48 89.68C663.587 89.2533 663.64 88.88 663.64 88.56C663.64 88.08 663.693 87.6267 663.8 87.2C663.907 86.72 664.013 86.2933 664.12 85.92C664.227 85.5467 664.387 85.2 664.6 84.88C664.813 84.56 665.053 84.2133 665.32 83.84C665.587 83.4667 665.88 83.2 666.2 83.04C666.573 82.88 666.973 82.7467 667.4 82.64C667.987 82.3733 668.573 82.3733 669.16 82.64C669.427 82.7467 669.693 82.88 669.96 83.04C670.28 83.1467 670.493 83.3333 670.6 83.6C670.973 83.8667 671.293 84.1867 671.56 84.56C671.88 84.88 672.093 85.3333 672.2 85.92C672.307 86.4 672.413 86.9333 672.52 87.52C672.627 88.1067 672.68 88.7467 672.68 89.44V107.52H678.36V89.04C678.36 88.56 678.36 88.08 678.36 87.6C678.413 87.12 678.493 86.64 678.6 86.16C678.813 85.2 679.133 84.4267 679.56 83.84C679.933 83.4667 680.307 83.1733 680.68 82.96C681.053 82.7467 681.533 82.64 682.12 82.64C682.707 82.5333 683.293 82.5867 683.88 82.8C684.467 82.96 684.947 83.2267 685.32 83.6C685.64 83.9733 685.907 84.3467 686.12 84.72C686.387 85.0933 686.573 85.5733 686.68 86.16ZM657.56 133.68C657.88 133.787 658.147 133.947 658.36 134.16C658.627 134.373 658.893 134.613 659.16 134.88C659.8 135.307 660.12 136 660.12 136.96C660.227 137.333 660.227 137.733 660.12 138.16C660.067 138.533 659.987 138.853 659.88 139.12C659.613 139.547 659.373 139.893 659.16 140.16C658.947 140.373 658.707 140.587 658.44 140.8C658.12 140.907 657.773 141.067 657.4 141.28C657.027 141.44 656.6 141.52 656.12 141.52C655.747 141.627 655.347 141.733 654.92 141.84C654.493 141.947 654.093 142 653.72 142H641.96C641.48 142 640.947 141.973 640.36 141.92C639.827 141.813 639.267 141.76 638.68 141.76C638.2 141.76 637.667 141.707 637.08 141.6C636.493 141.493 635.987 141.387 635.56 141.28C634.493 141.013 633.533 140.56 632.68 139.92C632.307 139.653 631.96 139.333 631.64 138.96C631.373 138.533 631.107 138.027 630.84 137.44C630.36 136.96 630.12 136.347 630.12 135.6C630.013 135.12 629.933 134.693 629.88 134.32C629.827 133.947 629.747 133.573 629.64 133.2V94.56C629.533 94.24 629.453 93.8667 629.4 93.44C629.4 92.96 629.4 92.48 629.4 92C629.507 91.6267 629.587 91.2 629.64 90.72C629.693 90.24 629.773 89.7867 629.88 89.36C629.88 88.5067 630.12 87.7067 630.6 86.96C630.867 86.6933 631.107 86.4533 631.32 86.24C631.587 86.0267 631.88 85.8667 632.2 85.76C632.893 85.28 633.613 85.04 634.36 85.04C634.733 84.9333 635.053 84.88 635.32 84.88C635.587 84.8267 635.88 84.7467 636.2 84.64H651.08C651.453 84.7467 651.853 84.8267 652.28 84.88C652.76 84.88 653.187 84.9333 653.56 85.04C654.52 85.04 655.373 85.28 656.12 85.76C656.973 86.1867 657.533 86.8267 657.8 87.68C657.907 88.0533 657.987 88.4267 658.04 88.8C658.147 89.1733 658.147 89.5733 658.04 90C658.04 90.5333 658.013 90.9333 657.96 91.2C657.96 91.4667 657.907 91.7333 657.8 92C657.373 92.5867 656.653 93.1467 655.64 93.68C655.267 93.68 654.68 93.7333 653.88 93.84C653.133 93.8933 652.2 93.92 651.08 93.92H642.92C642.173 93.92 641.533 94.0533 641 94.32C640.787 94.32 640.573 94.56 640.36 95.04C640.253 95.3067 640.147 95.5467 640.04 95.76C639.933 95.9733 639.88 96.2133 639.88 96.48V99.52L640.12 128.96C640.12 129.707 640.12 130.32 640.12 130.8C640.173 131.227 640.333 131.547 640.6 131.76C640.973 132.24 641.667 132.48 642.68 132.48H645.64C646.227 132.48 646.813 132.533 647.4 132.64C648.04 132.693 648.707 132.72 649.4 132.72H653.32C653.64 132.72 653.96 132.747 654.28 132.8C654.653 132.8 655.027 132.853 655.4 132.96C656.093 132.96 656.813 133.2 657.56 133.68ZM736.858 146.88C736.378 146.987 735.311 147.04 733.658 147.04C732.058 147.093 730.138 147.12 727.898 147.12C725.658 147.12 723.285 147.093 720.778 147.04C718.271 147.04 715.898 147.013 713.658 146.96C711.471 146.96 709.551 146.96 707.898 146.96C706.298 146.96 705.285 146.96 704.858 146.96C703.791 146.96 702.671 146.88 701.498 146.72C700.325 146.56 699.285 146.133 698.378 145.44C697.791 144.96 697.311 144.373 696.938 143.68C696.618 142.933 696.378 142.213 696.218 141.52C696.058 140.827 695.951 140.213 695.898 139.68C695.845 139.147 695.818 138.853 695.818 138.8V132.48C695.818 130.88 695.818 129.413 695.818 128.08C695.871 126.693 695.898 125.947 695.898 125.84C695.898 123.867 696.298 122.533 697.098 121.84C697.951 121.093 699.231 120.693 700.938 120.64C702.271 120.587 703.391 120.88 704.298 121.52C705.205 122.16 705.658 123.013 705.658 124.08V126.4C705.765 127.2 705.951 127.6 706.218 127.6C706.485 127.547 706.938 127.547 707.578 127.6H737.498V124.08C737.551 122.693 738.005 121.787 738.858 121.36C739.765 120.933 740.698 120.667 741.658 120.56C742.191 120.507 742.751 120.56 743.338 120.72C743.925 120.827 744.485 121.04 745.018 121.36C745.551 121.68 745.978 122.16 746.298 122.8C746.671 123.387 746.858 124.133 746.858 125.04C746.858 127.493 746.911 130.187 747.018 133.12C747.125 136.053 747.045 138.747 746.778 141.2C746.725 141.947 746.591 142.587 746.378 143.12C746.165 143.6 745.845 144.133 745.418 144.72C744.991 145.36 744.405 145.813 743.658 146.08C742.965 146.347 742.218 146.533 741.418 146.64C740.618 146.747 739.818 146.8 739.018 146.8C738.218 146.8 737.498 146.827 736.858 146.88ZM721.258 105.36C722.058 105.36 722.885 105.44 723.738 105.6C724.591 105.707 725.391 105.973 726.138 106.4C726.885 106.773 727.498 107.307 727.978 108C728.458 108.64 728.698 109.52 728.698 110.64C728.698 111.76 728.271 112.64 727.418 113.28C726.565 113.92 725.525 114.4 724.298 114.72C723.071 115.04 721.765 115.253 720.378 115.36C719.045 115.413 717.871 115.44 716.858 115.44H704.778C703.818 115.44 702.831 115.44 701.818 115.44C700.858 115.44 699.925 115.36 699.018 115.2C698.165 115.04 697.391 114.8 696.698 114.48C696.005 114.107 695.445 113.6 695.018 112.96C694.538 112.267 694.191 111.413 693.978 110.4C693.818 109.333 693.685 108.32 693.578 107.36C693.525 106.347 693.498 105.493 693.498 104.8C693.551 104.053 693.578 103.627 693.578 103.52L693.738 91.36C693.738 91.2 693.738 90.9067 693.738 90.48C693.738 90.0533 693.765 89.6 693.818 89.12C693.871 88.5867 693.951 88.0533 694.058 87.52C694.165 86.9867 694.325 86.56 694.538 86.24C695.018 85.4933 695.498 84.9333 695.978 84.56C696.511 84.1867 697.205 83.9467 698.058 83.84C699.125 83.6267 700.671 83.52 702.698 83.52C702.858 83.52 703.338 83.52 704.138 83.52C704.938 83.52 705.871 83.5467 706.938 83.6C708.058 83.6 709.258 83.6267 710.538 83.68C711.818 83.68 712.991 83.7067 714.058 83.76C715.178 83.76 716.138 83.7867 716.938 83.84C717.738 83.84 718.218 83.84 718.378 83.84C719.071 83.84 719.791 83.8667 720.538 83.92C721.285 83.92 722.005 84 722.698 84.16C723.391 84.32 724.031 84.5867 724.618 84.96C725.258 85.28 725.791 85.7867 726.218 86.48C726.805 87.3867 727.071 88.3733 727.018 89.44C727.018 90.5067 726.698 91.4933 726.058 92.4C725.738 92.8267 725.311 93.1733 724.778 93.44C724.245 93.7067 723.658 93.92 723.018 94.08C722.378 94.1867 721.738 94.2667 721.098 94.32C720.511 94.32 720.005 94.32 719.578 94.32L704.698 94.24L704.858 105.12C705.551 105.173 706.671 105.227 708.218 105.28C709.765 105.333 711.365 105.36 713.018 105.36C714.725 105.36 716.351 105.36 717.898 105.36C719.445 105.36 720.565 105.36 721.258 105.36ZM747.498 106.4V111.28C747.445 111.867 747.365 112.48 747.258 113.12C747.151 113.707 746.938 114.293 746.618 114.88C746.298 115.52 745.845 116.053 745.258 116.48C744.831 116.747 744.325 116.96 743.738 117.12C743.205 117.227 742.725 117.28 742.298 117.28C741.871 117.28 741.418 117.253 740.938 117.2C740.458 117.093 740.058 116.933 739.738 116.72C739.205 116.4 738.778 116 738.458 115.52C738.138 115.04 737.871 114.587 737.658 114.16C737.498 113.68 737.391 113.28 737.338 112.96C737.285 112.587 737.258 112.4 737.258 112.4V88.4C737.205 88.1867 737.231 87.6 737.338 86.64C737.445 85.68 737.658 84.88 737.978 84.24C738.245 83.7067 738.698 83.28 739.338 82.96C740.031 82.64 740.751 82.4267 741.498 82.32C742.405 82.2133 743.311 82.2667 744.218 82.48C745.125 82.6933 745.791 83.04 746.218 83.52C746.538 83.9467 746.751 84.3733 746.858 84.8C747.018 85.1733 747.151 85.5733 747.258 86C747.418 86.5333 747.498 87.0933 747.498 87.68C747.551 88.2667 747.551 88.8533 747.498 89.44V94.96V95.68C747.498 95.9467 747.471 96.24 747.418 96.56C747.418 96.8267 747.445 97.1467 747.498 97.52C747.711 97.52 748.111 97.5467 748.698 97.6C749.285 97.6 749.898 97.6267 750.538 97.68C751.178 97.68 751.791 97.7067 752.378 97.76C752.965 97.8133 753.391 97.8667 753.658 97.92C754.725 98.1333 755.471 98.4533 755.898 98.88C756.325 99.2533 756.591 99.7333 756.698 100.32C756.858 100.907 756.938 101.6 756.938 102.4C756.938 103.147 756.778 103.787 756.458 104.32C755.818 105.387 754.858 106 753.578 106.16C752.298 106.267 750.885 106.347 749.338 106.4H747.498ZM710.378 134.96C709.898 134.96 709.365 134.96 708.778 134.96C708.245 134.907 707.765 134.933 707.338 135.04C706.911 135.093 706.538 135.253 706.218 135.52C705.951 135.733 705.818 136.08 705.818 136.56C705.818 136.827 705.818 137.147 705.818 137.52C705.818 137.84 705.845 138.107 705.898 138.32C706.165 139.227 706.565 139.707 707.098 139.76C707.685 139.76 708.325 139.733 709.018 139.68C710.511 139.68 712.138 139.707 713.898 139.76C715.658 139.76 717.338 139.787 718.938 139.84C719.098 139.84 719.578 139.84 720.378 139.84C721.178 139.84 722.138 139.84 723.258 139.84C724.431 139.787 725.658 139.76 726.938 139.76C728.218 139.76 729.418 139.76 730.538 139.76C731.711 139.707 732.698 139.68 733.498 139.68C734.298 139.68 734.778 139.68 734.938 139.68C735.205 139.68 735.525 139.707 735.898 139.76C736.271 139.813 736.618 139.813 736.938 139.76C737.258 139.707 737.525 139.573 737.738 139.36C737.951 139.147 738.058 138.827 738.058 138.4C738.058 137.973 738.085 137.52 738.138 137.04C738.191 136.56 738.058 136.133 737.738 135.76C737.365 135.333 736.911 135.093 736.378 135.04C735.898 134.987 735.391 134.987 734.858 135.04C734.805 135.04 734.138 135.04 732.858 135.04C731.631 135.04 730.111 135.04 728.298 135.04C726.538 135.04 724.591 135.04 722.458 135.04C720.378 134.987 718.431 134.96 716.618 134.96C714.858 134.96 713.365 134.96 712.138 134.96C710.965 134.96 710.378 134.96 710.378 134.96ZM776.369 82.24C777.063 82.24 777.729 82.2667 778.369 82.32C779.009 82.3733 779.649 82.4533 780.289 82.56C782.316 82.88 784.103 83.8133 785.649 85.36C786.929 86.7467 787.969 88.3467 788.769 90.16C789.623 91.92 790.289 93.7867 790.769 95.76C791.249 97.7333 791.596 99.76 791.809 101.84C792.023 103.867 792.183 105.84 792.289 107.76C792.396 110.213 792.423 112.667 792.369 115.12C792.316 117.573 792.156 120 791.889 122.4C791.623 124.907 791.223 127.44 790.689 130C790.209 132.507 789.303 134.773 787.969 136.8C786.849 138.507 785.463 139.92 783.809 141.04C782.156 142.107 780.423 142.827 778.609 143.2C776.956 143.52 775.276 143.573 773.569 143.36C771.863 143.147 770.236 142.587 768.689 141.68C767.249 140.827 766.023 139.76 765.009 138.48C764.049 137.2 763.196 135.707 762.449 134C761.383 131.44 760.769 128.8 760.609 126.08C760.396 123.84 760.236 121.6 760.129 119.36C760.076 117.12 760.049 114.88 760.049 112.64C760.049 109.653 760.209 106.667 760.529 103.68C760.636 102.453 760.743 101.253 760.849 100.08C760.956 98.8533 761.116 97.6533 761.329 96.48C761.543 95.52 761.729 94.6133 761.889 93.76C762.049 92.9067 762.343 92.0267 762.769 91.12C763.196 90.2133 763.649 89.36 764.129 88.56C764.663 87.76 765.276 87.04 765.969 86.4C767.143 85.2267 768.449 84.32 769.889 83.68C771.329 83.04 772.823 82.6133 774.369 82.4C774.689 82.3467 775.009 82.32 775.329 82.32C775.703 82.32 776.049 82.2933 776.369 82.24ZM815.169 139.52C815.063 140.16 814.983 140.8 814.929 141.44C814.876 142.027 814.743 142.64 814.529 143.28C814.423 143.493 814.343 143.68 814.289 143.84C814.236 144 814.156 144.187 814.049 144.4C813.676 145.147 813.196 145.733 812.609 146.16C811.383 146.907 810.023 147.093 808.529 146.72C807.676 146.56 806.983 146.24 806.449 145.76C805.969 145.333 805.596 144.773 805.329 144.08C805.116 143.44 804.929 142.8 804.769 142.16C804.663 141.52 804.609 140.96 804.609 140.48C804.609 140 804.609 139.733 804.609 139.68V91.28C804.609 90.64 804.609 89.9467 804.609 89.2C804.609 88.4533 804.663 87.7067 804.769 86.96C804.876 86.2133 805.036 85.52 805.249 84.88C805.463 84.24 805.756 83.7333 806.129 83.36C806.716 82.7733 807.329 82.4267 807.969 82.32C808.609 82.16 809.303 82.08 810.049 82.08C810.956 82.08 811.783 82.3467 812.529 82.88C813.329 83.36 813.889 84.0533 814.209 84.96C814.689 86.08 814.956 87.2533 815.009 88.48C815.063 89.7067 815.116 90.9333 815.169 92.16V92.56C815.276 96.6667 815.303 100.88 815.249 105.2C815.196 109.52 815.169 113.6 815.169 117.44V136.64C815.169 137.12 815.169 137.6 815.169 138.08C815.223 138.56 815.223 139.04 815.169 139.52ZM776.129 132.56C777.143 132.56 778.129 132.24 779.089 131.6C779.996 130.96 780.636 130.107 781.009 129.04C781.383 127.973 781.703 126.8 781.969 125.52C782.396 123.067 782.636 120.453 782.689 117.68C782.743 114.907 782.716 112.24 782.609 109.68C782.609 108.667 782.583 107.6 782.529 106.48C782.476 105.307 782.369 104.16 782.209 103.04C782.103 101.92 781.916 100.853 781.649 99.84C781.383 98.7733 781.009 97.84 780.529 97.04C779.996 96.1333 779.356 95.44 778.609 94.96C777.863 94.48 777.063 94.2933 776.209 94.4C775.303 94.5067 774.476 94.8267 773.729 95.36C772.983 95.8933 772.369 96.6933 771.889 97.76L771.169 99.44C770.849 100.453 770.609 101.52 770.449 102.64C770.289 103.707 770.156 104.773 770.049 105.84C769.943 106.907 769.863 108 769.809 109.12C769.756 110.24 769.729 111.333 769.729 112.4C769.783 113.467 769.756 114.507 769.649 115.52C769.596 116.533 769.623 117.573 769.729 118.64C769.836 120.027 769.969 121.52 770.129 123.12C770.343 124.72 770.663 126.24 771.089 127.68C771.516 129.067 772.129 130.24 772.929 131.2C773.729 132.107 774.796 132.56 776.129 132.56ZM871.301 110.88C872.314 110.88 873.301 110.88 874.261 110.88C875.221 110.88 876.154 111.093 877.061 111.52C878.554 112.213 879.301 113.44 879.301 115.2C879.301 115.893 879.167 116.48 878.901 116.96C878.634 117.44 878.287 117.92 877.861 118.4C877.114 119.2 876.181 119.653 875.061 119.76C873.994 119.867 872.981 119.867 872.021 119.76H849.381C849.327 119.76 849.114 119.76 848.741 119.76C848.367 119.76 847.914 119.707 847.381 119.6C846.901 119.493 846.394 119.333 845.861 119.12C845.327 118.853 844.901 118.48 844.581 118C843.941 117.36 843.621 116.533 843.621 115.52C843.621 114.453 843.941 113.52 844.581 112.72C845.167 112.027 845.941 111.573 846.901 111.36C847.861 111.093 848.687 110.907 849.381 110.8H855.861C855.914 110.16 855.941 109.52 855.941 108.88C855.941 108.24 855.967 107.6 856.021 106.96C855.061 106.96 854.101 106.96 853.141 106.96C852.234 106.96 851.354 106.88 850.501 106.72C849.701 106.56 848.954 106.32 848.261 106C847.567 105.627 847.034 105.12 846.661 104.48C846.181 103.787 845.834 103.093 845.621 102.4C845.461 101.707 845.327 101.093 845.221 100.56C845.167 99.9733 845.141 99.4933 845.141 99.12C845.194 98.7467 845.221 98.5067 845.221 98.4V90.16C845.221 90 845.221 89.7333 845.221 89.36C845.274 88.9333 845.327 88.48 845.381 88C845.487 87.52 845.594 87.04 845.701 86.56C845.807 86.08 845.967 85.68 846.181 85.36C846.661 84.6133 847.141 84.08 847.621 83.76C848.154 83.44 848.847 83.2267 849.701 83.12C850.767 82.9067 852.314 82.8 854.341 82.8C854.501 82.8 854.981 82.8 855.781 82.8C856.581 82.8 857.514 82.8267 858.581 82.88C859.701 82.88 860.901 82.9067 862.181 82.96C863.461 82.96 864.634 82.9867 865.701 83.04C866.821 83.04 867.781 83.0667 868.581 83.12C869.381 83.12 869.861 83.12 870.021 83.12C870.714 83.12 871.434 83.12 872.181 83.12C872.927 83.12 873.647 83.2 874.341 83.36C875.034 83.52 875.674 83.7867 876.261 84.16C876.847 84.48 877.354 84.9867 877.781 85.68C878.367 86.5867 878.661 87.36 878.661 88C878.661 88.64 878.341 89.4133 877.701 90.32C877.114 91.2267 876.367 91.76 875.461 91.92C874.607 92.0267 873.727 92.08 872.821 92.08L856.501 92V98.24C857.194 98.2933 858.207 98.3467 859.541 98.4C860.927 98.4533 862.367 98.48 863.861 98.48C865.407 98.48 866.847 98.48 868.181 98.48C869.567 98.48 870.607 98.48 871.301 98.48C872.207 98.48 873.141 98.5333 874.101 98.64C875.061 98.7467 876.074 99.0133 877.141 99.44C878.207 99.8667 878.874 100.24 879.141 100.56C879.461 100.88 879.567 101.333 879.461 101.92C879.354 102.933 879.114 103.733 878.741 104.32C878.367 104.907 877.594 105.493 876.421 106.08C875.727 106.4 874.954 106.64 874.101 106.8C873.247 106.907 872.367 106.96 871.461 106.96C870.607 106.96 869.754 106.96 868.901 106.96C868.101 106.907 867.434 106.88 866.901 106.88H866.741H866.181C866.181 107.253 866.207 107.493 866.261 107.6L866.181 110.88H871.301ZM862.261 137.92C861.941 138.347 861.541 138.907 861.061 139.6C860.581 140.24 860.047 140.907 859.461 141.6C858.927 142.293 858.367 142.96 857.781 143.6C857.194 144.24 856.634 144.747 856.101 145.12C854.981 145.973 853.967 146.48 853.061 146.64C852.207 146.8 851.327 146.693 850.421 146.32C849.727 145.68 849.327 145.067 849.221 144.48C849.114 143.893 849.167 143.307 849.381 142.72C849.594 142.133 849.887 141.573 850.261 141.04C850.687 140.453 851.087 139.867 851.461 139.28C852.421 137.733 853.354 136.187 854.261 134.64C855.167 133.04 856.154 131.493 857.221 130C857.647 129.413 858.101 128.773 858.581 128.08C859.114 127.387 859.674 126.773 860.261 126.24C860.847 125.653 861.487 125.173 862.181 124.8C862.874 124.373 863.621 124.133 864.421 124.08C865.061 124.08 865.674 124.213 866.261 124.48C866.847 124.747 867.407 125.12 867.941 125.6C868.527 126.08 869.061 126.613 869.541 127.2C870.074 127.787 870.527 128.347 870.901 128.88L876.501 137.12C877.354 135.787 878.234 134.427 879.141 133.04C880.047 131.6 880.927 130.293 881.781 129.12C882.634 127.893 883.594 126.693 884.661 125.52C885.781 124.293 887.167 123.627 888.821 123.52C889.621 123.467 890.341 123.627 890.981 124C891.674 124.32 892.287 124.747 892.821 125.28C893.407 125.813 893.941 126.4 894.421 127.04C894.901 127.68 895.327 128.267 895.701 128.8L902.741 139.52C903.061 140 903.354 140.453 903.621 140.88C903.941 141.307 904.181 141.733 904.341 142.16C904.554 142.587 904.661 143.04 904.661 143.52C904.661 143.947 904.474 144.427 904.101 144.96C903.514 145.867 902.767 146.4 901.861 146.56C900.954 146.773 900.047 146.587 899.141 146C897.327 144.933 895.754 143.68 894.421 142.24C893.087 140.8 891.807 139.28 890.581 137.68C889.781 136.667 889.167 136.187 888.741 136.24C888.314 136.24 887.754 136.747 887.061 137.76C885.034 140.693 883.194 142.88 881.541 144.32C879.887 145.813 878.287 146.587 876.741 146.64H876.501C876.234 146.587 875.967 146.533 875.701 146.48C875.487 146.48 875.247 146.427 874.981 146.32C873.861 145.947 873.167 145.44 872.901 144.8C871.514 143.733 870.261 142.56 869.141 141.28C868.021 139.947 866.981 138.747 866.021 137.68C865.221 136.667 864.581 136.213 864.101 136.32C863.621 136.373 863.007 136.907 862.261 137.92ZM904.421 115.52C904.421 115.573 904.394 115.76 904.341 116.08C904.341 116.4 904.261 116.8 904.101 117.28C903.941 117.707 903.701 118.16 903.381 118.64C903.114 119.12 902.714 119.52 902.181 119.84C901.594 120.213 900.981 120.4 900.341 120.4C899.274 120.4 898.394 120.133 897.701 119.6C897.114 119.173 896.661 118.64 896.341 118C895.541 116.507 895.167 114.88 895.221 113.12C895.274 111.307 895.327 109.573 895.381 107.92V106.88C894.794 106.933 894.207 106.96 893.621 106.96C893.087 106.96 892.554 106.96 892.021 106.96H891.781V113.44C891.727 114.027 891.647 114.64 891.541 115.28C891.434 115.867 891.221 116.453 890.901 117.04C890.527 117.733 890.074 118.24 889.541 118.56C889.167 118.827 888.847 119.04 888.581 119.2C888.314 119.36 887.941 119.44 887.461 119.44C886.714 119.44 885.967 119.227 885.221 118.8C884.687 118.48 884.261 118.08 883.941 117.6C883.621 117.12 883.381 116.667 883.221 116.24C883.061 115.813 882.954 115.44 882.901 115.12C882.847 114.747 882.821 114.56 882.821 114.56V88.96C882.767 88.6933 882.767 88.1067 882.821 87.2C882.927 86.24 883.141 85.44 883.461 84.8C883.994 83.68 885.087 83.04 886.741 82.88C887.647 82.7733 888.394 82.8267 888.981 83.04C889.567 83.2533 890.074 83.6 890.501 84.08C890.874 84.5067 891.114 84.9333 891.221 85.36C891.327 85.7333 891.434 86.1333 891.541 86.56C891.701 87.0933 891.781 87.6533 891.781 88.24C891.834 88.8267 891.861 89.4133 891.861 90C891.807 90.2133 891.781 90.5333 891.781 90.96V98C892.047 98.0533 892.527 98.1067 893.221 98.16C893.967 98.16 894.714 98.1867 895.461 98.24V90.72V89.76C895.407 89.1733 895.381 88.6133 895.381 88.08C895.434 87.4933 895.541 86.9067 895.701 86.32C895.914 85.52 896.394 84.72 897.141 83.92C897.994 82.8533 899.247 82.4267 900.901 82.64C902.287 82.8533 903.247 83.5467 903.781 84.72C904.101 85.36 904.287 86.1333 904.341 87.04C904.447 87.9467 904.474 88.5067 904.421 88.72V115.52ZM942.667 84C944.48 84.16 946.214 84.3467 947.867 84.56C949.52 84.7733 951.094 85.12 952.587 85.6C954.08 86.0267 955.494 86.64 956.827 87.44C958.16 88.1867 959.414 89.2 960.587 90.48C962.454 92.5067 963.734 94.9333 964.427 97.76C965.12 100.533 965.36 103.253 965.147 105.92C964.934 108.96 964.187 111.6 962.907 113.84C961.68 116.08 960.08 117.947 958.107 119.44C956.187 120.88 953.974 121.973 951.467 122.72C949.014 123.413 946.48 123.76 943.867 123.76C941.68 123.76 939.36 123.76 936.907 123.76C934.454 123.76 932.027 123.547 929.627 123.12C927.28 122.693 925.04 121.973 922.907 120.96C920.827 119.893 919.04 118.293 917.547 116.16C916.32 114.507 915.494 112.587 915.067 110.4C914.694 108.16 914.507 106.027 914.507 104C914.507 101.92 914.8 99.9467 915.387 98.08C915.974 96.16 916.8 94.4 917.867 92.8C918.934 91.2 920.214 89.8133 921.707 88.64C923.254 87.4667 924.987 86.56 926.907 85.92C929.467 85.0667 932.054 84.48 934.667 84.16C937.334 83.84 940 83.7867 942.667 84ZM953.787 107.12C953.947 106.427 954 105.76 953.947 105.12C953.84 102.347 953.067 100.107 951.627 98.4C950.187 96.6933 948.187 95.68 945.627 95.36C944.774 95.2533 943.867 95.1733 942.907 95.12C942 95.0667 940.96 95.04 939.787 95.04C938.24 95.04 936.667 95.1733 935.067 95.44C933.52 95.6533 932.08 96.0533 930.747 96.64C929.414 97.1733 928.267 97.9467 927.307 98.96C926.347 99.92 925.76 101.173 925.547 102.72C925.387 104 925.387 105.28 925.547 106.56C925.76 107.84 926.214 109.013 926.907 110.08C927.6 111.093 928.56 111.973 929.787 112.72C931.014 113.467 932.587 113.92 934.507 114.08C935.307 114.187 936.107 114.293 936.907 114.4C937.76 114.453 938.614 114.507 939.467 114.56C940.8 114.667 942.214 114.667 943.707 114.56C945.254 114.4 946.694 114.053 948.027 113.52C949.36 112.987 950.534 112.213 951.547 111.2C952.614 110.187 953.36 108.827 953.787 107.12ZM916.027 141.36C915.174 141.307 914.32 141.2 913.467 141.04C912.667 140.827 911.947 140.56 911.307 140.24C910.667 139.867 910.134 139.36 909.707 138.72C909.334 138.08 909.147 137.227 909.147 136.16C909.147 135.093 909.494 134.16 910.187 133.36C910.614 132.933 911.147 132.613 911.787 132.4C912.427 132.187 913.04 132.027 913.627 131.92C914.214 131.813 914.72 131.76 915.147 131.76C915.627 131.76 915.894 131.76 915.947 131.76L960.507 131.84C961.894 131.84 963.147 131.867 964.267 131.92C965.44 131.92 966.48 132.293 967.387 133.04C968.507 134.053 969.067 135.2 969.067 136.48C969.067 137.28 968.827 138.027 968.347 138.72C967.867 139.36 967.227 139.813 966.427 140.08C965.36 140.507 964.24 140.8 963.067 140.96C961.947 141.12 960.827 141.227 959.707 141.28C955.814 141.44 951.974 141.493 948.187 141.44C944.4 141.387 940.72 141.36 937.147 141.36C935.227 141.36 933.254 141.387 931.227 141.44C929.254 141.44 927.334 141.44 925.467 141.44C923.654 141.44 921.92 141.44 920.267 141.44C918.614 141.44 917.2 141.413 916.027 141.36ZM987.392 119.84C986.859 119.947 986.485 120.24 986.272 120.72C986.059 121.2 985.925 121.76 985.872 122.4C985.819 122.987 985.819 123.573 985.872 124.16C985.925 124.747 985.952 125.227 985.952 125.6C985.952 126.24 985.952 126.88 985.952 127.52C985.952 128.16 986.005 128.853 986.112 129.6C986.112 129.92 986.085 130.373 986.032 130.96C986.032 131.493 986.165 131.893 986.432 132.16C986.432 132.267 986.485 132.347 986.592 132.4C986.699 132.453 986.805 132.48 986.912 132.48C987.499 132.48 988.005 132.48 988.432 132.48C988.912 132.48 989.365 132.48 989.792 132.48C990.219 132.48 990.645 132.48 991.072 132.48C991.552 132.427 992.085 132.373 992.672 132.32C993.632 132.32 994.672 132.32 995.792 132.32C996.965 132.32 998.139 132.32 999.312 132.32C1000.54 132.32 1001.74 132.347 1002.91 132.4C1004.09 132.4 1005.13 132.427 1006.03 132.48C1006.78 132.587 1007.34 132.773 1007.71 133.04C1008.14 133.307 1008.49 133.653 1008.75 134.08C1009.07 134.507 1009.29 134.987 1009.39 135.52C1009.5 136 1009.55 136.533 1009.55 137.12C1009.66 137.76 1009.61 138.373 1009.39 138.96C1009.23 139.493 1009.02 139.92 1008.75 140.24C1008.49 140.56 1008.17 140.853 1007.79 141.12C1007.47 141.333 1007.1 141.573 1006.67 141.84C1005.61 142.32 1004.54 142.56 1003.47 142.56C1002.46 142.507 1001.39 142.533 1000.27 142.64C999.792 142.64 999.179 142.667 998.432 142.72C997.739 142.72 996.992 142.72 996.192 142.72C995.392 142.72 994.619 142.72 993.872 142.72C993.125 142.72 992.512 142.693 992.032 142.64C991.605 142.587 991.285 142.56 991.072 142.56C990.859 142.56 990.672 142.56 990.512 142.56C990.352 142.56 990.165 142.587 989.952 142.64C989.792 142.64 989.525 142.64 989.152 142.64C988.405 142.533 987.685 142.507 986.992 142.56C986.299 142.613 985.579 142.64 984.832 142.64C983.552 142.533 982.272 142.4 980.992 142.24C979.712 142.08 978.539 141.627 977.472 140.88C976.725 140.453 976.165 139.733 975.792 138.72C975.472 138.08 975.232 137.36 975.072 136.56C974.912 135.76 974.885 134.987 974.992 134.24C975.045 131.84 975.019 129.173 974.912 126.24C974.859 123.307 974.832 120.587 974.832 118.08C974.832 117.12 974.805 116.053 974.752 114.88C974.752 113.653 974.992 112.64 975.472 111.84C975.952 111.093 976.485 110.56 977.072 110.24C977.659 109.867 978.272 109.627 978.912 109.52C979.605 109.413 980.299 109.387 980.992 109.44C981.739 109.44 982.485 109.44 983.232 109.44H990.592C991.232 109.44 991.845 109.44 992.432 109.44C993.019 109.387 993.659 109.28 994.352 109.12C994.832 108.96 995.152 108.64 995.312 108.16C995.579 106.773 995.712 105.253 995.712 103.6C995.765 101.947 995.739 100.427 995.632 99.04C995.632 98.4533 995.632 97.7067 995.632 96.8C995.632 95.8933 995.472 95.2 995.152 94.72C994.779 94.1867 993.952 93.92 992.672 93.92L980.192 94.08C979.445 94.08 978.619 94 977.712 93.84C976.805 93.6267 976.112 93.2267 975.632 92.64C975.472 92.3733 975.312 92.1333 975.152 91.92C974.992 91.6533 974.832 91.3067 974.672 90.88C974.245 89.44 974.352 88.1333 974.992 86.96C975.685 85.7867 976.779 85.04 978.272 84.72C979.552 84.4533 980.832 84.3733 982.112 84.48C983.392 84.5333 984.672 84.5067 985.952 84.4H995.632C996.699 84.4 997.792 84.4 998.912 84.4C1000.03 84.4 1001.13 84.56 1002.19 84.88C1003.31 85.2 1004.27 86 1005.07 87.28C1005.18 87.5467 1005.26 87.7867 1005.31 88C1005.37 88.2133 1005.45 88.48 1005.55 88.8C1005.66 89.0667 1005.74 89.3067 1005.79 89.52C1005.85 89.7333 1005.87 89.9733 1005.87 90.24C1005.98 91.1467 1006.03 92.2133 1006.03 93.44C1006.03 94.6667 1006.03 95.68 1006.03 96.48C1006.03 98.1867 1006.06 100.053 1006.11 102.08C1006.17 104.107 1006.19 105.973 1006.19 107.68C1006.19 109.44 1006.17 111.147 1006.11 112.8C1006.11 114.453 1005.87 115.893 1005.39 117.12C1004.86 118.187 1004.11 118.88 1003.15 119.2C1002.25 119.627 1001.26 119.813 1000.19 119.76C999.125 119.707 998.139 119.68 997.232 119.68C996.005 119.68 994.912 119.707 993.952 119.76C992.992 119.813 992.032 119.84 991.072 119.84C990.645 119.84 990.272 119.84 989.952 119.84C989.685 119.787 989.419 119.76 989.152 119.76C988.939 119.707 988.699 119.707 988.432 119.76C988.165 119.76 987.819 119.787 987.392 119.84ZM1019.63 92.24C1019.63 91.5467 1019.63 90.8 1019.63 90C1019.69 89.1467 1019.77 88.32 1019.87 87.52C1020.03 86.6667 1020.22 85.8933 1020.43 85.2C1020.7 84.4533 1021.07 83.84 1021.55 83.36C1022.25 82.6667 1023.1 82.32 1024.11 82.32H1024.27C1025.61 82.3733 1026.65 82.7733 1027.39 83.52C1028.14 84.2133 1028.7 85.0667 1029.07 86.08C1029.5 87.0933 1029.77 88.16 1029.87 89.28C1029.98 90.3467 1030.03 91.3067 1030.03 92.16V139.52C1030.03 139.573 1030.03 139.84 1030.03 140.32C1030.03 140.747 1029.98 141.28 1029.87 141.92C1029.77 142.56 1029.61 143.2 1029.39 143.84C1029.18 144.48 1028.83 145.013 1028.35 145.44C1027.98 145.813 1027.45 146.107 1026.75 146.32C1026.06 146.533 1025.42 146.64 1024.83 146.64C1023.55 146.64 1022.54 146.213 1021.79 145.36C1021.1 144.613 1020.65 143.893 1020.43 143.2C1020.27 142.453 1020.14 141.627 1020.03 140.72C1020.03 140.24 1020.01 139.547 1019.95 138.64C1019.95 137.68 1019.95 136.64 1019.95 135.52C1019.95 134.4 1019.95 133.307 1019.95 132.24C1019.95 131.12 1019.95 130.187 1019.95 129.44H1013.47C1012.25 129.44 1011.29 129.253 1010.59 128.88C1009.95 128.507 1009.5 128.027 1009.23 127.44C1009.07 127.12 1008.91 126.8 1008.75 126.48C1008.65 126.107 1008.59 125.733 1008.59 125.36C1008.59 124.987 1008.59 124.667 1008.59 124.4C1008.59 124.133 1008.65 123.813 1008.75 123.44C1008.86 123.013 1008.99 122.56 1009.15 122.08C1009.31 121.6 1009.55 121.227 1009.87 120.96C1010.57 120.427 1011.31 120.08 1012.11 119.92C1012.54 119.867 1013.07 119.813 1013.71 119.76C1014.41 119.707 1015.13 119.68 1015.87 119.68C1016.62 119.627 1017.34 119.6 1018.03 119.6C1018.73 119.547 1019.29 119.493 1019.71 119.44C1019.71 118.48 1019.69 117.093 1019.63 115.28C1019.63 113.467 1019.63 111.52 1019.63 109.44L1013.55 109.28C1012.54 109.227 1011.63 109.093 1010.83 108.88C1010.03 108.667 1009.5 108.267 1009.23 107.68C1008.86 106.933 1008.67 106.213 1008.67 105.52C1008.67 105.147 1008.67 104.827 1008.67 104.56C1008.67 104.293 1008.73 103.973 1008.83 103.6C1008.94 103.173 1009.07 102.747 1009.23 102.32C1009.39 101.893 1009.63 101.547 1009.95 101.28C1010.65 100.747 1011.39 100.4 1012.19 100.24C1012.78 100.133 1013.79 100.08 1015.23 100.08C1016.73 100.027 1018.17 99.9733 1019.55 99.92C1019.55 99.2267 1019.55 98.48 1019.55 97.68C1019.55 96.8267 1019.55 96.0533 1019.55 95.36C1019.55 94.6133 1019.55 93.9733 1019.55 93.44C1019.61 92.8533 1019.63 92.4533 1019.63 92.24ZM1052.55 124.8C1052.55 125.547 1052.52 126.293 1052.47 127.04C1052.41 127.733 1052.41 128.453 1052.47 129.2C1052.47 129.573 1052.49 129.947 1052.55 130.32C1052.6 130.693 1052.76 131.013 1053.03 131.28C1053.35 131.547 1053.72 131.707 1054.15 131.76C1054.63 131.76 1055.08 131.76 1055.51 131.76C1056.09 131.76 1056.71 131.787 1057.35 131.84C1057.99 131.84 1058.6 131.84 1059.19 131.84C1059.88 131.84 1060.71 131.84 1061.67 131.84C1062.63 131.84 1063.59 131.84 1064.55 131.84C1065.56 131.84 1066.55 131.867 1067.51 131.92C1068.47 131.973 1069.27 132.027 1069.91 132.08C1070.81 132.187 1071.75 132.347 1072.71 132.56C1073.72 132.72 1074.63 133.067 1075.43 133.6C1075.85 133.867 1076.15 134.24 1076.31 134.72C1076.52 135.147 1076.65 135.6 1076.71 136.08C1076.76 136.347 1076.79 136.613 1076.79 136.88C1076.79 137.093 1076.79 137.333 1076.79 137.6C1076.68 138.88 1076.25 139.947 1075.51 140.8C1074.76 141.6 1073.77 142.133 1072.55 142.4C1071.8 142.507 1071.05 142.613 1070.31 142.72C1069.61 142.827 1068.89 142.88 1068.15 142.88C1067.88 142.88 1067.45 142.88 1066.87 142.88C1066.28 142.88 1065.64 142.88 1064.95 142.88C1064.25 142.827 1063.61 142.8 1063.03 142.8C1062.44 142.8 1062.04 142.8 1061.83 142.8H1054.47C1053.4 142.8 1052.36 142.747 1051.35 142.64C1050.39 142.533 1049.37 142.453 1048.31 142.4C1047.51 142.347 1046.68 142.213 1045.83 142C1044.97 141.733 1044.25 141.307 1043.67 140.72C1043.08 140.133 1042.63 139.493 1042.31 138.8C1042.04 138.107 1041.83 137.387 1041.67 136.64C1041.35 134.933 1041.21 133.173 1041.27 131.36C1041.32 129.547 1041.35 127.76 1041.35 126V106.4C1041.35 105.493 1041.35 104.56 1041.35 103.6C1041.4 102.64 1041.4 101.68 1041.35 100.72C1041.35 100.667 1041.32 100.267 1041.27 99.52C1041.27 98.72 1041.27 97.7867 1041.27 96.72C1041.27 95.6 1041.27 94.48 1041.27 93.36C1041.27 92.1867 1041.29 91.1467 1041.35 90.24C1041.4 89.1733 1041.64 88.08 1042.07 86.96C1042.49 85.7867 1043.4 84.9067 1044.79 84.32C1045.37 84.1067 1045.99 83.9467 1046.63 83.84C1047.27 83.7333 1047.91 83.76 1048.55 83.92C1049.19 84.08 1049.77 84.3733 1050.31 84.8C1050.89 85.1733 1051.32 85.7067 1051.59 86.4C1051.91 87.1467 1052.12 87.9467 1052.23 88.8C1052.39 89.6 1052.47 90.4533 1052.47 91.36C1052.47 91.9467 1052.47 92.5333 1052.47 93.12C1052.47 93.7067 1052.49 94.2933 1052.55 94.88V124.8ZM1095.27 106.8C1095.53 106.8 1095.77 106.827 1095.99 106.88C1096.25 106.933 1096.52 106.96 1096.79 106.96C1097.05 107.013 1097.35 107.067 1097.67 107.12C1097.99 107.12 1098.31 107.147 1098.63 107.2C1099.21 107.307 1099.8 107.52 1100.39 107.84C1100.97 108.107 1101.4 108.533 1101.67 109.12C1102.04 109.707 1102.23 110.4 1102.23 111.2C1102.23 111.627 1102.2 112.027 1102.15 112.4C1102.15 112.72 1102.09 113.093 1101.99 113.52C1101.88 113.947 1101.75 114.4 1101.59 114.88C1101.48 115.36 1101.24 115.733 1100.87 116C1100.12 116.533 1099.4 116.88 1098.71 117.04C1097.85 117.147 1096.81 117.173 1095.59 117.12C1094.36 117.067 1093.32 117.067 1092.47 117.12C1092.41 117.12 1092.36 117.147 1092.31 117.2H1092.23L1092.15 117.28V117.52C1092.15 118.16 1092.15 118.933 1092.15 119.84C1092.15 120.747 1092.15 121.68 1092.15 122.64C1092.15 123.547 1092.15 124.453 1092.15 125.36C1092.15 126.213 1092.15 126.987 1092.15 127.68C1092.25 130.453 1092.25 133.173 1092.15 135.84V136.96C1092.15 137.653 1092.12 138.427 1092.07 139.28C1092.07 140.08 1092.01 140.88 1091.91 141.68C1091.8 142.48 1091.61 143.253 1091.35 144C1091.08 144.693 1090.71 145.28 1090.23 145.76C1089.59 146.507 1088.73 146.88 1087.67 146.88C1087.67 146.88 1087.61 146.853 1087.51 146.8C1086.23 146.747 1085.19 146.373 1084.39 145.68C1083.64 144.987 1083.05 144.133 1082.63 143.12C1082.25 142.107 1082.01 141.067 1081.91 140C1081.8 138.88 1081.75 137.893 1081.75 137.04V89.52C1081.75 89.4667 1081.75 89.2267 1081.75 88.8C1081.75 88.32 1081.8 87.7867 1081.91 87.2C1082.01 86.56 1082.17 85.92 1082.39 85.28C1082.65 84.5867 1083 84.0267 1083.43 83.6C1083.8 83.2267 1084.33 82.96 1085.03 82.8C1085.77 82.5867 1086.44 82.48 1087.03 82.48C1088.2 82.48 1089.19 82.88 1089.99 83.68C1090.73 84.4267 1091.16 85.2267 1091.27 86.08C1091.43 86.88 1091.56 87.7333 1091.67 88.64C1091.72 88.8533 1091.75 89.1733 1091.75 89.6C1091.85 90.5067 1091.91 91.44 1091.91 92.4C1091.96 93.36 1092.01 94.32 1092.07 95.28C1092.07 95.8667 1092.07 96.4533 1092.07 97.04C1092.12 97.5733 1092.15 98.1333 1092.15 98.72C1092.09 99.04 1092.07 99.36 1092.07 99.68C1092.12 99.9467 1092.15 100.213 1092.15 100.48V104.88C1092.15 105.147 1092.15 105.44 1092.15 105.76C1092.15 106.08 1092.2 106.373 1092.31 106.64C1092.31 106.693 1092.57 106.72 1093.11 106.72C1093.64 106.72 1093.93 106.72 1093.99 106.72C1094.47 106.827 1094.84 106.853 1095.11 106.8H1095.27ZM1107.35 102C1107.14 100.613 1107.03 99.2 1107.03 97.76C1107.09 96.32 1107.35 94.9067 1107.83 93.52C1108.42 91.7067 1109.38 90.1067 1110.71 88.72C1112.05 87.3333 1113.57 86.24 1115.27 85.44C1117.09 84.5867 1118.93 84 1120.79 83.68C1122.71 83.3067 1124.58 83.2267 1126.39 83.44C1128.26 83.6533 1130.05 84.1333 1131.75 84.88C1133.51 85.5733 1135.17 86.5867 1136.71 87.92C1138.37 89.36 1139.59 91.04 1140.39 92.96C1141.25 94.8267 1141.7 96.7733 1141.75 98.8C1141.86 100.827 1141.62 102.853 1141.03 104.88C1140.5 106.853 1139.67 108.693 1138.55 110.4C1138.55 110.4 1138.53 110.453 1138.47 110.56C1137.57 111.787 1136.53 112.907 1135.35 113.92C1134.18 114.88 1133.09 115.92 1132.07 117.04C1130.9 118.267 1130.21 119.52 1129.99 120.8C1129.78 122.027 1129.57 123.413 1129.35 124.96C1129.19 126.453 1128.79 127.76 1128.15 128.88C1127.57 129.947 1126.45 130.453 1124.79 130.4C1123.67 130.347 1122.82 130 1122.23 129.36C1121.7 128.667 1121.3 127.867 1121.03 126.96C1120.82 126 1120.74 125.013 1120.79 124C1120.85 122.933 1120.93 122 1121.03 121.2C1121.35 119.333 1121.94 117.573 1122.79 115.92C1123.65 114.213 1124.69 112.613 1125.91 111.12C1126.61 110.32 1127.3 109.6 1127.99 108.96C1128.69 108.267 1129.33 107.547 1129.91 106.8C1130.5 106.053 1131.01 105.253 1131.43 104.4C1131.86 103.547 1132.15 102.56 1132.31 101.44C1132.47 100.427 1132.39 99.4133 1132.07 98.4C1131.75 97.3333 1131.27 96.4 1130.63 95.6C1129.99 94.7467 1129.22 94.0533 1128.31 93.52C1127.41 92.9333 1126.42 92.6133 1125.35 92.56C1124.39 92.5067 1123.38 92.64 1122.31 92.96C1121.25 93.2267 1120.26 93.68 1119.35 94.32C1118.45 94.9067 1117.7 95.6267 1117.11 96.48C1116.58 97.3333 1116.34 98.2933 1116.39 99.36C1116.45 100 1116.55 100.667 1116.71 101.36C1116.93 102 1117.06 102.64 1117.11 103.28C1117.22 103.867 1117.19 104.453 1117.03 105.04C1116.93 105.627 1116.58 106.187 1115.99 106.72C1115.03 107.627 1114.07 108.08 1113.11 108.08C1112.15 108.027 1111.27 107.707 1110.47 107.12C1109.67 106.533 1108.98 105.787 1108.39 104.88C1107.86 103.92 1107.51 102.96 1107.35 102ZM1130.39 141.92C1130.39 143.467 1129.81 144.853 1128.63 146.08C1127.51 147.253 1126.21 147.84 1124.71 147.84C1123.27 147.84 1121.99 147.253 1120.87 146.08C1119.75 144.8 1119.19 143.413 1119.19 141.92C1119.19 140.267 1119.75 138.88 1120.87 137.76C1121.99 136.533 1123.27 135.92 1124.71 135.92C1126.21 135.92 1127.51 136.533 1128.63 137.76C1129.81 138.933 1130.39 140.32 1130.39 141.92Z" fill="black"/>
</g>
<defs>
<linearGradient id="paint0_linear_62_135" x1="385.125" y1="60.8877" x2="385.125" y2="98.7719" gradientUnits="userSpaceOnUse">
<stop stop-color="#6B9930"/>
<stop offset="0.635" stop-color="#A1E848"/>
<stop offset="0.6351" stop-color="#A2E849"/>
<stop offset="1" stop-color="#B2FF50"/>
</linearGradient>
<clipPath id="clip0_62_135">
<rect width="1440" height="170" fill="white"/>
</clipPath>
</defs>
</svg>
