<svg width="1440" height="170" viewBox="0 0 1440 170" fill="none" xmlns="http://www.w3.org/2000/svg">
<g clip-path="url(#clip0_64_3)">
<rect width="1440" height="170" fill="#FFE2C7"/>
<path d="M246.548 55.772C245.66 55.772 244.748 55.664 243.812 55.448C242.9 55.232 241.988 54.932 241.076 54.548C240.836 54.428 240.668 54.272 240.572 54.08C240.476 53.912 240.428 53.744 240.428 53.576C240.428 53.432 240.452 53.288 240.5 53.144C240.644 52.736 240.956 52.532 241.436 52.532C241.604 52.532 241.772 52.568 241.94 52.64C242.708 52.952 243.476 53.192 244.244 53.36C245.012 53.552 245.768 53.648 246.512 53.648C248.432 53.648 250.196 53.108 251.804 52.028C253.46 50.948 254.696 49.568 255.512 47.888C256.328 46.208 256.736 44.384 256.736 42.416C256.736 40.88 256.508 39.38 256.052 37.916C255.74 36.86 255.332 35.9 254.828 35.036C254.348 34.172 253.892 33.452 253.46 32.876C253.028 32.276 252.728 31.88 252.56 31.688C251.624 31.688 250.556 31.712 249.356 31.76C248.156 31.784 246.92 31.832 245.648 31.904C244.376 31.952 243.128 32.012 241.904 32.084C240.704 32.156 239.612 32.228 238.628 32.3C238.244 32.324 237.944 32.228 237.728 32.012C237.536 31.772 237.44 31.544 237.44 31.328C237.416 31.064 237.488 30.812 237.656 30.572C237.824 30.332 238.076 30.2 238.412 30.176C241.196 29.984 243.728 29.84 246.008 29.744C248.288 29.624 250.52 29.564 252.704 29.564C254.432 29.564 256.184 29.6 257.96 29.672C259.736 29.744 261.62 29.876 263.612 30.068C264.02 30.14 264.284 30.296 264.404 30.536C264.548 30.752 264.596 30.992 264.548 31.256C264.476 31.976 264.092 32.3 263.396 32.228C262.82 32.18 262.148 32.132 261.38 32.084C260.612 32.036 259.832 31.988 259.04 31.94C258.248 31.868 257.516 31.82 256.844 31.796C256.172 31.748 255.656 31.724 255.296 31.724C256.88 33.908 257.948 36.152 258.5 38.456C258.788 39.752 258.932 41.036 258.932 42.308C258.932 44.78 258.392 47.048 257.312 49.112C256.232 51.176 254.66 52.844 252.596 54.116C250.7 55.22 248.684 55.772 246.548 55.772ZM278.912 56.132C276.584 56.132 274.556 55.652 272.828 54.692C271.124 53.732 269.792 52.412 268.832 50.732C267.896 49.028 267.428 47.06 267.428 44.828C267.428 42.524 267.896 40.532 268.832 38.852C269.768 37.148 271.088 35.828 272.792 34.892C274.52 33.956 276.56 33.488 278.912 33.488C281.312 33.488 283.364 33.956 285.068 34.892C286.796 35.804 288.116 37.112 289.028 38.816C289.94 40.496 290.396 42.5 290.396 44.828C290.396 47.108 289.928 49.1 288.992 50.804C288.056 52.508 286.724 53.816 284.996 54.728C283.292 55.664 281.264 56.132 278.912 56.132ZM278.912 53.864C281.864 53.864 284.132 53.06 285.716 51.452C287.324 49.844 288.128 47.636 288.128 44.828C288.128 41.9 287.3 39.656 285.644 38.096C283.988 36.536 281.744 35.756 278.912 35.756C276.08 35.756 273.836 36.56 272.18 38.168C270.524 39.776 269.696 41.996 269.696 44.828C269.696 46.7 270.092 48.308 270.884 49.652C271.676 50.996 272.768 52.04 274.16 52.784C275.552 53.504 277.136 53.864 278.912 53.864ZM313.932 55.664C313.62 55.664 313.344 55.556 313.104 55.34C312.888 55.148 312.78 54.896 312.78 54.584C312.78 54.488 312.804 54.368 312.852 54.224C313.26 52.952 313.584 51.62 313.824 50.228C314.088 48.812 314.22 47.456 314.22 46.16C314.22 43.592 313.68 41.552 312.6 40.04C311.544 38.504 309.864 37.652 307.56 37.484C305.832 37.412 304.344 37.844 303.096 38.78C301.848 39.716 300.804 40.952 299.964 42.488C299.22 43.904 298.656 45.512 298.272 47.312C297.912 49.112 297.732 50.864 297.732 52.568C297.732 52.808 297.732 53.048 297.732 53.288C297.732 53.552 297.744 53.804 297.768 54.044C297.768 54.476 297.636 54.776 297.372 54.944C297.132 55.136 296.88 55.232 296.616 55.232C296.016 55.232 295.68 54.884 295.608 54.188C295.44 52.676 295.284 50.996 295.14 49.148C295.02 47.276 294.912 45.404 294.816 43.532C294.744 41.636 294.708 39.896 294.708 38.312C294.708 37.856 294.708 37.424 294.708 37.016C294.708 36.608 294.72 36.224 294.744 35.864C294.744 35.456 294.864 35.168 295.104 35C295.368 34.832 295.62 34.772 295.86 34.82C296.148 34.82 296.388 34.916 296.58 35.108C296.796 35.3 296.904 35.564 296.904 35.9C296.928 36.836 296.94 37.652 296.94 38.348C296.94 39.044 296.94 39.764 296.94 40.508C296.964 41.252 296.976 42.2 296.976 43.352C297.48 41.72 298.224 40.28 299.208 39.032C300.216 37.784 301.392 36.812 302.736 36.116C304.08 35.396 305.52 35.036 307.056 35.036C309.048 35.036 310.74 35.48 312.132 36.368C313.548 37.256 314.628 38.504 315.372 40.112C316.116 41.696 316.488 43.532 316.488 45.62C316.488 47.228 316.344 48.788 316.056 50.3C315.768 51.812 315.384 53.348 314.904 54.908C314.832 55.172 314.7 55.364 314.508 55.484C314.34 55.604 314.148 55.664 313.932 55.664ZM334.619 59.984C333.587 59.984 332.711 59.636 331.991 58.94C331.271 58.244 330.935 57.368 330.983 56.312C331.127 55.28 331.583 54.452 332.351 53.828C333.143 53.204 334.091 52.724 335.195 52.388C336.299 52.028 337.391 51.752 338.471 51.56C338.543 50.84 338.591 50.372 338.615 50.156C338.663 49.916 338.699 49.736 338.723 49.616C337.571 50.552 336.251 51.284 334.763 51.812C333.275 52.34 331.787 52.604 330.299 52.604C328.883 52.604 327.563 52.352 326.339 51.848C324.539 51.08 323.159 49.904 322.199 48.32C321.263 46.712 320.795 44.996 320.795 43.172C320.795 41.204 321.263 39.464 322.199 37.952C323.159 36.44 324.455 35.252 326.087 34.388C327.719 33.524 329.543 33.092 331.559 33.092C332.999 33.092 334.355 33.332 335.627 33.812C336.899 34.292 338.003 35.024 338.939 36.008C339.347 36.008 339.623 36.092 339.767 36.26C339.935 36.428 340.043 36.644 340.091 36.908C340.355 38.108 340.559 39.584 340.703 41.336C340.871 43.088 340.955 44.816 340.955 46.52C340.955 47.456 340.931 48.344 340.883 49.184C340.835 50.024 340.751 50.768 340.631 51.416C341.783 51.416 342.299 51.812 342.179 52.604C342.179 52.868 342.071 53.096 341.855 53.288C341.663 53.48 341.387 53.576 341.027 53.576C340.979 53.552 340.907 53.54 340.811 53.54C340.715 53.54 340.523 53.54 340.235 53.54C339.971 54.716 339.611 55.784 339.155 56.744C338.699 57.728 338.099 58.508 337.355 59.084C336.635 59.684 335.723 59.984 334.619 59.984ZM327.887 50.084C328.631 50.324 329.447 50.444 330.335 50.444C331.919 50.444 333.491 50.072 335.051 49.328C336.611 48.584 337.883 47.588 338.867 46.34C338.867 45.956 338.843 45.404 338.795 44.684C338.747 43.964 338.675 43.196 338.579 42.38C338.507 41.54 338.423 40.784 338.327 40.112C338.255 39.416 338.195 38.912 338.147 38.6C337.739 37.856 337.139 37.232 336.347 36.728C335.555 36.224 334.679 35.852 333.719 35.612C332.783 35.348 331.859 35.216 330.947 35.216C329.339 35.264 327.947 35.648 326.771 36.368C325.595 37.064 324.683 38.012 324.035 39.212C323.411 40.388 323.099 41.744 323.099 43.28C323.099 44.888 323.507 46.304 324.323 47.528C325.163 48.752 326.351 49.604 327.887 50.084ZM334.691 57.896C335.291 57.896 335.795 57.68 336.203 57.248C336.635 56.816 336.995 56.288 337.283 55.664C337.571 55.04 337.799 54.428 337.967 53.828C337.295 53.972 336.587 54.164 335.843 54.404C335.099 54.644 334.463 54.932 333.935 55.268C333.431 55.628 333.179 56.072 333.179 56.6C333.179 56.96 333.323 57.26 333.611 57.5C333.923 57.764 334.283 57.896 334.691 57.896ZM381.183 55.916C378.279 55.916 375.735 55.34 373.551 54.188C371.367 53.06 369.663 51.476 368.439 49.436C367.239 47.372 366.639 44.96 366.639 42.2C366.639 40.136 366.999 38.252 367.719 36.548C368.439 34.82 369.459 33.332 370.779 32.084C372.099 30.812 373.635 29.828 375.387 29.132C377.163 28.436 379.095 28.088 381.183 28.088C383.247 28.088 385.203 28.484 387.051 29.276C388.923 30.068 390.555 31.22 391.947 32.732C392.139 32.972 392.235 33.212 392.235 33.452C392.235 33.74 392.115 34.004 391.875 34.244C391.707 34.46 391.467 34.568 391.155 34.568C390.843 34.568 390.579 34.448 390.363 34.208C389.163 32.912 387.771 31.928 386.187 31.256C384.627 30.584 382.959 30.248 381.183 30.248C378.807 30.248 376.683 30.752 374.811 31.76C372.939 32.768 371.463 34.172 370.383 35.972C369.327 37.772 368.799 39.848 368.799 42.2C368.799 44.576 369.315 46.628 370.347 48.356C371.379 50.084 372.819 51.416 374.667 52.352C376.539 53.288 378.711 53.756 381.183 53.756C382.887 53.756 384.495 53.456 386.007 52.856C387.543 52.232 388.887 51.332 390.039 50.156C390.255 49.94 390.507 49.832 390.795 49.832C391.083 49.832 391.335 49.94 391.551 50.156C391.767 50.372 391.875 50.624 391.875 50.912C391.875 51.224 391.767 51.488 391.551 51.704C390.231 53.024 388.647 54.056 386.799 54.8C384.975 55.544 383.103 55.916 381.183 55.916ZM407.428 55.916C407.236 55.94 407.032 55.952 406.816 55.952C406.624 55.952 406.432 55.952 406.24 55.952C404.104 55.952 402.196 55.496 400.516 54.584C398.836 53.696 397.516 52.46 396.556 50.876C395.596 49.292 395.116 47.48 395.116 45.44C395.116 43.52 395.488 41.756 396.232 40.148C397 38.516 398.08 37.16 399.472 36.08C400.864 35 402.508 34.316 404.404 34.028C404.668 33.98 404.956 33.944 405.268 33.92C405.58 33.896 405.892 33.884 406.204 33.884C407.5 33.884 408.844 34.064 410.236 34.424C411.652 34.76 412.84 35.24 413.8 35.864C413.92 35.6 414.112 35.444 414.376 35.396C414.64 35.324 414.856 35.312 415.024 35.36C415.288 35.384 415.492 35.504 415.636 35.72C415.78 35.936 415.852 36.188 415.852 36.476C415.828 37.028 415.804 37.568 415.78 38.096C415.78 38.624 415.78 39.152 415.78 39.68C415.78 42.368 415.972 44.756 416.356 46.844C416.764 48.932 417.52 50.756 418.624 52.316C418.768 52.532 418.84 52.748 418.84 52.964C418.84 53.252 418.72 53.492 418.48 53.684C418.264 53.876 418.024 53.972 417.76 53.972C417.4 53.972 417.1 53.816 416.86 53.504C416.62 53.168 416.38 52.796 416.14 52.388C415.924 51.98 415.744 51.62 415.6 51.308C414.616 52.676 413.416 53.732 412 54.476C410.584 55.244 409.06 55.724 407.428 55.916ZM406.708 53.828C408.34 53.828 409.84 53.372 411.208 52.46C412.6 51.548 413.728 50.3 414.592 48.716C414.232 47.372 413.968 45.812 413.8 44.036C413.632 42.26 413.56 40.412 413.584 38.492C413.104 37.964 412.468 37.52 411.676 37.16C410.884 36.8 410.02 36.524 409.084 36.332C408.148 36.14 407.224 36.044 406.312 36.044C405.712 36.044 405.148 36.08 404.62 36.152C404.092 36.224 403.6 36.356 403.144 36.548C401.32 37.22 399.868 38.348 398.788 39.932C397.732 41.492 397.204 43.28 397.204 45.296C397.204 47.072 397.624 48.596 398.464 49.868C399.328 51.14 400.48 52.124 401.92 52.82C403.36 53.492 404.956 53.828 406.708 53.828ZM426.913 55.448C426.601 55.448 426.337 55.34 426.121 55.124C425.929 54.932 425.833 54.68 425.833 54.368C425.761 53.048 425.641 51.62 425.473 50.084C425.329 48.548 425.137 46.988 424.897 45.404C424.681 43.796 424.429 42.272 424.141 40.832C423.853 39.368 423.553 38.072 423.241 36.944C423.193 36.752 423.169 36.62 423.169 36.548C423.169 36.236 423.277 35.996 423.493 35.828C423.733 35.66 423.985 35.576 424.249 35.576C424.489 35.576 424.705 35.648 424.897 35.792C425.113 35.912 425.257 36.092 425.329 36.332C425.593 37.172 425.845 38.168 426.085 39.32C426.325 40.472 426.541 41.636 426.733 42.812C426.925 43.964 427.069 44.984 427.165 45.872C427.621 43.976 428.389 42.344 429.469 40.976C430.573 39.584 431.905 38.516 433.465 37.772C435.049 37.028 436.765 36.656 438.613 36.656C440.125 36.656 441.649 36.932 443.185 37.484C443.665 37.7 443.905 38.024 443.905 38.456C443.905 39.176 443.557 39.536 442.861 39.536C442.693 39.536 442.561 39.524 442.465 39.5C441.313 39.116 440.053 38.924 438.685 38.924C436.717 38.924 435.061 39.32 433.717 40.112C432.373 40.904 431.281 42.008 430.441 43.424C429.625 44.84 429.025 46.472 428.641 48.32C428.257 50.168 428.041 52.16 427.993 54.296C427.993 54.68 427.873 54.968 427.633 55.16C427.417 55.352 427.177 55.448 426.913 55.448ZM457.785 55.628C455.433 55.628 453.405 55.196 451.701 54.332C449.997 53.492 448.689 52.28 447.777 50.696C446.865 49.088 446.409 47.168 446.409 44.936C446.409 42.872 446.877 41.084 447.813 39.572C448.749 38.06 450.021 36.896 451.629 36.08C453.237 35.24 455.049 34.82 457.065 34.82C459.105 34.82 461.109 35.24 463.077 36.08C463.461 36.248 463.653 36.512 463.653 36.872C463.653 37.04 463.593 37.208 463.473 37.376C463.257 37.784 462.909 37.988 462.429 37.988C462.261 37.988 462.081 37.952 461.889 37.88C460.353 37.256 458.805 36.944 457.245 36.944C455.541 36.944 454.029 37.316 452.709 38.06C451.389 38.78 450.357 39.764 449.613 41.012C448.893 42.26 448.533 43.688 448.533 45.296C448.533 47 448.917 48.464 449.685 49.688C450.453 50.912 451.521 51.848 452.889 52.496C454.281 53.144 455.865 53.468 457.641 53.468C458.913 53.468 460.077 53.312 461.133 53C462.189 52.712 463.113 52.376 463.905 51.992C463.761 50.96 463.653 49.808 463.581 48.536C463.509 47.24 463.473 45.896 463.473 44.504C463.473 42.848 463.509 41.168 463.581 39.464C463.677 37.76 463.785 36.104 463.905 34.496C464.049 32.888 464.205 31.412 464.373 30.068C464.421 29.732 464.541 29.492 464.733 29.348C464.949 29.18 465.177 29.096 465.417 29.096C465.705 29.096 465.969 29.204 466.209 29.42C466.449 29.636 466.545 29.936 466.497 30.32C466.353 31.568 466.221 32.96 466.101 34.496C465.981 36.032 465.885 37.64 465.813 39.32C465.741 40.976 465.705 42.62 465.705 44.252C465.705 46.22 465.765 48.068 465.885 49.796C466.005 51.524 466.209 52.976 466.497 54.152C466.521 54.224 466.533 54.332 466.533 54.476C466.533 54.692 466.461 54.896 466.317 55.088C466.173 55.304 465.969 55.436 465.705 55.484C464.985 55.556 464.541 55.28 464.373 54.656L464.301 54.224C463.413 54.68 462.369 55.028 461.169 55.268C459.993 55.508 458.865 55.628 457.785 55.628ZM479.842 33.92C479.098 33.92 478.51 33.752 478.078 33.416C477.646 33.08 477.262 32.648 476.926 32.12C476.566 31.472 476.23 31.016 475.918 30.752C475.63 30.464 475.27 30.32 474.838 30.32C474.382 30.32 473.974 30.572 473.614 31.076C473.254 31.556 473.014 32.072 472.894 32.624C472.822 32.96 472.69 33.188 472.498 33.308C472.306 33.404 472.09 33.452 471.85 33.452C471.538 33.452 471.274 33.332 471.058 33.092C470.866 32.828 470.806 32.54 470.878 32.228C471.142 31.076 471.634 30.128 472.354 29.384C473.074 28.64 473.914 28.268 474.874 28.268C475.57 28.268 476.158 28.412 476.638 28.7C477.142 28.964 477.61 29.42 478.042 30.068C478.45 30.74 478.75 31.208 478.942 31.472C479.158 31.736 479.458 31.868 479.842 31.868C480.37 31.868 480.778 31.64 481.066 31.184C481.378 30.728 481.546 30.2 481.57 29.6C481.618 29.24 481.75 28.988 481.966 28.844C482.206 28.676 482.434 28.616 482.65 28.664C483.298 28.664 483.622 29.024 483.622 29.744C483.55 30.848 483.166 31.82 482.47 32.66C481.774 33.5 480.898 33.92 479.842 33.92Z" fill="black"/>
<path d="M396.76 82.24C397.453 82.24 398.12 82.2667 398.76 82.32C399.4 82.3733 400.04 82.4533 400.68 82.56C402.707 82.88 404.493 83.8133 406.04 85.36C407.32 86.7467 408.36 88.3467 409.16 90.16C410.013 91.92 410.68 93.7867 411.16 95.76C411.64 97.7333 411.987 99.76 412.2 101.84C412.413 103.867 412.573 105.84 412.68 107.76C412.787 110.213 412.813 112.667 412.76 115.12C412.707 117.573 412.547 120 412.28 122.4C412.013 124.907 411.613 127.44 411.08 130C410.6 132.507 409.693 134.773 408.36 136.8C407.24 138.507 405.853 139.92 404.2 141.04C402.547 142.107 400.813 142.827 399 143.2C397.347 143.52 395.667 143.573 393.96 143.36C392.253 143.147 390.627 142.587 389.08 141.68C387.64 140.827 386.413 139.76 385.4 138.48C384.44 137.2 383.587 135.707 382.84 134C381.773 131.44 381.16 128.8 381 126.08C380.787 123.84 380.627 121.6 380.52 119.36C380.467 117.12 380.44 114.88 380.44 112.64C380.44 109.653 380.6 106.667 380.92 103.68C381.027 102.453 381.133 101.253 381.24 100.08C381.347 98.8533 381.507 97.6533 381.72 96.48C381.933 95.52 382.12 94.6133 382.28 93.76C382.44 92.9067 382.733 92.0267 383.16 91.12C383.587 90.2133 384.04 89.36 384.52 88.56C385.053 87.76 385.667 87.04 386.36 86.4C387.533 85.2267 388.84 84.32 390.28 83.68C391.72 83.04 393.213 82.6133 394.76 82.4C395.08 82.3467 395.4 82.32 395.72 82.32C396.093 82.32 396.44 82.2933 396.76 82.24ZM435.56 139.52C435.453 140.16 435.373 140.8 435.32 141.44C435.267 142.027 435.133 142.64 434.92 143.28C434.813 143.493 434.733 143.68 434.68 143.84C434.627 144 434.547 144.187 434.44 144.4C434.067 145.147 433.587 145.733 433 146.16C431.773 146.907 430.413 147.093 428.92 146.72C428.067 146.56 427.373 146.24 426.84 145.76C426.36 145.333 425.987 144.773 425.72 144.08C425.507 143.44 425.32 142.8 425.16 142.16C425.053 141.52 425 140.96 425 140.48C425 140 425 139.733 425 139.68V91.28C425 90.64 425 89.9467 425 89.2C425 88.4533 425.053 87.7067 425.16 86.96C425.267 86.2133 425.427 85.52 425.64 84.88C425.853 84.24 426.147 83.7333 426.52 83.36C427.107 82.7733 427.72 82.4267 428.36 82.32C429 82.16 429.693 82.08 430.44 82.08C431.347 82.08 432.173 82.3467 432.92 82.88C433.72 83.36 434.28 84.0533 434.6 84.96C435.08 86.08 435.347 87.2533 435.4 88.48C435.453 89.7067 435.507 90.9333 435.56 92.16V92.56C435.667 96.6667 435.693 100.88 435.64 105.2C435.587 109.52 435.56 113.6 435.56 117.44V136.64C435.56 137.12 435.56 137.6 435.56 138.08C435.613 138.56 435.613 139.04 435.56 139.52ZM396.52 132.56C397.533 132.56 398.52 132.24 399.48 131.6C400.387 130.96 401.027 130.107 401.4 129.04C401.773 127.973 402.093 126.8 402.36 125.52C402.787 123.067 403.027 120.453 403.08 117.68C403.133 114.907 403.107 112.24 403 109.68C403 108.667 402.973 107.6 402.92 106.48C402.867 105.307 402.76 104.16 402.6 103.04C402.493 101.92 402.307 100.853 402.04 99.84C401.773 98.7733 401.4 97.84 400.92 97.04C400.387 96.1333 399.747 95.44 399 94.96C398.253 94.48 397.453 94.2933 396.6 94.4C395.693 94.5067 394.867 94.8267 394.12 95.36C393.373 95.8933 392.76 96.6933 392.28 97.76L391.56 99.44C391.24 100.453 391 101.52 390.84 102.64C390.68 103.707 390.547 104.773 390.44 105.84C390.333 106.907 390.253 108 390.2 109.12C390.147 110.24 390.12 111.333 390.12 112.4C390.173 113.467 390.147 114.507 390.04 115.52C389.987 116.533 390.013 117.573 390.12 118.64C390.227 120.027 390.36 121.52 390.52 123.12C390.733 124.72 391.053 126.24 391.48 127.68C391.907 129.067 392.52 130.24 393.32 131.2C394.12 132.107 395.187 132.56 396.52 132.56ZM502.43 136.8C502.483 138.24 502.403 139.707 502.19 141.2C501.977 142.693 501.283 143.84 500.11 144.64C499.203 145.173 498.403 145.44 497.71 145.44C496.803 145.44 496.057 145.12 495.47 144.48C494.937 143.84 494.51 143.067 494.19 142.16C493.923 141.253 493.737 140.32 493.63 139.36C493.577 138.347 493.55 137.467 493.55 136.72V117.84H488.35V137.2C488.457 138.427 488.403 139.707 488.19 141.04C488.03 142.32 487.683 143.333 487.15 144.08C486.51 144.987 485.577 145.44 484.35 145.44C483.763 145.44 483.203 145.307 482.67 145.04C482.19 144.773 481.737 144.427 481.31 144C480.403 143.093 479.87 142 479.71 140.72C479.55 139.44 479.47 138.187 479.47 136.96V90.4C479.47 89.6533 479.497 88.8533 479.55 88C479.603 87.0933 479.763 86.24 480.03 85.44C480.297 84.64 480.67 83.9467 481.15 83.36C481.683 82.72 482.403 82.2933 483.31 82.08C484.537 81.8133 485.523 82.1067 486.27 82.96C486.857 83.5467 487.283 84.3733 487.55 85.44C487.87 86.5067 488.083 87.68 488.19 88.96C488.297 90.1867 488.35 91.4933 488.35 92.88C488.35 94.2133 488.35 95.4667 488.35 96.64V108.16H493.55V91.12C493.55 90.3733 493.55 89.52 493.55 88.56C493.55 87.5467 493.63 86.5867 493.79 85.68C494.003 84.72 494.377 83.92 494.91 83.28C495.497 82.5867 496.35 82.1867 497.47 82.08C498.643 81.9733 499.577 82.32 500.27 83.12C500.91 83.76 501.39 84.6133 501.71 85.68C502.03 86.7467 502.243 87.8933 502.35 89.12C502.457 90.3467 502.51 91.5733 502.51 92.8C502.51 93.9733 502.483 94.9867 502.43 95.84V136.8ZM455.31 142.24C455.203 142.24 454.99 142.267 454.67 142.32C454.403 142.32 454.03 142.32 453.55 142.32C452.963 142.32 452.297 142.293 451.55 142.24C450.803 142.133 450.057 141.947 449.31 141.68C448.563 141.36 447.87 140.96 447.23 140.48C446.643 139.947 446.19 139.253 445.87 138.4C445.55 137.6 445.337 136.64 445.23 135.52C445.123 134.4 445.043 133.307 444.99 132.24C444.937 131.12 444.937 130.16 444.99 129.36C445.043 128.56 445.07 128.08 445.07 127.92L444.99 116.16C444.99 115.893 445.017 115.307 445.07 114.4C445.123 113.44 445.31 112.64 445.63 112C445.897 111.467 446.217 111.013 446.59 110.64C446.963 110.267 447.203 110.053 447.31 110L447.55 109.76L460.35 109.68H460.59C460.91 109.68 461.337 109.6 461.87 109.44C462.403 109.28 462.697 108.907 462.75 108.32C462.857 107.84 462.883 107.36 462.83 106.88C462.83 106.4 462.803 105.92 462.75 105.44C462.75 105.333 462.723 104.96 462.67 104.32C462.67 103.627 462.67 102.853 462.67 102C462.67 101.147 462.67 100.293 462.67 99.44C462.67 98.5867 462.67 97.8933 462.67 97.36C462.67 95.92 462.537 94.96 462.27 94.48C462.003 94 461.337 93.76 460.27 93.76L449.79 93.84C449.417 93.84 448.777 93.76 447.87 93.6C447.017 93.44 446.297 93.04 445.71 92.4C445.39 91.92 445.123 91.4667 444.91 91.04C444.75 90.56 444.67 90.0267 444.67 89.44C444.723 89.12 444.803 88.6667 444.91 88.08C445.07 87.44 445.337 86.96 445.71 86.64C446.083 86.2667 446.457 85.9467 446.83 85.68C447.203 85.36 447.63 85.1467 448.11 85.04C448.537 84.9333 448.883 84.88 449.15 84.88C449.47 84.88 449.79 84.8533 450.11 84.8H450.99C451.257 84.7467 451.603 84.72 452.03 84.72C452.457 84.6667 452.963 84.64 453.55 84.64C453.977 84.64 454.403 84.6667 454.83 84.72C455.31 84.72 455.737 84.72 456.11 84.72H457.23L464.83 84.64H466.03C466.937 84.64 467.923 84.8267 468.99 85.2C470.057 85.5733 470.937 86.4 471.63 87.68C471.843 88.1067 472.003 88.5867 472.11 89.12C472.217 89.6533 472.297 90.2133 472.35 90.8C472.403 91.3333 472.43 91.8133 472.43 92.24C472.43 92.6667 472.43 92.96 472.43 93.12L472.35 108.8C472.403 109.12 472.457 109.707 472.51 110.56C472.617 111.413 472.59 112.347 472.43 113.36C472.323 114.32 472.057 115.28 471.63 116.24C471.257 117.147 470.617 117.813 469.71 118.24C469.123 118.507 468.43 118.667 467.63 118.72C466.883 118.773 466.217 118.827 465.63 118.88H464.35C463.977 118.933 463.577 118.96 463.15 118.96C462.777 118.96 462.377 118.96 461.95 118.96C461.577 118.96 461.07 118.96 460.43 118.96C459.843 118.96 459.23 118.96 458.59 118.96C457.95 118.96 457.363 118.96 456.83 118.96C456.35 118.96 456.057 118.96 455.95 118.96L455.31 119.2L455.15 123.84C455.15 124 455.15 124.4 455.15 125.04C455.15 125.68 455.15 126.373 455.15 127.12C455.203 127.867 455.23 128.56 455.23 129.2C455.283 129.787 455.31 130.133 455.31 130.24C455.31 131.36 455.363 132.027 455.47 132.24C455.577 132.4 455.763 132.48 456.03 132.48H456.19L468.19 132.32C469.097 132.32 470.057 132.4 471.07 132.56C472.137 132.667 473.043 133.173 473.79 134.08C473.897 134.187 474.003 134.427 474.11 134.8C474.217 135.12 474.297 135.973 474.35 137.36C474.403 138.64 474.19 139.493 473.71 139.92C473.23 140.293 472.59 140.72 471.79 141.2C471.363 141.467 470.563 141.68 469.39 141.84C468.27 141.947 467.203 142.027 466.19 142.08L455.31 142.24ZM533.716 132.08L533.636 121.36C532.25 121.307 530.97 121.28 529.796 121.28C528.623 121.28 527.263 121.28 525.716 121.28C524.49 121.28 523.21 121.253 521.876 121.2C520.596 121.093 519.396 120.88 518.276 120.56C517.37 120.293 516.543 119.813 515.796 119.12C515.103 118.427 514.543 117.627 514.116 116.72C513.85 116.133 513.663 115.44 513.556 114.64C513.45 113.84 513.37 113.067 513.316 112.32C513.263 111.52 513.236 110.853 513.236 110.32C513.29 109.733 513.316 109.413 513.316 109.36V94.8C513.316 94.6933 513.29 94.3467 513.236 93.76C513.236 93.1733 513.263 92.5067 513.316 91.76C513.423 90.96 513.556 90.16 513.716 89.36C513.876 88.5067 514.17 87.76 514.596 87.12C515.29 86.0533 516.356 85.36 517.796 85.04C519.236 84.72 520.703 84.56 522.196 84.56H555.716C555.77 84.56 556.17 84.5867 556.916 84.64C557.663 84.64 558.49 84.72 559.396 84.88C560.303 85.04 561.156 85.3333 561.956 85.76C562.81 86.1867 563.37 86.8267 563.636 87.68C563.743 88 563.796 88.4 563.796 88.88C563.85 89.3067 563.876 89.76 563.876 90.24C563.876 90.72 563.823 91.1733 563.716 91.6C563.663 92.0267 563.583 92.3467 563.476 92.56C563.05 93.3067 562.383 93.7867 561.476 94C560.676 94.2133 559.21 94.32 557.076 94.32H528.116C526.89 94.32 525.956 94.5333 525.316 94.96C524.73 95.3867 524.276 95.8933 523.956 96.48C523.69 97.0133 523.556 97.5733 523.556 98.16C523.556 98.6933 523.556 99.0933 523.556 99.36L523.876 106.64C523.93 107.173 523.983 107.813 524.036 108.56C524.143 109.307 524.383 109.84 524.756 110.16C525.29 110.693 525.956 110.987 526.756 111.04C527.61 111.04 528.516 111.04 529.476 111.04L556.676 110.96C559.29 110.96 561.476 111.36 563.236 112.16C563.77 112.427 564.223 112.88 564.596 113.52C564.97 114.107 565.21 114.693 565.316 115.28C565.476 115.867 565.476 116.453 565.316 117.04C565.21 117.573 564.97 118.053 564.596 118.48C563.21 120.293 561.236 121.227 558.676 121.28C556.276 121.387 553.903 121.467 551.556 121.52C549.263 121.52 546.89 121.493 544.436 121.44L544.516 132.08H564.596C565.503 132.187 566.33 132.347 567.076 132.56C567.876 132.773 568.65 133.2 569.396 133.84C570.143 134.587 570.516 135.52 570.516 136.64C570.516 137.227 570.41 137.867 570.196 138.56C570.036 139.2 569.796 139.707 569.476 140.08C569.05 140.507 568.516 140.827 567.876 141.04C567.236 141.253 566.623 141.413 566.036 141.52C565.45 141.573 564.916 141.6 564.436 141.6C564.01 141.6 563.77 141.6 563.716 141.6C556.196 141.6 549.823 141.6 544.596 141.6C539.37 141.6 535.05 141.6 531.636 141.6C528.276 141.6 525.636 141.6 523.716 141.6C521.85 141.547 520.436 141.52 519.476 141.52C518.57 141.52 518.01 141.52 517.796 141.52C517.583 141.52 517.423 141.52 517.316 141.52C516.196 141.52 514.996 141.493 513.716 141.44C512.436 141.387 511.343 140.987 510.436 140.24C509.316 139.227 508.756 138.133 508.756 136.96C508.756 136.16 508.996 135.333 509.476 134.48C509.956 133.627 510.596 133.04 511.396 132.72C512.463 132.293 513.556 132.08 514.676 132.08C515.85 132.08 517.023 132.053 518.196 132L533.716 132.08ZM624.459 84.88C627.659 86.5867 629.926 88.9333 631.259 91.92C632.646 94.9067 633.179 98.48 632.859 102.64C632.539 107.973 631.019 111.947 628.299 114.56C625.633 117.173 621.526 118.48 615.979 118.48C614.539 118.48 613.206 118.507 611.979 118.56C610.806 118.56 609.686 118.48 608.619 118.32C607.553 118.16 606.459 117.893 605.339 117.52C604.219 117.093 603.019 116.453 601.739 115.6C599.233 113.947 597.499 111.787 596.539 109.12C595.633 106.453 595.179 103.707 595.179 100.88C595.179 98.0533 595.686 95.4133 596.699 92.96C597.713 90.4533 599.366 88.32 601.659 86.56C603.526 85.0667 605.606 83.9733 607.899 83.28C610.246 82.5867 612.593 82.3467 614.939 82.56C616.006 82.6667 616.913 82.7733 617.659 82.88C618.459 82.9333 619.206 83.04 619.899 83.2C620.593 83.36 621.286 83.5733 621.979 83.84C622.673 84.1067 623.499 84.4533 624.459 84.88ZM609.979 146.96C607.793 146.96 606.033 146.48 604.699 145.52C603.366 144.613 602.699 143.547 602.699 142.32V130.8C602.593 129.627 602.593 128.427 602.699 127.2C602.806 126.08 603.233 125.173 603.979 124.48C604.779 123.787 605.793 123.44 607.019 123.44C607.286 123.44 607.766 123.467 608.459 123.52C609.153 123.52 609.633 123.573 609.899 123.68C610.593 123.893 611.126 124.213 611.499 124.64C611.926 125.067 612.246 125.573 612.459 126.16C612.673 126.693 612.806 127.28 612.859 127.92C612.913 128.507 612.966 129.093 613.019 129.68C613.019 129.893 613.019 130.4 613.019 131.2C613.073 131.947 613.099 132.773 613.099 133.68C613.153 134.533 613.179 135.333 613.179 136.08C613.233 136.827 613.286 137.28 613.339 137.44C612.859 137.547 613.259 137.627 614.539 137.68C615.873 137.733 618.006 137.787 620.939 137.84C623.926 137.893 627.659 137.92 632.139 137.92C636.673 137.92 641.873 137.893 647.739 137.84H647.819C647.819 137.84 647.979 137.893 648.299 138C648.673 138.107 649.073 138.293 649.499 138.56C649.926 138.773 650.326 139.093 650.699 139.52C651.073 139.893 651.313 140.347 651.419 140.88C651.633 142.8 651.286 144.293 650.379 145.36C649.739 146.107 649.046 146.56 648.299 146.72C647.553 146.88 647.153 146.96 647.099 146.96H609.979ZM650.379 107.04V118.4C650.379 119.307 650.219 120.293 649.899 121.36C649.579 122.373 648.913 123.12 647.899 123.6C647.046 124.187 646.139 124.48 645.179 124.48C644.219 124.48 643.366 124.267 642.619 123.84C642.033 123.52 641.579 123.12 641.259 122.64C640.939 122.16 640.673 121.707 640.459 121.28C640.299 120.853 640.193 120.48 640.139 120.16C640.086 119.787 640.059 119.6 640.059 119.6V88.96C640.059 88.6933 640.086 88.08 640.139 87.12C640.246 86.16 640.459 85.36 640.779 84.72C641.366 83.6 642.513 82.96 644.219 82.8C645.126 82.6933 646.006 82.7467 646.859 82.96C647.766 83.1733 648.459 83.52 648.939 84C649.526 84.7467 649.899 85.5733 650.059 86.48C650.273 87.3867 650.379 88.32 650.379 89.28V98.08C650.593 98.08 650.993 98.1067 651.579 98.16C652.166 98.2133 652.779 98.2667 653.419 98.32C654.059 98.32 654.646 98.3467 655.179 98.4C655.766 98.4533 656.166 98.5067 656.379 98.56C657.446 98.7733 658.219 99.0933 658.699 99.52C659.179 99.8933 659.499 100.373 659.659 100.96C659.766 101.547 659.819 102.24 659.819 103.04C659.819 103.787 659.659 104.427 659.339 104.96C658.646 106.027 657.846 106.64 656.939 106.8C656.033 106.96 654.779 107.04 653.179 107.04H650.379ZM623.339 103.52C623.339 102.347 623.286 101.253 623.179 100.24C623.073 99.1733 622.833 98.2133 622.459 97.36C622.139 96.4533 621.633 95.6533 620.939 94.96C620.246 94.2667 619.339 93.7067 618.219 93.28C616.993 92.8533 615.659 92.64 614.219 92.64C612.779 92.64 611.419 92.9067 610.139 93.44C608.859 93.92 607.739 94.6933 606.779 95.76C605.819 96.7733 605.206 98.1067 604.939 99.76C604.779 100.88 604.779 102.027 604.939 103.2C605.153 104.32 605.553 105.36 606.139 106.32C606.779 107.227 607.633 108 608.699 108.64C609.819 109.28 611.206 109.68 612.859 109.84C613.979 109.947 615.099 109.947 616.219 109.84C617.339 109.68 618.379 109.36 619.339 108.88C620.299 108.4 621.126 107.733 621.819 106.88C622.513 105.973 623.019 104.853 623.339 103.52ZM715.091 140.96C715.944 141.067 716.691 141.28 717.331 141.6C717.971 141.92 718.424 142.507 718.691 143.36C719.331 145.28 718.637 146.64 716.611 147.44C715.971 147.707 715.331 147.867 714.691 147.92C714.051 147.973 713.437 148 712.851 148H675.651C674.584 148 673.464 147.973 672.291 147.92C671.171 147.92 670.024 147.893 668.851 147.84C667.731 147.787 666.797 147.387 666.051 146.64C665.304 145.893 664.877 144.907 664.771 143.68L664.531 138.08C664.477 137.493 664.477 136.8 664.531 136C664.584 135.2 664.851 134.533 665.331 134C666.077 133.2 667.064 132.693 668.291 132.48C669.571 132.267 670.797 132.16 671.971 132.16C672.717 132.16 673.944 132.16 675.651 132.16C677.411 132.16 679.784 132.187 682.771 132.24C685.757 132.24 689.437 132.24 693.811 132.24C698.237 132.24 703.491 132.24 709.571 132.24V129.36H670.211C669.677 129.36 669.197 129.36 668.771 129.36C668.344 129.36 667.917 129.307 667.491 129.2C667.011 129.093 666.584 128.987 666.211 128.88C665.837 128.773 665.517 128.507 665.251 128.08C664.504 126.96 664.317 125.813 664.691 124.64C664.851 124.213 665.091 123.893 665.411 123.68C665.731 123.413 666.104 123.2 666.531 123.04C666.957 122.88 667.357 122.773 667.731 122.72C668.157 122.667 668.531 122.613 668.851 122.56C669.651 122.4 670.477 122.32 671.331 122.32C672.131 122.32 672.984 122.32 673.891 122.32C674.797 122.32 675.891 122.32 677.171 122.32C678.504 122.32 680.077 122.347 681.891 122.4C683.704 122.4 685.917 122.4 688.531 122.4C691.197 122.4 694.291 122.4 697.811 122.4C701.384 122.4 705.571 122.4 710.371 122.4C713.091 122.4 715.171 122.827 716.611 123.68C718.051 124.48 718.771 125.813 718.771 127.68V133.36C718.771 134.107 718.584 134.853 718.211 135.6C717.891 136.293 717.304 136.88 716.451 137.36C715.757 137.787 715.064 138.027 714.371 138.08C713.677 138.08 712.984 138.08 712.291 138.08H674.371V140.96H715.091ZM710.451 85.68C710.504 86.5867 710.504 87.3067 710.451 87.84C710.451 88.3733 710.504 88.8533 710.611 89.28C710.717 89.76 710.904 90.2933 711.171 90.88C711.437 91.4133 711.917 92.1333 712.611 93.04C713.464 94.1067 714.184 95.0133 714.771 95.76C715.411 96.4533 716.131 97.3867 716.931 98.56C717.091 98.7733 717.251 98.9867 717.411 99.2C717.624 99.4133 717.811 99.6267 717.971 99.84C718.237 100.267 718.477 100.747 718.691 101.28C718.904 101.813 719.011 102.373 719.011 102.96C719.064 103.493 718.984 104.053 718.771 104.64C718.557 105.173 718.131 105.627 717.491 106C716.904 106.267 715.971 106.373 714.691 106.32C713.464 106.267 712.291 105.787 711.171 104.88C709.731 103.813 708.477 102.747 707.411 101.68C706.397 100.56 705.224 99.2533 703.891 97.76C702.984 98.6667 702.051 99.5733 701.091 100.48C700.184 101.333 699.224 102.213 698.211 103.12C697.677 103.547 697.171 103.973 696.691 104.4C696.264 104.827 695.677 105.173 694.931 105.44C693.437 106.027 692.051 106.16 690.771 105.84C690.664 105.787 690.557 105.76 690.451 105.76C690.344 105.707 690.237 105.653 690.131 105.6C689.171 105.227 688.157 104.56 687.091 103.6C685.971 102.587 684.877 101.52 683.811 100.4C682.797 99.2267 682.077 98.3467 681.651 97.76C680.744 98.6133 679.811 99.4933 678.851 100.4C677.891 101.307 676.931 102.187 675.971 103.04C675.277 103.627 674.504 104.32 673.651 105.12C672.851 105.92 671.731 106.373 670.291 106.48C669.224 106.587 668.397 106.453 667.811 106.08C667.224 105.707 666.637 105.28 666.051 104.8C665.411 104.267 665.091 103.733 665.091 103.2C665.091 102.667 665.251 102.133 665.571 101.6C665.944 101.013 666.397 100.48 666.931 100C667.464 99.4667 667.944 98.9867 668.371 98.56L673.331 92.96C673.811 92.2133 674.237 91.6533 674.611 91.28C674.984 90.8533 675.304 90.4267 675.571 90C675.837 89.5733 676.024 89.1467 676.131 88.72C676.237 88.2933 676.291 87.7067 676.291 86.96V85.36C676.291 85.04 676.344 84.6933 676.451 84.32C676.611 83.9467 676.797 83.6267 677.011 83.36C677.224 82.9333 677.624 82.48 678.211 82C678.477 81.7333 678.904 81.5467 679.491 81.44C680.077 81.28 680.664 81.1467 681.251 81.04H681.411C681.944 80.9333 682.424 80.9067 682.851 80.96C683.331 81.0133 683.784 81.0933 684.211 81.2C684.637 81.3067 685.171 81.5467 685.811 81.92C686.504 82.24 686.957 82.5333 687.171 82.8C687.704 83.44 688.051 84.2667 688.211 85.28C688.211 86.08 688.184 86.8 688.131 87.44C688.077 88.08 688.077 88.6933 688.131 89.28C688.184 89.8667 688.317 90.4533 688.531 91.04C688.744 91.6267 689.144 92.2133 689.731 92.8L692.531 96.72C693.117 96.1867 693.651 95.68 694.131 95.2C694.611 94.72 695.117 94.1067 695.651 93.36C696.131 92.6133 696.557 91.9467 696.931 91.36C697.304 90.72 697.624 90.1067 697.891 89.52C698.371 88.4 698.611 87.3867 698.611 86.48C698.664 86.1067 698.744 85.5733 698.851 84.88C698.957 84.1867 699.117 83.68 699.331 83.36C699.544 82.9867 699.917 82.5333 700.451 82C700.717 81.7867 701.144 81.6267 701.731 81.52C702.317 81.36 702.904 81.2267 703.491 81.12H703.651C704.184 81.0133 704.637 80.9867 705.011 81.04C705.384 81.04 705.811 81.0933 706.291 81.2C706.824 81.3067 707.251 81.4667 707.571 81.68C707.837 81.7867 708.157 81.9733 708.531 82.24C708.957 82.4533 709.277 82.6933 709.491 82.96C709.757 83.28 709.944 83.7067 710.051 84.24C710.211 84.7733 710.344 85.2533 710.451 85.68ZM667.971 109.28C668.397 109.227 668.877 109.2 669.411 109.2C669.944 109.147 670.504 109.12 671.091 109.12H673.091H690.691C693.517 109.067 696.291 109.04 699.011 109.04C701.304 109.04 703.704 109.04 706.211 109.04C708.717 109.04 710.877 109.067 712.691 109.12H713.091C714.157 109.173 715.224 109.2 716.291 109.2C717.357 109.2 718.424 109.413 719.491 109.84C720.237 110.107 720.824 110.56 721.251 111.2C721.731 111.84 721.971 112.56 721.971 113.36C721.971 114.693 721.437 115.813 720.371 116.72C719.517 117.467 718.477 117.893 717.251 118C716.024 118.107 714.877 118.107 713.811 118H667.891C667.837 118 667.597 118 667.171 118C666.744 118 666.237 117.947 665.651 117.84C665.117 117.733 664.531 117.573 663.891 117.36C663.304 117.147 662.824 116.827 662.451 116.4C661.811 115.76 661.491 114.853 661.491 113.68C661.491 112.56 661.837 111.653 662.531 110.96C663.224 110.267 663.944 109.867 664.691 109.76C665.437 109.6 666.211 109.467 667.011 109.36C667.171 109.36 667.331 109.36 667.491 109.36C667.651 109.307 667.811 109.28 667.971 109.28ZM774.443 117.76C774.176 117.76 773.589 117.733 772.683 117.68C771.776 117.627 771.109 117.6 770.683 117.6C770.149 117.6 769.643 117.6 769.163 117.6C768.736 117.547 768.309 117.467 767.883 117.36C767.456 117.36 767.029 117.307 766.603 117.2C766.229 117.093 765.829 116.96 765.403 116.8C764.709 116.427 764.149 115.973 763.723 115.44C763.456 115.067 763.216 114.72 763.003 114.4C762.843 114.08 762.763 113.707 762.763 113.28C762.656 112.64 762.683 111.893 762.843 111.04C763.056 110.187 763.349 109.547 763.723 109.12C763.883 108.853 764.016 108.64 764.123 108.48C764.283 108.32 764.469 108.133 764.682 107.92C765.003 107.653 765.349 107.467 765.723 107.36C766.096 107.2 766.443 107.067 766.763 106.96C767.349 106.853 767.883 106.8 768.363 106.8C768.896 106.8 769.403 106.8 769.883 106.8H774.603V101.04C774.603 100.4 774.576 99.8133 774.523 99.28C774.469 98.7467 774.443 98.1867 774.443 97.6C774.443 96.32 774.443 95.0667 774.443 93.84C774.443 92.56 774.496 91.28 774.603 90C774.603 89.2 774.656 88.3733 774.763 87.52C774.923 86.6667 775.136 85.8667 775.403 85.12C775.616 84.48 775.989 83.8667 776.523 83.28C777.216 82.64 778.016 82.32 778.923 82.32H779.083C780.203 82.32 781.109 82.5333 781.803 82.96C782.496 83.3333 783.056 83.8667 783.483 84.56C783.963 85.2 784.283 85.9467 784.443 86.8C784.656 87.6533 784.789 88.5067 784.843 89.36C785.003 90.7467 785.083 92.1867 785.083 93.68C785.083 95.1733 785.083 96.64 785.083 98.08V133.2C785.083 135.013 785.109 136.88 785.163 138.8C785.216 140.667 784.949 142.453 784.363 144.16C784.096 144.853 783.749 145.413 783.323 145.84C783.163 145.947 782.923 146.08 782.603 146.24C782.283 146.4 781.963 146.533 781.643 146.64C781.323 146.747 781.003 146.827 780.683 146.88C780.416 146.933 780.149 146.96 779.883 146.96C778.656 146.96 777.669 146.587 776.923 145.84C776.229 145.147 775.696 144.293 775.323 143.28C774.949 142.213 774.709 141.12 774.603 140C774.496 138.88 774.443 137.893 774.443 137.04V134.16C774.443 133.2 774.443 132.133 774.443 130.96C774.443 129.733 774.443 128.507 774.443 127.28C774.496 126 774.523 124.773 774.523 123.6C774.523 122.373 774.496 121.253 774.443 120.24V117.76ZM746.843 132.72C746.789 132.08 746.763 131.44 746.763 130.8C746.763 130.16 746.763 129.52 746.763 128.88V103.44C746.763 102.587 746.763 101.733 746.763 100.88C746.763 100.027 746.709 99.1467 746.603 98.24C746.549 97.9733 746.469 97.6 746.363 97.12C746.309 96.64 746.149 96.3467 745.883 96.24C745.616 96.08 745.296 96.0267 744.923 96.08C744.603 96.08 744.283 96.0533 743.963 96C743.589 95.9467 743.216 95.9467 742.843 96C742.523 96.0533 742.176 96.0533 741.803 96H738.043C737.136 96.0533 736.229 96.0533 735.322 96C734.416 95.9467 733.509 95.9467 732.603 96C732.176 96.0533 731.776 96.08 731.403 96.08C731.083 96.0267 730.709 96 730.283 96C729.696 96 729.083 95.9733 728.443 95.92C727.803 95.8667 727.216 95.6533 726.683 95.28C725.936 94.7467 725.429 94.08 725.163 93.28C724.896 92.48 724.763 91.6533 724.763 90.8C724.709 89.7867 724.923 88.7733 725.403 87.76C725.669 87.12 726.016 86.6667 726.443 86.4C726.709 86.1333 727.083 85.92 727.563 85.76C728.096 85.5467 728.549 85.3867 728.923 85.28C730.043 85.0133 731.216 84.88 732.443 84.88C733.669 84.8267 734.869 84.8 736.043 84.8H749.963C750.656 84.9067 751.376 85.0133 752.123 85.12C752.923 85.1733 753.643 85.3333 754.283 85.6C754.709 85.76 755.109 85.9733 755.483 86.24C755.909 86.5067 756.256 86.8267 756.523 87.2C757.003 87.9467 757.269 88.6933 757.323 89.44C757.429 90.1867 757.536 91.0133 757.643 91.92C757.749 93.4133 757.803 94.9067 757.803 96.4C757.803 97.84 757.803 99.3067 757.803 100.8V127.04C757.803 127.093 757.803 127.52 757.803 128.32C757.856 129.067 757.883 129.973 757.883 131.04C757.883 132.053 757.883 133.147 757.883 134.32C757.883 135.44 757.856 136.427 757.803 137.28C757.749 137.813 757.669 138.373 757.563 138.96C757.456 139.547 757.269 140.107 757.003 140.64C756.789 141.173 756.469 141.653 756.043 142.08C755.616 142.507 755.056 142.853 754.363 143.12C753.456 143.493 752.549 143.68 751.643 143.68C750.949 143.68 750.256 143.547 749.563 143.28C748.869 142.96 748.389 142.507 748.123 141.92C747.269 140.213 746.843 138.32 746.843 136.24V132.72ZM847.409 119.12C847.675 119.173 848.102 119.227 848.689 119.28C849.275 119.333 849.729 119.387 850.049 119.44C850.635 119.547 851.222 119.76 851.809 120.08C852.395 120.347 852.822 120.773 853.089 121.36C853.462 121.947 853.649 122.64 853.649 123.44C853.649 123.867 853.622 124.24 853.569 124.56C853.569 124.827 853.515 125.173 853.409 125.6C853.302 126.027 853.169 126.48 853.009 126.96C852.902 127.44 852.662 127.813 852.289 128.08C851.542 128.613 850.822 128.96 850.129 129.12C849.382 129.227 848.555 129.28 847.649 129.28C846.795 129.28 845.969 129.253 845.169 129.2C845.169 130.213 845.142 131.173 845.089 132.08C845.089 132.987 845.089 133.813 845.089 134.56V136.96C845.089 137.653 845.089 138.427 845.089 139.28C845.089 140.08 845.009 140.88 844.849 141.68C844.742 142.48 844.555 143.253 844.289 144C844.075 144.693 843.729 145.28 843.249 145.76C842.609 146.507 841.755 146.88 840.689 146.88C840.689 146.88 840.635 146.853 840.529 146.8C839.249 146.747 838.209 146.373 837.409 145.68C836.662 144.987 836.075 144.133 835.649 143.12C835.275 142.107 835.035 141.067 834.929 140C834.822 138.88 834.769 137.893 834.769 137.04V89.52C834.769 89.4667 834.769 89.2267 834.769 88.8C834.769 88.32 834.822 87.7867 834.929 87.2C835.035 86.56 835.195 85.92 835.409 85.28C835.675 84.5867 836.022 84.0267 836.449 83.6C836.822 83.2267 837.355 82.96 838.049 82.8C838.795 82.5867 839.462 82.48 840.049 82.48C841.222 82.48 842.209 82.88 843.009 83.68C843.755 84.4267 844.209 85.2267 844.369 86.08C844.529 86.88 844.662 87.7333 844.769 88.64C844.982 89.5467 845.089 90.64 845.089 91.92C845.089 93.2 845.115 94.32 845.169 95.28V98.08C845.755 98.08 846.262 98.1067 846.689 98.16C847.115 98.16 847.355 98.16 847.409 98.16C847.675 98.2133 848.102 98.2667 848.689 98.32C849.275 98.3733 849.729 98.4267 850.049 98.48C850.635 98.5867 851.222 98.8 851.809 99.12C852.395 99.3867 852.822 99.8133 853.089 100.4C853.462 100.987 853.649 101.68 853.649 102.48C853.649 102.907 853.622 103.333 853.569 103.76C853.569 104.133 853.515 104.533 853.409 104.96C853.302 105.387 853.169 105.787 853.009 106.16C852.902 106.533 852.662 106.853 852.289 107.12C851.542 107.653 850.822 108 850.129 108.16C849.382 108.267 848.555 108.32 847.649 108.32C846.795 108.32 845.969 108.293 845.169 108.24V119.04C845.755 119.04 846.262 119.067 846.689 119.12C847.115 119.12 847.355 119.12 847.409 119.12ZM809.089 82.24C809.782 82.24 810.449 82.2667 811.089 82.32C811.729 82.3733 812.369 82.4533 813.009 82.56C815.035 82.88 816.822 83.8133 818.369 85.36C819.649 86.7467 820.689 88.3467 821.489 90.16C822.289 91.92 822.902 93.7867 823.329 95.76C823.809 97.7333 824.129 99.76 824.289 101.84C824.449 103.867 824.582 105.84 824.689 107.76C824.795 110.213 824.822 112.667 824.769 115.12C824.769 117.573 824.635 120 824.369 122.4C824.102 124.907 823.702 127.44 823.169 130C822.689 132.507 821.782 134.773 820.449 136.8C819.329 138.507 817.969 139.92 816.369 141.04C814.822 142.107 813.142 142.827 811.329 143.2C809.675 143.52 807.995 143.573 806.289 143.36C804.582 143.147 802.955 142.587 801.409 141.68C799.969 140.827 798.795 139.76 797.889 138.48C797.035 137.2 796.235 135.707 795.489 134C794.422 131.44 793.809 128.8 793.649 126.08C793.435 123.84 793.275 121.6 793.169 119.36C793.115 117.12 793.089 114.88 793.089 112.64C793.089 109.653 793.249 106.667 793.569 103.68C793.675 102.453 793.782 101.253 793.889 100.08C793.995 98.8533 794.155 97.6533 794.369 96.48C794.582 95.52 794.769 94.6133 794.929 93.76C795.089 92.9067 795.382 92.0267 795.809 91.12C796.235 90.2133 796.689 89.36 797.169 88.56C797.702 87.76 798.315 87.04 799.009 86.4C801.249 84.16 803.942 82.8267 807.089 82.4C807.409 82.3467 807.729 82.32 808.049 82.32C808.422 82.32 808.769 82.2933 809.089 82.24ZM808.849 132.56C809.862 132.56 810.849 132.24 811.809 131.6C812.715 130.96 813.355 130.107 813.729 129.04C814.102 127.973 814.422 126.8 814.689 125.52C815.115 123.067 815.355 120.453 815.409 117.68C815.462 114.907 815.435 112.24 815.329 109.68C815.329 108.667 815.302 107.6 815.249 106.48C815.195 105.307 815.089 104.16 814.929 103.04C814.822 101.92 814.635 100.853 814.369 99.84C814.102 98.7733 813.729 97.84 813.249 97.04C812.715 96.1333 812.075 95.44 811.329 94.96C810.582 94.48 809.782 94.2933 808.929 94.4C808.022 94.5067 807.169 94.8267 806.369 95.36C805.622 95.8933 805.009 96.6933 804.529 97.76L803.809 99.44C803.489 100.453 803.249 101.52 803.089 102.64C802.929 103.707 802.795 104.773 802.689 105.84C802.582 106.907 802.502 108 802.449 109.12C802.395 110.24 802.369 111.333 802.369 112.4C802.422 113.467 802.395 114.507 802.289 115.52C802.235 116.533 802.262 117.573 802.369 118.64C802.475 120.027 802.609 121.52 802.769 123.12C802.982 124.72 803.302 126.24 803.729 127.68C804.209 129.067 804.849 130.24 805.649 131.2C806.449 132.107 807.515 132.56 808.849 132.56ZM860.011 102C859.797 100.613 859.691 99.2 859.691 97.76C859.744 96.32 860.011 94.9067 860.491 93.52C861.077 91.7067 862.037 90.1067 863.371 88.72C864.704 87.3333 866.224 86.24 867.931 85.44C869.744 84.5867 871.584 84 873.451 83.68C875.371 83.3067 877.237 83.2267 879.051 83.44C880.917 83.6533 882.704 84.1333 884.411 84.88C886.171 85.5733 887.824 86.5867 889.371 87.92C891.024 89.36 892.251 91.04 893.051 92.96C893.904 94.8267 894.357 96.7733 894.411 98.8C894.517 100.827 894.277 102.853 893.691 104.88C893.157 106.853 892.331 108.693 891.211 110.4C891.211 110.4 891.184 110.453 891.131 110.56C890.224 111.787 889.184 112.907 888.011 113.92C886.837 114.88 885.744 115.92 884.731 117.04C883.557 118.267 882.864 119.52 882.651 120.8C882.437 122.027 882.224 123.413 882.011 124.96C881.851 126.453 881.451 127.76 880.811 128.88C880.224 129.947 879.104 130.453 877.451 130.4C876.331 130.347 875.477 130 874.891 129.36C874.357 128.667 873.957 127.867 873.691 126.96C873.477 126 873.397 125.013 873.451 124C873.504 122.933 873.584 122 873.691 121.2C874.011 119.333 874.597 117.573 875.451 115.92C876.304 114.213 877.344 112.613 878.571 111.12C879.264 110.32 879.957 109.6 880.651 108.96C881.344 108.267 881.984 107.547 882.571 106.8C883.157 106.053 883.664 105.253 884.091 104.4C884.517 103.547 884.811 102.56 884.971 101.44C885.131 100.427 885.051 99.4133 884.731 98.4C884.411 97.3333 883.931 96.4 883.291 95.6C882.651 94.7467 881.877 94.0533 880.971 93.52C880.064 92.9333 879.077 92.6133 878.011 92.56C877.051 92.5067 876.037 92.64 874.971 92.96C873.904 93.2267 872.917 93.68 872.011 94.32C871.104 94.9067 870.357 95.6267 869.771 96.48C869.237 97.3333 868.997 98.2933 869.051 99.36C869.104 100 869.211 100.667 869.371 101.36C869.584 102 869.717 102.64 869.771 103.28C869.877 103.867 869.851 104.453 869.691 105.04C869.584 105.627 869.237 106.187 868.651 106.72C867.691 107.627 866.731 108.08 865.771 108.08C864.811 108.027 863.931 107.707 863.131 107.12C862.331 106.533 861.637 105.787 861.051 104.88C860.517 103.92 860.171 102.96 860.011 102ZM883.051 141.92C883.051 143.467 882.464 144.853 881.291 146.08C880.171 147.253 878.864 147.84 877.371 147.84C875.931 147.84 874.651 147.253 873.531 146.08C872.411 144.8 871.851 143.413 871.851 141.92C871.851 140.267 872.411 138.88 873.531 137.76C874.651 136.533 875.931 135.92 877.371 135.92C878.864 135.92 880.171 136.533 881.291 137.76C882.464 138.933 883.051 140.32 883.051 141.92Z" fill="black"/>
<circle cx="1119.5" cy="125.422" r="116" fill="white" stroke="black" stroke-width="3"/>
<line x1="1104.84" y1="102.518" x2="1136.24" y2="104.421" stroke="black" stroke-width="3"/>
<path d="M1117.07 107.972C1118.42 106.663 1120.57 106.663 1121.93 107.972L1134.68 120.283C1136.95 122.47 1135.4 126.301 1132.25 126.301H1106.75C1103.6 126.301 1102.05 122.47 1104.32 120.283L1117.07 107.972Z" fill="#54DD13" stroke="black" stroke-width="3"/>
<path d="M1070.46 87.1245C1069.85 87.1851 1069.29 87.5199 1068.69 87.6217C1067.49 87.825 1066.33 88.1633 1065.11 88.3589C1062.36 88.7999 1059.68 89.8645 1056.91 90.2448C1055.11 90.4923 1053.41 91.2475 1051.63 91.5649C1050.61 91.7477 1049.58 91.8623 1048.67 92.405C1047.57 93.0534 1046.11 93.9519 1045.31 94.9337C1044.45 95.9896 1043.13 97.2199 1042.69 98.5426C1042.52 99.0734 1042.1 99.3689 1041.84 99.8542C1041.53 100.431 1041.34 101.457 1041.3 102.091C1041.16 103.899 1041.16 105.403 1041.57 107.183C1041.66 107.581 1041.52 107.941 1041.76 108.298C1042.1 108.824 1042.43 109.358 1042.77 109.884C1043.57 111.114 1045.17 111.434 1046.39 112.044C1047.49 112.595 1048.71 113.249 1049.94 113.475C1051.86 113.832 1053.6 114.931 1055.52 115.241C1056.16 115.344 1056.74 115.665 1057.38 115.79C1058.26 115.963 1059.02 116.447 1059.88 116.604C1060.32 116.684 1060.77 116.836 1061.2 116.973C1061.78 117.157 1062.39 116.988 1062.98 117.067C1064.28 117.24 1065.56 117.213 1066.87 117.213C1069.17 117.213 1071.17 117.663 1073.39 118.156C1074 118.292 1074.4 118.447 1075.09 118.447C1075.68 118.447 1076.28 118.447 1076.88 118.447C1078.42 118.447 1079.71 117.989 1081.18 117.607C1083.18 117.089 1085.1 116.464 1087.13 116.047C1088.76 115.712 1090.19 115.101 1091.75 114.59C1093.35 114.066 1094.76 113.226 1096.07 112.155C1097.42 111.054 1099.02 110.275 1100.22 108.966C1101.27 107.823 1101.95 105.873 1102.39 104.397C1102.65 103.539 1102.84 102.579 1102.67 101.68C1102.46 100.528 1102.34 99.3035 1101.75 98.2683C1101 96.9781 1100.23 95.7592 1098.92 94.9766C1097.83 94.3268 1096.68 93.7621 1095.58 93.125C1093.6 91.9795 1091.62 91.0984 1089.39 90.5277C1087.46 90.0309 1085.65 89.2375 1083.73 88.7361C1082.22 88.3424 1080.95 87.7417 1079.36 87.7417C1078.61 87.7417 1077.89 87.5874 1077.14 87.5874C1076.47 87.5874 1075.79 87.6646 1075.16 87.4331C1074.21 87.0891 1072.93 86.9702 1071.91 86.9702C1070.71 86.9702 1069.53 86.6616 1068.3 86.6616" stroke="black" stroke-width="3" stroke-linecap="round"/>
<path d="M1103.63 102.4C1105.42 102.4 1107.17 102.686 1108.95 102.708C1110.74 102.731 1112.45 102.4 1114.23 102.4C1115.79 102.4 1117.64 102.137 1119.18 102.468C1120.93 102.845 1122.66 103.432 1124.4 103.857C1125.84 104.207 1127.29 104.416 1128.71 104.783C1130.02 105.122 1131.29 104.869 1132.61 104.869C1134 104.869 1135.27 104.714 1136.65 104.714" stroke="black" stroke-width="3" stroke-linecap="round"/>
<path d="M1145.45 93.9137C1144.3 93.9137 1143.61 94.8675 1143.05 95.8424C1142.46 96.8965 1141.52 98.0018 1140.7 98.8855C1139.33 100.362 1138.86 101.848 1138.81 103.823C1138.79 104.828 1138.64 105.631 1139.27 106.54C1139.84 107.344 1140.66 107.906 1141.25 108.641C1142.29 109.952 1144.09 111.046 1145.69 111.581C1147 112.015 1148.22 112.626 1149.53 113.047C1150.27 113.285 1151.03 113.432 1151.77 113.664C1153.11 114.08 1154.51 114.159 1155.85 114.504C1157.44 114.911 1158.91 115.619 1160.55 115.824C1162.14 116.022 1163.74 116.112 1165.32 116.407C1166.96 116.716 1168.62 116.444 1170.27 116.673C1172.79 117.022 1175.06 116.287 1177.53 116.287C1178.71 116.287 1179.7 116.096 1180.85 115.824C1182.09 115.53 1183.34 115.252 1184.59 114.958C1186.85 114.424 1188.92 113.49 1191.12 112.772C1193.35 112.044 1195.31 111.134 1197.32 109.892C1198.1 109.417 1198.71 108.716 1199.45 108.186C1200.29 107.581 1200.91 106.979 1201.37 106.035C1201.62 105.518 1202.05 104.794 1202.19 104.252C1202.32 103.785 1202.19 103.257 1202.24 102.777C1202.35 101.618 1202.38 100.486 1202.38 99.3141C1202.38 98.0504 1201.76 97.2077 1200.92 96.3139C1200.03 95.3753 1198.69 94.2608 1197.44 93.8794C1194.6 93.0108 1191.68 92.2018 1188.88 91.1448C1186.62 90.2923 1184.45 89.1328 1182.05 88.7361C1181.17 88.5902 1180.44 88.2485 1179.6 88.0503C1178.14 87.7075 1176.74 87.5874 1175.24 87.5874C1172.55 87.5874 1169.86 87.5874 1167.17 87.5874C1165.88 87.5874 1164.7 87.8275 1163.43 87.9817C1162.05 88.1497 1160.61 88.0503 1159.22 88.0503C1158.21 88.0503 1157.2 88.0503 1156.2 88.0503C1155.52 88.0503 1155 88.3123 1154.36 88.3589C1152.61 88.4861 1151.22 89.3688 1149.8 90.3305C1148.96 90.9016 1148.04 91.2912 1147.23 91.9078C1146.28 92.6272 1145.31 93.3244 1144.33 93.9994C1143.97 94.2522 1143.83 94.6923 1143.43 94.9166C1143.07 95.1181 1142.69 95.4044 1142.51 95.7652" stroke="black" stroke-width="3" stroke-linecap="round"/>
<path d="M1067.37 97.6391C1066.96 97.6391 1066.78 97.5982 1066.55 97.9815C1066.2 98.5714 1065.9 99.196 1065.54 99.7792C1065.04 100.592 1065.01 101.811 1065.25 102.69C1065.46 103.455 1065.78 104.18 1065.95 104.958C1066.11 105.755 1066.96 106.261 1067.52 106.745C1068.36 107.456 1069.74 108.119 1070.86 108.136C1071.86 108.152 1073 108.291 1073.96 107.992C1074.92 107.694 1075.89 107.399 1076.73 106.863C1078.55 105.711 1079.41 103.927 1079.79 101.877C1079.95 101.044 1079.81 100.392 1079.48 99.6187C1079.21 98.971 1079.04 97.9367 1078.58 97.3984C1077.8 96.4789 1076.99 96.0979 1075.84 95.8628C1074.55 95.5986 1073.42 95.1676 1072.07 95.3813C1071.48 95.4753 1070.93 95.6206 1070.36 95.8093C1069.97 95.9401 1069.68 96.3016 1069.3 96.4835C1068.39 96.9138 1067.67 97.5079 1067.19 98.4149C1066.75 99.2384 1066.66 101.087 1067.01 101.951C1067.3 102.677 1067.93 103.373 1068.74 103.412C1070 103.472 1071.27 103.116 1072.46 102.743C1073.7 102.354 1075.06 101.859 1075.71 100.625C1076.31 99.473 1076.45 97.8516 1075.33 96.9543C1074.2 96.0452 1072.29 96.2232 1071.27 97.195C1069.62 98.7739 1067.35 102.984 1069.94 104.798C1072.14 106.343 1076.38 105.041 1076.97 102.305C1077.23 101.112 1076.08 100.295 1075.04 100.25C1072.62 100.145 1070.56 100.986 1069.09 103C1068.53 103.775 1068.39 104.718 1069.01 105.493C1069.87 106.582 1071.05 105.852 1071.94 105.263C1073.45 104.259 1075.17 103.004 1075.72 101.176C1075.92 100.496 1076.3 99.5224 1075.33 99.3405C1073.62 99.0194 1071.61 100.026 1070.29 101.01C1069.82 101.363 1068.02 102.893 1068.79 103.658C1069.66 104.53 1071.75 103.596 1072.64 103.294C1073.62 102.962 1074.84 102.628 1075.65 101.941C1076.07 101.589 1076.08 100.964 1076.11 100.464C1076.15 99.8629 1076.36 98.5317 1075.53 98.3346C1075.34 98.2872 1075.11 98.4096 1075.02 98.4096C1074.9 98.4096 1074.55 98.3132 1074.58 98.3132C1075.89 98.3132 1077.2 98.9131 1078.51 99.0623C1079.02 99.1201 1079.31 99.6686 1079.31 100.191C1079.31 100.965 1077.76 99.7203 1077.73 99.6936C1077.13 99.262 1076.57 98.7334 1075.86 98.4845C1075.42 98.3322 1074.97 98.2864 1074.52 98.1955C1073.85 98.0613 1073.27 97.7586 1072.62 97.5696C1072.4 97.5033 1071.9 97.4418 1071.9 97.7354" stroke="black" stroke-width="3" stroke-linecap="round"/>
<path d="M1166.96 97.7675C1166.55 97.7675 1166.37 97.7266 1166.14 98.1099C1165.79 98.6998 1165.49 99.3244 1165.13 99.9076C1164.62 100.721 1164.6 101.94 1164.84 102.818C1165.05 103.583 1165.37 104.308 1165.54 105.087C1165.7 105.883 1166.55 106.389 1167.11 106.874C1167.95 107.585 1169.33 108.247 1170.45 108.265C1171.45 108.281 1172.59 108.419 1173.55 108.12C1174.51 107.823 1175.47 107.528 1176.32 106.991C1178.14 105.84 1179 104.055 1179.38 102.005C1179.54 101.172 1179.4 100.52 1179.07 99.7471C1178.8 99.0994 1178.63 98.0651 1178.17 97.5268C1177.38 96.6073 1176.58 96.2263 1175.43 95.9912C1174.14 95.727 1173.01 95.296 1171.66 95.5097C1171.07 95.6038 1170.52 95.749 1169.95 95.9377C1169.56 96.0685 1169.27 96.4301 1168.89 96.6119C1167.98 97.0423 1167.26 97.6364 1166.78 98.5433C1166.34 99.3669 1166.25 101.215 1166.6 102.08C1166.89 102.806 1167.52 103.501 1168.33 103.54C1169.59 103.6 1170.86 103.245 1172.05 102.872C1173.29 102.482 1174.65 101.987 1175.29 100.753C1175.9 99.6014 1176.03 97.98 1174.92 97.0827C1173.79 96.1736 1171.88 96.3517 1170.86 97.3235C1169.21 98.9023 1166.94 103.113 1169.53 104.926C1171.73 106.471 1175.97 105.17 1176.56 102.433C1176.82 101.24 1175.67 100.424 1174.63 100.378C1172.21 100.273 1170.15 101.115 1168.68 103.129C1168.12 103.904 1167.98 104.847 1168.6 105.622C1169.46 106.71 1170.64 105.98 1171.53 105.392C1173.04 104.387 1174.76 103.133 1175.31 101.304C1175.51 100.624 1175.89 99.6508 1174.92 99.4689C1173.21 99.1478 1171.2 100.155 1169.88 101.138C1169.41 101.491 1167.61 103.021 1168.38 103.787C1169.25 104.659 1171.34 103.725 1172.23 103.423C1173.21 103.09 1174.43 102.757 1175.24 102.069C1175.65 101.718 1175.67 101.092 1175.7 100.592C1175.74 99.9913 1175.95 98.6602 1175.12 98.4631C1174.93 98.4156 1174.7 98.538 1174.6 98.538C1174.49 98.538 1174.14 98.4417 1174.17 98.4417C1175.48 98.4417 1176.79 99.0415 1178.1 99.1907C1178.6 99.2485 1178.9 99.797 1178.9 100.32C1178.9 101.093 1177.35 99.8487 1177.32 99.822C1176.72 99.3904 1176.15 98.8618 1175.44 98.6129C1175.01 98.4606 1174.56 98.4148 1174.11 98.324C1173.44 98.1897 1172.86 97.887 1172.21 97.698C1171.99 97.6317 1171.49 97.5702 1171.49 97.8638" stroke="black" stroke-width="3" stroke-linecap="round"/>
<path d="M1069.86 18.1344C1068.97 18.0448 1068.52 16.4829 1068.23 15.7868C1067.73 14.6049 1067.18 13.4245 1066.71 12.2358C1066.1 10.7301 1065.78 8.78876 1065.78 7.16582C1065.78 6.60918 1065.42 6.24278 1065.42 5.66653C1065.42 5.14703 1065.42 4.62754 1065.42 4.10805C1065.42 3.08492 1065.47 2.37645 1065.78 1.44482" stroke="#49CC47" stroke-width="3" stroke-linecap="round"/>
<path d="M1172.84 20.2649C1173.59 20.0147 1174.23 19.3696 1174.89 18.953C1176.33 18.0465 1177.88 17.4038 1179.26 16.3884C1180.57 15.4248 1182.03 14.3385 1183.22 13.232C1184.26 12.261 1184.99 11.0372 1185.7 9.82902C1186.34 8.74473 1187.31 7.80211 1187.89 6.69233C1188.67 5.21725 1189.52 3.7794 1190.33 2.3424C1190.75 1.59008 1191.04 0.693013 1191.48 0.0244141" stroke="#49CC47" stroke-width="3" stroke-linecap="round"/>
<path d="M1071.03 13.3451C1071.07 12.8507 1071.67 12.5144 1072.08 12.3566C1072.44 12.2189 1072.74 12.0059 1073.07 11.8122C1073.51 11.553 1073.98 11.4825 1074.47 11.3774C1074.9 11.2869 1075.31 11.1429 1075.74 11.0645C1076.22 10.9754 1076.73 10.9442 1077.17 10.7235C1077.64 10.4865 1077.06 10.7657 1076.92 10.8236C1076.37 11.0464 1075.86 11.1596 1075.38 11.4994C1074.82 11.8879 1074.16 12.1214 1073.58 12.4567C1073.09 12.7364 1072.7 13.0705 1072.17 13.1824C1071.72 13.2761 1071.27 13.3857 1070.83 13.5015C1070.6 13.5612 1071.01 13.5673 1071.05 13.561C1071.36 13.5167 1071.66 13.4003 1071.96 13.3076C1072.76 13.0599 1073.56 12.8363 1074.36 12.6256C1075.05 12.4449 1075.73 12.3303 1076.44 12.2377C1077.55 12.0916 1078.65 11.8242 1079.74 11.5557C1081.62 11.0928 1083.52 10.6721 1085.38 10.1166C1085.8 9.98945 1086.15 9.81905 1086.55 9.6286C1086.87 9.46981 1087.26 9.4512 1087.59 9.28761C1087.92 9.12208 1088.29 9.0888 1088.64 8.98416C1089.17 8.82525 1089.69 8.66368 1090.24 8.52742C1091 8.33661 1091.76 8.11754 1092.51 7.908C1092.78 7.8337 1093.06 7.80993 1093.33 7.73281C1093.62 7.64808 1093.89 7.49349 1094.18 7.41997C1095.45 7.10948 1096.76 7.15962 1098.01 6.78178C1098.56 6.61628 1099.12 6.56309 1099.69 6.50648C1100.4 6.43474 1101.06 6.28439 1101.76 6.1342C1102.46 5.98448 1103.18 5.85516 1103.83 5.55545C1104.19 5.39364 1104.59 5.41172 1104.97 5.40216C1105.91 5.37846 1106.79 5.18004 1107.71 5.06743C1108.36 4.98851 1109 5.14304 1109.63 5.26452C1110.26 5.38612 1110.88 5.47387 1111.52 5.51791" stroke="#49CC47" stroke-width="9" stroke-linecap="round"/>
<path d="M1116.19 5.29295C1116.35 5.1367 1116.5 5.0205 1116.72 4.95822C1117.49 4.73815 1118.23 4.3862 1119.02 4.25433C1120.31 4.04053 1121.56 3.9978 1122.85 3.9978C1124.31 3.9978 1125.78 3.98077 1127.25 3.9978C1127.94 4.00589 1128.63 4.13336 1129.32 4.19176C1129.92 4.24233 1130.53 4.18669 1131.12 4.25746C1131.8 4.33761 1132.45 4.54916 1133.12 4.68605C1133.87 4.84025 1134.62 5.00664 1135.37 5.14905C1136.9 5.43795 1138.48 5.46655 1140.01 5.73093C1140.68 5.84611 1141.33 5.90815 1141.99 6.08443C1142.85 6.31426 1143.72 6.57658 1144.59 6.75703C1146.3 7.11279 1148.07 7.32368 1149.75 7.82694" stroke="#49CC47" stroke-width="9" stroke-linecap="round"/>
<path d="M1151.16 8.89671C1151.62 8.99142 1152.05 9.14717 1152.52 9.23458C1153.47 9.41537 1154.43 9.54572 1155.38 9.73512C1156.46 9.94983 1157.52 10.2453 1158.6 10.4609C1158.9 10.5206 1159.21 10.558 1159.5 10.6549C1160.74 11.0668 1162.11 11.2878 1163.4 11.512C1165.17 11.8216 1166.99 12.3655 1168.6 13.1701C1169.1 13.4189 1169.55 13.7321 1170.04 13.9866C1170.24 14.0893 1170.35 14.2942 1170.53 14.4027C1170.97 14.6734 1171.47 14.8951 1171.86 15.2661C1172.15 15.5473 1171.71 15.3952 1171.54 15.3349C1170.56 15.0035 1169.59 14.3342 1168.56 14.1962C1167.75 14.0882 1166.91 14.2389 1166.09 14.1461C1165.41 14.0695 1164.85 13.8677 1164.3 13.5111C1164.25 13.4815 1163.63 13.0137 1163.85 13.0137C1164.23 13.0137 1164.64 13.1178 1165 13.2264C1165.93 13.504 1166.85 13.7996 1167.78 14.0773C1168.95 14.4298 1170.26 14.5876 1171.3 15.2849C1171.5 15.4157 1171.67 15.6363 1171.79 15.8355C1171.94 16.0836 1172.05 16.4016 1172.31 16.1264C1172.64 15.763 1173 15.4668 1173.29 15.0627C1173.73 14.4348 1174.29 13.9141 1174.87 13.411C1175.46 12.9018 1176.11 12.4719 1176.69 11.95C1177.08 11.5919 1177.42 11.1781 1177.85 10.8488C1178.53 10.3147 1178.95 9.60623 1179.58 9.01559C1180.27 8.36768 1180.78 7.57723 1181.38 6.85701C1181.67 6.51734 1181.85 6.09428 1182.16 5.78085C1182.4 5.54579 1182.66 5.34224 1182.88 5.0926C1183.11 4.83246 1183.3 4.5277 1183.58 4.31676C1183.94 4.05059 1184.34 3.82632 1184.68 3.54718C1185.13 3.18191 1185.61 2.69526 1185.95 2.23014C1186.21 1.8909 1186.67 1.59447 1186.8 1.18213" stroke="#49CC47" stroke-width="9" stroke-linecap="round"/>
<path d="M1173.18 5.46183C1172.93 5.46183 1172.73 5.5558 1172.5 5.66517C1171.45 6.17101 1170.42 6.71048 1169.34 7.15115C1166.27 8.40361 1162.82 9.27971 1159.52 8.45569C1158.72 8.25527 1157.9 8.12195 1157.1 7.92699C1155.38 7.50998 1153.67 7.03859 1151.95 6.63184C1150.77 6.35342 1149.56 6.1809 1148.38 5.92483C1147.15 5.65912 1145.93 5.34504 1144.69 5.12396C1143.42 4.89769 1142.13 4.85687 1140.85 4.78297C1139.15 4.68512 1137.45 4.59713 1135.75 4.43572C1134.23 4.29014 1132.78 3.86177 1131.38 3.22504C1131.04 3.06894 1130.7 2.91363 1130.38 2.71511C1130.03 2.49894 1129.49 2.46315 1129.1 2.3397C1129.02 2.31269 1128.1 1.98271 1128.24 1.97368C1129 1.92464 1129.78 1.97056 1130.54 1.97056C1134.6 1.97056 1138.65 1.97056 1142.71 1.97056C1145.92 1.97056 1149.13 2.05098 1152.33 1.77034C1154.31 1.59769 1156.25 1.46376 1158.23 1.46376C1160.53 1.46376 1162.84 1.37914 1165.15 1.4356C1167.08 1.483 1169.01 1.46376 1170.95 1.46376C1171.81 1.46376 1172.7 1.52848 1173.56 1.42622C1173.94 1.38134 1174.31 1.25001 1174.68 1.16969C1175.84 0.916999 1177.04 0.865393 1178.23 0.763001C1179.35 0.665491 1180.48 0.75888 1181.57 1.06958" stroke="#49CC47" stroke-width="9" stroke-linecap="round"/>
<path d="M1125.48 0.112659C1125.31 -0.00531047 1125.09 3.69469e-05 1124.89 3.69469e-05C1123.14 3.69469e-05 1121.45 0.579979 1119.72 0.829057C1117.72 1.11898 1115.65 1.17822 1113.62 1.18256C1110.19 1.18993 1106.78 1.14536 1103.36 0.938551C1101.93 0.852689 1100.51 0.821132 1099.08 0.800902C1097.92 0.784412 1096.73 0.718564 1095.57 0.832186C1094.69 0.918086 1093.85 1.22376 1093 1.42658C1092.11 1.63764 1091.22 1.85437 1090.32 2.0241C1089.39 2.20063 1088.47 2.43359 1087.52 2.49648C1086.24 2.58127 1084.95 2.53402 1083.66 2.53402C1081.79 2.53402 1079.88 2.56565 1078 2.41202C1076.57 2.29399 1075.16 2.13985 1073.71 2.13985C1073.17 2.13985 1072.62 2.13985 1072.08 2.13985C1071.51 2.13985 1070.95 2.02723 1070.38 2.02723C1070.04 2.02723 1069.73 1.85829 1069.38 1.85829C1069.12 1.85829 1068.87 1.85829 1068.61 1.85829" stroke="#49CC47" stroke-width="9" stroke-linecap="round"/>
<path d="M1082.68 5.74365C1082.68 6.02241 1081.34 6.14101 1081.16 6.17537C1079.64 6.47886 1077.98 6.81356 1076.42 6.81356C1075.9 6.81356 1075.34 7.05348 1074.83 7.13891C1074.38 7.21378 1073.84 7.25703 1073.42 7.42985C1072.94 7.63228 1072.36 7.56427 1071.85 7.6895C1071.32 7.8196 1070.79 7.88346 1070.24 7.88346" stroke="#49CC47" stroke-width="9" stroke-linecap="round"/>
</g>
<defs>
<clipPath id="clip0_64_3">
<rect width="1440" height="170" fill="white"/>
</clipPath>
</defs>
</svg>
