<svg width="53" height="52" viewBox="0 0 53 52" fill="none" xmlns="http://www.w3.org/2000/svg">
<g clip-path="url(#clip0_24_84)">
<path d="M28.1728 29.2337L49.5484 8.30374L44.5796 3.42874L23.2041 24.3587L28.1728 29.2337ZM42.9565 0.617487C43.8111 -0.156013 45.1328 -0.227513 45.9709 0.617487L52.3574 6.88674C52.5554 7.08055 52.7125 7.31078 52.8197 7.56425C52.9269 7.81772 52.982 8.08944 52.982 8.36386C52.982 8.63828 52.9269 8.91 52.8197 9.16347C52.7125 9.41694 52.5554 9.64717 52.3574 9.84099L29.8986 31.889C29.7004 32.0837 29.4649 32.2379 29.2057 32.3427C28.9464 32.4476 28.6685 32.5011 28.3881 32.5H22.0049C21.44 32.5 20.8983 32.2798 20.4988 31.8879C20.0994 31.496 19.875 30.9645 19.875 30.4102V24.1475C19.875 23.595 20.0969 23.0587 20.4977 22.6687L42.9565 0.617487ZM14.9062 42.25C14.467 42.25 14.0457 42.0788 13.7351 41.774C13.4245 41.4693 13.25 41.056 13.25 40.625C13.25 40.194 13.4245 39.7807 13.7351 39.4759C14.0457 39.1712 14.467 39 14.9062 39H38.0937C38.533 39 38.9543 39.1712 39.2649 39.4759C39.5755 39.7807 39.75 40.194 39.75 40.625C39.75 41.056 39.5755 41.4693 39.2649 41.774C38.9543 42.0788 38.533 42.25 38.0937 42.25H14.9062ZM28.1562 3.24999C28.5955 3.24999 29.0168 3.42119 29.3274 3.72594C29.638 4.03069 29.8125 4.44401 29.8125 4.87499C29.8125 5.30596 29.638 5.71929 29.3274 6.02404C29.0168 6.32878 28.5955 6.49999 28.1562 6.49999H6.625V48.75H46.375V24.375C46.375 23.944 46.5495 23.5307 46.8601 23.2259C47.1707 22.9212 47.592 22.75 48.0312 22.75C48.4705 22.75 48.8918 22.9212 49.2024 23.2259C49.513 23.5307 49.6875 23.944 49.6875 24.375V48.75C49.6875 49.6119 49.3385 50.4386 48.7173 51.0481C48.0961 51.6576 47.2535 52 46.375 52H6.625C5.74647 52 4.90392 51.6576 4.28271 51.0481C3.66149 50.4386 3.3125 49.6119 3.3125 48.75V6.49999C3.3125 5.63803 3.66149 4.81138 4.28271 4.20189C4.90392 3.5924 5.74647 3.24999 6.625 3.24999H28.1562Z" fill="#6C5454"/>
<path d="M15 28.5C14.1716 28.5 13.5 29.1716 13.5 30C13.5 30.8284 14.1716 31.5 15 31.5V28.5ZM19 31.5H20.5V28.5H19V31.5ZM15 31.5H19V28.5H15V31.5Z" fill="#6C5454"/>
<path d="M39 31.5C39.8284 31.5 40.5 30.8284 40.5 30C40.5 29.1716 39.8284 28.5 39 28.5V31.5ZM30 31.5L39 31.5V28.5L30 28.5V31.5Z" fill="#6C5454"/>
<path d="M15 17.5C14.1716 17.5 13.5 18.1716 13.5 19C13.5 19.8284 14.1716 20.5 15 20.5V17.5ZM15 20.5H26V17.5H15V20.5Z" fill="#6C5454"/>
</g>
<defs>
<clipPath id="clip0_24_84">
<rect width="53" height="52" fill="white"/>
</clipPath>
</defs>
</svg>
