<svg width="72" height="75" viewBox="0 0 72 75" fill="none" xmlns="http://www.w3.org/2000/svg">
<g clip-path="url(#clip0_24_116)">
<path fill-rule="evenodd" clip-rule="evenodd" d="M15.4287 19.5074H56.5715C58.3902 19.5074 60.1343 20.2548 61.4203 21.5851C62.7062 22.9154 63.4287 24.7197 63.4287 26.601V51.4286C63.4287 53.31 62.7062 55.1143 61.4203 56.4446C60.1343 57.7749 58.3902 58.5222 56.5715 58.5222H15.4287C13.61 58.5222 11.8659 57.7749 10.5799 56.4446C9.29398 55.1143 8.57153 53.31 8.57153 51.4286V26.601C8.57153 24.7197 9.29398 22.9154 10.5799 21.5851C11.8659 20.2548 13.61 19.5074 15.4287 19.5074Z" stroke="#6C5454" stroke-width="3" stroke-linecap="round" stroke-linejoin="round"/>
<path fill-rule="evenodd" clip-rule="evenodd" d="M8.6897 29.7932H63.3104V36.0001H8.6897V29.7932Z" fill="#6C5454"/>
<rect x="52.1379" y="17.3793" width="4.96552" height="3.72414" fill="white"/>
<path d="M54.6799 18.0886L60.8277 12.4138L66.9755 18.0886M54.6799 12.4138L60.8277 6.73889L66.9755 12.4138" stroke="#6C5454" stroke-width="3" stroke-linecap="round" stroke-linejoin="round"/>
<rect x="4.96533" y="44.6897" width="17.3793" height="17.3793" fill="white"/>
<path d="M11.7931 64.0789C17.2779 64.0789 21.7241 59.8443 21.7241 54.6207C21.7241 49.3971 17.2779 45.1626 11.7931 45.1626C6.30834 45.1626 1.86206 49.3971 1.86206 54.6207C1.86206 59.8443 6.30834 64.0789 11.7931 64.0789Z" stroke="#6C5454" stroke-width="3" stroke-linecap="round" stroke-linejoin="round"/>
<path d="M8.68962 52.8473C9.37522 52.8473 9.931 52.318 9.931 51.6651C9.931 51.0121 9.37522 50.4828 8.68962 50.4828C8.00403 50.4828 7.44824 51.0121 7.44824 51.6651C7.44824 52.318 8.00403 52.8473 8.68962 52.8473Z" fill="#6C5454"/>
<path d="M14.8967 52.8473C15.5822 52.8473 16.138 52.318 16.138 51.6651C16.138 51.0121 15.5822 50.4828 14.8967 50.4828C14.2111 50.4828 13.6553 51.0121 13.6553 51.6651C13.6553 52.318 14.2111 52.8473 14.8967 52.8473Z" fill="#6C5454"/>
<path fill-rule="evenodd" clip-rule="evenodd" d="M6.82764 56.9852C7.6544 59.3498 9.3104 60.532 11.7932 60.532C14.2759 60.532 15.9319 59.3498 16.7587 56.9852H6.82764Z" stroke="#6C5454" stroke-width="3" stroke-linecap="round" stroke-linejoin="round"/>
</g>
<defs>
<clipPath id="clip0_24_116">
<rect width="72" height="74.4828" fill="white"/>
</clipPath>
</defs>
</svg>
