<svg width="70" height="56" viewBox="0 0 70 56" fill="none" xmlns="http://www.w3.org/2000/svg">
<g clip-path="url(#clip0_24_55)">
<path d="M47.5781 5.63892H41.4105V8.86114H46.697V46.7223H9.69179V8.86114H14.9782V5.63892H8.81071C8.10993 5.63966 7.43809 5.89451 6.94257 6.34757C6.44704 6.80062 6.1683 7.41487 6.16748 8.05558V47.5278C6.1683 48.1685 6.44704 48.7828 6.94257 49.2358C7.43809 49.6889 8.10993 49.9437 8.81071 49.9445H47.5781C48.2789 49.9437 48.9507 49.6889 49.4462 49.2358C49.9417 48.7828 50.2205 48.1685 50.2213 47.5278V8.05558C50.2205 7.41487 49.9417 6.80062 49.4462 6.34757C48.9507 5.89451 48.2789 5.63966 47.5781 5.63892Z" fill="#6C5454"/>
<path d="M21.1459 14.0972H35.2431C35.9439 14.0964 36.6158 13.8416 37.1113 13.3885C37.6068 12.9355 37.8855 12.3212 37.8864 11.6805V1.61108H18.5027V11.6805C18.5035 12.3212 18.7822 12.9355 19.2778 13.3885C19.7733 13.8416 20.4451 14.0964 21.1459 14.0972ZM22.027 4.83331H34.3621V10.875H22.027V4.83331Z" fill="#6C5454"/>
<line x1="15.5557" y1="18.9445" x2="40.8334" y2="18.9445" stroke="#6C5454" stroke-width="3"/>
<line x1="15.5557" y1="25.1666" x2="40.8334" y2="25.1666" stroke="#6C5454" stroke-width="3"/>
<line x1="15.5557" y1="31.3889" x2="40.8334" y2="31.3889" stroke="#6C5454" stroke-width="3"/>
<line x1="15.5557" y1="37.6111" x2="40.8334" y2="37.6111" stroke="#6C5454" stroke-width="3"/>
<rect x="43" y="38" width="21" height="24" fill="#FFFDFD"/>
</g>
<g clip-path="url(#clip1_24_55)">
<path d="M67.7212 36.1389H43.1118C42.7493 36.1393 42.4018 36.2535 42.1455 36.4566C41.8892 36.6597 41.7451 36.935 41.7446 37.2222V51.6667C41.7451 51.9539 41.8892 52.2293 42.1455 52.4324C42.4018 52.6354 42.7493 52.7497 43.1118 52.75H67.7212C68.0837 52.7497 68.4312 52.6354 68.6875 52.4324C68.9438 52.2293 69.088 51.9539 69.0884 51.6667V37.2222C69.088 36.935 68.9438 36.6597 68.6875 36.4566C68.4312 36.2535 68.0837 36.1393 67.7212 36.1389ZM67.2655 37.5834V40.4722H43.5675V37.5834H67.2655ZM43.5675 51.3056V43.3611H67.2655V51.3056H43.5675Z" fill="#6C5454"/>
<path d="M45.8462 46.9723H49.492V48.4167H45.8462V46.9723ZM51.3149 46.9723H54.9608V48.4167H51.3149V46.9723Z" fill="#6C5454"/>
</g>
<defs>
<clipPath id="clip0_24_55">
<rect width="56.3889" height="51.5556" fill="white"/>
</clipPath>
<clipPath id="clip1_24_55">
<rect width="29.1667" height="23.1111" fill="white" transform="translate(40.8333 32.8889)"/>
</clipPath>
</defs>
</svg>
