<svg width="51" height="60" viewBox="0 0 51 60" fill="none" xmlns="http://www.w3.org/2000/svg">
<path d="M17.752 45.928C16.1733 45.928 14.552 45.736 12.888 45.352C11.2667 44.968 9.64533 44.4347 8.024 43.752C7.59733 43.5387 7.29867 43.2613 7.128 42.92C6.95733 42.6213 6.872 42.3227 6.872 42.024C6.872 41.768 6.91467 41.512 7 41.256C7.256 40.5307 7.81067 40.168 8.664 40.168C8.96267 40.168 9.26133 40.232 9.56 40.36C10.9253 40.9147 12.2907 41.3413 13.656 41.64C15.0213 41.9813 16.3653 42.152 17.688 42.152C21.1013 42.152 24.2373 41.192 27.096 39.272C30.04 37.352 32.2373 34.8987 33.688 31.912C35.1387 28.9253 35.864 25.6827 35.864 22.184C35.864 19.4533 35.4587 16.7867 34.648 14.184C34.0933 12.3067 33.368 10.6 32.472 9.064C31.6187 7.528 30.808 6.248 30.04 5.224C29.272 4.15733 28.7387 3.45333 28.44 3.112C26.776 3.112 24.8773 3.15467 22.744 3.24C20.6107 3.28266 18.4133 3.368 16.152 3.496C13.8907 3.58133 11.672 3.688 9.496 3.816C7.36267 3.944 5.42133 4.072 3.672 4.2C2.98933 4.24267 2.456 4.072 2.072 3.688C1.73067 3.26133 1.56 2.856 1.56 2.472C1.51733 2.00266 1.64533 1.55466 1.944 1.128C2.24267 0.701332 2.69067 0.466666 3.288 0.424C8.23733 0.0826658 12.7387 -0.173335 16.792 -0.344002C20.8453 -0.557335 24.8133 -0.664001 28.696 -0.664001C31.768 -0.664001 34.8827 -0.600001 38.04 -0.472C41.1973 -0.344002 44.5467 -0.109336 48.088 0.231998C48.8133 0.359999 49.2827 0.637333 49.496 1.064C49.752 1.448 49.8373 1.87467 49.752 2.344C49.624 3.624 48.9413 4.2 47.704 4.072C46.68 3.98666 45.4853 3.90133 44.12 3.816C42.7547 3.73067 41.368 3.64533 39.96 3.56C38.552 3.432 37.2507 3.34667 36.056 3.304C34.8613 3.21866 33.944 3.176 33.304 3.176C36.12 7.05867 38.0187 11.048 39 15.144C39.512 17.448 39.768 19.7307 39.768 21.992C39.768 26.3867 38.808 30.4187 36.888 34.088C34.968 37.7573 32.1733 40.7227 28.504 42.984C25.1333 44.9467 21.5493 45.928 17.752 45.928Z" fill="black"/>
<path d="M25.512 56.0928C22.5253 55.1542 19.9867 53.7248 17.896 51.8048C15.8053 49.9275 14.2267 47.7515 13.16 45.2768C12.0933 42.7595 11.56 40.1142 11.56 37.3408C11.56 34.3115 12.1787 31.3248 13.416 28.3808C14.696 25.4368 16.488 23.0475 18.792 21.2128C20.6267 19.6768 22.8667 18.5248 25.512 17.7568C28.1573 16.9462 30.8453 16.5408 33.576 16.5408C36.2213 16.5408 38.76 16.9035 41.192 17.6288C43.624 18.3542 45.672 19.4635 47.336 20.9568C47.8053 21.4262 48.04 21.9168 48.04 22.4288C48.04 22.8128 47.848 23.2395 47.464 23.7088C47.0373 24.1355 46.568 24.3488 46.056 24.3488C45.544 24.3488 45.096 24.1568 44.712 23.7728C43.6027 22.6635 41.96 21.8315 39.784 21.2768C37.608 20.6795 35.3893 20.3808 33.128 20.3808C31.5493 20.3808 30.0133 20.5302 28.52 20.8288C27.0693 21.0848 25.8107 21.4902 24.744 22.0448C21.7573 23.4955 19.4533 25.6288 17.832 28.4448C16.2533 31.2182 15.464 34.1835 15.464 37.3408C15.464 40.5835 16.3813 43.5702 18.216 46.3008C20.0933 48.9888 22.7173 50.9302 26.088 52.1248C28.264 52.8928 30.4827 53.2768 32.744 53.2768C35.0053 53.2768 37.2027 52.8928 39.336 52.1248C41.512 51.3995 43.3893 50.3542 44.968 48.9888C45.4373 48.6475 45.8853 48.4768 46.312 48.4768C46.8667 48.4768 47.3573 48.6902 47.784 49.1168C48.1253 49.5862 48.296 50.0342 48.296 50.4608C48.296 50.9728 48.0613 51.4208 47.592 51.8048C45.544 53.5968 43.24 54.9408 40.68 55.8368C38.12 56.7328 35.496 57.1808 32.808 57.1808C30.376 57.1808 27.944 56.8182 25.512 56.0928Z" fill="black"/>
</svg>
